<?xml version="1.0" encoding="UTF-8" standalone="no"?>
<!DOCTYPE svg  PUBLIC '-//W3C//DTD SVG 1.1//EN'  'http://www.w3.org/Graphics/SVG/1.1/DTD/svg11.dtd'>
<svg xmlns="http://www.w3.org/2000/svg">
<defs>
<font id="WarnockPro-LightSubh" horiz-adv-x="474">
<font-face underline-position="-75" font-weight="300" descent="-200" panose-1="2 10 5 3 6 5 11 2 2 4" units-per-em="1000" unicode-range="U+0020-2215" bbox="-170 -257 1011 856" x-height="435" underline-thickness="50" font-family="Warnock Pro Light Subhead" ascent="800" cap-height="660"/>
<missing-glyph horiz-adv-x="1000"/>
<glyph glyph-name=".notdef" horiz-adv-x="1000"/>
<glyph glyph-name=".null" horiz-adv-x="0"/>
<glyph glyph-name="nonmarkingreturn" horiz-adv-x="333"/>
<glyph glyph-name="space" horiz-adv-x="212" unicode=" "/>
<glyph glyph-name="exclam" horiz-adv-x="205" unicode="!" d="M107 92l7 2q8 -4 22.5 -20t20.5 -29l-2 -8q-5 -11 -20 -26t-26 -22l-6 -2q-26 16 -43 48l2 9q21 31 45 48zM118 209l-21 -13q-16 284 -26 374l-17 41q59 30 86 38l8 -1q-1 -20 -5 -77.5t-11.5 -166t-13.5 -195.5z"/>
<glyph glyph-name="quotedbl" horiz-adv-x="277" unicode='&quot;' d="M220 523l-20 -15q-2 18 -8 76t-10 83l-16 24q12 5 66 26h12q-1 -7 -10 -86.5t-14 -107.5zM88 522l-20 -15q-2 15 -7.5 74t-10.5 85l-16 24q23 10 67 26h11q-1 -7 -10 -86.5t-14 -107.5z"/>
<glyph glyph-name="numbersign" d="M85 461l88 -1l42 180l36 5l-44 -185h120l42 180l36 5l-45 -185l92 1l-29 -51l-77 1l-36 -150l92 1l-28 -49l-77 1l-46 -199l-35 -5l47 204h-120l-46 -199l-35 -5l48 204l-103 -1l28 49l88 -1l36 150l-103 -1zM312 411h-120l-35 -150h120z" unicode="#"/>
<glyph glyph-name="dollar" d="M246 288v-243q51 2 88.5 34t37.5 87q0 47 -31 72.5t-95 49.5zM218 370v233q-56 -6 -84 -37.5t-28 -76.5q0 -48 27 -73t85 -46zM218 630v86l28 7v-93q32 -1 65 -13t50 -28q6 5 52 30l4 -4q-4 -55 -22 -128l-9 -5q-17 35 -32 84q-13 13 -43.5 24.5t-64.5 12.5v-242 q37 -12 58 -20t49.5 -23.5t43.5 -32t26.5 -43t11.5 -58.5q0 -47 -20.5 -81.5t-52.5 -52t-60.5 -25.5t-55.5 -10v-101l-28 -7v107q-99 5 -188 67q2 15 16.5 49t24.5 51l8 4q2 -9 4.5 -23.5t6.5 -41.5t8 -50q37 -24 120 -27v253q-39 13 -63.5 24.5t-52 31.5t-41 50t-13.5 69 q0 64 46.5 109t123.5 50z" unicode="$"/>
<glyph glyph-name="percent" horiz-adv-x="620" unicode="%" d="M456 299h-1q-40 0 -58.5 -44t-18.5 -104q0 -56 19.5 -100t59.5 -44q36 0 55 45t19 98q0 22 -2.5 44t-10 47.5t-23.5 41.5t-39 16zM455 321h1q60 0 93.5 -50t33.5 -114q0 -76 -37.5 -123t-92.5 -47q-53 0 -91 43t-38 120q0 79 40 125t91 46zM502 664l22 -24 q-76 -125 -215 -356.5t-195 -323.5l-21 25q68 113 204.5 339.5t204.5 339.5zM168 632h-1q-26 0 -44.5 -24t-25.5 -56t-7 -68q0 -59 18.5 -101.5t61.5 -42.5q36 0 54.5 44.5t18.5 98.5q0 22 -2.5 43.5t-9.5 47.5t-23 42t-40 16zM167 654h1q60 0 93.5 -50t33.5 -113 q0 -76 -37 -123.5t-92 -47.5q-52 0 -91 43t-39 119q0 79 41.5 125.5t89.5 46.5z"/>
<glyph glyph-name="ampersand" horiz-adv-x="713" unicode="&amp;" d="M234 378h2q118 76 118 155q0 40 -20.5 68.5t-59.5 28.5h-1q-39 0 -66.5 -33t-27.5 -82q0 -64 55 -137zM685 8l-3 -11q-22 -10 -65 -10q-37 0 -78.5 23.5t-104.5 76.5q-46 -53 -97 -76.5t-93 -23.5q-86 0 -146 49.5t-60 135.5q0 60 55 109q17 15 87 67q-55 72 -55 150 q0 62 44 108.5t105 46.5h1q64 0 100.5 -36t36.5 -89q0 -51 -53 -93q-33 -26 -109 -76q36 -43 107 -111.5t102 -93.5q38 54 63 113.5t30 90.5l-12 52l4 4q62 0 114 -30l-2 -6l-57 -35q-23 -49 -59 -111t-62 -94q131 -105 207 -130zM194 330h-2q-41 -32 -61.5 -64t-20.5 -77 q0 -69 48.5 -112t113.5 -43q78 0 144 67v2q-43 37 -115 108.5t-107 118.5z"/>
<glyph glyph-name="quotesingle" horiz-adv-x="145" unicode="&apos;" d="M87 522l-20 -15q-1 11 -7 71.5t-11 87.5l-16 24q31 13 67 26h11q-1 -5 -9.5 -85.5t-14.5 -108.5z"/>
<glyph glyph-name="parenleft" horiz-adv-x="314" unicode="(" d="M85 274v1q0 126 45 249.5t142 202.5l11 -14q-62 -67 -103 -176.5t-41 -262.5t41.5 -263t102.5 -178l-11 -15q-96 80 -141.5 205t-45.5 251z"/>
<glyph glyph-name="parenright" horiz-adv-x="315" unicode=")" d="M229 274v-1q0 -125 -45.5 -250t-141.5 -205l-11 14q61 69 102.5 179.5t41.5 262.5q0 153 -41 262.5t-103 176.5l11 14q97 -79 142 -202.5t45 -250.5z"/>
<glyph glyph-name="asterisk" horiz-adv-x="328" unicode="*" d="M156 496l7 3l5 -93l6 -21q-2 -1 -9 -1q-15 0 -33.5 5t-24.5 11l14 14zM174 545l-8 -2l-5 93l-4 17q6 2 14 2q43 0 50 -12l-12 -14zM178 520l2 10l75 49l13 13q8 -6 15.5 -25t7.5 -32q0 -5 -1 -7l-19 4zM146 519l-2 -10l-75 -48l-13 -15q-6 5 -13.5 24t-7.5 32q0 6 1 8 l17 -4zM155 538l-10 -4l-78 40l-19 3q2 11 17 31t24 21l9 -18zM173 506l6 3l78 -41l17 -3q-1 -12 -16 -30t-25 -20l-7 18z"/>
<glyph glyph-name="plus" horiz-adv-x="518" unicode="+" d="M282 22l-44 -12v205h-183l14 36h169v173l44 13v-186h182l-13 -36h-169v-193z"/>
<glyph glyph-name="comma" horiz-adv-x="195" unicode="," d="M46 -108l-14 14q56 54 56 116q0 19 -10 34l-34 18v8l67 42h10q7 -3 16 -24t9 -50q0 -89 -100 -158z"/>
<glyph glyph-name="hyphen" horiz-adv-x="327" unicode="-" d="M250 212l-209 -20l30 55l45 -1l170 8l1 -4z"/>
<glyph glyph-name="period" horiz-adv-x="195" unicode="." d="M97 92l5 2q9 -4 23.5 -20t20.5 -29l-2 -9q-5 -11 -20.5 -27t-25.5 -21l-6 -2q-28 18 -44 49l2 9q24 36 47 48z"/>
<glyph glyph-name="slash" horiz-adv-x="373" unicode="/" d="M83 -69h-35l251 746h35z"/>
<glyph glyph-name="zero" d="M238 631h-1q-36 0 -63.5 -30t-42 -78.5t-21.5 -99.5t-7 -103q0 -58 7.5 -111t23 -98.5t42.5 -73t62 -27.5q65 0 99.5 87t34.5 227q0 42 -5.5 88t-18.5 99t-41.5 86.5t-68.5 33.5zM242 654h1q86 0 144.5 -85.5t58.5 -242.5q0 -74 -12.5 -133t-33.5 -97t-48.5 -63 t-55.5 -35.5t-58 -10.5q-86 0 -147.5 78.5t-61.5 248.5q0 157 63 248.5t150 91.5z" unicode="0"/>
<glyph glyph-name="one" d="M214 582l-127 -4l6 10l68 24q68 25 106 42h7q0 -47 3 -326.5t3 -287.5l115 -31l-4 -11q-96 2 -147 2q-61 0 -159 -2l4 11l116 31q9 180 9 542z" unicode="1"/>
<glyph glyph-name="two" d="M32 9l37 36q8 5 14 12q109 100 183 206q67 98 67 193q0 73 -38.5 116t-102.5 43q-50 0 -83 -23q-2 -20 -12.5 -65t-16.5 -61l-8 -5q-14 24 -38 95q37 39 88.5 68.5t107.5 29.5q68 0 122 -46t55 -139q0 -64 -31 -119.5t-96 -127.5q-63 -70 -162 -167v-2q36 0 143 3t117 3 q34 45 56 66l11 2q-3 -16 -18 -67t-22 -65q-7 0 -77.5 2.5t-123.5 2.5h-172v9z" unicode="2"/>
<glyph glyph-name="three" d="M80 141l8 4q8 -17 21 -115q24 -12 76 -12q72 0 119 47t47 118q0 62 -35 98t-98 45q-70 -14 -94 -16l-3 4q4 9 17 22.5t23 19.5q23 0 56 -3q55 17 81 55t26 85q0 56 -33 91.5t-88 35.5q-56 0 -89 -28q-8 -80 -18 -105l-7 -4q-21 31 -44 83q92 88 185 88q85 0 125.5 -44.5 t40.5 -101.5q0 -61 -36.5 -96.5t-105.5 -65.5v-4q89 -10 132.5 -53t43.5 -108q0 -85 -69 -139t-157 -54q-59 0 -104 18.5t-64 37.5q15 52 44 97z" unicode="3"/>
<glyph glyph-name="four" d="M279 224l6 377h-2q-137 -215 -223 -372q55 -5 219 -5zM343 197l2 -156l92 -33l-5 -10q-15 0 -40.5 1t-46.5 1.5t-40 0.5q-17 0 -128 -3l5 11l92 32q0 14 2 65.5t2 88.5l-256 -2l-14 21q37 72 143.5 235t127.5 183q27 14 63 22l2 -430l68 -1q15 24 47 64h7 q0 -14 -10.5 -71t-14.5 -73l-7 -7q-18 38 -24 63z" unicode="4"/>
<glyph glyph-name="five" d="M74 303l-12 9q9 58 19 127.5t18 131t10 73.5q93 -5 216 -5q26 0 91 25l5 -8q-25 -37 -68 -66q-10 -6 -29 -7q-87 -3 -164 -3h-25q-24 -146 -41 -243l2 -1q75 42 145 42q53 0 91.5 -17t58 -44t28 -54.5t8.5 -56.5q0 -103 -73.5 -161t-164.5 -58q-44 0 -87 15t-60 29 q14 56 41 105l7 3q12 -32 28 -117q19 -7 55 -7q75 0 126 50.5t51 128.5q0 63 -36 106.5t-110 43.5q-62 0 -130 -41z" unicode="5"/>
<glyph glyph-name="six" d="M243 346h-1q-62 0 -120 -51q-15 -13 -15 -58q0 -38 7.5 -75.5t23.5 -72.5t45 -57t67 -22q61 0 92 52.5t31 120.5q0 77 -37.5 120t-92.5 43zM408 666l11 -18q-129 -20 -216 -110t-95 -223l2 -1q55 39 92 57.5t74 18.5q27 0 55 -11t54.5 -32.5t43.5 -60t17 -87.5 q0 -96 -60 -154t-141 -58q-100 0 -157.5 74t-57.5 194q0 173 109 285q58 60 134.5 91t134.5 35z" unicode="6"/>
<glyph glyph-name="seven" d="M103 -12l-6 7q7 21 27 59t61 108.5t62 107.5q105 190 152 314q-23 2 -148 2q-142 0 -167 -4q-1 -3 -37 -82l-9 -4q-4 13 -4 149l3 3q29 -5 48 -7h193q129 0 162 3l-3 -25q-7 -50 -129 -294.5t-126 -263.5l-9 -58z" unicode="7"/>
<glyph glyph-name="eight" d="M246 10h1q51 0 85.5 34.5t34.5 93.5t-39 94q-42 40 -128 81q-89 -64 -89 -151q0 -69 39.5 -110.5t95.5 -41.5zM240 631h-1q-44 0 -78.5 -33t-34.5 -92q0 -57 48 -97q29 -23 98 -57q77 63 77 144v6q-1 51 -31 90t-78 39zM241 654h1q81 0 126 -46t45 -107q0 -27 -8.5 -49 t-31 -44.5t-34.5 -32t-45 -33.5v-2q72 -45 81 -53q60 -50 60 -122q0 -29 -11 -58.5t-33.5 -57t-63 -45t-93.5 -17.5q-83 0 -138.5 47.5t-55.5 113.5q0 50 27.5 83.5t110.5 91.5v2q-28 17 -55 38q-57 50 -57 122q0 78 55.5 123.5t119.5 45.5z" unicode="8"/>
<glyph glyph-name="nine" d="M233 632h-1q-61 0 -93.5 -49t-32.5 -119q0 -75 42 -120t102 -45q58 0 94 32q14 11 17 30q2 28 2 50q0 99 -35 160t-95 61zM73 -21l-12 18q14 3 28 7.5t42.5 16t53 26.5t54 40.5t52.5 56t42 75.5t27 96h-2q-72 -56 -145 -58q-72 0 -125 52.5t-53 134.5q0 95 62.5 152.5 t137.5 57.5q56 0 98 -25.5t64 -66.5t32 -83.5t10 -85.5q0 -91 -32 -167.5t-85 -126.5t-117 -81t-132 -39z" unicode="9"/>
<glyph glyph-name="colon" horiz-adv-x="193" unicode=":" d="M97 407l5 2q9 -4 23.5 -20t20.5 -29l-2 -8q-5 -12 -20 -27.5t-26 -22.5l-6 -1q-27 15 -44 49l2 7q20 34 47 50zM97 92l5 2q9 -4 23.5 -20t20.5 -29l-2 -9q-5 -11 -20.5 -27t-25.5 -21l-6 -2q-28 18 -44 49l2 9q24 36 47 48z"/>
<glyph glyph-name="semicolon" horiz-adv-x="193" unicode=";" d="M45 -108l-13 14q56 54 56 116q0 22 -9 34l-35 18v9l67 41h10q7 -3 16 -24t9 -49q0 -88 -101 -159zM97 408l6 2q9 -5 23 -21t20 -28l-1 -9q-6 -12 -21 -28t-25 -22l-6 -1q-12 7 -25.5 22t-18.5 27l2 9q21 33 46 49z"/>
<glyph glyph-name="less" horiz-adv-x="482" unicode="&lt;" d="M48 189l10 41l377 195l-7 -43l-337 -174v-3l344 -174l-7 -39z"/>
<glyph glyph-name="equal" horiz-adv-x="518" unicode="=" d="M460 329l-13 -35h-389l14 35h388zM460 172l-13 -35h-389l14 35h388z"/>
<glyph glyph-name="greater" horiz-adv-x="482" unicode="&gt;" d="M434 228l-10 -38l-377 -197l8 42l334 174v3l-342 173l8 38z"/>
<glyph glyph-name="question" horiz-adv-x="361" unicode="?" d="M168 92l7 2q8 -4 22.5 -20.5t21.5 -28.5l-2 -8q-6 -11 -21.5 -26.5t-25.5 -21.5l-7 -2q-28 19 -43 49l2 8q23 35 46 48zM186 650h3q55 0 98 -37t43 -107q0 -40 -18 -67.5t-58 -65.5q-83 -79 -83 -117q0 -31 16 -53l-10 -7q-18 5 -41 36.5t-24 61.5q22 47 83 105 q40 38 54 64t14 55q0 37 -26.5 69t-77.5 32q-25 0 -53 -12q-8 -60 -20 -95l-8 -4q-21 36 -39 77q72 65 147 65z"/>
<glyph glyph-name="at" horiz-adv-x="773" unicode="@" d="M580 397l4 -5l-25 -45q-35 -121 -69 -287q-3 -12 5 -12q87 0 141.5 63.5t54.5 155.5q0 115 -72.5 187t-190.5 72q-81 0 -145.5 -30.5t-103 -81t-59 -112t-20.5 -127.5q0 -143 86 -227t213 -84q175 0 291 121l11 -14q-130 -146 -321 -146q-153 0 -246.5 97.5t-93.5 252.5 t110.5 265.5t280.5 110.5q131 0 216.5 -79t85.5 -206q0 -107 -75.5 -176t-189.5 -69h-11q-18 0 -30 5q9 37 42 149h-4q-45 -64 -100.5 -109t-94.5 -45q-28 0 -43 22t-15 59q0 57 33 125t88 110q62 49 119 49q36 0 64 -26l6 23zM457 359h-1q-38 0 -82 -38q-43 -40 -72.5 -105 t-29.5 -120q0 -41 20 -41q25 0 72 39t88 102q30 43 57 142q-19 21 -52 21z"/>
<glyph glyph-name="A" horiz-adv-x="696" unicode="A" d="M328 557h-2q-11 -31 -46.5 -124t-51.5 -139q11 0 92.5 -2t106.5 -2q-48 126 -99 267zM299 634l58 49l6 -4v-6q0 -20 13 -59q14 -40 100.5 -262.5t119.5 -302.5q40 -21 93 -40l-4 -11q-62 2 -104 2q-32 0 -100 -2l3 10l39 29q0 1 -86 223q-99 -6 -155 -6q-9 0 -31.5 0.5 t-35.5 0.5q-54 -135 -80 -213l89 -33l-3 -11q-58 2 -117 2q-32 0 -96 -2l2 11l71 32q28 57 97.5 222t128.5 319q5 12 2 26z"/>
<glyph glyph-name="B" horiz-adv-x="567" unicode="B" d="M451 189v1q0 33 -9 57t-33.5 46t-74 33.5t-123.5 11.5h-22v-28q0 -20 -0.5 -70t-0.5 -76q0 -93 5 -143q165 1 220 60q38 41 38 108zM189 640v-279q52 1 90 8t70.5 23t49.5 46t17 74q0 70 -54 101q-44 27 -153 27h-20zM34 643l5 11q166 13 218 13q233 0 233 -150 q0 -47 -27.5 -82.5t-62 -52t-76.5 -24.5v-7q209 -23 209 -158q0 -196 -317 -196q-98 0 -183 3l2 11l79 28q6 39 6 248v336z"/>
<glyph glyph-name="C" horiz-adv-x="664" unicode="C" d="M409 677h2q107 0 168 -43q29 22 62 32l4 -3q-2 -27 -16.5 -80.5t-21.5 -67.5l-8 -6q-6 10 -16.5 46t-11.5 56q-48 34 -145 34q-146 0 -228 -89.5t-82 -228.5q0 -131 86 -220.5t241 -89.5q50 0 73 10q12 11 36 36t43 43.5t29 26.5l12 -1q-3 -16 -25.5 -64t-29.5 -54 q-85 -33 -176 -33q-56 0 -109 13t-100 40.5t-82 67t-55.5 96.5t-20.5 125q0 86 34.5 155.5t90 111.5t119.5 64.5t127 22.5z"/>
<glyph glyph-name="D" horiz-adv-x="713" unicode="D" d="M189 641v-297q0 -305 5 -321q208 0 300 80q100 86 100 240q0 146 -100 228q-88 70 -280 70h-25zM30 645l6 10q126 12 220 12q91 0 165 -17.5t132 -55t90 -100.5t32 -149q0 -57 -15 -106t-37 -81.5t-53 -59t-58 -41t-56 -25.5q-91 -35 -254 -35q-53 0 -176 3l4 11l84 27 q6 12 6 305v284z"/>
<glyph glyph-name="E" horiz-adv-x="530" unicode="E" d="M36 650l3 10q74 -2 112 -2h258q22 8 66 12l2 -2q-2 -13 -13 -64t-15 -72l-9 -5q-9 27 -33 104l-218 -7v-264q178 0 253 10l2 -4q-3 -7 -25.5 -27.5t-28.5 -20.5q-2 0 -89 4t-107 4h-5q0 -199 4 -289l227 -10q65 97 78 114l10 1q-7 -62 -31 -144q-64 3 -180 3h-150 q-24 0 -129 -3l4 11l92 31q6 22 6 303v279z"/>
<glyph glyph-name="F" horiz-adv-x="500" unicode="F" d="M41 650l4 10q17 0 50.5 -1t49.5 -1h257q60 12 66 12l2 -2q-4 -36 -22 -138l-10 -6q-3 9 -36 107l-213 -8v-281q186 0 259 11l1 -6q-3 -5 -25.5 -25t-26.5 -21q-7 0 -100.5 5t-107.5 5q0 -228 4 -270l101 -32l-4 -11q-48 2 -138 2q-33 0 -117 -2l5 11l76 32q4 20 4 300 v278z"/>
<glyph glyph-name="G" horiz-adv-x="721" unicode="G" d="M356 292l44 21q98 8 255 8h10q-7 -64 -25.5 -190t-27.5 -143h-7q-14 1 -24.5 11.5t-11.5 18.5q-36 -17 -84 -27t-82 -10q-165 0 -264.5 94.5t-99.5 251.5q0 147 108 248.5t276 101.5q99 0 164 -48q28 26 64 41l5 -5q-4 -33 -19 -91t-21 -70l-10 -5q-18 42 -26 107 q-64 36 -150 36q-139 0 -225.5 -87.5t-86.5 -226.5q0 -133 84 -221.5t229 -88.5q87 0 136 23q3 69 16 236l-223 6z"/>
<glyph glyph-name="H" horiz-adv-x="749" unicode="H" d="M39 649l5 11q90 -3 109 -3q28 0 82 3l-4 -11l-42 -32v-244h371v243l-47 35l6 9q75 -3 77 -3q28 0 121 3l-4 -12l-84 -31v-276q0 -279 8 -297l91 -35l-6 -11q-66 2 -131 2q-41 0 -73 -2l4 11l37 33q2 92 2 132q0 28 -0.5 84.5t-0.5 86.5q-31 -9 -130 -9h-241 q0 -26 -1 -81.5t-1 -86.5q0 -56 3 -120l36 -40l-3 -10q-34 2 -76 2q-56 0 -118 -2l6 10l79 33q6 150 6 307v271z"/>
<glyph glyph-name="I" horiz-adv-x="309" unicode="I" d="M38 650l4 10q78 -2 114 -2q37 0 115 2l-4 -11l-78 -32v-274q0 -260 5 -303l92 -31l-3 -11q-54 2 -127 2q-77 0 -129 -2l2 11l85 31q6 26 6 303v276z"/>
<glyph glyph-name="J" horiz-adv-x="286" unicode="J" d="M26 649l6 11q82 -2 118 -2q42 0 112 2l-5 -12l-71 -30q1 -33 1 -152q0 -72 -0.5 -194t-0.5 -139q0 -43 -10 -76q-38 -145 -138 -227l-20 8v7q59 48 79.5 116.5t20.5 168.5v27q0 4 -0.5 67.5t-0.5 149.5q-1 211 -3 245z"/>
<glyph glyph-name="K" horiz-adv-x="646" unicode="K" d="M40 650l3 10q19 0 56 -1t57 -1t58 1t58 1l-3 -11l-80 -32v-273q0 -261 5 -304l92 -31l-2 -11q-56 2 -132 2t-126 -2l3 11l85 31q6 26 6 303v275zM639 658l-6 -12q-32 -8 -106 -28q-13 -4 -29 -18q-55 -50 -218 -232v-3q94 -112 232 -253q42 -44 80 -81t44 -44l-5 -2 q-61 3 -100 24.5t-83 64.5q-93 93 -233 253v8q199 218 248 289q-5 26 -4 37q36 2 54 2q11 0 126 -5z"/>
<glyph glyph-name="L" horiz-adv-x="537" unicode="L" d="M37 649l2 11q56 -2 113 -2q59 0 119 2l-5 -11l-77 -31v-274q0 -281 4 -305l234 -16q57 86 87 124l9 -2q-12 -84 -32 -149q-8 0 -44.5 1t-112 2t-177.5 1q-26 0 -71 -1t-61 -1l2 10l89 31q4 36 4 304v275z"/>
<glyph glyph-name="M" horiz-adv-x="911" unicode="M" d="M56 644l6 14l141 2q4 -24 16 -51q16 -35 239 -496h2l49.5 99t103.5 209t95 199q1 4 1 15v25l164 -2l-4 -11l-88 -29q13 -532 20 -578l88 -31l-1 -11q-52 2 -122 2q-49 0 -107 -2l4 11l65 31q-1 33 -3.5 251t-4.5 290h-2q-14 -29 -63 -134t-101 -218.5t-108 -240.5l-12 -4 q-4 10 -80.5 180t-175.5 389h-2q-25 -339 -25 -504v-7l81 -33l-4 -11q-66 2 -109 2q-41 0 -97 -2l3 11l74 32q23 137 54 550q-6 22 -20 29.5t-77 23.5z"/>
<glyph glyph-name="N" horiz-adv-x="744" unicode="N" d="M254 9l-4 -11q-117 3 -118 3q-6 0 -111 -3l3 11l87 35q13 209 17 521q-29 44 -42.5 54.5t-62.5 27.5l5 12l117 5q5 -18 32 -52q187 -240 433 -518h3q0 9 -7 520l-77 35l5 11q12 0 43 -1.5t48 -1.5q1 0 118 3l-4 -13l-86 -33q-9 -225 -11 -528q0 -71 -4 -102l-7 -5 q-25 18 -58.5 51t-89 98.5t-89.5 107t-118.5 146.5t-119.5 148h-2q0 -430 8 -484z"/>
<glyph glyph-name="O" horiz-adv-x="769" unicode="O" d="M382 651h-1q-122 0 -191.5 -89.5t-69.5 -223.5q0 -136 77 -234t199 -98q65 0 115 27t79.5 73t44 103t14.5 121q0 136 -78.5 228.5t-188.5 92.5zM380 677h1q63 0 123.5 -21t111.5 -61t82.5 -105.5t32.5 -147.5v-8q0 -87 -30.5 -156.5t-80.5 -111t-110.5 -63.5t-124.5 -22 q-61 0 -120 20.5t-111 60t-84 107.5t-32 153q0 72 22.5 133t58 101t81.5 68t91.5 40.5t88.5 12.5z"/>
<glyph glyph-name="P" horiz-adv-x="528" unicode="P" d="M43 641l6 11q128 15 190 15q113 0 177 -41q77 -50 77 -152q0 -54 -21 -96t-53.5 -64t-66 -33t-65.5 -11q-22 0 -35 4l-5 13q82 9 125.5 57t43.5 125q0 171 -208 171h-19v-282q0 -109 1.5 -183t3 -103.5t1.5 -30.5l106 -32l-5 -11q-98 2 -143 2q-35 0 -109 -2l3 11l70 31 q4 22 4 314v267z"/>
<glyph glyph-name="Q" horiz-adv-x="769" unicode="Q" d="M384 651h-1q-122 0 -192.5 -91.5t-70.5 -225.5q0 -130 79.5 -228.5t203.5 -103.5q81 7 138.5 57.5t82.5 120.5t25 151q0 135 -77.5 227.5t-187.5 92.5zM380 677h1q47 0 93.5 -11.5t92.5 -38t82 -64.5t58.5 -96.5t23.5 -129.5v-7q0 -78 -24.5 -141t-65.5 -101.5t-82 -61 t-87 -35.5v-2q124 -71 298 -160l-5 -8q-20 -2 -30 -2q-78 0 -182 51q-19 10 -44 23.5t-63.5 35t-70.5 39.5q-12 7 -55 18q-58 16 -106 41.5t-89 65.5t-64 98.5t-23 131.5q0 87 32 157t83 111.5t109.5 63.5t117.5 22z"/>
<glyph glyph-name="R" horiz-adv-x="587" unicode="R" d="M36 636l5 11q84 20 220 20q234 0 234 -165q0 -132 -161 -183v-2q60 -93 167 -230q26 -34 49.5 -62.5t29.5 -35.5l-3 -4q-81 6 -147 80q-80 90 -183 244l4 4q82 22 126 63t44 113q0 58 -31.5 93t-77 46.5t-110.5 11.5h-12v-320v-171q0 -81 2 -108l99 -32l-4 -11 q-96 2 -139 2q-40 0 -120 -2l4 11l82 32q7 143 7 278v302z"/>
<glyph glyph-name="S" horiz-adv-x="481" unicode="S" d="M249 677h1q64 0 109 -37q19 16 57 34l5 -4q-11 -69 -36 -138l-8 -4q-7 16 -27 89q-35 27 -97 27q-60 0 -95 -36.5t-35 -87.5q0 -70 63 -108q20 -12 43.5 -25t54 -29t48.5 -26q113 -63 113 -156q0 -56 -23 -96.5t-59.5 -60.5t-71.5 -29t-69 -9q-55 0 -108 21.5t-75 41.5 q3 16 19 59.5t23 58.5l8 3q5 -19 22 -134q38 -19 99 -19h5q76 2 118 39t42 104q0 66 -82 113q-13 7 -65 34.5t-79 44.5q-89 55 -89 153q0 70 51.5 123.5t137.5 53.5z"/>
<glyph glyph-name="T" horiz-adv-x="638" unicode="T" d="M102 658h441q7 2 65 16l1 -3q0 -40 -24 -142l-7 -6q-2 6 -37 110l-194 -9v-257q0 -116 1.5 -189.5t2.5 -101.5t1 -34l109 -33l-3 -11q-17 0 -46.5 1t-53.5 1.5t-45 0.5t-45 -0.5t-53 -1.5t-45 -1l3 11l103 33q3 54 3 292v290l-180 9q-5 -10 -17 -34.5t-21.5 -44.5 t-14.5 -28l-8 -2q-2 40 -2 97q0 41 1 49l3 4q42 -9 62 -16z"/>
<glyph glyph-name="U" horiz-adv-x="710" unicode="U" d="M17 649l5 11q114 -3 115 -3q25 0 97 3l-4 -11l-54 -32q-2 -130 -2 -408q0 -66 34 -113q56 -72 169 -72q114 0 164 73q33 46 37 133q3 102 3 198q0 32 -0.5 95t-0.5 94l-76 32l5 11q10 0 29.5 -1t34.5 -1.5t28 -0.5q30 0 114 3l-5 -11l-82 -32q-3 -19 -13 -360 q-3 -102 -36 -158q-69 -116 -224 -116q-152 0 -218 106q-31 48 -34 151q0 14 -0.5 44t-0.5 46q0 36 0.5 105.5t0.5 97.5q0 65 -1 85z"/>
<glyph glyph-name="V" horiz-adv-x="679" unicode="V" d="M192 660l-3 -11l-28 -31q23 -67 207 -526h2q153 401 194 523l-30 34l5 11q28 -2 58 -2q49 0 95 2l-2 -11q-47 -19 -80 -40q-49 -96 -233 -575q-14 -31 -30 -53h-10q-114 298 -249 627q-28 20 -84 41l7 11q38 -2 94 -2q39 0 87 2z"/>
<glyph glyph-name="W" horiz-adv-x="998" unicode="W" d="M11 649l5 11q63 -3 99 -3q12 0 78 3l-4 -11l-29 -28q13 -38 214 -539h2q34 68 124 266q-58 144 -114 265q-33 22 -71 36l5 11q66 -3 96 -3q6 0 39 3l2 -3l4 -37q16 -51 80 -193h2q65 149 79 190l1 40l2 3q30 -3 41 -3q10 0 91 3l-4 -11q-51 -19 -88 -42 q-43 -77 -109 -216q8 -19 130 -305h2q148 410 189 532l-35 31l5 11q48 -3 56 -3q24 0 108 3l-2 -11q-38 -13 -86 -38q-19 -36 -228 -578q-10 -26 -34 -52h-6q-8 17 -28.5 66t-52.5 126t-58 137h-1q-42 -87 -85.5 -180.5t-47.5 -100.5q-15 -29 -35 -48h-5q-9 20 -117 288 t-141 343q-30 21 -73 37z"/>
<glyph glyph-name="X" horiz-adv-x="672" unicode="X" d="M37 649l6 11q126 -3 127 -3q6 0 63 3l-3 -11l-11 -31q31 -56 130 -224h2q70 113 129 222l-23 33l4 11q3 0 23.5 -1.5t30.5 -1.5l111 3l-5 -11q-54 -19 -97 -44q-54 -71 -159 -238q143 -245 177 -298q13 -22 27 -27l96 -34l-4 -10q-15 0 -43.5 1t-51.5 1.5t-43 0.5 q-1 0 -85 -3l2 11l35 30q-7 14 -150 262h-2q-98 -163 -148 -256l38 -37l-4 -10q-51 3 -76 3q-16 0 -35 -0.5t-42.5 -1.5t-36.5 -1l4 11l76 28q16 6 36 28q51 68 174 264q-145 248 -156 265q-10 21 -33 28z"/>
<glyph glyph-name="Y" horiz-adv-x="608" unicode="Y" d="M3 649l6 11q70 -2 104 -2q32 0 64 2l-3 -10l-16 -24q2 -5 167 -297h3q96 173 156 292l-23 28l6 11q26 -2 48 -2q28 0 98 2l-5 -11l-56 -24q-22 -6 -37 -29q-101 -159 -166 -282q-8 -14 -8 -32q0 -217 4 -240l112 -33l-4 -11q-93 3 -146 3q-50 0 -143 -3l5 10l97 34 q8 88 8 225q0 17 -8 33q-55 101 -182 313q-34 21 -81 36z"/>
<glyph glyph-name="Z" horiz-adv-x="604" unicode="Z" d="M575 658v-6q-14 -22 -87.5 -125.5t-176 -248t-170.5 -244.5v-3q282 -2 362 -2q9 13 41.5 61t46.5 65l6 -2q-2 -22 -13 -79.5t-17 -77.5h-12q-6 0 -190 2t-329 2l-2 6q52 71 441 616l-2 2q-55 1 -173.5 4.5t-164.5 3.5q-7 -13 -26 -54.5t-24 -52.5l-9 -4q-4 52 -4 129v17 l4 4q21 -3 55 -13h444z"/>
<glyph glyph-name="bracketleft" horiz-adv-x="314" unicode="[" d="M172 676v-810l108 -25l-4 -13h-148v887h151l-4 -12z"/>
<glyph glyph-name="backslash" horiz-adv-x="337" unicode="\" d="M299 -69h-35l-227 746h35z"/>
<glyph glyph-name="bracketright" horiz-adv-x="314" unicode="]" d="M142 -134v810l-111 27l7 12h147v-887h-154l5 13z"/>
<glyph glyph-name="asciicircum" horiz-adv-x="456" unicode="^" d="M399 330l-38 -6l-133 284h-2l-130 -278l-40 -6l152 320l36 8z"/>
<glyph glyph-name="underscore" horiz-adv-x="483" unicode="_" d="M483 -100v-48h-483v48h483z"/>
<glyph glyph-name="grave" horiz-adv-x="386" unicode="`" d="M241 505l-12 -13l-123 139v11q25 10 48 10h10z"/>
<glyph glyph-name="a" horiz-adv-x="426" unicode="a" d="M105 116v-1q0 -43 26 -64t56 -21q43 0 77 35q9 12 9 24l2 132q-96 -24 -138 -51q-18 -9 -25 -21t-7 -33zM275 244l-1 21q-3 83 -28 112.5t-73 29.5q-35 0 -67 -21q-3 -75 -6 -97l-6 -2q-8 3 -30 31.5t-28 46.5q13 12 50 33t60 31q46 17 66 17q65 0 96 -47t31 -108 q0 -30 -1 -108.5t-1 -116.5q31 -42 83 -57l-6 -9q-16 -9 -38 -9q-80 0 -99 57h-2q-64 -61 -121 -61q-58 0 -88 35.5t-30 73.5q0 58 37 77q21 14 81 35.5t121 35.5z"/>
<glyph glyph-name="b" horiz-adv-x="497" unicode="b" d="M136 379v-343q44 -12 71 -12q84 0 134 58.5t50 139.5q0 77 -45.5 128.5t-119.5 51.5q-49 0 -90 -23zM71 -11v388q0 133 -3 277l-54 22l4 10q61 23 121 31q-3 -174 -3 -317l24 12t33.5 16t32 12t29.5 6q81 0 145 -56.5t64 -158.5q0 -62 -24.5 -111t-62 -77t-78 -42 t-77.5 -14q-22 0 -95 28q-36 -22 -56 -26z"/>
<glyph glyph-name="c" horiz-adv-x="433" unicode="c" d="M34 213v1q0 110 74.5 171t172.5 61q38 0 74.5 -12t46.5 -24q-16 -67 -34 -99l-6 -4q-13 29 -29 106q-14 7 -44 7q-87 0 -134.5 -58.5t-47.5 -141.5q0 -87 52 -142t133 -55q15 0 29 6q53 47 82 61l3 -5q-6 -19 -27 -47t-33 -36q-51 -15 -92 -15q-26 0 -54 6.5t-58 23.5 t-54 42t-39 65t-15 89z"/>
<glyph glyph-name="d" horiz-adv-x="512" unicode="d" d="M358 67v320q-32 23 -80 23q-78 0 -125 -58.5t-47 -134.5q0 -74 45.5 -128.5t116.5 -54.5q44 0 90 33zM424 394v-332q34 -39 78 -59l-4 -7q-9 -9 -37 -9q-24 0 -54.5 14.5t-41.5 44.5h-2q-74 -59 -118 -59q-79 0 -145 57.5t-66 162.5q0 107 73.5 173t165.5 66q37 0 83 -33 h2q0 104 -3 239l-53 26l4 8q38 17 121 31q-3 -171 -3 -323z"/>
<glyph glyph-name="e" horiz-adv-x="433" unicode="e" d="M108 270h221q5 12 5 34q0 43 -24.5 81t-69.5 38q-34 0 -60.5 -18t-41 -44t-22 -49.5t-8.5 -41.5zM307 243h-199q-1 -7 -1 -22q0 -91 49 -143t123 -52q19 0 32 5q68 50 77 55l3 -8q-4 -14 -20 -35.5t-25 -28.5q-17 -9 -51 -18t-56 -9q-89 0 -147 60.5t-58 157.5 q0 105 64 173t148 68q67 0 113 -45t46 -117q0 -22 -10 -29q-30 -12 -88 -12z"/>
<glyph glyph-name="f" horiz-adv-x="275" unicode="f" d="M21 -2l5 10l61 32q5 35 5 210v147l-67 13l15 23h52q0 142 64 216q58 68 135 68q23 0 42.5 -6.5t24.5 -13.5q-10 -37 -32 -83l-8 -4q-19 29 -34 80q-10 2 -12 2q-48 0 -75 -45.5t-33 -119.5q-4 -76 -4 -94h127l-16 -24l-111 -12q-3 -60 -3 -140q0 -196 4 -216l92 -32 l-5 -11q-126 3 -134 3q-3 0 -93 -3z"/>
<glyph glyph-name="g" horiz-adv-x="449" unicode="g" d="M224 -9h-1q-53 0 -89 -13q-18 -16 -35 -44.5t-17 -46.5q0 -48 41.5 -72.5t93.5 -24.5q73 0 119.5 31.5t46.5 95.5q0 27 -16 45t-40 23q-39 6 -103 6zM208 424h-1q-46 0 -71.5 -40t-25.5 -95q0 -57 26.5 -98.5t73.5 -41.5t72 40.5t25 103.5q0 50 -25.5 90.5t-73.5 40.5z M405 399l-72 -6v-2q15 -14 27 -43t12 -65q0 -70 -49 -113.5t-117 -43.5q-36 0 -73 15q-33 -31 -33 -51q0 -13 16.5 -28.5t27.5 -15.5h1q47 7 118 7q52 0 88 -6q33 -6 52 -22q35 -28 35 -77q0 -72 -78 -137q-78 -66 -178 -66q-69 0 -117 33.5t-48 86.5q0 13 10 23l92 102 l-1 2q-20 11 -35 24q-15 11 -26.5 28.5t-11.5 31.5q0 15 69 74q-71 41 -71 130q0 64 46.5 115t133.5 51q30 0 72 -7q19 -3 40.5 -7t24.5 -5l83 38l3 -7z"/>
<glyph glyph-name="h" horiz-adv-x="521" unicode="h" d="M437 298v-234q0 -15 4 -21t14 -9l55 -27l-4 -10h-19q-64 0 -125 8q10 82 10 255q0 140 -114 140q-61 0 -109 -42q0 -302 4 -320l72 -30l-4 -10q-72 2 -109 2q-31 0 -91 -2l5 10l54 30q4 19 4 242q0 246 -3 373l-54 24l3 9q83 22 122 31q-3 -165 -3 -333l1 -1 q83 63 142 63q68 0 106.5 -44.5t38.5 -103.5z"/>
<glyph glyph-name="i" horiz-adv-x="242" unicode="i" d="M40 409l4 9q54 20 113 28v-199q0 -153 3 -207l69 -31l-5 -11q-90 3 -102 3q-17 0 -50 -1.5t-45 -1.5l4 11l58 31q3 138 3 209v136zM123 649l5 1q8 -3 21 -17.5t19 -26.5l-3 -7q-4 -10 -18.5 -24.5t-23.5 -20.5l-6 -2q-25 17 -39 45l2 7q22 33 43 45z"/>
<glyph glyph-name="j" horiz-adv-x="224" unicode="j" d="M28 412l3 9q75 25 121 25v-385q0 -89 -41 -167q-51 -98 -109 -151l-18 10l-1 6q65 57 85 123t20 185q0 249 -4 320q-18 9 -56 25zM117 650l6 1q7 -3 20 -17.5t19 -26.5l-2 -7q-5 -10 -19.5 -25t-22.5 -20l-6 -2q-21 12 -40 45l2 7q24 33 43 45z"/>
<glyph glyph-name="k" horiz-adv-x="469" unicode="k" d="M154 39l76 -31l-2 -10q-74 2 -110 2q-34 0 -102 -2l4 10l60 32q5 17 5 184q0 272 -3 427l-54 26l4 9q68 24 121 32q-3 -124 -3 -373q0 -286 4 -306zM470 -11l-6 -5q-79 12 -118 46q-72 65 -177 197v4q63 71 143 171l18 44h7q73 0 112 -13l-7 -10q-9 -6 -53.5 -21 t-49.5 -17q-48 -48 -111 -121v-2q62 -78 242 -273z"/>
<glyph glyph-name="l" horiz-adv-x="234" unicode="l" d="M152 39l68 -30l-5 -11q-68 2 -99 2q-37 0 -103 -2l3 10l65 31q3 141 3 354t-3 262l-56 24l7 10q38 14 120 28q-3 -168 -3 -320q0 -239 3 -358z"/>
<glyph glyph-name="m" horiz-adv-x="804" unicode="m" d="M93 240v141l-53 21l4 10q89 32 114 34l-4 -84l1 -1q102 85 154 85q39 0 71 -22t47 -63q57 48 92.5 66.5t69.5 18.5q58 0 95 -39t37 -107v-248q0 -10 18 -20l52 -24l-1 -10q-68 2 -104 2q-32 0 -82 -2l3 11l42 31q6 70 6 184v42q0 19 -1 33t-6.5 34t-15.5 32.5t-29 22 t-46 9.5q-63 0 -124 -61q6 -36 6 -90v-208l58 -30l-4 -10q-46 2 -88 2q-35 0 -85 -2l4 11l46 30q3 117 3 236q0 122 -101 122q-49 0 -114 -59q0 -265 3 -300l61 -29l-3 -11q-34 2 -98 2q-46 0 -88 -2l3 11l54 30q3 32 3 201z"/>
<glyph glyph-name="n" horiz-adv-x="527" unicode="n" d="M92 281v97l-52 24l3 10q86 32 114 34l-4 -84h2q58 50 92 67t68 17q65 0 97 -45t32 -105v-239q0 -17 11 -22l61 -26l-4 -11q-30 2 -104 2q-29 0 -73 -2l4 11l33 32q6 56 6 241q0 60 -29.5 88.5t-71.5 28.5q-63 0 -120 -63q0 -279 4 -297l55 -30l-3 -11q-40 2 -90 2 q-47 0 -95 -2l4 11l56 30q4 19 4 242z"/>
<glyph glyph-name="o" horiz-adv-x="502" unicode="o" d="M251 423h-1q-67 0 -103 -62t-36 -143t41 -144.5t108 -63.5q45 0 76 31t43 75t12 96q0 81 -38 146t-102 65zM252 446h1q89 0 152 -63.5t63 -161.5q0 -105 -62.5 -169.5t-156.5 -64.5q-83 0 -149 61t-66 162q0 106 69 171t149 65z"/>
<glyph glyph-name="p" horiz-adv-x="511" unicode="p" d="M149 354v-308q35 -22 83 -22q71 0 121 54t50 147q0 68 -37.5 121.5t-107.5 53.5q-52 0 -109 -46zM149 450l-5 -73h2q100 69 144 69q69 0 128 -55.5t59 -153.5q0 -61 -24.5 -111t-62 -79t-78.5 -44.5t-78 -15.5q-11 0 -38.5 11t-43.5 22l-3 -1q0 -77 4 -215l94 -33l-6 -10 q-90 2 -130 2q-29 0 -89 -2l4 11l54 29q4 216 4 297v285l-55 29l7 9q12 6 53 16.5t60 12.5z"/>
<glyph glyph-name="q" horiz-adv-x="504" unicode="q" d="M361 62v319q-34 28 -89 28q-68 0 -116 -56t-48 -135q0 -85 47 -135.5t112 -50.5q53 0 94 30zM426 367v-235q0 -61 0.5 -181t0.5 -149l87 -31l-5 -10q-80 2 -122 2q-35 0 -107 -2l3 10l73 30q5 226 5 233l-2 1q-77 -48 -116 -48q-85 0 -146 61t-61 160q0 97 68.5 167.5 t164.5 70.5q43 0 100 -42q14 12 41.5 26t45.5 16l2 -3q-7 -37 -32 -76z"/>
<glyph glyph-name="r" horiz-adv-x="353" unicode="r" d="M42 405l6 10q63 30 98 31q10 -36 10 -106h1q31 57 70.5 81.5t71.5 24.5q26 0 41 -12q-6 -51 -27 -97l-6 -5q-15 19 -32 67q-8 2 -15 2q-27 0 -55 -28t-47 -75v-261l96 -29l-2 -10q-50 2 -135 2q-53 0 -91 -2l2 10l58 30q7 143 7 336z"/>
<glyph glyph-name="s" horiz-adv-x="361" unicode="s" d="M186 446h1q38 0 71 -24q23 15 48 25l5 -6q1 -9 -6.5 -52.5t-14.5 -57.5l-7 -4q-6 10 -12.5 24t-13 29.5t-8.5 19.5q-24 16 -59 16q-37 0 -59.5 -22.5t-22.5 -54.5q0 -41 40 -63q13 -7 101 -46q84 -38 84 -111q0 -65 -52 -98.5t-108 -33.5q-75 0 -139 44q1 13 11 50.5 t15 49.5l6 5q8 -15 22 -60t16 -51q20 -10 63 -10q40 0 69.5 23.5t29.5 59.5q0 46 -43 67q-21 11 -92 45q-83 38 -83 113q0 50 38 86.5t100 36.5z"/>
<glyph glyph-name="t" horiz-adv-x="309" unicode="t" d="M146 433h151l-18 -24l-133 -12v-312q0 -19 17 -36q21 -15 51 -15q46 0 79 25l4 -2l-3 -21q-39 -49 -105 -49q-52 0 -87 40q-22 30 -22 108v262l-66 12l16 24h51q9 68 18 107q7 14 23.5 25t27.5 11z"/>
<glyph glyph-name="u" horiz-adv-x="515" unicode="u" d="M80 391l-56 24l6 10q13 4 54 9t64 5h4q-8 -70 -8 -305q0 -41 18 -67q31 -31 77 -31q33 0 69.5 21t51.5 48v279q-19 14 -67 33l5 9q56 13 124 13h7q-3 -46 -3 -373q25 -40 80 -57l-3 -8q-20 -10 -47 -10q-84 0 -95 78l-2 1q-74 -83 -147 -83q-61 0 -96 35q-38 38 -38 117 q0 33 1 122t1 130z"/>
<glyph glyph-name="v" horiz-adv-x="449" unicode="v" d="M-4 425l5 10q19 -2 85 -2q43 0 68 2l-4 -11l-25 -29q22 -68 119 -309h2q40 100 113 306l-36 33l5 10q26 -2 57 -2q59 0 75 2l-4 -11q-32 -16 -59 -40q-26 -49 -147 -356q-12 -31 -25 -45h-7q-3 7 -36 90t-72.5 180t-54.5 133q-17 18 -59 39z"/>
<glyph glyph-name="w" horiz-adv-x="695" unicode="w" d="M171 435l-3 -11l-38 -30q10 -35 103 -303h3q20 53 54.5 138t46.5 117l-6 59q18 18 54 30l6 -3l7 -73q10 -31 25.5 -71t39 -98.5t38.5 -97.5h2q38 112 97 304l-52 28l5 11q50 -2 73 -2q27 0 75 2l-2 -11q-31 -12 -61 -34q-22 -47 -131 -367q-22 -31 -28 -40h-6 q-116 298 -122 313h-1q-93 -223 -112 -270q-11 -20 -29 -43h-6q-111 327 -144 406q-21 20 -56 35l5 11q58 -2 86 -2q25 0 77 2z"/>
<glyph glyph-name="x" d="M173 401l71 -125h2q50 87 63 117q2 8 2 22q0 4 -0.5 10.5t-0.5 9.5q27 -3 45 -3q47 0 96 3l-3 -11q-66 -23 -99 -39q-35 -48 -91 -134q60 -113 105 -183q15 -26 32 -30l73 -28l-5 -10q-16 0 -69.5 -2.5t-70.5 -2.5q-34 70 -102 193h-2q-64 -109 -83 -148q13 -15 32 -32 l-5 -10q-28 2 -65 2q-38 0 -86 -2l1 10l59 28q19 6 34 27q57 82 100 153q-85 154 -102 177q-34 18 -77 31l4 11q40 -3 80 -3q29 0 66 3z" unicode="x"/>
<glyph glyph-name="y" horiz-adv-x="436" unicode="y" d="M298 423l5 12q8 0 32.5 -1t36.5 -1q14 0 40 1t34 1l-4 -12q-23 -11 -55 -35q-29 -64 -100 -238.5t-124 -300.5q-12 -61 -24 -101q-6 -3 -22 -3q-14 0 -31.5 6.5t-22.5 12.5q12 22 74 105q37 71 67 144q-3 6 -28.5 73t-60 156.5t-57.5 142.5q-24 23 -62 39l5 11 q27 -2 85 -2q52 0 79 2l-4 -11l-31 -29q12 -44 108 -295h2q66 162 110 295z"/>
<glyph glyph-name="z" horiz-adv-x="422" unicode="z" d="M372 433l6 -8q-29 -49 -130 -207.5t-122 -192.5v-1q172 0 201 8q54 79 64 91l7 2q-9 -82 -20 -130q-7 0 -78.5 2.5t-121.5 2.5h-146l-1 6q36 51 77 113.5t100.5 155t85.5 131.5v2q-66 0 -188 -4q-26 -52 -46 -82l-7 -2q-6 34 -6 100q0 5 0.5 11t0.5 7l3 3l57 -8h264z"/>
<glyph glyph-name="braceleft" horiz-adv-x="314" unicode="{" d="M205 341l-91 -60v-1l91 -60q-15 -153 -15 -223q0 -59 20.5 -97t67.5 -67l-11 -15q-43 20 -86.5 66t-43.5 98q0 99 28 232l-94 60l3 12l91 60q-28 121 -28 216q0 53 42 101t88 64l11 -15q-49 -29 -68.5 -66.5t-19.5 -97.5q0 -81 15 -207z"/>
<glyph glyph-name="bar" horiz-adv-x="297" unicode="|" d="M124 724h49v-965h-49v965z"/>
<glyph glyph-name="braceright" horiz-adv-x="314" unicode="}" d="M107 221l92 59v2l-92 60q16 186 16 208q0 58 -20.5 95.5t-68.5 66.5l7 15q47 -18 91 -63t44 -100q0 -93 -28 -216l93 -61l-3 -12l-90 -60q28 -123 28 -231q0 -53 -43.5 -101t-91.5 -65l-7 15q49 29 69 67t20 98q0 76 -16 223z"/>
<glyph glyph-name="asciitilde" horiz-adv-x="596" unicode="~" d="M519 296l27 -18q-29 -60 -62 -87t-77 -27q-48 0 -117 47q-24 17 -37 25t-32 15t-36 7q-29 0 -57.5 -24t-50.5 -65l-26 18q51 109 145 109q48 0 121 -51q60 -40 97 -40q28 0 52.5 19.5t52.5 71.5z"/>
<glyph glyph-name="uni00A0" horiz-adv-x="212" unicode=" "/>
<glyph glyph-name="exclamdown" horiz-adv-x="205" unicode="¡" d="M84 222l22 13q14 -259 26 -374l17 -41q-46 -25 -83 -39h-12q1 18 5.5 79.5t11.5 164t13 197.5zM95 338l-6 -2q-9 4 -23.5 20.5t-20.5 28.5l2 8q5 12 20.5 28t25.5 21l6 2q27 -15 44 -49l-2 -8q-26 -36 -46 -49z"/>
<glyph glyph-name="cent" d="M257 139v364q-63 -15 -98.5 -65.5t-35.5 -120.5q0 -144 134 -178zM257 533v73l26 9v-80h3q47 0 87 -16.5t56 -31.5q-11 -43 -33 -79l-7 -4q-12 28 -25 92q-22 12 -64 12q-11 0 -17 -1v-374q9 -2 31 -2q18 0 24 1q47 45 83 65l5 -7q-6 -19 -26.5 -45t-41.5 -36 q-36 -12 -75 -12v-72l-26 -13v86q-36 2 -70 14.5t-65.5 36t-50.5 65t-19 95.5q0 97 61.5 154.5t143.5 69.5z" unicode="¢"/>
<glyph glyph-name="sterling" d="M439 139l12 -9q-24 -96 -39 -135q-6 0 -85 2.5t-136 2.5h-195v9l37 30q26 6 33 16q40 60 40 231v26l-97 12l14 22h82v21q0 178 103 254q45 33 104 33q30 0 56 -9.5t35 -19.5q-19 -66 -34 -93l-9 -4q-13 38 -22 99q-12 3 -27 3q-62 0 -99 -52.5t-37 -164.5v-12v-55h190 l-14 -22l-176 -12q-1 -62 -15.5 -115t-29.5 -81.5t-41 -66.5l2 -2h41q170 0 247 5q40 62 60 87z" unicode="£"/>
<glyph glyph-name="currency" d="M236 477h-1q-58 0 -95 -45t-37 -111t39.5 -111.5t93.5 -45.5q60 0 96.5 45t36.5 112q0 65 -38.5 110.5t-94.5 45.5zM435 506l-58 -61q43 -60 43 -124q0 -68 -47 -127l60 -56l-28 -40l-63 68q-47 -37 -105 -37q-71 0 -115 40l-59 -67l-20 32l54 56q-44 55 -44 131 q0 70 41 119l-58 59l24 41l65 -70q51 43 114 43q61 0 115 -44l60 68z" unicode="¤"/>
<glyph glyph-name="yen" d="M65 348h131l-142 258l-55 27l4 10q15 0 45 -1t44 -1q13 0 40.5 1t42.5 1l-3 -9l-44 -26l125 -243h2q49 92 119 242l-45 28l3 8q10 0 33.5 -1t35.5 -1q14 0 42 1t43 1l-4 -10l-67 -32q-77 -132 -140 -253h141l-12 -27h-136l1 -74h147l-14 -27h-133q2 -162 4 -184l85 -27 l-5 -11q-19 0 -58 1t-58 1q-20 0 -60.5 -1t-61.5 -1l4 11l77 27q5 20 7 184h-150l12 27h138l1 74h-151z" unicode="¥"/>
<glyph glyph-name="brokenbar" horiz-adv-x="297" unicode="¦" d="M124 -183v367h49v-367h-49zM124 666h49v-366h-49v366z"/>
<glyph glyph-name="section" horiz-adv-x="425" unicode="§" d="M296 -1h3q40 44 40 113q0 59 -56 135q-24 32 -50 66.5t-40.5 53.5t-27.5 39q-38 56 -38 95q0 18 6 44h-2q-52 -50 -52 -118v-6q2 -64 57 -141q10 -14 106 -142q56 -73 56 -118q0 -9 -2 -21zM95 21l6 4q3 -8 9.5 -39.5t12.5 -50.5q14 -6 46 -6q30 1 54 19.5t24 47.5 q0 40 -61 119q-47 61 -90 123q-62 91 -62 153q0 59 32 109.5t87 83.5q41 25 82 25q31 0 52 -16q18 16 51 27l4 -2q-1 -14 -11 -56t-18 -58l-6 -3q-4 6 -8 18t-8.5 28.5t-6.5 21.5q-19 16 -52 16q-28 0 -44.5 -15t-16.5 -41t17 -56q18 -31 126 -168q73 -92 73 -169 q0 -45 -27 -94t-81 -87q-20 -23 -51.5 -36t-60.5 -13q-62 0 -102 30q0 10 10 39t20 46z"/>
<glyph glyph-name="dieresis" horiz-adv-x="386" unicode="¨" d="M271 627l5 2q7 -4 19 -18t18 -25l-1 -5q-13 -25 -39 -43l-7 -2q-25 19 -36 42l2 7q16 29 39 42zM115 627l6 2q7 -4 19 -18t17 -25l-2 -5q-9 -23 -38 -43l-6 -2q-25 16 -37 42l2 7q16 29 39 42z"/>
<glyph glyph-name="copyright" horiz-adv-x="628" unicode="©" d="M331 460h1q37 0 62 -16q23 14 39 18l3 -2q0 -12 -7 -45.5t-10 -37.5l-4 -4q-18 27 -26 55q-13 11 -46 11q-51 0 -84 -34t-33 -91q0 -55 33 -92t89 -37q15 0 26 5q49 36 59 41l4 -4q-1 -9 -16.5 -29.5t-24.5 -26.5q-33 -10 -66 -10q-65 0 -112.5 37.5t-47.5 111.5 q0 40 16 70.5t41 47t51.5 24.5t52.5 8zM316 566h-1q-105 0 -174.5 -73t-69.5 -183t70 -183.5t175 -73.5q103 0 172 73.5t69 183.5t-68.5 183t-172.5 73zM315 594h1q114 0 194.5 -83t80.5 -202q0 -118 -80.5 -201t-195.5 -83q-116 0 -197 82.5t-81 201.5t81 202t197 83z"/>
<glyph glyph-name="ordfeminine" horiz-adv-x="252" unicode="ª" d="M162 376l1 59q-47 -8 -75 -23q-18 -11 -18 -28q0 -18 12 -29.5t31 -11.5q25 0 44 17q5 6 5 16zM163 452v12q0 38 -15 52t-42 14q-19 0 -31 -8q-4 -38 -10 -54l-6 -3q-2 0 -8 7.5t-12.5 18.5t-8.5 19q22 20 62 34q29 9 37 9q38 0 56 -24.5t18 -54.5q0 -18 -0.5 -57.5 t-0.5 -58.5q9 -16 41 -32l-3 -6q-8 -5 -23 -5q-38 0 -54 32q-40 -32 -71 -32q-30 0 -47.5 19.5t-17.5 42.5q0 24 20 37q9 6 46.5 19t69.5 19z"/>
<glyph glyph-name="guillemotleft" horiz-adv-x="445" unicode="«" d="M395 38l-11 -10q-94 121 -166 188q89 92 162 187l10 -13q-43 -80 -99 -174q80 -125 104 -178zM223 38l-9 -10q-84 112 -166 188q82 82 163 187l10 -11q-18 -37 -100 -176q76 -117 102 -178z"/>
<glyph glyph-name="logicalnot" horiz-adv-x="518" unicode="¬" d="M402 71v196h-334l19 36h358v-216z"/>
<glyph glyph-name="uni00AD" horiz-adv-x="327" unicode="­" d="M250 212l-209 -20l30 55l45 -1l170 8l1 -4z"/>
<glyph glyph-name="registered" horiz-adv-x="254" unicode="®" d="M79 597l2 6q16 5 41 5q39 0 39 -26q0 -15 -21 -23q2 -2 9.5 -13t12.5 -16q3 -4 6 -7t4.5 -5t3 -3.5l2.5 -2.5l-2 -1q-20 0 -30 12q-16 16 -28 35q23 5 23 20q0 21 -26 21h-3v-75l15 -6l-1 -5h-45l2 5l11 6v71zM127 641h-1q-32 0 -55 -24.5t-23 -58.5q0 -35 23 -59.5 t56 -24.5q34 0 56.5 24.5t22.5 59.5t-23 59t-56 24zM127 657h1q42 0 70 -28.5t28 -70.5q0 -43 -28.5 -71.5t-71.5 -28.5q-41 0 -69.5 28.5t-28.5 70.5t29 71t70 29z"/>
<glyph glyph-name="macron" horiz-adv-x="386" unicode="¯" d="M278 547h-182l15 42h181z"/>
<glyph glyph-name="degree" horiz-adv-x="272" unicode="°" d="M134 615h-1q-25 0 -42 -21t-17 -51q1 -31 18.5 -51.5t43.5 -20.5q25 0 43.5 20.5t18.5 51.5q0 29 -18 50.5t-46 21.5zM136 647h1q42 0 71 -30.5t29 -73.5q0 -44 -29.5 -74t-71.5 -30t-71.5 29.5t-30.5 74.5q0 44 30 74t72 30z"/>
<glyph glyph-name="plusminus" horiz-adv-x="518" unicode="±" d="M281 97l-43 -14v192h-183l14 36h169v162l43 13v-175h183l-13 -36h-170v-178zM464 36l-13 -36h-396l14 36h395z"/>
<glyph glyph-name="twosuperior" horiz-adv-x="294" unicode="²" d="M261 513l8 -7q-24 -80 -25 -81q-1 0 -42.5 1.5t-73.5 1.5h-100v6l22 26q11 8 16 12q4 4 19.5 18t20.5 19l18.5 18.5t19.5 20.5t16 20t14.5 22.5t10.5 21.5t8 24t2 25q0 28 -18 49.5t-56 21.5q-20 0 -42 -11q-5 -36 -12 -74l-7 -4q-15 17 -29 62q57 55 118 55q36 0 66 -24 t31 -74q0 -23 -7 -42t-30 -44t-37.5 -38t-57.5 -48q-16 -14 -25 -21q14 0 71.5 1.5t64.5 1.5q3 4 17 19.5t19 21.5z"/>
<glyph glyph-name="threesuperior" horiz-adv-x="294" unicode="³" d="M71 666l-7 -3q-7 9 -24 47q54 50 110 50q38 0 63.5 -20.5t25.5 -56.5q0 -50 -67 -78v-3q86 -14 86 -80q-1 -47 -41.5 -74t-86.5 -27q-34 0 -61.5 11.5t-34.5 21.5q14 38 25 53l6 4q9 -17 19 -64q12 -5 32 -5q35 0 61 22t26 56q0 61 -62 67q-9 -1 -21.5 -3t-20.5 -3.5 t-11 -1.5l-4 4q0 12 20 29q8 0 38 -4q49 18 49 62q0 29 -16 47t-49 18q-14 0 -42 -11q-5 -46 -13 -58z"/>
<glyph glyph-name="acute" horiz-adv-x="386" unicode="´" d="M173 491l-11 13l80 148h4q20 0 49 -12v-8z"/>
<glyph glyph-name="mu" horiz-adv-x="511" unicode="µ" d="M418 398v-349q10 -19 82 -24l-2 -10q-35 -28 -72 -28q-28 0 -50.5 18.5t-22.5 65.5h-2q-75 -84 -142 -84q-49 0 -76 30h-2q-4 -82 -4 -134q0 -95 11 -136l-3 -2q-63 7 -63 121v302q0 187 1 262q27 16 71 16l2 -2q-10 -123 -13 -311q0 -44 17 -64q24 -33 77 -33 q36 0 72.5 22.5t52.5 50.5v321q33 14 79 16l2 -4q-5 -14 -15 -44z"/>
<glyph glyph-name="paragraph" horiz-adv-x="485" unicode="¶" d="M388 652l-35 -118v-509q0 -81 -15 -138t-40.5 -84.5t-50 -39t-51.5 -11.5q-20 0 -31 8q-9 8 -20.5 23.5t-13.5 24.5l5 6q21 -7 53 -7q134 0 134 216v56q-38 -17 -46 -17q-55 0 -108.5 26t-92 81t-38.5 126q0 106 79.5 172.5t184.5 66.5h16l4 105z"/>
<glyph glyph-name="periodcentered" horiz-adv-x="190" unicode="·" d="M95 277l5 2q9 -4 23.5 -20.5t20.5 -28.5l-2 -9q-5 -11 -20 -26.5t-26 -22.5l-6 -2q-27 17 -44 49l2 9q23 35 47 49z"/>
<glyph glyph-name="cedilla" horiz-adv-x="386" unicode="¸" d="M214 0h25l-40 -59q37 -18 49.5 -33t12.5 -36q0 -25 -27 -48t-74 -37l-8 16q59 24 59 58q0 14 -13.5 25t-47.5 24z"/>
<glyph glyph-name="onesuperior" horiz-adv-x="294" unicode="¹" d="M126 706l-69 -1l2 9q3 2 20 8.5t41.5 17.5t44.5 20h8q0 -34 1 -166t1 -137l65 -20l-4 -10q-14 0 -43 1t-43 1q-16 0 -47 -1t-46 -1l4 10l59 20q6 123 6 249z"/>
<glyph glyph-name="ordmasculine" horiz-adv-x="286" unicode="º" d="M140 536h-1q-31 0 -49 -31t-18 -70t19.5 -70.5t52.5 -31.5q34 0 51.5 30.5t17.5 71.5q0 37 -19.5 69t-53.5 32zM142 554h1q49 0 83.5 -33t34.5 -83q0 -54 -34.5 -88.5t-85.5 -34.5q-46 0 -81 31t-35 85q0 57 37 90t80 33z"/>
<glyph glyph-name="guillemotright" horiz-adv-x="445" unicode="»" d="M51 392l11 11q76 -104 163 -188q-108 -117 -160 -187l-9 13q74 132 99 174q-75 114 -104 177zM223 392l8 11q84 -112 166 -188q-101 -101 -162 -187l-10 12q24 51 99 175q-62 94 -101 177z"/>
<glyph glyph-name="onequarter" horiz-adv-x="623" unicode="¼" d="M464 122l8 172h-2q-61 -85 -113 -171zM511 100l2 -72l52 -21l-3 -8q-15 0 -41 1t-38 1q-15 0 -42.5 -1t-39.5 -1l2 8l59 21l2 70l-136 -3l-10 15q23 38 79.5 117.5t66.5 90.5q11 8 47 14v-210l34 -1q12 18 21 27l8 -1q0 -9 -4.5 -37t-7.5 -36l-7 -4q-8 14 -13 32z M516 664l19 -20q-190 -308 -417 -685l-19 22q248 405 417 683zM123 600l-69 -1l2 9q3 2 20 8.5t41.5 17.5t44.5 20h8q0 -34 1 -166t1 -137l65 -20l-4 -10q-15 0 -43 1t-43 1q-16 0 -47 -1t-46 -1l4 10l59 20q6 123 6 249z"/>
<glyph glyph-name="onehalf" horiz-adv-x="623" unicode="½" d="M583 85l8 -7q-24 -80 -25 -81q-1 0 -42.5 1.5t-73.5 1.5h-100v6l22 26q11 8 16 12q4 4 19.5 18t20.5 19l18.5 18.5t19.5 20.5t16 20t14.5 22.5t10.5 21.5t8 24t2 25q0 28 -18 49.5t-56 21.5q-20 0 -42 -11q-5 -36 -12 -74l-7 -4q-15 17 -29 62q57 55 118 55q36 0 66 -24 t31 -74q0 -23 -7 -42t-30 -44t-37.5 -38t-57.5 -48q-16 -14 -25 -21q14 0 71.5 1.5t64.5 1.5q3 4 17 19.5t19 21.5zM495 664l19 -20q-190 -308 -417 -685l-19 22q248 405 417 683zM109 600l-69 -1l2 9q3 2 20 8.5t41.5 17.5t44.5 20h8q0 -34 1 -166t1 -137l65 -20l-4 -10 q-15 0 -43 1t-43 1q-16 0 -47 -1t-46 -1l4 10l59 20q6 123 6 249z"/>
<glyph glyph-name="threequarters" horiz-adv-x="623" unicode="¾" d="M470 122l8 172h-2q-61 -85 -113 -171zM517 100l2 -72l52 -21l-3 -8q-15 0 -41 1t-38 1q-15 0 -42.5 -1t-39.5 -1l2 8l59 21l2 70l-136 -3l-10 15q23 38 79.5 117.5t66.5 90.5q11 8 47 14v-210l34 -1q12 18 21 27l8 -1q0 -9 -4.5 -37t-7.5 -36l-7 -4q-8 14 -13 32z M521 664l19 -20q-190 -308 -417 -685l-19 22q248 405 417 683zM86 560l-7 -3q-7 9 -24 47q54 50 110 50q38 0 63.5 -20.5t25.5 -56.5q0 -50 -67 -78v-3q86 -14 86 -80q-1 -47 -41.5 -74t-86.5 -27q-34 0 -61.5 11.5t-34.5 21.5q14 38 25 53l6 4q9 -17 19 -64q12 -5 32 -5 q35 0 61 22t26 56q0 61 -62 67q-9 -1 -21.5 -3t-20.5 -3.5t-11 -1.5l-4 4q0 12 20 29q8 0 38 -4q49 18 49 62q0 29 -16 47t-49 18q-14 0 -42 -11q-5 -46 -13 -58z"/>
<glyph glyph-name="questiondown" horiz-adv-x="361" unicode="¿" d="M175 -220h-3q-55 0 -97.5 37t-42.5 106q0 40 18 68t57 65q83 79 83 117q0 30 -15 53l9 7q18 -5 41 -36.5t24 -61.5q-26 -49 -83 -104q-40 -38 -53.5 -64t-13.5 -56q0 -37 26.5 -68.5t75.5 -31.5q26 0 54 12q8 60 20 89l8 3q21 -31 39 -76q-73 -59 -147 -59zM193 337 l-7 -2q-8 4 -22.5 20.5t-20.5 28.5l2 8q5 11 20.5 27t25.5 21l6 2q25 -13 44 -48l-2 -8q-22 -36 -46 -49z"/>
<glyph glyph-name="Agrave" horiz-adv-x="696" unicode="À" d="M385 720l-8 -12l-178 68l-1 10q23 28 47 36zM328 557h-2q-11 -31 -46.5 -124t-51.5 -139q11 0 92.5 -2t106.5 -2q-48 126 -99 267zM299 634l58 49l6 -4v-6q0 -20 13 -59q14 -40 100.5 -262.5t119.5 -302.5q40 -21 93 -40l-4 -11q-62 2 -104 2q-32 0 -100 -2l3 10l39 29 q0 1 -86 223q-99 -6 -155 -6q-9 0 -31.5 0.5t-35.5 0.5q-54 -135 -80 -213l89 -33l-3 -11q-58 2 -117 2q-32 0 -96 -2l2 11l71 32q28 57 97.5 222t128.5 319q5 12 2 26z"/>
<glyph glyph-name="Aacute" horiz-adv-x="696" unicode="Á" d="M295 697l-7 13l142 101q24 -5 50 -33l-1 -11zM328 557h-2q-11 -31 -46.5 -124t-51.5 -139q11 0 92.5 -2t106.5 -2q-48 126 -99 267zM299 634l58 49l6 -4v-6q0 -20 13 -59q14 -40 100.5 -262.5t119.5 -302.5q40 -21 93 -40l-4 -11q-62 2 -104 2q-32 0 -100 -2l3 10l39 29 q0 1 -86 223q-99 -6 -155 -6q-9 0 -31.5 0.5t-35.5 0.5q-54 -135 -80 -213l89 -33l-3 -11q-58 2 -117 2q-32 0 -96 -2l2 11l71 32q28 57 97.5 222t128.5 319q5 12 2 26z"/>
<glyph glyph-name="Acircumflex" horiz-adv-x="696" unicode="Â" d="M335 810h12q64 -56 119 -100l-11 -13q-38 17 -114 57q-84 -43 -116 -57l-9 13q55 44 119 100zM328 557h-2q-11 -31 -46.5 -124t-51.5 -139q11 0 92.5 -2t106.5 -2q-48 126 -99 267zM299 634l58 49l6 -4v-6q0 -20 13 -59q14 -40 100.5 -262.5t119.5 -302.5q40 -21 93 -40 l-4 -11q-62 2 -104 2q-32 0 -100 -2l3 10l39 29q0 1 -86 223q-99 -6 -155 -6q-9 0 -31.5 0.5t-35.5 0.5q-54 -135 -80 -213l89 -33l-3 -11q-58 2 -117 2q-32 0 -96 -2l2 11l71 32q28 57 97.5 222t128.5 319q5 12 2 26z"/>
<glyph glyph-name="Atilde" horiz-adv-x="696" unicode="Ã" d="M456 785l13 -9q-47 -69 -86 -69q-15 0 -52 20q-32 15 -41 15q-27 0 -58 -37l-13 11q50 70 86 70q9 0 47 -16q36 -18 47 -18q27 0 57 33zM328 557h-2q-11 -31 -46.5 -124t-51.5 -139q11 0 92.5 -2t106.5 -2q-48 126 -99 267zM299 634l58 49l6 -4v-6q0 -20 13 -59 q14 -40 100.5 -262.5t119.5 -302.5q40 -21 93 -40l-4 -11q-62 2 -104 2q-32 0 -100 -2l3 10l39 29q0 1 -86 223q-99 -6 -155 -6q-9 0 -31.5 0.5t-35.5 0.5q-54 -135 -80 -213l89 -33l-3 -11q-58 2 -117 2q-32 0 -96 -2l2 11l71 32q28 57 97.5 222t128.5 319q5 12 2 26z"/>
<glyph glyph-name="Adieresis" horiz-adv-x="696" unicode="Ä" d="M426 798l4 2q8 -4 21 -18.5t17 -25.5l-1 -5q-5 -11 -17.5 -24.5t-21.5 -18.5l-7 -2q-22 14 -37 43l1 6q18 28 41 43zM254 798l5 2q8 -4 20.5 -18.5t16.5 -25.5l-1 -5q-5 -11 -18 -24.5t-21 -18.5l-6 -2q-20 10 -39 43l2 6q18 28 41 43zM328 557h-2q-11 -31 -46.5 -124 t-51.5 -139q11 0 92.5 -2t106.5 -2q-48 126 -99 267zM299 634l58 49l6 -4v-6q0 -20 13 -59q14 -40 100.5 -262.5t119.5 -302.5q40 -21 93 -40l-4 -11q-62 2 -104 2q-32 0 -100 -2l3 10l39 29q0 1 -86 223q-99 -6 -155 -6q-9 0 -31.5 0.5t-35.5 0.5q-54 -135 -80 -213l89 -33 l-3 -11q-58 2 -117 2q-32 0 -96 -2l2 11l71 32q28 57 97.5 222t128.5 319q5 12 2 26z"/>
<glyph glyph-name="Aring" horiz-adv-x="696" unicode="Å" d="M338 829h-1q-19 0 -31 -12.5t-12 -37.5q0 -24 12.5 -36.5t31.5 -12.5t31 12.5t12 36.5q0 50 -43 50zM338 856h1q30 0 52.5 -20.5t22.5 -55.5t-22.5 -55.5t-53.5 -20.5t-54 20.5t-23 55.5q0 36 23 56t54 20zM328 557h-2q-11 -31 -46.5 -124t-51.5 -139q11 0 92.5 -2 t106.5 -2q-48 126 -99 267zM299 634l58 49l6 -4v-6q0 -20 13 -59q14 -40 100.5 -262.5t119.5 -302.5q40 -21 93 -40l-4 -11q-62 2 -104 2q-32 0 -100 -2l3 10l39 29q0 1 -86 223q-99 -6 -155 -6q-9 0 -31.5 0.5t-35.5 0.5q-54 -135 -80 -213l89 -33l-3 -11q-58 2 -117 2 q-32 0 -96 -2l2 11l71 32q28 57 97.5 222t128.5 319q5 12 2 26z"/>
<glyph glyph-name="AE" horiz-adv-x="883" unicode="Æ" d="M273 344h193l-4 280h-50q-116 -230 -139 -280zM468 310h-213q-106 -226 -125 -268l88 -33l-5 -11q-90 3 -120 3q-13 0 -27 -0.5t-31 -1.5t-27 -1l4 11l67 33q46 86 298 580l-115 27l4 11q31 0 87 -1t82 -1h321q38 9 67 12l3 -2q-2 -16 -13.5 -68.5t-14.5 -69.5l-8 -5 q-23 70 -33 106l-229 -7l10 -280q170 0 258 9l3 -6q-3 -6 -25.5 -25.5t-28.5 -19.5q-5 0 -102.5 4t-104.5 4q2 -108 13 -273l220 -10q52 79 80 115h9q-12 -80 -32 -144q-82 3 -192 3h-107q-22 0 -47 -0.5t-55 -1.5t-48 -1l4 11l89 31q1 3 1 27q0 20 -1 56t-2 91.5t-2 95.5z "/>
<glyph glyph-name="Ccedilla" horiz-adv-x="664" unicode="Ç" d="M415 -19l-26 -39q36 -19 49 -34t13 -35q0 -25 -27 -48t-73 -37l-9 15q61 27 61 58q0 14 -14.5 25t-48.5 25l52 71q-70 2 -132.5 24t-112.5 63t-79.5 106.5t-29.5 147.5q0 86 34.5 155.5t90.5 111.5t120.5 64.5t128.5 22.5h2q110 0 165 -43q21 12 62 26l4 -3 q-2 -24 -16.5 -76t-21.5 -66l-8 -6q-6 11 -16.5 47t-11.5 56q-50 32 -145 32q-146 0 -228 -89t-82 -229q0 -131 86 -220t241 -89q50 0 73 10q104 101 111 106l9 -1q-3 -15 -25.5 -63.5t-29.5 -54.5q-72 -29 -166 -33z"/>
<glyph glyph-name="Egrave" horiz-adv-x="530" unicode="È" d="M332 709l-8 -12l-178 68l-1 10q23 28 47 36zM36 650l3 10q74 -2 112 -2h258q22 8 66 12l2 -2q-2 -13 -13 -64t-15 -72l-9 -5q-9 27 -33 104l-218 -7v-264q178 0 253 10l2 -4q-3 -7 -25.5 -27.5t-28.5 -20.5q-2 0 -89 4t-107 4h-5q0 -199 4 -289l227 -10q65 97 78 114 l10 1q-7 -62 -31 -144q-64 3 -180 3h-150q-24 0 -129 -3l4 11l92 31q6 22 6 303v279z"/>
<glyph glyph-name="Eacute" horiz-adv-x="530" unicode="É" d="M220 697l-7 13l142 101q24 -5 50 -33l-1 -11zM36 650l3 10q74 -2 112 -2h258q22 8 66 12l2 -2q-2 -13 -13 -64t-15 -72l-9 -5q-9 27 -33 104l-218 -7v-264q178 0 253 10l2 -4q-3 -7 -25.5 -27.5t-28.5 -20.5q-2 0 -89 4t-107 4h-5q0 -199 4 -289l227 -10q65 97 78 114 l10 1q-7 -62 -31 -144q-64 3 -180 3h-150q-24 0 -129 -3l4 11l92 31q6 22 6 303v279z"/>
<glyph glyph-name="Ecircumflex" horiz-adv-x="530" unicode="Ê" d="M268 810h12q64 -56 119 -100l-11 -13q-38 17 -114 57q-84 -43 -116 -57l-9 13q55 44 119 100zM36 650l3 10q74 -2 112 -2h258q22 8 66 12l2 -2q-2 -13 -13 -64t-15 -72l-9 -5q-9 27 -33 104l-218 -7v-264q178 0 253 10l2 -4q-3 -7 -25.5 -27.5t-28.5 -20.5q-2 0 -89 4 t-107 4h-5q0 -199 4 -289l227 -10q65 97 78 114l10 1q-7 -62 -31 -144q-64 3 -180 3h-150q-24 0 -129 -3l4 11l92 31q6 22 6 303v279z"/>
<glyph glyph-name="Edieresis" horiz-adv-x="530" unicode="Ë" d="M355 798l4 2q8 -4 21 -18.5t17 -25.5l-1 -5q-5 -11 -17.5 -24.5t-21.5 -18.5l-7 -2q-22 14 -37 43l1 6q18 28 41 43zM183 798l5 2q8 -4 20.5 -18.5t16.5 -25.5l-1 -5q-5 -11 -18 -24.5t-21 -18.5l-6 -2q-20 10 -39 43l2 6q18 28 41 43zM36 650l3 10q74 -2 112 -2h258 q22 8 66 12l2 -2q-2 -13 -13 -64t-15 -72l-9 -5q-9 27 -33 104l-218 -7v-264q178 0 253 10l2 -4q-3 -7 -25.5 -27.5t-28.5 -20.5q-2 0 -89 4t-107 4h-5q0 -199 4 -289l227 -10q65 97 78 114l10 1q-7 -62 -31 -144q-64 3 -180 3h-150q-24 0 -129 -3l4 11l92 31q6 22 6 303 v279z"/>
<glyph glyph-name="Igrave" horiz-adv-x="309" unicode="Ì" d="M211 709l-8 -12l-178 68l-1 10q23 28 47 36zM38 650l4 10q78 -2 114 -2q37 0 115 2l-4 -11l-78 -32v-274q0 -260 5 -303l92 -31l-3 -11q-54 2 -127 2q-77 0 -129 -2l2 11l85 31q6 26 6 303v276z"/>
<glyph glyph-name="Iacute" horiz-adv-x="309" unicode="Í" d="M105 697l-7 13l142 101q24 -5 50 -33l-1 -11zM38 650l4 10q78 -2 114 -2q37 0 115 2l-4 -11l-78 -32v-274q0 -260 5 -303l92 -31l-3 -11q-54 2 -127 2q-77 0 -129 -2l2 11l85 31q6 26 6 303v276z"/>
<glyph glyph-name="Icircumflex" horiz-adv-x="309" unicode="Î" d="M152 811h12q64 -56 119 -100l-11 -13q-38 17 -114 57q-84 -43 -116 -57l-9 13q55 44 119 100zM38 650l4 10q78 -2 114 -2q37 0 115 2l-4 -11l-78 -32v-274q0 -260 5 -303l92 -31l-3 -11q-54 2 -127 2q-77 0 -129 -2l2 11l85 31q6 26 6 303v276z"/>
<glyph glyph-name="Idieresis" horiz-adv-x="309" unicode="Ï" d="M241 798l4 2q8 -4 21 -18.5t17 -25.5l-1 -5q-5 -11 -17.5 -24.5t-21.5 -18.5l-7 -2q-22 14 -37 43l1 6q18 28 41 43zM69 798l5 2q8 -4 20.5 -18.5t16.5 -25.5l-1 -5q-5 -11 -18 -24.5t-21 -18.5l-6 -2q-20 10 -39 43l2 6q18 28 41 43zM38 650l4 10q78 -2 114 -2 q37 0 115 2l-4 -11l-78 -32v-274q0 -260 5 -303l92 -31l-3 -11q-54 2 -127 2q-77 0 -129 -2l2 11l85 31q6 26 6 303v276z"/>
<glyph glyph-name="Eth" horiz-adv-x="723" unicode="Ð" d="M198 363h201l-17 -30h-184q0 -295 5 -310q206 0 300 80q100 86 100 239q0 150 -101 230q-85 67 -283 67h-21v-276zM41 363h88v263l-90 18l6 11q3 0 39 3.5t85 6t96 2.5q91 0 165 -17.5t132 -55t90 -100.5t32 -149q0 -57 -15 -106t-37 -81.5t-53.5 -59t-58 -41.5 t-56.5 -26q-90 -34 -253 -34q-53 0 -176 3l4 11l84 28q6 10 6 294h-99z"/>
<glyph glyph-name="Ntilde" horiz-adv-x="744" unicode="Ñ" d="M497 765l13 -9q-47 -69 -86 -69q-15 0 -52 20q-32 15 -41 15q-27 0 -58 -37l-13 11q50 70 86 70q9 0 47 -16q36 -18 47 -18q27 0 57 33zM254 9l-4 -11q-117 3 -118 3q-6 0 -111 -3l3 11l87 35q13 209 17 521q-29 44 -42.5 54.5t-62.5 27.5l5 12l117 5q5 -18 32 -52 q187 -240 433 -518h3q0 9 -7 520l-77 35l5 11q12 0 43 -1.5t48 -1.5q1 0 118 3l-4 -13l-86 -33q-9 -225 -11 -528q0 -71 -4 -102l-7 -5q-25 18 -58.5 51t-89 98.5t-89.5 107t-118.5 146.5t-119.5 148h-2q0 -430 8 -484z"/>
<glyph glyph-name="Ograve" horiz-adv-x="769" unicode="Ò" d="M450 723l-8 -12l-178 68l-1 10q23 28 47 36zM382 651h-1q-122 0 -191.5 -89.5t-69.5 -223.5q0 -136 77 -234t199 -98q65 0 115 27t79.5 73t44 103t14.5 121q0 136 -78.5 228.5t-188.5 92.5zM380 677h1q63 0 123.5 -21t111.5 -61t82.5 -105.5t32.5 -147.5v-8 q0 -87 -30.5 -156.5t-80.5 -111t-110.5 -63.5t-124.5 -22q-61 0 -120 20.5t-111 60t-84 107.5t-32 153q0 72 22.5 133t58 101t81.5 68t91.5 40.5t88.5 12.5z"/>
<glyph glyph-name="Oacute" horiz-adv-x="769" unicode="Ó" d="M324 711l-7 13l142 101q24 -5 50 -33l-1 -11zM382 651h-1q-122 0 -191.5 -89.5t-69.5 -223.5q0 -136 77 -234t199 -98q65 0 115 27t79.5 73t44 103t14.5 121q0 136 -78.5 228.5t-188.5 92.5zM380 677h1q63 0 123.5 -21t111.5 -61t82.5 -105.5t32.5 -147.5v-8 q0 -87 -30.5 -156.5t-80.5 -111t-110.5 -63.5t-124.5 -22q-61 0 -120 20.5t-111 60t-84 107.5t-32 153q0 72 22.5 133t58 101t81.5 68t91.5 40.5t88.5 12.5z"/>
<glyph glyph-name="Ocircumflex" horiz-adv-x="769" unicode="Ô" d="M380 818h12q64 -56 119 -100l-11 -13q-38 17 -114 57q-84 -43 -116 -57l-9 13q55 44 119 100zM382 651h-1q-122 0 -191.5 -89.5t-69.5 -223.5q0 -136 77 -234t199 -98q65 0 115 27t79.5 73t44 103t14.5 121q0 136 -78.5 228.5t-188.5 92.5zM380 677h1q63 0 123.5 -21 t111.5 -61t82.5 -105.5t32.5 -147.5v-8q0 -87 -30.5 -156.5t-80.5 -111t-110.5 -63.5t-124.5 -22q-61 0 -120 20.5t-111 60t-84 107.5t-32 153q0 72 22.5 133t58 101t81.5 68t91.5 40.5t88.5 12.5z"/>
<glyph glyph-name="Otilde" horiz-adv-x="769" unicode="Õ" d="M504 791l13 -9q-47 -69 -86 -69q-15 0 -52 20q-31 15 -41 15q-27 0 -58 -37l-13 11q50 70 86 70q9 0 47 -16q36 -18 47 -18q27 0 57 33zM382 651h-1q-122 0 -191.5 -89.5t-69.5 -223.5q0 -136 77 -234t199 -98q65 0 115 27t79.5 73t44 103t14.5 121q0 136 -78.5 228.5 t-188.5 92.5zM380 677h1q63 0 123.5 -21t111.5 -61t82.5 -105.5t32.5 -147.5v-8q0 -87 -30.5 -156.5t-80.5 -111t-110.5 -63.5t-124.5 -22q-61 0 -120 20.5t-111 60t-84 107.5t-32 153q0 72 22.5 133t58 101t81.5 68t91.5 40.5t88.5 12.5z"/>
<glyph glyph-name="Odieresis" horiz-adv-x="769" unicode="Ö" d="M471 798l4 2q8 -4 21 -18.5t17 -25.5l-1 -5q-5 -11 -17.5 -24.5t-21.5 -18.5l-7 -2q-22 14 -37 43l1 6q18 28 41 43zM299 798l5 2q8 -4 20.5 -18.5t16.5 -25.5l-1 -5q-5 -11 -18 -24.5t-21 -18.5l-6 -2q-20 10 -39 43l2 6q18 28 41 43zM382 651h-1q-122 0 -191.5 -89.5 t-69.5 -223.5q0 -136 77 -234t199 -98q65 0 115 27t79.5 73t44 103t14.5 121q0 136 -78.5 228.5t-188.5 92.5zM380 677h1q63 0 123.5 -21t111.5 -61t82.5 -105.5t32.5 -147.5v-8q0 -87 -30.5 -156.5t-80.5 -111t-110.5 -63.5t-124.5 -22q-61 0 -120 20.5t-111 60t-84 107.5 t-32 153q0 72 22.5 133t58 101t81.5 68t91.5 40.5t88.5 12.5z"/>
<glyph glyph-name="multiply" horiz-adv-x="518" unicode="×" d="M447 389l-159 -162l154 -157l-23 -35l-160 162l-160 -162l-23 35l154 157l-158 161l25 34l162 -166l164 167z"/>
<glyph glyph-name="Oslash" horiz-adv-x="770" unicode="Ø" d="M570 560l-349 -478q68 -76 173 -76q65 0 115.5 27t80 73.5t44.5 103.5t15 121q0 134 -77 229h-2zM202 106l347 478q-66 67 -167 67q-120 0 -191 -91t-71 -228q0 -131 80 -226h2zM578 620l53 73l22 -22l-49 -66q126 -102 127 -260v-6q0 -90 -30.5 -160.5t-80.5 -112.5 t-109.5 -63.5t-122.5 -21.5q-114 0 -203 59l-68 -93l-19 26l63 84q-56 44 -89.5 113.5t-33.5 153.5q0 90 34 161t87.5 111t110 60.5t110.5 20.5q113 0 198 -57z"/>
<glyph glyph-name="Ugrave" horiz-adv-x="710" unicode="Ù" d="M421 709l-8 -12l-178 68l-1 10q23 28 47 36zM17 649l5 11q114 -3 115 -3q25 0 97 3l-4 -11l-54 -32q-2 -130 -2 -408q0 -66 34 -113q56 -72 169 -72q114 0 164 73q33 46 37 133q3 102 3 198q0 32 -0.5 95t-0.5 94l-76 32l5 11q10 0 29.5 -1t34.5 -1.5t28 -0.5q30 0 114 3 l-5 -11l-82 -32q-3 -19 -13 -360q-3 -102 -36 -158q-69 -116 -224 -116q-152 0 -218 106q-31 48 -34 151q0 14 -0.5 44t-0.5 46q0 36 0.5 105.5t0.5 97.5q0 65 -1 85z"/>
<glyph glyph-name="Uacute" horiz-adv-x="710" unicode="Ú" d="M309 697l-7 13l142 101q24 -5 50 -33l-1 -11zM17 649l5 11q114 -3 115 -3q25 0 97 3l-4 -11l-54 -32q-2 -130 -2 -408q0 -66 34 -113q56 -72 169 -72q114 0 164 73q33 46 37 133q3 102 3 198q0 32 -0.5 95t-0.5 94l-76 32l5 11q10 0 29.5 -1t34.5 -1.5t28 -0.5 q30 0 114 3l-5 -11l-82 -32q-3 -19 -13 -360q-3 -102 -36 -158q-69 -116 -224 -116q-152 0 -218 106q-31 48 -34 151q0 14 -0.5 44t-0.5 46q0 36 0.5 105.5t0.5 97.5q0 65 -1 85z"/>
<glyph glyph-name="Ucircumflex" horiz-adv-x="710" unicode="Û" d="M366 810h12q64 -56 119 -100l-11 -13q-38 17 -114 57q-84 -43 -116 -57l-9 13q55 44 119 100zM17 649l5 11q114 -3 115 -3q25 0 97 3l-4 -11l-54 -32q-2 -130 -2 -408q0 -66 34 -113q56 -72 169 -72q114 0 164 73q33 46 37 133q3 102 3 198q0 32 -0.5 95t-0.5 94l-76 32 l5 11q10 0 29.5 -1t34.5 -1.5t28 -0.5q30 0 114 3l-5 -11l-82 -32q-3 -19 -13 -360q-3 -102 -36 -158q-69 -116 -224 -116q-152 0 -218 106q-31 48 -34 151q0 14 -0.5 44t-0.5 46q0 36 0.5 105.5t0.5 97.5q0 65 -1 85z"/>
<glyph glyph-name="Udieresis" horiz-adv-x="710" unicode="Ü" d="M457 798l4 2q8 -4 21 -18.5t17 -25.5l-1 -5q-5 -11 -17.5 -24.5t-21.5 -18.5l-7 -2q-22 14 -37 43l1 6q18 28 41 43zM285 798l5 2q8 -4 20.5 -18.5t16.5 -25.5l-1 -5q-5 -11 -18 -24.5t-21 -18.5l-6 -2q-20 10 -39 43l2 6q18 28 41 43zM17 649l5 11q114 -3 115 -3 q25 0 97 3l-4 -11l-54 -32q-2 -130 -2 -408q0 -66 34 -113q56 -72 169 -72q114 0 164 73q33 46 37 133q3 102 3 198q0 32 -0.5 95t-0.5 94l-76 32l5 11q10 0 29.5 -1t34.5 -1.5t28 -0.5q30 0 114 3l-5 -11l-82 -32q-3 -19 -13 -360q-3 -102 -36 -158q-69 -116 -224 -116 q-152 0 -218 106q-31 48 -34 151q0 14 -0.5 44t-0.5 46q0 36 0.5 105.5t0.5 97.5q0 65 -1 85z"/>
<glyph glyph-name="Yacute" horiz-adv-x="608" unicode="Ý" d="M265 697l-7 13l142 101q24 -5 50 -33l-1 -11zM3 649l6 11q70 -2 104 -2q32 0 64 2l-3 -10l-16 -24q2 -5 167 -297h3q96 173 156 292l-23 28l6 11q26 -2 48 -2q28 0 98 2l-5 -11l-56 -24q-22 -6 -37 -29q-101 -159 -166 -282q-8 -14 -8 -32q0 -217 4 -240l112 -33l-4 -11 q-93 3 -146 3q-50 0 -143 -3l5 10l97 34q8 88 8 225q0 17 -8 33q-55 101 -182 313q-34 21 -81 36z"/>
<glyph glyph-name="Thorn" horiz-adv-x="534" unicode="Þ" d="M40 9l77 29q4 17 4 306v278l-75 28l4 10q74 -2 105 -2q36 0 110 2l-5 -10l-70 -29v-99q27 2 71 4h13q108 0 167.5 -45t59.5 -129q0 -47 -16.5 -83t-39.5 -55.5t-52 -32t-50.5 -16t-38.5 -3.5q-35 0 -51 8l-6 14h10q46 0 79.5 14.5t51 39t25.5 50.5t8 54q0 79 -46 119.5 t-133 40.5q-31 0 -52 -6v-138q0 -109 1.5 -184t3 -104.5t1.5 -30.5l85 -30l-5 -11q-78 2 -116 2q-21 0 -125 -2z"/>
<glyph glyph-name="germandbls" horiz-adv-x="523" unicode="ß" d="M39 433h53q2 145 70 217q59 67 147 67q65 0 107.5 -37t42.5 -98q0 -25 -3 -34q-114 -86 -114 -166q0 -16 9.5 -30t42.5 -41q98 -80 98 -163q0 -76 -56.5 -118.5t-129.5 -42.5q-40 0 -75 12q0 27 23 90l8 5q6 -11 36 -84q5 -1 17 -1q37 0 76 32t39 90q0 32 -16.5 58 t-54.5 61q-35 32 -59 51q-19 18 -19 35q0 68 116 192q6 24 6 39q-1 60 -30.5 93t-74.5 33q-132 0 -138 -230q-3 -75 -3 -203q0 -192 5 -222l18 -30l-2 -9q-17 1 -56 1q-26 0 -98 -2l5 10l58 30q5 30 5 213v146l-68 12z"/>
<glyph glyph-name="agrave" horiz-adv-x="426" unicode="à" d="M229 505l-12 -13l-123 139v11q25 10 48 10h10zM105 116v-1q0 -43 26 -64t56 -21q43 0 77 35q9 12 9 24l2 132q-96 -24 -138 -51q-18 -9 -25 -21t-7 -33zM275 244l-1 21q-3 83 -28 112.5t-73 29.5q-35 0 -67 -21q-3 -75 -6 -97l-6 -2q-8 3 -30 31.5t-28 46.5q13 12 50 33 t60 31q46 17 66 17q65 0 96 -47t31 -108q0 -30 -1 -108.5t-1 -116.5q31 -42 83 -57l-6 -9q-16 -9 -38 -9q-80 0 -99 57h-2q-64 -61 -121 -61q-58 0 -88 35.5t-30 73.5q0 58 37 77q21 14 81 35.5t121 35.5z"/>
<glyph glyph-name="aacute" horiz-adv-x="426" unicode="á" d="M179 491l-11 13l80 148h4q20 0 49 -12v-8zM105 116v-1q0 -43 26 -64t56 -21q43 0 77 35q9 12 9 24l2 132q-96 -24 -138 -51q-18 -9 -25 -21t-7 -33zM275 244l-1 21q-3 83 -28 112.5t-73 29.5q-35 0 -67 -21q-3 -75 -6 -97l-6 -2q-8 3 -30 31.5t-28 46.5q13 12 50 33 t60 31q46 17 66 17q65 0 96 -47t31 -108q0 -30 -1 -108.5t-1 -116.5q31 -42 83 -57l-6 -9q-16 -9 -38 -9q-80 0 -99 57h-2q-64 -61 -121 -61q-58 0 -88 35.5t-30 73.5q0 58 37 77q21 14 81 35.5t121 35.5z"/>
<glyph glyph-name="acircumflex" horiz-adv-x="426" unicode="â" d="M188 649l13 4l82 -150l-13 -10l-76 89l-75 -89l-13 10zM105 116v-1q0 -43 26 -64t56 -21q43 0 77 35q9 12 9 24l2 132q-96 -24 -138 -51q-18 -9 -25 -21t-7 -33zM275 244l-1 21q-3 83 -28 112.5t-73 29.5q-35 0 -67 -21q-3 -75 -6 -97l-6 -2q-8 3 -30 31.5t-28 46.5 q13 12 50 33t60 31q46 17 66 17q65 0 96 -47t31 -108q0 -30 -1 -108.5t-1 -116.5q31 -42 83 -57l-6 -9q-16 -9 -38 -9q-80 0 -99 57h-2q-64 -61 -121 -61q-58 0 -88 35.5t-30 73.5q0 58 37 77q21 14 81 35.5t121 35.5z"/>
<glyph glyph-name="atilde" horiz-adv-x="426" unicode="ã" d="M306 605l12 -7q-45 -70 -85 -70q-11 0 -51 19q-31 15 -41 15q-26 0 -57 -38l-13 11q53 70 85 70q9 0 47 -16q34 -17 45 -17q28 0 58 33zM105 116v-1q0 -43 26 -64t56 -21q43 0 77 35q9 12 9 24l2 132q-96 -24 -138 -51q-18 -9 -25 -21t-7 -33zM275 244l-1 21 q-3 83 -28 112.5t-73 29.5q-35 0 -67 -21q-3 -75 -6 -97l-6 -2q-8 3 -30 31.5t-28 46.5q13 12 50 33t60 31q46 17 66 17q65 0 96 -47t31 -108q0 -30 -1 -108.5t-1 -116.5q31 -42 83 -57l-6 -9q-16 -9 -38 -9q-80 0 -99 57h-2q-64 -61 -121 -61q-58 0 -88 35.5t-30 73.5 q0 58 37 77q21 14 81 35.5t121 35.5z"/>
<glyph glyph-name="adieresis" horiz-adv-x="426" unicode="ä" d="M271 627l5 2q7 -4 19 -18t18 -25l-1 -5q-13 -25 -39 -43l-7 -2q-25 19 -36 42l2 7q16 29 39 42zM115 627l6 2q7 -4 19 -18t17 -25l-2 -5q-9 -23 -38 -43l-6 -2q-25 16 -37 42l2 7q16 29 39 42zM105 116v-1q0 -43 26 -64t56 -21q43 0 77 35q9 12 9 24l2 132 q-96 -24 -138 -51q-18 -9 -25 -21t-7 -33zM275 244l-1 21q-3 83 -28 112.5t-73 29.5q-35 0 -67 -21q-3 -75 -6 -97l-6 -2q-8 3 -30 31.5t-28 46.5q13 12 50 33t60 31q46 17 66 17q65 0 96 -47t31 -108q0 -30 -1 -108.5t-1 -116.5q31 -42 83 -57l-6 -9q-16 -9 -38 -9 q-80 0 -99 57h-2q-64 -61 -121 -61q-58 0 -88 35.5t-30 73.5q0 58 37 77q21 14 81 35.5t121 35.5z"/>
<glyph glyph-name="aring" horiz-adv-x="426" unicode="å" d="M197 653h1q31 0 53 -21.5t22 -53.5t-23 -52.5t-53 -20.5q-32 0 -54 20t-22 52q0 33 23.5 54.5t52.5 21.5zM197 627h-1q-18 0 -29.5 -14t-11.5 -34q0 -21 12 -34.5t30 -13.5t30.5 13t12.5 34q0 23 -12 36t-31 13zM105 116v-1q0 -43 26 -64t56 -21q43 0 77 35q9 12 9 24 l2 132q-96 -24 -138 -51q-18 -9 -25 -21t-7 -33zM275 244l-1 21q-3 83 -28 112.5t-73 29.5q-35 0 -67 -21q-3 -75 -6 -97l-6 -2q-8 3 -30 31.5t-28 46.5q13 12 50 33t60 31q46 17 66 17q65 0 96 -47t31 -108q0 -30 -1 -108.5t-1 -116.5q31 -42 83 -57l-6 -9q-16 -9 -38 -9 q-80 0 -99 57h-2q-64 -61 -121 -61q-58 0 -88 35.5t-30 73.5q0 58 37 77q21 14 81 35.5t121 35.5z"/>
<glyph glyph-name="ae" horiz-adv-x="678" unicode="æ" d="M186 31h1q28 0 61 16.5t59 53.5q-18 46 -18 120q-102 -17 -149 -45q-21 -12 -28.5 -25t-7.5 -38q0 -43 27 -62.5t55 -19.5zM357 254h214q8 18 8 47q0 47 -22.5 82.5t-72.5 35.5q-34 0 -60 -17.5t-40 -44.5t-20.5 -53.5t-6.5 -49.5zM104 289l-5 -3q-9 6 -31 34t-27 46 q12 10 49 31t60 30q38 16 69 16q85 0 118 -86q60 86 157 86q63 0 109.5 -43t46.5 -121q0 -29 -10 -33q-34 -19 -89 -19h-195v-14q0 -88 46.5 -138.5t126.5 -50.5q11 0 31 5q42 40 73 55q2 -1 4 -5q-5 -17 -21.5 -42t-29.5 -31q-57 -19 -96 -19q-57 0 -105 26t-66 68 q-34 -39 -81 -66.5t-81 -27.5q-59 0 -90.5 35t-31.5 76q0 51 38 75q16 13 84.5 36.5t131.5 33.5v21q0 83 -28 112t-80 29q-33 0 -73 -22q0 -4 0.5 -14t0.5 -16q0 -31 -5 -64z"/>
<glyph glyph-name="ccedilla" horiz-adv-x="433" unicode="ç" d="M191 -89l53 74v3q-94 4 -152 66.5t-58 159.5q0 110 74.5 171t172.5 61q38 0 75 -12t47 -24q-21 -75 -34 -99l-7 -4q-11 28 -29 106q-12 7 -44 7q-87 0 -134 -58.5t-47 -141.5q0 -87 52.5 -142.5t133.5 -55.5q7 0 28 6q50 45 82 61l3 -5q-6 -19 -27 -47t-33 -35 q-30 -11 -76 -14l-31 -46q62 -30 62 -69q0 -25 -27 -48t-74 -37l-8 16q61 26 61 58q0 13 -14.5 24t-48.5 25z"/>
<glyph glyph-name="egrave" horiz-adv-x="433" unicode="è" d="M270 505l-12 -13l-123 139v11q25 10 48 10h10zM108 270h221q5 12 5 34q0 43 -24.5 81t-69.5 38q-34 0 -60.5 -18t-41 -44t-22 -49.5t-8.5 -41.5zM307 243h-199q-1 -7 -1 -22q0 -91 49 -143t123 -52q19 0 32 5q68 50 77 55l3 -8q-4 -14 -20 -35.5t-25 -28.5 q-17 -9 -51 -18t-56 -9q-89 0 -147 60.5t-58 157.5q0 105 64 173t148 68q67 0 113 -45t46 -117q0 -22 -10 -29q-30 -12 -88 -12z"/>
<glyph glyph-name="eacute" horiz-adv-x="433" unicode="é" d="M215 491l-11 13l80 148h4q20 0 49 -12v-8zM108 270h221q5 12 5 34q0 43 -24.5 81t-69.5 38q-34 0 -60.5 -18t-41 -44t-22 -49.5t-8.5 -41.5zM307 243h-199q-1 -7 -1 -22q0 -91 49 -143t123 -52q19 0 32 5q68 50 77 55l3 -8q-4 -14 -20 -35.5t-25 -28.5q-17 -9 -51 -18 t-56 -9q-89 0 -147 60.5t-58 157.5q0 105 64 173t148 68q67 0 113 -45t46 -117q0 -22 -10 -29q-30 -12 -88 -12z"/>
<glyph glyph-name="ecircumflex" horiz-adv-x="433" unicode="ê" d="M228 649l13 4l82 -150l-13 -10l-76 89l-75 -89l-13 10zM108 270h221q5 12 5 34q0 43 -24.5 81t-69.5 38q-34 0 -60.5 -18t-41 -44t-22 -49.5t-8.5 -41.5zM307 243h-199q-1 -7 -1 -22q0 -91 49 -143t123 -52q19 0 32 5q68 50 77 55l3 -8q-4 -14 -20 -35.5t-25 -28.5 q-17 -9 -51 -18t-56 -9q-89 0 -147 60.5t-58 157.5q0 105 64 173t148 68q67 0 113 -45t46 -117q0 -22 -10 -29q-30 -12 -88 -12z"/>
<glyph glyph-name="edieresis" horiz-adv-x="433" unicode="ë" d="M310 627l5 2q7 -4 19 -18t18 -25l-1 -5q-13 -25 -39 -43l-7 -2q-25 19 -36 42l2 7q16 29 39 42zM154 627l6 2q7 -4 19 -18t17 -25l-2 -5q-9 -23 -38 -43l-6 -2q-25 16 -37 42l2 7q16 29 39 42zM108 270h221q5 12 5 34q0 43 -24.5 81t-69.5 38q-34 0 -60.5 -18t-41 -44 t-22 -49.5t-8.5 -41.5zM307 243h-199q-1 -7 -1 -22q0 -91 49 -143t123 -52q19 0 32 5q68 50 77 55l3 -8q-4 -14 -20 -35.5t-25 -28.5q-17 -9 -51 -18t-56 -9q-89 0 -147 60.5t-58 157.5q0 105 64 173t148 68q67 0 113 -45t46 -117q0 -22 -10 -29q-30 -12 -88 -12z"/>
<glyph glyph-name="igrave" horiz-adv-x="242" unicode="ì" d="M139 505l-12 -13l-123 139v11q25 10 48 10h10zM40 409l4 9q54 20 113 28v-199q0 -155 3 -207l69 -31l-5 -11q-90 3 -102 3q-17 0 -50 -1.5t-45 -1.5l4 11l58 31q3 144 3 209v136z"/>
<glyph glyph-name="iacute" horiz-adv-x="242" unicode="í" d="M98 491l-11 13l80 148h4q20 0 49 -12v-8zM40 409l4 9q54 20 113 28v-199q0 -155 3 -207l69 -31l-5 -11q-90 3 -102 3q-17 0 -50 -1.5t-45 -1.5l4 11l58 31q3 144 3 209v136z"/>
<glyph glyph-name="icircumflex" horiz-adv-x="242" unicode="î" d="M102 649l13 4l82 -150l-13 -10l-76 89l-75 -89l-13 10zM40 409l4 9q54 20 113 28v-199q0 -155 3 -207l69 -31l-5 -11q-90 3 -102 3q-17 0 -50 -1.5t-45 -1.5l4 11l58 31q3 144 3 209v136z"/>
<glyph glyph-name="idieresis" horiz-adv-x="242" unicode="ï" d="M189 627l5 2q7 -4 19 -18t18 -25l-1 -5q-13 -25 -39 -43l-7 -2q-25 19 -36 42l2 7q16 29 39 42zM33 627l6 2q7 -4 19 -18t17 -25l-2 -5q-9 -23 -38 -43l-6 -2q-25 16 -37 42l2 7q16 29 39 42zM40 409l4 9q54 20 113 28v-199q0 -155 3 -207l69 -31l-5 -11q-90 3 -102 3 q-17 0 -50 -1.5t-45 -1.5l4 11l58 31q3 144 3 209v136z"/>
<glyph glyph-name="eth" horiz-adv-x="483" unicode="ð" d="M247 423h-1q-61 0 -97.5 -63.5t-36.5 -137.5q0 -81 35 -146.5t100 -65.5q37 0 63.5 22.5t40 59.5t19.5 75.5t6 80.5q0 87 -29 126q-35 49 -100 49zM93 701l12 16q103 -29 177 -90l115 65l21 -17l-115 -65q64 -60 105 -149.5t41 -190.5q0 -140 -57.5 -211.5t-151.5 -71.5 q-82 0 -143 59t-61 164q0 109 66 172.5t147 63.5q70 0 113 -42l2 1q-34 117 -99 182l-150 -85l-23 16l154 89q-54 54 -153 94z"/>
<glyph glyph-name="ntilde" horiz-adv-x="527" unicode="ñ" d="M377 605l12 -7q-45 -70 -85 -70q-11 0 -51 19q-31 15 -41 15q-26 0 -57 -38l-13 11q52 70 85 70q9 0 47 -16q34 -17 45 -17q28 0 58 33zM92 281v97l-52 24l3 10q86 32 114 34l-4 -84h2q58 50 92 67t68 17q65 0 97 -45t32 -105v-239q0 -17 11 -22l61 -26l-4 -11 q-30 2 -104 2q-29 0 -73 -2l4 11l33 32q6 56 6 241q0 60 -29.5 88.5t-71.5 28.5q-63 0 -120 -63q0 -279 4 -297l55 -30l-3 -11q-40 2 -90 2q-47 0 -95 -2l4 11l56 30q4 19 4 242z"/>
<glyph glyph-name="ograve" horiz-adv-x="502" unicode="ò" d="M291 505l-12 -13l-123 139v11q25 10 48 10h10zM251 423h-1q-67 0 -103 -62t-36 -143t41 -144.5t108 -63.5q45 0 76 31t43 75t12 96q0 81 -38 146t-102 65zM252 446h1q89 0 152 -63.5t63 -161.5q0 -105 -62.5 -169.5t-156.5 -64.5q-83 0 -149 61t-66 162q0 106 69 171 t149 65z"/>
<glyph glyph-name="oacute" horiz-adv-x="502" unicode="ó" d="M231 491l-11 13l80 148h4q20 0 49 -12v-8zM251 423h-1q-67 0 -103 -62t-36 -143t41 -144.5t108 -63.5q45 0 76 31t43 75t12 96q0 81 -38 146t-102 65zM252 446h1q89 0 152 -63.5t63 -161.5q0 -105 -62.5 -169.5t-156.5 -64.5q-83 0 -149 61t-66 162q0 106 69 171t149 65z "/>
<glyph glyph-name="ocircumflex" horiz-adv-x="502" unicode="ô" d="M244 649l13 4l82 -150l-13 -10l-76 89l-75 -89l-13 10zM251 423h-1q-67 0 -103 -62t-36 -143t41 -144.5t108 -63.5q45 0 76 31t43 75t12 96q0 81 -38 146t-102 65zM252 446h1q89 0 152 -63.5t63 -161.5q0 -105 -62.5 -169.5t-156.5 -64.5q-83 0 -149 61t-66 162 q0 106 69 171t149 65z"/>
<glyph glyph-name="otilde" horiz-adv-x="502" unicode="õ" d="M359 605l12 -7q-45 -70 -85 -70q-11 0 -51 19q-31 15 -41 15q-26 0 -57 -38l-13 11q52 70 85 70q9 0 47 -16q34 -17 45 -17q28 0 58 33zM251 423h-1q-67 0 -103 -62t-36 -143t41 -144.5t108 -63.5q45 0 76 31t43 75t12 96q0 81 -38 146t-102 65zM252 446h1 q89 0 152 -63.5t63 -161.5q0 -105 -62.5 -169.5t-156.5 -64.5q-83 0 -149 61t-66 162q0 106 69 171t149 65z"/>
<glyph glyph-name="odieresis" horiz-adv-x="502" unicode="ö" d="M329 627l5 2q7 -4 19 -18t18 -25l-1 -5q-13 -25 -39 -43l-7 -2q-25 19 -36 42l2 7q16 29 39 42zM173 627l6 2q7 -4 19 -18t17 -25l-2 -5q-9 -23 -38 -43l-6 -2q-25 16 -37 42l2 7q16 29 39 42zM251 423h-1q-67 0 -103 -62t-36 -143t41 -144.5t108 -63.5q45 0 76 31t43 75 t12 96q0 81 -38 146t-102 65zM252 446h1q89 0 152 -63.5t63 -161.5q0 -105 -62.5 -169.5t-156.5 -64.5q-83 0 -149 61t-66 162q0 106 69 171t149 65z"/>
<glyph glyph-name="divide" horiz-adv-x="518" unicode="÷" d="M261 408l5 1q6 -3 17 -15.5t16 -22.5l-1 -6q-15 -25 -36 -38l-5 -2q-22 12 -34 39l1 6q17 24 37 38zM260 145h6q6 -3 17 -15.5t15 -22.5l-1 -6q-9 -20 -36 -39l-5 -1q-24 13 -33 38l1 7q22 27 36 39zM68 251h396l-13 -36h-397z"/>
<glyph glyph-name="oslash" horiz-adv-x="503" unicode="ø" d="M368 342l-204 -287q37 -45 97 -45q67 0 101 61t34 148q0 76 -26 122zM147 78l205 290q-39 55 -100 55q-68 0 -106 -62t-38 -143q0 -87 37 -140h2zM380 405l44 61l20 -19l-43 -60q69 -64 69 -166q0 -104 -63.5 -169t-156.5 -65q-61 0 -114 33l-50 -69l-18 22l45 62 q-79 61 -79 175q0 107 69.5 171.5t149.5 64.5q73 0 127 -41z"/>
<glyph glyph-name="ugrave" horiz-adv-x="515" unicode="ù" d="M273 505l-12 -13l-123 139v11q25 10 48 10h10zM80 391l-56 24l6 10q13 4 54 9t64 5h4q-8 -70 -8 -305q0 -41 18 -67q31 -31 77 -31q33 0 69.5 21t51.5 48v279q-19 14 -67 33l5 9q56 13 124 13h7q-3 -46 -3 -373q25 -40 80 -57l-3 -8q-20 -10 -47 -10q-84 0 -95 78l-2 1 q-74 -83 -147 -83q-61 0 -96 35q-38 38 -38 117q0 33 1 122t1 130z"/>
<glyph glyph-name="uacute" horiz-adv-x="515" unicode="ú" d="M227 491l-11 13l80 148h4q20 0 49 -12v-8zM80 391l-56 24l6 10q13 4 54 9t64 5h4q-8 -70 -8 -305q0 -41 18 -67q31 -31 77 -31q33 0 69.5 21t51.5 48v279q-19 14 -67 33l5 9q56 13 124 13h7q-3 -46 -3 -373q25 -40 80 -57l-3 -8q-20 -10 -47 -10q-84 0 -95 78l-2 1 q-74 -83 -147 -83q-61 0 -96 35q-38 38 -38 117q0 33 1 122t1 130z"/>
<glyph glyph-name="ucircumflex" horiz-adv-x="515" unicode="û" d="M242 649l13 4l82 -150l-13 -10l-76 89l-75 -89l-13 10zM80 391l-56 24l6 10q13 4 54 9t64 5h4q-8 -70 -8 -305q0 -41 18 -67q31 -31 77 -31q33 0 69.5 21t51.5 48v279q-19 14 -67 33l5 9q56 13 124 13h7q-3 -46 -3 -373q25 -40 80 -57l-3 -8q-20 -10 -47 -10 q-84 0 -95 78l-2 1q-74 -83 -147 -83q-61 0 -96 35q-38 38 -38 117q0 33 1 122t1 130z"/>
<glyph glyph-name="udieresis" horiz-adv-x="515" unicode="ü" d="M322 627l5 2q7 -4 19 -18t18 -25l-1 -5q-13 -25 -39 -43l-7 -2q-25 19 -36 42l2 7q16 29 39 42zM166 627l6 2q7 -4 19 -18t17 -25l-2 -5q-9 -23 -38 -43l-6 -2q-25 16 -37 42l2 7q16 29 39 42zM80 391l-56 24l6 10q13 4 54 9t64 5h4q-8 -70 -8 -305q0 -41 18 -67 q31 -31 77 -31q33 0 69.5 21t51.5 48v279q-19 14 -67 33l5 9q56 13 124 13h7q-3 -46 -3 -373q25 -40 80 -57l-3 -8q-20 -10 -47 -10q-84 0 -95 78l-2 1q-74 -83 -147 -83q-61 0 -96 35q-38 38 -38 117q0 33 1 122t1 130z"/>
<glyph glyph-name="yacute" horiz-adv-x="436" unicode="ý" d="M217 491l-11 13l80 148h4q20 0 49 -12v-8zM298 423l5 12q8 0 32.5 -1t36.5 -1q14 0 40 1t34 1l-4 -12q-23 -11 -55 -35q-29 -64 -100 -238.5t-124 -300.5q-12 -61 -24 -101q-6 -3 -22 -3q-14 0 -31.5 6.5t-22.5 12.5q12 22 74 105q37 71 67 144q-3 6 -28.5 73t-60 156.5 t-57.5 142.5q-24 23 -62 39l5 11q27 -2 85 -2q52 0 79 2l-4 -11l-31 -29q12 -44 108 -295h2q66 162 110 295z"/>
<glyph glyph-name="thorn" horiz-adv-x="502" unicode="þ" d="M137 357v-307q37 -26 84 -26q68 0 120.5 54.5t52.5 147.5q0 67 -38.5 120.5t-106.5 53.5q-57 0 -112 -43zM72 102v291q0 212 -3 262l-60 25l4 10q126 27 127 27q-3 -159 -3 -331l2 -1q97 61 141 61q68 0 128.5 -57t60.5 -157q0 -61 -24.5 -110t-63 -77t-79 -43t-77.5 -15 q-31 0 -86 34l-2 -1q0 -42 4 -218l84 -32l-6 -10q-111 3 -115 3q-1 0 -100 -3l4 11l60 28q4 212 4 303z"/>
<glyph glyph-name="ydieresis" horiz-adv-x="436" unicode="ÿ" d="M309 627l5 2q7 -4 19 -18t18 -25l-1 -5q-13 -25 -39 -43l-7 -2q-25 19 -36 42l2 7q16 29 39 42zM153 627l6 2q7 -4 19 -18t17 -25l-2 -5q-9 -23 -38 -43l-6 -2q-25 16 -37 42l2 7q16 29 39 42zM298 423l5 12q8 0 32.5 -1t36.5 -1q14 0 40 1t34 1l-4 -12q-23 -11 -55 -35 q-29 -64 -100 -238.5t-124 -300.5q-12 -61 -24 -101q-6 -3 -22 -3q-14 0 -31.5 6.5t-22.5 12.5q12 22 74 105q37 71 67 144q-3 6 -28.5 73t-60 156.5t-57.5 142.5q-24 23 -62 39l5 11q27 -2 85 -2q52 0 79 2l-4 -11l-31 -29q12 -44 108 -295h2q66 162 110 295z"/>
<glyph glyph-name="dotlessi" horiz-adv-x="242" unicode="ı" d="M40 409l4 9q54 20 113 28v-199q0 -155 3 -207l69 -31l-5 -11q-90 3 -102 3q-17 0 -50 -1.5t-45 -1.5l4 11l58 31q3 144 3 209v136z"/>
<glyph glyph-name="OE" horiz-adv-x="948" unicode="Œ" d="M538 36v589q-35 13 -96 13q-84 0 -148.5 -27t-102 -72t-56 -98.5t-18.5 -112.5q0 -60 19 -114t56 -98t98.5 -70.5t140.5 -26.5q64 0 107 17zM610 658h216q22 8 67 12l2 -2q-2 -12 -7 -37t-12 -55.5t-10 -44.5l-7 -4q-19 54 -34 104l-218 -7v-263q179 0 252 10l3 -5 q-4 -6 -26 -27t-27 -21q-3 0 -90 4t-107 4h-5q0 -200 4 -290l226 -10q45 68 81 115h8q-8 -63 -31 -144q-64 3 -180 3h-105q-22 0 -102 -3t-93 -3q-176 0 -277 90.5t-101 238.5q0 150 109 245.5t305 95.5q14 0 80.5 -3t78.5 -3z"/>
<glyph glyph-name="oe" horiz-adv-x="763" unicode="œ" d="M437 262h218q7 17 7 48q0 44 -23.5 78.5t-73.5 34.5q-43 0 -73.5 -31t-41.5 -64.5t-13 -65.5zM635 236h-198v-20q0 -89 47 -140.5t129 -51.5q14 0 29 5q49 46 78 55l1 -7q-7 -21 -23 -44t-29 -27q-13 -5 -46.5 -12t-54.5 -7q-56 0 -100 24t-67 70q-23 -44 -69 -69 t-95 -25q-82 0 -142.5 61t-60.5 165q0 108 65.5 170.5t143.5 62.5q114 0 163 -100q29 47 74 73.5t95 26.5q66 0 112.5 -44t46.5 -123q0 -24 -10 -30q-32 -13 -89 -13zM239 423h-1q-47 0 -77 -33.5t-40 -76t-10 -92.5q0 -84 36.5 -148t103.5 -64q34 0 58 18t36.5 49t17.5 64 t5 71q0 82 -34 147t-95 65z"/>
<glyph glyph-name="circumflex" horiz-adv-x="386" unicode="ˆ" d="M186 649l13 4l82 -150l-13 -10l-76 89l-75 -89l-13 10z"/>
<glyph glyph-name="ring" horiz-adv-x="386" unicode="˚" d="M193 653h1q31 0 53 -21.5t22 -53.5t-23 -52.5t-53 -20.5q-32 0 -54 20t-22 52q0 33 23.5 54.5t52.5 21.5zM193 627h-1q-18 0 -29.5 -14t-11.5 -34q0 -21 12 -34.5t30 -13.5t30.5 13t12.5 34q0 23 -12 36t-31 13z"/>
<glyph glyph-name="tilde" horiz-adv-x="386" unicode="˜" d="M307 605l12 -7q-45 -70 -85 -70q-11 0 -51 19q-31 15 -41 15q-26 0 -57 -38l-13 11q52 70 85 70q9 0 47 -16q34 -17 45 -17q28 0 58 33z"/>
<glyph glyph-name="afii10023" horiz-adv-x="530" unicode="Ё" d="M366 798l4 2q8 -4 21 -18.5t17 -25.5l-1 -5q-5 -11 -17.5 -24.5t-21.5 -18.5l-7 -2q-22 14 -37 43l1 6q18 28 41 43zM194 798l5 2q8 -4 20.5 -18.5t16.5 -25.5l-1 -5q-5 -11 -18 -24.5t-21 -18.5l-6 -2q-20 10 -39 43l2 6q18 28 41 43zM36 650l3 10q74 -2 112 -2h258 q22 8 66 12l2 -2q-2 -13 -13 -64t-15 -72l-9 -5q-9 27 -33 104l-218 -7v-264q178 0 253 10l2 -4q-3 -7 -25.5 -27.5t-28.5 -20.5q-2 0 -89 4t-107 4h-5q0 -199 4 -289l227 -10q65 97 78 114l10 1q-7 -62 -31 -144q-64 3 -180 3h-150q-24 0 -129 -3l4 11l92 31q6 22 6 303 v279z"/>
<glyph glyph-name="afii10051" horiz-adv-x="733" unicode="Ђ" d="M93 658h463q18 7 63 15l1 -3q0 -43 -24 -143l-7 -6q-28 81 -37 112l-205 -9v-265q87 37 135 37q92 0 151.5 -63.5t59.5 -176.5q0 -118 -66.5 -198.5t-159.5 -121.5l-11 19q160 103 160 299q0 92 -51 147t-123 55q-49 0 -95 -19q0 -98 1.5 -164t2.5 -94.5t1 -36.5l99 -33 l-3 -11q-123 3 -135 3q-11 0 -134 -3l4 11l93 33q3 55 3 292v290l-179 9l-54 -108l-7 -3q-3 30 -3 101q0 12 0.5 28t0.5 18l3 4q4 -1 24.5 -6.5t28.5 -8.5z"/>
<glyph glyph-name="afii10052" horiz-adv-x="488" unicode="Ѓ" d="M212 697l-7 13l142 101q24 -5 50 -33l-1 -11zM41 650l5 10q17 0 50 -1t49 -1h248l32.5 6.5t32.5 5.5l3 -2q-8 -70 -23 -146l-7 -4q-8 21 -22 61.5t-18 50.5l-202 -8v-304q0 -237 4 -277l99 -32l-4 -11q-48 2 -136 2q-30 0 -122 -2l4 11l82 32q4 21 4 300v278z"/>
<glyph glyph-name="afii10053" horiz-adv-x="663" unicode="Є" d="M575 370l3 -6q-4 -8 -27.5 -27.5t-34.5 -19.5q-35 0 -181 4t-218 4q6 -138 90 -224t235 -86q46 0 68 9q90 77 112 90l9 -3q-2 -12 -24.5 -52.5t-30.5 -46.5q-80 -31 -173 -31q-71 0 -135 21t-116 61.5t-83 108t-31 152.5t34.5 154.5t89 111.5t118.5 64.5t128 22.5 q109 0 165 -39q28 19 63 28l4 -3q-20 -107 -38 -154l-8 -4q-24 80 -28 109q-47 32 -142 32q-142 0 -224 -84t-83 -203q386 0 458 11z"/>
<glyph glyph-name="afii10054" horiz-adv-x="481" unicode="Ѕ" d="M249 677h1q64 0 109 -37q19 16 57 34l5 -4q-11 -69 -36 -138l-8 -4q-7 16 -27 89q-35 27 -97 27q-60 0 -95 -36.5t-35 -87.5q0 -70 63 -108q20 -12 43.5 -25t54 -29t48.5 -26q113 -63 113 -156q0 -56 -23 -96.5t-59.5 -60.5t-71.5 -29t-69 -9q-55 0 -108 21.5t-75 41.5 q3 16 19 59.5t23 58.5l8 3q5 -19 22 -134q38 -19 99 -19h5q76 2 118 39t42 104q0 66 -82 113q-13 7 -65 34.5t-79 44.5q-89 55 -89 153q0 70 51.5 123.5t137.5 53.5z"/>
<glyph glyph-name="afii10055" horiz-adv-x="309" unicode="І" d="M38 650l4 10q78 -2 114 -2q37 0 115 2l-4 -11l-78 -32v-274q0 -260 5 -303l92 -31l-3 -11q-54 2 -127 2q-77 0 -129 -2l2 11l85 31q6 26 6 303v276z"/>
<glyph glyph-name="afii10056" horiz-adv-x="309" unicode="Ї" d="M241 798l4 2q8 -4 21 -18.5t17 -25.5l-1 -5q-5 -11 -17.5 -24.5t-21.5 -18.5l-7 -2q-22 14 -37 43l1 6q18 28 41 43zM69 798l5 2q8 -4 20.5 -18.5t16.5 -25.5l-1 -5q-5 -11 -18 -24.5t-21 -18.5l-6 -2q-20 10 -39 43l2 6q18 28 41 43zM38 650l4 10q78 -2 114 -2 q37 0 115 2l-4 -11l-78 -32v-274q0 -260 5 -303l92 -31l-3 -11q-54 2 -127 2q-77 0 -129 -2l2 11l85 31q6 26 6 303v276z"/>
<glyph glyph-name="afii10057" horiz-adv-x="286" unicode="Ј" d="M26 649l6 11q82 -2 118 -2q42 0 112 2l-5 -12l-71 -30q1 -33 1 -152q0 -72 -0.5 -194t-0.5 -139q0 -43 -10 -76q-38 -145 -138 -227l-20 8v7q59 48 79.5 116.5t20.5 168.5v27q0 4 -0.5 67.5t-0.5 149.5q-1 211 -3 245z"/>
<glyph glyph-name="afii10058" horiz-adv-x="861" unicode="Љ" d="M456 337l113 -312q178 11 178 177q0 76 -46.5 116.5t-122.5 40.5q-75 0 -122 -22zM282 634l55 49l5 -3q0 -2 -0.5 -4t-0.5 -4q0 -18 13 -58q15 -46 93 -255q83 32 165 32q103 0 159.5 -47t56.5 -132q0 -62 -25.5 -106.5t-69 -66.5t-89 -31.5t-97.5 -9.5h-75h-31l4 11 l46 28q-72 201 -182 520h-2q-161 -456 -178 -515l83 -33l-3 -11q-84 3 -111 3q-2 0 -89 -3l2 11l66 33q72 156 211 541q4 10 1 25z"/>
<glyph glyph-name="afii10059" horiz-adv-x="938" unicode="Њ" d="M822 203v1q0 81 -47.5 119t-130.5 38q-42 0 -84 -7v-108q0 -148 3 -225q133 1 196 42t63 140zM120 348v271l-80 30l5 11q90 -3 108 -3q29 0 83 3l-5 -11l-42 -32v-240h302v239l-47 35l6 9q72 -3 77 -3q28 0 121 3l-4 -12l-84 -31v-238q51 12 109 12q114 0 174.5 -48 t60.5 -136q0 -210 -317 -210q-98 0 -182 3l2 11l78 28q6 40 6 304q-99 -3 -139 -3h-163q0 -28 -1 -85t-1 -87q0 -56 3 -120l37 -40l-3 -10q-34 2 -77 2q-57 0 -117 -2l5 11l79 32q6 156 6 307z"/>
<glyph glyph-name="afii10060" horiz-adv-x="781" unicode="Ћ" d="M92 658h462q12 4 66 15l2 -3q0 -41 -24 -141l-7 -6q-2 4 -37 110l-208 -9v-269q90 44 165 44q89 0 130 -53q32 -40 32 -122v-173q0 -3 0.5 -5t1.5 -3.5t3 -3t3.5 -2.5t4.5 -2.5l5 -2.5l62 -29l-5 -9h-27q-101 0 -126 8q9 132 9 224q0 133 -137 133q-69 0 -121 -26 q0 -100 1 -165t2.5 -92t1.5 -35l102 -33l-3 -10q-84 2 -138 2q-53 0 -137 -2l4 10l96 33q3 56 3 293v290l-179 9q-5 -10 -17 -34.5t-21.5 -44.5t-14.5 -28l-7 -3q-3 31 -3 100q0 11 0.5 27t0.5 19l3 4q5 -2 24.5 -7t27.5 -8z"/>
<glyph glyph-name="afii10061" horiz-adv-x="621" unicode="Ќ" d="M287 705l-7 13l142 101q24 -5 50 -33l-1 -11zM120 343v276l-82 31l5 10q78 -2 113 -2q37 0 115 2l-4 -11l-78 -32v-276q53 18 73 40q130 140 204 239l-2 40q7 0 30.5 -1t39.5 -1q11 0 39 1t43 1l-4 -11l-108 -41q-42 -43 -121.5 -131.5t-92.5 -105.5v-2q7 -10 33 -42 q166 -205 292 -334l-3 -7q-77 0 -143 66q-44 43 -228 259q-12 15 -27 15q-10 0 -25 -6q0 -242 5 -280l92 -31l-4 -11q-52 2 -126 2q-77 0 -129 -2l3 11l84 31q6 26 6 303z"/>
<glyph glyph-name="afii10062" horiz-adv-x="621" unicode="Ў" d="M410 788l22 13l6 -2q-21 -99 -112 -99q-42 0 -66.5 22t-24.5 49q0 5 1 8q6 6 20 14t22 8l3 -3q2 -27 19 -43.5t47 -16.5q25 0 41 16t22 34zM3 649l4 11q13 0 45.5 -1.5t50.5 -1.5q16 0 49 1.5t49 1.5l-5 -11l-39 -30l196 -399h2q128 322 155 398l-48 31l3 11 q15 0 38 -1.5t33 -1.5q20 0 51.5 1.5t44.5 1.5l-4 -12l-48 -20q-17 -7 -24 -14.5t-15 -26.5q-136 -311 -191 -448q-39 -96 -80 -135t-77 -39q-32 0 -55 32q-15 26 -17 39l4 8q37 -17 77 -17q52 0 80.5 38t28.5 74q0 27 -32 83q-12 22 -88.5 174t-101.5 201q-7 13 -13.5 19 t-23.5 13z"/>
<glyph glyph-name="afii10145" horiz-adv-x="740" unicode="Џ" d="M120 347v272l-80 30l4 11q90 -3 109 -3q29 0 83 3l-5 -11l-42 -32v-276q0 -187 4 -302q59 -8 179 -8q129 0 175 8q4 120 4 312v265l-47 35l6 9q72 -3 77 -3q28 0 121 3l-4 -12l-84 -31v-272q0 -234 6 -303l84 -33v-11q-87 3 -115 3h-183q-6 -31 -17 -90t-15 -78l-14 -7 q-4 17 -15.5 78.5t-18.5 96.5h-185q-27 0 -117 -3l5 11l79 31q6 156 6 307z"/>
<glyph glyph-name="afii10017" horiz-adv-x="696" unicode="А" d="M328 557h-2q-11 -31 -46.5 -124t-51.5 -139q11 0 92.5 -2t106.5 -2q-48 126 -99 267zM299 634l58 49l6 -4v-6q0 -20 13 -59q14 -40 100.5 -262.5t119.5 -302.5q40 -21 93 -40l-4 -11q-62 2 -104 2q-32 0 -100 -2l3 10l39 29q0 1 -86 223q-99 -6 -155 -6q-9 0 -31.5 0.5 t-35.5 0.5q-54 -135 -80 -213l89 -33l-3 -11q-58 2 -117 2q-32 0 -96 -2l2 11l71 32q28 57 97.5 222t128.5 319q5 12 2 26z"/>
<glyph glyph-name="afii10018" horiz-adv-x="568" unicode="Б" d="M453 202v1q0 153 -181 153q-38 0 -83 -6v-105q0 -146 3 -223q138 2 199.5 40t61.5 140zM120 341v278l-79 31l4 10q68 -2 100 -2h268q44 12 69 12l2 -2q-7 -70 -23 -142l-8 -5q-11 28 -39 110l-225 -9v-248q42 11 104 11q117 0 179.5 -48t62.5 -132q0 -208 -319 -208 q-98 0 -183 3l2 11l79 28q6 20 6 302z"/>
<glyph glyph-name="afii10019" horiz-adv-x="567" unicode="В" d="M451 189v1q0 33 -9 57t-33.5 46t-74 33.5t-123.5 11.5h-22v-28q0 -20 -0.5 -70t-0.5 -76q0 -93 5 -143q165 1 220 60q38 41 38 108zM189 640v-279q52 1 90 8t70.5 23t49.5 46t17 74q0 70 -54 101q-44 27 -153 27h-20zM34 643l5 11q166 13 218 13q233 0 233 -150 q0 -47 -27.5 -82.5t-62 -52t-76.5 -24.5v-7q209 -23 209 -158q0 -196 -317 -196q-98 0 -183 3l2 11l79 28q6 39 6 248v336z"/>
<glyph glyph-name="afii10020" horiz-adv-x="488" unicode="Г" d="M41 650l5 10q17 0 50 -1t49 -1h248l32.5 6.5t32.5 5.5l3 -2q-8 -70 -23 -146l-7 -4q-8 21 -22 61.5t-18 50.5l-202 -8v-304q0 -237 4 -277l99 -32l-4 -11q-48 2 -136 2q-30 0 -122 -2l4 11l82 32q4 21 4 300v278z"/>
<glyph glyph-name="afii10021" horiz-adv-x="695" unicode="Д" d="M337 31h1q115 0 181 8q-71 197 -180 517h-2q-176 -495 -183 -516q63 -9 183 -9zM310 634l56 49l6 -4q0 -1 -0.5 -4t-0.5 -4q0 -14 14 -53q11 -36 93.5 -263t118.5 -322l67 -6q-17 -105 -38 -196l-13 -4q-4 25 -12 85.5t-12 87.5h-483q-10 -23 -32.5 -87t-29.5 -82l-13 -4 q1 42 1.5 104t1.5 98l68 5q74 171 216 549q5 14 1 25z"/>
<glyph glyph-name="afii10022" horiz-adv-x="530" unicode="Е" d="M36 650l3 10q74 -2 112 -2h258q22 8 66 12l2 -2q-2 -13 -13 -64t-15 -72l-9 -5q-9 27 -33 104l-218 -7v-264q178 0 253 10l2 -4q-3 -7 -25.5 -27.5t-28.5 -20.5q-2 0 -89 4t-107 4h-5q0 -199 4 -289l227 -10q65 97 78 114l10 1q-7 -62 -31 -144q-64 3 -180 3h-150 q-24 0 -129 -3l4 11l92 31q6 22 6 303v279z"/>
<glyph glyph-name="afii10024" horiz-adv-x="881" unicode="Ж" d="M408 345v274l-77 31l4 10q72 -2 107 -2t109 2l-4 -11l-73 -32v-272q48 16 67 38q100 112 192 239l-2 38q6 0 26 -1t35 -1q14 0 41 1t40 1l-3 -11l-102 -40q-39 -44 -113.5 -131.5t-92.5 -110.5v-2q30 -22 38 -34q176 -227 277 -339l-5 -5q-75 1 -133 67q-16 17 -38 43 t-42.5 51t-61 75.5t-73.5 91.5q-11 14 -25 14q-10 0 -25 -6q0 -245 5 -283l87 -31l-3 -11q-54 2 -122 2q-69 0 -121 -2l2 11l80 31q6 24 6 283q-14 6 -26 6q-19 0 -30 -14q-45 -55 -93.5 -115.5t-75 -92.5t-44.5 -52q-31 -35 -60 -51t-70 -17l-4 5q45 49 280 338q8 11 36 34 v2q-19 25 -93.5 112.5t-113.5 130.5l-104 40l2 11q12 0 38.5 -1t40.5 -1t34 1t26 1l-2 -38q85 -118 192 -239q19 -23 67 -38z"/>
<glyph glyph-name="afii10025" horiz-adv-x="516" unicode="З" d="M99 493l-10 -4q-25 61 -34 98q100 90 204 90q83 0 133.5 -44.5t50.5 -116.5q0 -62 -50 -104q-35 -28 -89 -51v-7q52 -9 81 -23q94 -41 94 -140q0 -70 -39 -119.5t-93.5 -70t-117.5 -20.5q-65 0 -120.5 26t-73.5 49q14 46 44 106l11 6q11 -41 20 -135q32 -19 106 -19h8 q77 2 125.5 47.5t48.5 124.5q0 148 -177 148q-42 0 -77 -8l-3 9l41 36q22 -2 42 -2q69 0 108 36.5t39 100.5q0 57 -36.5 96.5t-103.5 39.5q-61 0 -105 -30q-13 -75 -27 -119z"/>
<glyph glyph-name="afii10026" horiz-adv-x="754" unicode="И" d="M120 346v273l-82 31l4 10q14 0 37 -1t42 -1.5t36 -0.5q16 0 34.5 0.5t41 1.5t34.5 1l-4 -12l-77 -31v-297q0 -156 -8 -245h4q43 62 119 172t139 201.5t118 172.5l-3 36h48q17 0 36 0.5t42.5 1.5t36.5 1l-4 -12l-79 -31v-274q0 -258 5 -303l92 -31l-3 -11q-81 3 -127 3 q-48 0 -123 -3l3 11l81 31q6 134 6 313q0 135 6 232h-4l-378 -549l4 -35h-39q-15 0 -55.5 -1.5t-66.5 -1.5l4 11l74 31q6 96 6 306z"/>
<glyph glyph-name="afii10027" horiz-adv-x="754" unicode="Й" d="M467 796l22 13l6 -2q-21 -99 -112 -99q-42 0 -66.5 22t-24.5 49q0 5 1 8q6 6 20 14t22 8l3 -3q2 -27 19 -43.5t47 -16.5q25 0 41 16t22 34zM120 346v273l-82 31l4 10q14 0 37 -1t42 -1.5t36 -0.5q16 0 34.5 0.5t41 1.5t34.5 1l-4 -12l-77 -31v-297q0 -156 -8 -245h4 q43 62 119 172t139 201.5t118 172.5l-3 36h48q17 0 36 0.5t42.5 1.5t36.5 1l-4 -12l-79 -31v-274q0 -258 5 -303l92 -31l-3 -11q-81 3 -127 3q-48 0 -123 -3l3 11l81 31q6 134 6 313q0 135 6 232h-4l-378 -549l4 -35h-39q-15 0 -55.5 -1.5t-66.5 -1.5l4 11l74 31q6 96 6 306 z"/>
<glyph glyph-name="afii10028" horiz-adv-x="621" unicode="К" d="M120 343v276l-82 31l5 10q78 -2 113 -2q37 0 115 2l-4 -11l-78 -32v-276q53 18 73 40q130 140 204 239l-2 40q7 0 30.5 -1t39.5 -1q11 0 39 1t43 1l-4 -11l-108 -41q-42 -43 -121.5 -131.5t-92.5 -105.5v-2q7 -10 33 -42q166 -205 292 -334l-3 -7q-77 0 -143 66 q-44 43 -228 259q-12 15 -27 15q-10 0 -25 -6q0 -242 5 -280l92 -31l-4 -11q-52 2 -126 2q-77 0 -129 -2l3 11l84 31q6 26 6 303z"/>
<glyph glyph-name="afii10029" horiz-adv-x="695" unicode="Л" d="M299 634l58 49l6 -3v-6q0 -20 13 -60q14 -40 100.5 -262.5t119.5 -302.5q40 -21 93 -40l-4 -11q-93 3 -104 3q-15 0 -31.5 -0.5t-36.5 -1.5t-32 -1l2 10l40 29q-4 11 -27 72t-66 176t-101 272h-2q-168 -443 -191 -515l89 -33l-3 -11q-90 3 -117 3l-96 -3l2 11l70 33 q28 56 97.5 221t129.5 320q6 14 1 25z"/>
<glyph glyph-name="afii10030" horiz-adv-x="911" unicode="М" d="M56 644l6 14l141 2q4 -24 16 -51q16 -35 239 -496h2l49.5 99t103.5 209t95 199q1 4 1 15v25l164 -2l-4 -11l-88 -29q13 -532 20 -578l88 -31l-1 -11q-52 2 -122 2q-49 0 -107 -2l4 11l65 31q-1 33 -3.5 251t-4.5 290h-2q-14 -29 -63 -134t-101 -218.5t-108 -240.5l-12 -4 q-4 10 -80.5 180t-175.5 389h-2q-25 -339 -25 -504v-7l81 -33l-4 -11q-66 2 -109 2q-41 0 -97 -2l3 11l74 32q23 137 54 550q-6 22 -20 29.5t-77 23.5z"/>
<glyph glyph-name="afii10031" horiz-adv-x="749" unicode="Н" d="M39 649l5 11q90 -3 109 -3q28 0 82 3l-4 -11l-42 -32v-244h371v243l-47 35l6 9q75 -3 77 -3q28 0 121 3l-4 -12l-84 -31v-276q0 -279 8 -297l91 -35l-6 -11q-66 2 -131 2q-41 0 -73 -2l4 11l37 33q2 92 2 132q0 28 -0.5 84.5t-0.5 86.5q-31 -9 -130 -9h-241 q0 -26 -1 -81.5t-1 -86.5q0 -56 3 -120l36 -40l-3 -10q-34 2 -76 2q-56 0 -118 -2l6 10l79 33q6 150 6 307v271z"/>
<glyph glyph-name="afii10032" horiz-adv-x="769" unicode="О" d="M382 651h-1q-122 0 -191.5 -89.5t-69.5 -223.5q0 -136 77 -234t199 -98q65 0 115 27t79.5 73t44 103t14.5 121q0 136 -78.5 228.5t-188.5 92.5zM380 677h1q63 0 123.5 -21t111.5 -61t82.5 -105.5t32.5 -147.5v-8q0 -87 -30.5 -156.5t-80.5 -111t-110.5 -63.5t-124.5 -22 q-61 0 -120 20.5t-111 60t-84 107.5t-32 153q0 72 22.5 133t58 101t81.5 68t91.5 40.5t88.5 12.5z"/>
<glyph glyph-name="afii10033" horiz-adv-x="736" unicode="П" d="M39 649l5 11q60 -2 109 -2h430q59 0 121 2l-4 -12l-84 -31v-275q0 -280 8 -298l90 -35l-5 -11q-66 2 -131 2q-42 0 -74 -2l6 12l36 32q1 34 1 109v166v305q-59 7 -183 7q-121 0 -175 -7v-301q0 -39 -0.5 -92t-0.5 -70q0 -57 3 -111l35 -40l-3 -10q-34 2 -76 2 q-57 0 -117 -2l6 11l78 32q6 156 6 307v271z"/>
<glyph glyph-name="afii10034" horiz-adv-x="528" unicode="Р" d="M43 641l6 11q128 15 190 15q113 0 177 -41q77 -50 77 -152q0 -54 -21 -96t-53.5 -64t-66 -33t-65.5 -11q-22 0 -35 4l-5 13q82 9 125.5 57t43.5 125q0 171 -208 171h-19v-282q0 -109 1.5 -183t3 -103.5t1.5 -30.5l106 -32l-5 -11q-98 2 -143 2q-35 0 -109 -2l3 11l70 31 q4 22 4 314v267z"/>
<glyph glyph-name="afii10035" horiz-adv-x="664" unicode="С" d="M409 677h2q107 0 168 -43q29 22 62 32l4 -3q-2 -27 -16.5 -80.5t-21.5 -67.5l-8 -6q-6 10 -16.5 46t-11.5 56q-48 34 -145 34q-146 0 -228 -89.5t-82 -228.5q0 -131 86 -220.5t241 -89.5q50 0 73 10q12 11 36 36t43 43.5t29 26.5l12 -1q-3 -16 -25.5 -64t-29.5 -54 q-85 -33 -176 -33q-56 0 -109 13t-100 40.5t-82 67t-55.5 96.5t-20.5 125q0 86 34.5 155.5t90 111.5t119.5 64.5t127 22.5z"/>
<glyph glyph-name="afii10036" horiz-adv-x="638" unicode="Т" d="M102 658h441q7 2 65 16l1 -3q0 -40 -24 -142l-7 -6q-2 6 -37 110l-194 -9v-257q0 -116 1.5 -189.5t2.5 -101.5t1 -34l109 -33l-3 -11q-17 0 -46.5 1t-53.5 1.5t-45 0.5t-45 -0.5t-53 -1.5t-45 -1l3 11l103 33q3 54 3 292v290l-180 9q-5 -10 -17 -34.5t-21.5 -44.5 t-14.5 -28l-8 -2q-2 40 -2 97q0 41 1 49l3 4q42 -9 62 -16z"/>
<glyph glyph-name="afii10037" horiz-adv-x="621" unicode="У" d="M3 649l4 11q13 0 45.5 -1.5t50.5 -1.5q16 0 49 1.5t49 1.5l-5 -11l-39 -30l196 -399h2q128 322 155 398l-48 31l3 11q15 0 38 -1.5t33 -1.5q20 0 51.5 1.5t44.5 1.5l-4 -12l-48 -20q-17 -7 -24 -14.5t-15 -26.5q-136 -311 -191 -448q-39 -96 -80 -135t-77 -39 q-32 0 -55 32q-15 26 -17 39l4 8q37 -17 77 -17q52 0 80.5 38t28.5 74q0 27 -32 83q-12 22 -88.5 174t-101.5 201q-7 13 -13.5 19t-23.5 13z"/>
<glyph glyph-name="afii10038" horiz-adv-x="766" unicode="Ф" d="M416 580v-480q114 9 175 64.5t61 173.5q0 225 -236 242zM349 100v480q-109 -8 -172.5 -66t-63.5 -169q0 -115 62 -175.5t174 -69.5zM350 633l-74 28l4 10q64 -2 106 -2q32 0 104 2l-3 -11l-71 -29v-27q45 -3 82 -9.5t81.5 -24.5t75 -45t51.5 -75.5t21 -111.5 q0 -60 -20 -106.5t-51 -74.5t-74 -46.5t-82.5 -25.5t-83.5 -9v-36l89 -31l-3 -11q-52 2 -117 2q-69 0 -121 -2l3 11l83 31v36q-312 12 -312 258q0 61 20.5 108.5t51.5 76t74.5 47.5t83 27t82.5 11v29z"/>
<glyph glyph-name="afii10039" horiz-adv-x="672" unicode="Х" d="M37 649l6 11q126 -3 127 -3q6 0 63 3l-3 -11l-11 -31q31 -56 130 -224h2q70 113 129 222l-23 33l4 11q3 0 23.5 -1.5t30.5 -1.5l111 3l-5 -11q-54 -19 -97 -44q-54 -71 -159 -238q143 -245 177 -298q13 -22 27 -27l96 -34l-4 -10q-15 0 -43.5 1t-51.5 1.5t-43 0.5 q-1 0 -85 -3l2 11l35 30q-7 14 -150 262h-2q-98 -163 -148 -256l38 -37l-4 -10q-51 3 -76 3q-16 0 -35 -0.5t-42.5 -1.5t-36.5 -1l4 11l76 28q16 6 36 28q51 68 174 264q-145 248 -156 265q-10 21 -33 28z"/>
<glyph glyph-name="afii10040" horiz-adv-x="739" unicode="Ц" d="M120 347v272l-80 30l5 11q87 -3 108 -3q28 0 82 3l-4 -11l-42 -32v-267q0 -192 4 -311q59 -8 177 -8q131 0 176 8q4 116 4 302v275l-47 35l6 9q72 -3 77 -3q28 0 121 3l-4 -12l-84 -31v-277q0 -269 8 -307l67 -6q-23 -129 -38 -195l-14 -5q-4 25 -12 86t-12 88h-471 q-27 0 -117 -3l5 11l79 31q6 156 6 307z"/>
<glyph glyph-name="afii10041" horiz-adv-x="653" unicode="Ч" d="M96 456v162l-79 32l4 10q21 0 54 -1t52 -1q13 0 43.5 1t50.5 1l-3 -11l-53 -32v-150q0 -77 40 -113.5t125 -36.5q75 0 134 26v276l-83 31l5 10q78 -2 114 -2q37 0 115 2l-4 -11l-78 -32v-273q0 -261 5 -304l92 -31l-3 -11q-54 2 -127 2q-76 0 -130 -2l2 11l86 31 q6 22 6 279q-107 -45 -178 -45q-113 0 -161 63q-29 40 -29 119z"/>
<glyph glyph-name="afii10042" horiz-adv-x="936" unicode="Ш" d="M120 347v272l-80 30l5 11q90 -3 109 -3q28 0 82 3l-6 -11l-43 -32v-272q0 -218 3 -307q42 -7 111 -7q78 0 127 7q6 84 6 306v274l-82 32l5 10q14 0 36.5 -1t41 -1.5t35.5 -0.5q22 0 60.5 1.5t53.5 1.5l-4 -12l-79 -31v-275q0 -216 4 -304q38 -7 115 -7q83 0 125 7 q3 88 3 305v273l-47 36l6 8q72 -3 77 -3q32 0 119 3l-4 -12l-84 -31v-277q0 -276 8 -298l84 -33l-2 -11q-87 3 -112 3h-647q-26 0 -116 -3l5 11l79 31q6 156 6 307z"/>
<glyph glyph-name="afii10043" horiz-adv-x="936" unicode="Щ" d="M120 347v272l-80 30l4 11q90 -3 109 -3q28 0 82 3l-5 -11l-43 -32v-272q0 -219 3 -307q38 -8 111 -8q82 0 127 8q6 81 6 306v274l-82 32l4 10q6 0 49 -1.5t65 -1.5t60.5 1.5t53.5 1.5l-4 -12l-79 -31v-275q0 -217 4 -304q35 -8 115 -8q87 0 125 8q3 88 3 305v273l-47 35 l6 9q72 -3 77 -3q32 0 119 3l-4 -12l-84 -31v-277q0 -272 8 -309l67 -6q-24 -131 -39 -193l-12 -5q-5 27 -13.5 89.5t-11.5 83.5h-668q-56 0 -116 -2l5 11l79 31q6 156 6 307z"/>
<glyph glyph-name="afii10044" horiz-adv-x="697" unicode="Ъ" d="M581 203v1q0 157 -173 157q-26 0 -80 -6v-109q0 -147 3 -224q129 2 189.5 41t60.5 140zM259 344v280l-161 9q-39 -83 -53 -108l-8 -2q-2 44 -2 99q0 39 1 47l3 4q51 -11 62 -15h201q59 0 109 2l-5 -11l-78 -32v-238q55 11 101 11q113 0 173.5 -49t60.5 -135 q0 -209 -313 -209q-96 0 -181 3l3 11l81 28q6 39 6 305z"/>
<glyph glyph-name="afii10045" horiz-adv-x="803" unicode="Ы" d="M533 650l4 10q78 -2 113 -2q37 0 115 2l-4 -11l-78 -32v-273q0 -261 5 -304l92 -31l-3 -11q-54 2 -127 2q-74 0 -130 -2l3 11l85 31q6 25 6 304v275zM442 205v1q0 154 -169 154q-30 0 -84 -6v-108q0 -147 3 -224q128 1 189 41.5t61 141.5zM120 344v275l-82 31l4 10 q78 -2 114 -2q37 0 115 2l-3 -11l-79 -32v-239q60 12 111 12q108 0 166 -47.5t58 -132.5q0 -52 -19.5 -91t-49.5 -61.5t-72.5 -36.5t-82 -19t-85.5 -5q-97 0 -182 3l2 11l79 28q6 41 6 305z"/>
<glyph glyph-name="afii10046" horiz-adv-x="568" unicode="Ь" d="M453 203v1q0 156 -179 156q-34 0 -85 -6q0 -216 3 -332q135 1 198 40t63 141zM121 344v275l-82 31l4 10q80 -2 115 -2q38 0 114 2l-4 -11l-79 -32v-239q55 12 107 12q117 0 178 -47.5t61 -133.5q0 -212 -319 -212q-96 0 -182 3l2 11l79 28q6 39 6 305z"/>
<glyph glyph-name="afii10047" horiz-adv-x="654" unicode="Э" d="M105 313l-2 6q4 8 28 27.5t37 20.5q189 -9 370 -9q-7 141 -85 212.5t-180 71.5q-89 0 -147 -31q-11 -71 -32 -119l-9 -6q-24 56 -36 106q118 85 250 85t224.5 -89.5t92.5 -244.5q0 -77 -21 -139.5t-55 -103.5t-80.5 -68.5t-94.5 -39t-99 -11.5q-77 0 -144.5 27.5 t-85.5 53.5q21 59 49 104l11 7q13 -62 18 -133q54 -25 132 -25h9q53 1 100 17.5t88.5 51t67 96.5t27.5 144q-361 -4 -433 -11z"/>
<glyph glyph-name="afii10048" horiz-adv-x="965" unicode="Ю" d="M609 651h-1q-102 0 -162.5 -88t-60.5 -220q0 -138 67 -237.5t174 -99.5q58 0 102 27t68.5 74t36.5 103t12 120q0 139 -68 230t-168 91zM120 344v275l-82 31l5 10q78 -2 113 -2q39 0 115 2l-3 -11l-79 -32v-245h118q7 58 28.5 111t58 97t94 70.5t128.5 26.5 q130 0 219.5 -93.5t91.5 -247.5q1 -172 -87 -263.5t-218 -91.5q-151 0 -234.5 99t-83.5 248v5h-115q0 -250 5 -293l92 -31l-2 -11q-56 2 -128 2q-77 0 -129 -2l3 11l84 31q6 26 6 304z"/>
<glyph glyph-name="afii10049" horiz-adv-x="605" unicode="Я" d="M413 334v306h-18q-216 0 -216 -155q0 -69 48.5 -110t157.5 -41h28zM484 621v-270q0 -182 5 -311l97 -31l-3 -11q-96 2 -138 2t-122 -2l3 11l84 31q3 144 3 270q-57 0 -91.5 -20.5t-76.5 -82.5q-118 -173 -134 -191q-39 -32 -107 -36l-3 6q15 14 44.5 54t71.5 100t59 83 q52 68 108 90v3q-96 14 -139.5 59.5t-43.5 110.5q0 85 68 133t201 48q110 0 194 -13l-3 -11z"/>
<glyph glyph-name="afii10065" horiz-adv-x="426" unicode="а" d="M105 116v-1q0 -43 26 -64t56 -21q43 0 77 35q9 12 9 24l2 132q-96 -24 -138 -51q-18 -9 -25 -21t-7 -33zM275 244l-1 21q-3 83 -28 112.5t-73 29.5q-35 0 -67 -21q-3 -75 -6 -97l-6 -2q-8 3 -30 31.5t-28 46.5q13 12 50 33t60 31q46 17 66 17q65 0 96 -47t31 -108 q0 -30 -1 -108.5t-1 -116.5q31 -42 83 -57l-6 -9q-16 -9 -38 -9q-80 0 -99 57h-2q-64 -61 -121 -61q-58 0 -88 35.5t-30 73.5q0 58 37 77q21 14 81 35.5t121 35.5z"/>
<glyph glyph-name="afii10066" horiz-adv-x="498" unicode="б" d="M261 420h-1q-64 0 -101.5 -53.5t-37.5 -137.5q0 -88 37.5 -153.5t101.5 -65.5q56 0 91.5 51.5t36.5 162.5q0 93 -34 144.5t-93 51.5zM272 446h1q85 0 138.5 -59t53.5 -158q0 -113 -63 -177.5t-149 -64.5q-101 0 -156.5 78.5t-55.5 221.5q0 210 129 334q83 80 183 80 q85 0 113 23l6 -6q-4 -16 -21.5 -39.5t-37.5 -38.5q-15 -5 -29 -5q-16 0 -44 1t-49 1q-79 0 -130 -61t-51 -179q0 -6 3 -45h2q62 94 157 94z"/>
<glyph glyph-name="afii10067" horiz-adv-x="458" unicode="в" d="M157 219v-11q0 -148 1 -190h18q44 0 79.5 7.5t65 32.5t29.5 66q0 46 -39.5 70.5t-147.5 24.5h-6zM157 418v-177q83 1 125 21t42 73q0 83 -139 83h-28zM93 189v206l-62 28l5 9q13 1 46.5 3.5t66.5 4t61 1.5q96 0 141.5 -25t45.5 -80q0 -85 -128 -101v-4q159 -9 159 -106 q0 -130 -239 -130q-35 0 -88.5 1t-79.5 1l3 10l65 31q4 36 4 151z"/>
<glyph glyph-name="afii10068" horiz-adv-x="377" unicode="г" d="M92 238v156l-61 30l4 11q40 -2 87 -2h169q38 9 62 10l1 -3q-1 -9 -28 -121l-9 -5q-4 14 -27 95l-133 -8v-168q0 -143 3 -193l75 -31l-3 -11q-66 3 -104 3q-39 0 -108 -3l4 11l65 31q3 17 3 198z"/>
<glyph glyph-name="afii10069" horiz-adv-x="501" unicode="д" d="M231 28h1q84 0 111 8q-10 30 -113 311h-2q-15 -43 -55.5 -151.5t-57.5 -159.5q27 -8 116 -8zM208 419l55 33l2 -4q0 -24 10 -50q4 -12 18.5 -48t49 -125t75.5 -195l61 -7q-25 -139 -31 -166l-12 -6q-3 16 -11.5 70t-12.5 79h-328q-6 -20 -19 -73t-20 -70l-12 -6 q-8 76 -12 173l47 6q28 56 144 345q5 13 2 21z"/>
<glyph glyph-name="afii10070" horiz-adv-x="433" unicode="е" d="M108 270h221q5 12 5 34q0 43 -24.5 81t-69.5 38q-34 0 -60.5 -18t-41 -44t-22 -49.5t-8.5 -41.5zM307 243h-199q-1 -7 -1 -22q0 -91 49 -143t123 -52q19 0 32 5q68 50 77 55l3 -8q-4 -14 -20 -35.5t-25 -28.5q-17 -9 -51 -18t-56 -9q-89 0 -147 60.5t-58 157.5 q0 105 64 173t148 68q67 0 113 -45t46 -117q0 -22 -10 -29q-30 -12 -88 -12z"/>
<glyph glyph-name="afii10072" horiz-adv-x="671" unicode="ж" d="M307 227v167l-58 31l3 10q50 -2 82 -2q53 0 91 2l-3 -10l-55 -31v-167q46 12 66 38q52 65 96 132l-4 38q7 0 27.5 -1t31.5 -1q53 0 78 2l-4 -10l-92 -37q-23 -26 -69.5 -81.5t-52.5 -61.5v-2q24 -13 44 -38q97 -127 171 -213l-3 -5q-41 0 -64.5 10t-44.5 34 q-33 37 -125 153q-18 25 -37 25q-7 0 -18 -3q0 -108 3 -167l70 -31l-2 -10q-64 2 -101 2q-34 0 -100 -2l3 10l64 31q3 30 3 167q-10 3 -19 3q-21 0 -41 -24q-120 -150 -124 -154q-37 -44 -105 -44l-3 5q42 48 173 213q19 25 42 38v2q-68 85 -122 143l-97 37l6 10 q23 -2 73 -2q12 0 32 1t27 1l-3 -38q29 -46 97 -132q10 -11 15 -15.5t17 -11t32 -11.5z"/>
<glyph glyph-name="afii10073" horiz-adv-x="397" unicode="з" d="M84 313l-9 -7q-14 22 -33 72q79 68 162 68q63 0 99.5 -29.5t36.5 -79.5q0 -37 -30 -61q-32 -23 -68 -35v-5q31 -5 53 -15q70 -26 70 -92q0 -69 -55 -105.5t-131 -36.5q-49 0 -88.5 17.5t-61.5 39.5q22 59 38 82l10 5q9 -29 18 -103q29 -11 66 -11h6q57 1 89.5 30.5 t32.5 80.5q0 86 -111 86q-37 0 -71 -4l-4 8l35 32q16 -2 41 -2q41 0 66 20.5t25 60.5q0 38 -23.5 62t-69.5 24q-42 0 -70 -17q-15 -63 -23 -85z"/>
<glyph glyph-name="afii10074" horiz-adv-x="533" unicode="и" d="M92 237v156l-56 32l3 10q40 -2 81 -2q30 0 76 2l-3 -10l-39 -29v-125q0 -77 -6 -201h4q26 39 103.5 152t119.5 177l-9 34h47q43 0 89 2l-4 -10l-57 -31v-157q0 -180 4 -197l65 -32l-3 -10q-69 3 -98 3q-18 0 -81 -3l3 11l45 31q4 78 4 145q2 95 6 176l-4 -1 q-43 -64 -122.5 -181.5t-97.5 -143.5l9 -34h-46q-29 0 -101 -3l4 10l60 32q4 17 4 197z"/>
<glyph glyph-name="afii10075" horiz-adv-x="533" unicode="й" d="M335 615l21 13l6 -2q-18 -108 -104 -108q-36 0 -59.5 23t-23.5 53q0 4 2 12q4 6 18 14t23 8h1l3 -3q2 -67 56 -67q41 0 57 57zM92 237v156l-56 32l3 10q40 -2 81 -2q30 0 76 2l-3 -10l-39 -29v-125q0 -77 -6 -201h4q26 39 103.5 152t119.5 177l-9 34h47q43 0 89 2l-4 -10 l-57 -31v-157q0 -180 4 -197l65 -32l-3 -10q-69 3 -98 3q-18 0 -81 -3l3 11l45 31q4 78 4 145q2 95 6 176l-4 -1q-43 -64 -122.5 -181.5t-97.5 -143.5l9 -34h-46q-29 0 -101 -3l4 10l60 32q4 17 4 197z"/>
<glyph glyph-name="afii10076" horiz-adv-x="472" unicode="к" d="M92 237v156l-60 32l3 10q52 -2 89 -2q48 0 92 2l-3 -10l-56 -32v-168q48 12 71 39q48 54 103 133l-4 38q7 0 25.5 -1t30.5 -1q59 0 86 2l-4 -10l-95 -37q-76 -80 -121 -138v-2q25 -34 32 -42q100 -127 180 -214l-3 -5q-43 0 -68 10t-46 33q-50 54 -133 158q-18 22 -34 22 q-8 0 -20 -3q0 -113 3 -167l71 -32l-2 -10q-64 2 -102 2q-36 0 -106 -2l4 10l64 32q3 20 3 197z"/>
<glyph glyph-name="afii10077" horiz-adv-x="495" unicode="л" d="M205 418l57 34l3 -4q-2 -17 10 -50q43 -106 141 -337q15 -27 72 -52l-5 -11q-13 0 -39 1.5t-40 1.5q-10 0 -23 -0.5t-29.5 -1.5t-25.5 -1l2 11l28 20q-41 106 -126 319l-2 1q-93 -230 -124 -310l58 -31l-3 -10q-72 3 -79 3q-12 0 -36.5 -1.5t-36.5 -1.5l4 11l47 28 q39 65 153 338q5 10 1 21z"/>
<glyph glyph-name="afii10078" horiz-adv-x="632" unicode="м" d="M131 41l57 -33l-3 -10q-15 0 -44.5 1t-39.5 1q-14 0 -40.5 -1t-39.5 -1l2 10l63 31q8 48 27 355l-70 32l3 9q20 0 57 -1t49 -1h30v-26q6 -19 137 -304h3q11 23 61 129t80 173l1 28h38q29 0 101 2l-4 -9l-65 -32q0 -6 -0.5 -29t-0.5 -39q0 -247 6 -287l69 -32l-4 -9 q-16 0 -48 1t-45 1q-21 0 -50.5 -1t-36.5 -1l2 10l41 31q9 315 9 326h-3q-18 -38 -40.5 -88.5t-58.5 -133t-65 -147.5l-15 -9q-16 38 -62 149.5t-93 223.5h-3q-5 -112 -5 -319z"/>
<glyph glyph-name="afii10079" horiz-adv-x="528" unicode="н" d="M157 247h215v147l-38 31l4 10q54 -2 71 -2q44 0 88 2l-3 -10l-57 -31v-158q0 -175 3 -196l65 -32l-2 -10q-46 2 -98 2q-39 0 -81 -2l3 10l42 32q3 81 3 175q-78 -6 -215 -6q0 -114 3 -169l39 -32l-3 -10q-40 2 -71 2q-53 0 -101 -2l4 10l61 32q3 14 3 196v157l-56 32 l3 10q40 -2 81 -2q30 0 76 2l-3 -10l-36 -29v-149z"/>
<glyph glyph-name="afii10080" horiz-adv-x="502" unicode="о" d="M251 423h-1q-67 0 -103 -62t-36 -143t41 -144.5t108 -63.5q45 0 76 31t43 75t12 96q0 81 -38 146t-102 65zM252 446h1q89 0 152 -63.5t63 -161.5q0 -105 -62.5 -169.5t-156.5 -64.5q-83 0 -149 61t-66 162q0 106 69 171t149 65z"/>
<glyph glyph-name="afii10081" horiz-adv-x="528" unicode="п" d="M92 238v156l-64 31l4 10q48 -2 95 -2h275q17 0 52 1t47 1l-4 -10l-61 -30v-158q0 -178 4 -197l65 -32l-6 -10q-38 2 -96 2q-34 0 -92 -2l3 10l53 31q4 24 4 154v46l-1 162q-34 6 -106 6q-67 0 -107 -6v-162q0 -182 4 -199l56 -32l-2 -10q-34 2 -90 2q-47 0 -101 -2l3 10 l61 31q4 19 4 199z"/>
<glyph glyph-name="afii10082" horiz-adv-x="511" unicode="р" d="M149 354v-308q35 -22 83 -22q71 0 121 54t50 147q0 68 -37.5 121.5t-107.5 53.5q-52 0 -109 -46zM149 450l-5 -73h2q100 69 144 69q69 0 128 -55.5t59 -153.5q0 -61 -24.5 -111t-62 -79t-78.5 -44.5t-78 -15.5q-11 0 -38.5 11t-43.5 22l-3 -1q0 -77 4 -215l94 -33l-6 -10 q-90 2 -130 2q-29 0 -89 -2l4 11l54 29q4 216 4 297v285l-55 29l7 9q12 6 53 16.5t60 12.5z"/>
<glyph glyph-name="afii10083" horiz-adv-x="433" unicode="с" d="M34 213v1q0 110 74.5 171t172.5 61q38 0 74.5 -12t46.5 -24q-16 -67 -34 -99l-6 -4q-13 29 -29 106q-14 7 -44 7q-87 0 -134.5 -58.5t-47.5 -141.5q0 -87 52 -142t133 -55q15 0 29 6q53 47 82 61l3 -5q-6 -19 -27 -47t-33 -36q-51 -15 -92 -15q-26 0 -54 6.5t-58 23.5 t-54 42t-39 65t-15 89z"/>
<glyph glyph-name="afii10084" horiz-adv-x="445" unicode="т" d="M83 433h282q29 9 57 10l1 -3q-2 -14 -8 -38.5t-12.5 -51t-7.5 -32.5l-9 -4q-3 9 -25 92l-111 -5v-159q0 -150 3 -202l76 -32l-3 -10q-46 2 -107 2q-66 0 -114 -2l4 10l73 32q3 19 3 197v164l-106 4q-37 -75 -45 -87l-9 -2v17q0 57 3 108l2 2q26 0 53 -10z"/>
<glyph glyph-name="afii10085" horiz-adv-x="436" unicode="у" d="M298 423l5 12q8 0 32.5 -1t36.5 -1q14 0 40 1t34 1l-4 -12q-23 -11 -55 -35q-29 -64 -100 -238.5t-124 -300.5q-12 -61 -24 -101q-6 -3 -22 -3q-14 0 -31.5 6.5t-22.5 12.5q12 22 74 105q37 71 67 144q-3 6 -28.5 73t-60 156.5t-57.5 142.5q-24 23 -62 39l5 11 q27 -2 85 -2q52 0 79 2l-4 -11l-31 -29q12 -44 108 -295h2q66 162 110 295z"/>
<glyph glyph-name="afii10086" horiz-adv-x="636" unicode="ф" d="M287 34v370q-22 14 -52 14q-46 0 -87.5 -48.5t-41.5 -151.5q0 -85 38 -140.5t90 -55.5q29 0 53 12zM287 655l-56 21l3 10q61 23 113 31v-296q53 29 89 29q65 0 114.5 -61t49.5 -157q0 -111 -57.5 -178t-130.5 -67q-31 0 -65 24q0 -96 3 -208l70 -32l-6 -10q-68 2 -103 2 q-29 0 -89 -2l3 11l60 28q3 189 3 212q-34 -25 -77 -25q-72 0 -124.5 64.5t-52.5 159.5q0 104 60.5 171.5t129.5 67.5q35 0 63 -20v225zM347 402v-369q22 -11 51 -11q19 0 39.5 9.5t42 30t35 62t13.5 97.5q0 82 -32 137t-94 55q-33 0 -55 -11z"/>
<glyph glyph-name="afii10087" d="M173 401l71 -125h2q50 87 63 117q2 8 2 22q0 4 -0.5 10.5t-0.5 9.5q27 -3 45 -3q47 0 96 3l-3 -11q-66 -23 -99 -39q-35 -48 -91 -134q60 -113 105 -183q15 -26 32 -30l73 -28l-5 -10q-16 0 -69.5 -2.5t-70.5 -2.5q-34 70 -102 193h-2q-64 -109 -83 -148q13 -15 32 -32 l-5 -10q-28 2 -65 2q-38 0 -86 -2l1 10l59 28q19 6 34 27q57 82 100 153q-85 154 -102 177q-34 18 -77 31l4 11q40 -3 80 -3q29 0 66 3z" unicode="х"/>
<glyph glyph-name="afii10088" horiz-adv-x="528" unicode="ц" d="M92 236v157l-56 32l3 10q40 -2 81 -2q30 0 76 2l-3 -10l-36 -29v-160v-201q39 -6 108 -6q68 0 107 6v203v156l-37 31l3 10q54 -2 71 -2q44 0 88 2l-3 -10l-57 -31v-158q0 -181 3 -204l63 -8q-4 -23 -11 -62t-11.5 -65t-8.5 -41l-11 -5q-2 9 -26 150h-310q-29 0 -101 -3 l4 10l61 31q3 22 3 197z"/>
<glyph glyph-name="afii10089" d="M68 302v92l-56 31l4 10q38 -2 76 -2q16 0 39.5 1t32.5 1l-2 -10l-26 -32q-3 -31 -3 -72q0 -106 96 -106q53 0 88 19v160l-57 31l3 10q48 -2 86 -2t92 2l-3 -10l-56 -31v-153q0 -148 3 -201l66 -32l-2 -10q-60 2 -102 2q-52 0 -98 -2l4 10l61 32q3 78 3 171 q-76 -35 -120 -35q-55 0 -89 26q-40 31 -40 100z" unicode="ч"/>
<glyph glyph-name="afii10090" horiz-adv-x="714" unicode="ш" d="M93 236v157l-56 32l3 10q40 -2 81 -2q31 0 75 2l-2 -10l-38 -29v-160v-201q33 -6 80 -6q56 0 87 6q3 28 3 201v157l-56 32l4 10q38 -2 83 -2q41 0 87 2l-2 -10l-53 -29v-160v-201q33 -6 87 -6q58 0 83 6v203v156l-37 31l3 10q54 -2 71 -2q43 0 87 2l-4 -10l-57 -31v-158 q0 -174 3 -196l66 -32l-1 -10q-69 3 -99 3h-465q-29 0 -101 -3l4 10l61 32q3 21 3 196z"/>
<glyph glyph-name="afii10091" horiz-adv-x="717" unicode="щ" d="M93 236v157l-56 32l3 10q40 -2 81 -2q31 0 75 2l-2 -10l-38 -29v-161v-201q33 -6 81 -6q55 0 86 6q3 29 3 202v157l-56 32l4 10q38 -2 83 -2q40 0 88 2l-3 -10l-53 -29v-161v-201q33 -6 87 -6q58 0 84 6v203v157l-38 31l4 10q54 -2 71 -2q41 0 87 2l-4 -10l-57 -31v-158 q0 -170 3 -206l64 -6q-17 -106 -32 -168l-11 -5q-8 40 -25 149h-496q-53 0 -101 -2l4 10l61 31q3 22 3 197z"/>
<glyph glyph-name="afii10092" horiz-adv-x="517" unicode="ъ" d="M414 140v1q0 54 -33 80t-90 26q-40 0 -56 -7q0 -77 2 -219q177 0 177 119zM170 230v170l-91 8q-34 -71 -48 -92l-9 -1v36q0 60 2 90l2 2q26 0 53 -10h121q15 0 48.5 1t44.5 1l-4 -10l-54 -28v-134q47 14 93 14q75 0 116 -35t41 -94q0 -81 -64 -116t-164 -35 q-110 0 -153 3l3 10l60 28q3 87 3 192z"/>
<glyph glyph-name="afii10093" horiz-adv-x="631" unicode="ы" d="M474 236v158l-57 31l3 10q48 -2 84 -2q38 0 92 2l-2 -10l-55 -31v-159q0 -140 3 -196l65 -31l-2 -10q-60 2 -102 2q-52 0 -98 -2l5 10l61 31q3 21 3 197zM331 144v1q0 51 -31.5 76.5t-80.5 25.5q-46 0 -62 -7q0 -75 2 -219q172 0 172 123zM157 397v-133q52 13 90 13 q74 0 115 -35t41 -92q0 -82 -64 -117.5t-161 -35.5q-108 0 -151 3l3 10l60 28q3 86 3 192v164l-57 31l4 10q46 -2 85 -2q24 0 94 2l-4 -10z"/>
<glyph glyph-name="afii10094" horiz-adv-x="447" unicode="ь" d="M346 142v1q0 52 -33.5 77.5t-91.5 25.5q-43 0 -64 -6q0 -79 2 -219q95 2 141 30.5t46 90.5zM92 230v164l-57 31l4 10q46 -2 85 -2q25 0 95 2l-4 -10l-58 -28v-134q55 13 103 13q76 0 117 -35t41 -94q0 -80 -66 -115t-173 -35q-110 0 -153 3l3 10l60 28q3 87 3 192z"/>
<glyph glyph-name="afii10095" horiz-adv-x="435" unicode="э" d="M70 195l-2 5q2 6 24 24.5t29 19.5q81 -9 206 -9q-4 89 -48.5 133.5t-110.5 44.5q-36 0 -67 -12q-25 -91 -28 -99l-9 -6q-16 35 -30 88q85 61 164 61q81 0 142 -56.5t61 -165.5q0 -116 -67.5 -176t-161.5 -60q-44 0 -88.5 18.5t-60.5 39.5q18 50 37 86l11 6q7 -31 20 -106 q26 -12 63 -12h7q70 1 117.5 46.5t48.5 137.5q-147 0 -257 -8z"/>
<glyph glyph-name="afii10096" horiz-adv-x="684" unicode="ю" d="M441 423h-1q-62 0 -95 -61.5t-33 -144.5q0 -82 37 -144.5t101 -62.5q59 0 89.5 56.5t30.5 145.5q0 51 -12.5 97t-43 80t-73.5 34zM92 237v156l-57 32l4 10q46 -2 83 -2q38 0 92 2l-3 -10l-56 -32v-152h86q8 93 66 149t136 56q89 0 145 -65t56 -162q0 -108 -56 -170 t-149 -62q-81 0 -140 59.5t-61 161.5h-83q0 -101 3 -168l67 -32l-3 -10q-60 2 -100 2q-53 0 -99 -2l4 10l62 32q3 21 3 197z"/>
<glyph glyph-name="afii10097" d="M320 223v191h-23q-148 0 -148 -95q0 -42 34 -69t105 -27h32zM383 399v-162q0 -144 3 -198l68 -31l-4 -10q-60 2 -102 2q-25 0 -93 -2l4 10l58 31q3 135 3 160q-40 0 -61.5 -10t-46.5 -40q-4 -5 -16 -22t-30 -41.5t-43 -55.5q-35 -43 -105 -43h-7l-3 5q38 37 108 134 q39 55 98 74v3q-136 19 -136 116q0 119 208 119q87 0 162 -8l-4 -9z" unicode="я"/>
<glyph glyph-name="afii10071" horiz-adv-x="433" unicode="ё" d="M315 627l5 2q7 -4 19 -18t18 -25l-1 -5q-13 -25 -39 -43l-7 -2q-25 19 -36 42l2 7q16 29 39 42zM159 627l6 2q7 -4 19 -18t17 -25l-2 -5q-9 -23 -38 -43l-6 -2q-25 16 -37 42l2 7q16 29 39 42zM108 270h221q5 12 5 34q0 43 -24.5 81t-69.5 38q-34 0 -60.5 -18t-41 -44 t-22 -49.5t-8.5 -41.5zM307 243h-199q-1 -7 -1 -22q0 -91 49 -143t123 -52q19 0 32 5q68 50 77 55l3 -8q-4 -14 -20 -35.5t-25 -28.5q-17 -9 -51 -18t-56 -9q-89 0 -147 60.5t-58 157.5q0 105 64 173t148 68q67 0 113 -45t46 -117q0 -22 -10 -29q-30 -12 -88 -12z"/>
<glyph glyph-name="afii10099" horiz-adv-x="493" unicode="ђ" d="M84 281v266h-72l17 31h55v75l-56 24l4 9q7 2 26 7.5t41 11.5t48 12v-139h156l-17 -31h-139v-149q74 48 127 48q71 0 124 -62t53 -171q0 -74 -20.5 -136.5t-54 -104t-65.5 -67.5t-67 -43l-10 19q19 12 39.5 32t46.5 56.5t42.5 95.5t16.5 130v8q-3 200 -141 200 q-50 0 -89 -29q0 -320 4 -336l66 -30l-4 -10q-72 2 -103 2t-91 -2l5 10l54 30q4 17 4 243z"/>
<glyph glyph-name="afii10100" horiz-adv-x="377" unicode="ѓ" d="M189 491l-11 13l80 148h4q20 0 49 -12v-8zM92 238v156l-61 30l4 11q40 -2 87 -2h169q38 9 62 10l1 -3q-1 -9 -28 -121l-9 -5q-4 14 -27 95l-133 -8v-168q0 -143 3 -193l75 -31l-3 -11q-66 3 -104 3q-39 0 -108 -3l4 11l65 31q3 17 3 198z"/>
<glyph glyph-name="afii10101" horiz-adv-x="432" unicode="є" d="M367 246l2 -5q-2 -7 -23.5 -25t-27.5 -18q-4 0 -101.5 4t-109.5 4q5 -84 56.5 -134t130.5 -50q16 0 29 5q51 47 83 65l5 -8q-7 -19 -25 -46t-29 -35q-64 -16 -101 -16q-26 0 -54 6.5t-59 23t-54.5 41.5t-39 65.5t-15.5 90.5q0 102 71 167t177 65q38 0 74 -12t47 -23 q-11 -53 -31 -89l-7 -4q-11 20 -31 94q-21 7 -45 7q-86 0 -134 -56t-48 -126q189 0 260 9z"/>
<glyph glyph-name="afii10102" horiz-adv-x="361" unicode="ѕ" d="M186 446h1q38 0 71 -24q23 15 48 25l5 -6q1 -9 -6.5 -52.5t-14.5 -57.5l-7 -4q-6 10 -12.5 24t-13 29.5t-8.5 19.5q-24 16 -59 16q-37 0 -59.5 -22.5t-22.5 -54.5q0 -41 40 -63q13 -7 101 -46q84 -38 84 -111q0 -65 -52 -98.5t-108 -33.5q-75 0 -139 44q1 13 11 50.5 t15 49.5l6 5q8 -15 22 -60t16 -51q20 -10 63 -10q40 0 69.5 23.5t29.5 59.5q0 46 -43 67q-21 11 -92 45q-83 38 -83 113q0 50 38 86.5t100 36.5z"/>
<glyph glyph-name="afii10103" horiz-adv-x="242" unicode="і" d="M40 409l4 9q54 20 113 28v-199q0 -153 3 -207l69 -31l-5 -11q-90 3 -102 3q-17 0 -50 -1.5t-45 -1.5l4 11l58 31q3 138 3 209v136zM123 649l5 1q8 -3 21 -17.5t19 -26.5l-3 -7q-4 -10 -18.5 -24.5t-23.5 -20.5l-6 -2q-25 17 -39 45l2 7q22 33 43 45z"/>
<glyph glyph-name="afii10104" horiz-adv-x="242" unicode="ї" d="M197 627l5 2q7 -4 19 -18t18 -25l-1 -5q-13 -25 -39 -43l-7 -2q-25 19 -36 42l2 7q16 29 39 42zM41 627l6 2q7 -4 19 -18t17 -25l-2 -5q-9 -23 -38 -43l-6 -2q-25 16 -37 42l2 7q16 29 39 42zM40 409l4 9q54 20 113 28v-199q0 -155 3 -207l69 -31l-5 -11q-90 3 -102 3 q-17 0 -50 -1.5t-45 -1.5l4 11l58 31q3 144 3 209v136z"/>
<glyph glyph-name="afii10105" horiz-adv-x="224" unicode="ј" d="M28 412l3 9q75 25 121 25v-385q0 -89 -41 -167q-51 -98 -109 -151l-18 10l-1 6q65 57 85 123t20 185q0 249 -4 320q-18 9 -56 25zM117 650l6 1q7 -3 20 -17.5t19 -26.5l-2 -7q-5 -10 -19.5 -25t-22.5 -20l-6 -2q-21 12 -40 45l2 7q24 33 43 45z"/>
<glyph glyph-name="afii10106" horiz-adv-x="618" unicode="љ" d="M321 239l84 -217q45 5 78 35.5t33 86.5q0 55 -30.5 83t-83.5 28q-42 0 -81 -16zM191 418l54 34l4 -4q-2 -16 9 -49q2 -5 6.5 -16.5l18 -46t30.5 -77.5q64 27 129 27q70 0 108 -35.5t38 -99.5q0 -54 -34.5 -90.5t-80 -50t-96.5 -13.5q-15 0 -40.5 0.5t-35.5 0.5l2 11 l29 19q-48 135 -118 322l-2 1q-24 -65 -61.5 -166t-54.5 -146l54 -31l-4 -10q-69 3 -75 3q-12 0 -35 -1.5t-34 -1.5l4 11l45 28q41 73 144 339q4 9 2 20z"/>
<glyph glyph-name="afii10107" horiz-adv-x="700" unicode="њ" d="M598 139v1q0 51 -32.5 76.5t-83.5 25.5q-38 0 -65 -6q0 -109 3 -214q88 1 133 28.5t45 88.5zM156 257h198v137l-38 31l4 10q54 -2 70 -2q45 0 89 2l-4 -10l-58 -31v-136q49 14 97 14q75 0 115.5 -33.5t40.5 -93.5q0 -79 -65 -113.5t-166 -34.5q-108 0 -150 3l2 10l60 30 q3 84 3 186q-60 -6 -198 -6q0 -125 3 -180l38 -32l-3 -10q-36 2 -69 2q-52 0 -100 -2l4 10l61 32q3 20 3 196v157l-56 32l3 10q40 -2 80 -2q30 0 76 2l-3 -10l-37 -29v-139z"/>
<glyph glyph-name="afii10108" horiz-adv-x="517" unicode="ћ" d="M84 281v266h-72l17 32h55v74l-56 25l3 8q45 14 116 31v-138h142l-18 -32h-124v-166q83 65 146 65q68 0 106 -45t38 -103v-234q0 -26 18 -30l55 -27l-5 -10h-19q-63 0 -123 8q9 92 9 256q0 139 -113 139q-63 0 -110 -42q0 -303 4 -320l67 -30l-3 -10q-64 2 -105 2 q-31 0 -91 -2l5 10l54 30q4 17 4 243z"/>
<glyph glyph-name="afii10109" horiz-adv-x="472" unicode="ќ" d="M232 491l-11 13l80 148h4q20 0 49 -12v-8zM92 237v156l-60 32l3 10q52 -2 89 -2q48 0 92 2l-3 -10l-56 -32v-168q48 12 71 39q48 54 103 133l-4 38q7 0 25.5 -1t30.5 -1q59 0 86 2l-4 -10l-95 -37q-76 -80 -121 -138v-2q25 -34 32 -42q100 -127 180 -214l-3 -5 q-43 0 -68 10t-46 33q-50 54 -133 158q-18 22 -34 22q-8 0 -20 -3q0 -113 3 -167l71 -32l-2 -10q-64 2 -102 2q-36 0 -106 -2l4 10l64 32q3 20 3 197z"/>
<glyph glyph-name="afii10110" horiz-adv-x="436" unicode="ў" d="M303 615l21 13l6 -2q-18 -108 -104 -108q-36 0 -59.5 23t-23.5 53q0 4 2 12q4 6 18 14t23 8h1l3 -3q2 -67 56 -67q41 0 57 57zM298 423l5 12q8 0 32.5 -1t36.5 -1q14 0 40 1t34 1l-4 -12q-23 -11 -55 -35q-29 -64 -100 -238.5t-124 -300.5q-12 -61 -24 -101q-6 -3 -22 -3 q-14 0 -31.5 6.5t-22.5 12.5q12 22 74 105q37 71 67 144q-3 6 -28.5 73t-60 156.5t-57.5 142.5q-24 23 -62 39l5 11q27 -2 85 -2q52 0 79 2l-4 -11l-31 -29q12 -44 108 -295h2q66 162 110 295z"/>
<glyph glyph-name="afii10193" horiz-adv-x="528" unicode="џ" d="M93 236v157l-56 32l3 10q40 -2 81 -2q29 0 75 2l-2 -10l-36 -29v-160v-201q39 -6 107 -6q69 0 106 6v203v156l-37 31l3 10q54 -2 71 -2q43 0 89 2l-4 -10l-57 -31v-158q0 -175 3 -196l64 -32v-10q-72 3 -100 3h-103q-6 -27 -15 -76t-13 -69l-12 -6q-4 18 -13 69t-16 82 h-105q-29 0 -101 -3l4 10l61 31q3 22 3 197z"/>
<glyph glyph-name="afii10050" horiz-adv-x="472" unicode="Ґ" d="M120 341v278l-79 31l4 10q17 0 51 -1t50 -1h237q49 88 60 106l10 3q0 -58 -8 -146l-2 -2q-20 2 -59 13l-195 -10v-303q0 -238 4 -278l99 -32l-4 -11q-48 2 -136 2q-33 0 -119 -2l5 11l78 32q4 20 4 300z"/>
<glyph glyph-name="afii10098" horiz-adv-x="348" unicode="ґ" d="M92 239v155l-57 31l3 9q12 0 41 -1t43 -1h154q1 1 20.5 40.5t30.5 58.5l10 2q-4 -104 -8 -135l-1 -2q-18 1 -54 12l-117 -7v-168q0 -143 3 -193l75 -32l-3 -10q-60 2 -108 2q-54 0 -100 -2l3 10l62 32q3 18 3 199z"/>
<glyph glyph-name="endash" horiz-adv-x="589" unicode="–" d="M533 205h-485l8 43h485z"/>
<glyph glyph-name="emdash" horiz-adv-x="859" unicode="—" d="M803 205h-755l8 43h755z"/>
<glyph glyph-name="quoteleft" horiz-adv-x="166" unicode="‘" d="M127 721l7 -12q-46 -56 -46 -112q0 -8 5 -28l33 -17v-7l-65 -38h-9q-20 13 -20 53q0 89 95 161z"/>
<glyph glyph-name="quoteright" horiz-adv-x="167" unicode="’" d="M39 504l-7 11q46 56 46 112q0 18 -5 28l-32 16v9l65 37h9q6 -3 13 -20t7 -35q0 -41 -25 -82.5t-71 -75.5z"/>
<glyph glyph-name="quotesinglbase" horiz-adv-x="200" unicode="‚" d="M53 -98l-7 12q21 26 34 59t13 58q0 17 -4 28l-35 17v9l71 39h9q7 -1 12.5 -20.5t5.5 -37.5q0 -88 -99 -164z"/>
<glyph glyph-name="quotedblleft" horiz-adv-x="308" unicode="“" d="M127 721l8 -12q-47 -55 -47 -112q0 -12 5 -27l33 -17v-8l-65 -37h-9q-20 12 -20 53q0 89 95 160zM268 721l7 -12q-45 -56 -45 -112q0 -12 5 -27l32 -17v-8l-64 -37h-9q-21 13 -21 54q0 87 95 159z"/>
<glyph glyph-name="quotedblright" horiz-adv-x="308" unicode="”" d="M180 504l-7 11q46 56 46 112q0 19 -5 27l-33 17v9l65 37h9q6 -3 13 -20t7 -35q0 -40 -24.5 -82t-70.5 -76zM40 504l-7 11q45 56 45 112q0 19 -5 27l-32 17v9l65 37h9q5 -3 12.5 -21t7.5 -36q0 -40 -24.5 -81t-70.5 -75z"/>
<glyph glyph-name="quotedblbase" horiz-adv-x="340" unicode="„" d="M193 -98l-7 12q46 57 46 117q0 15 -5 28l-34 17v9l71 39h9q7 -1 12.5 -20.5t5.5 -37.5q0 -41 -25.5 -84.5t-72.5 -79.5zM53 -98l-7 12q21 26 34 59t13 58q0 17 -4 28l-35 17v9l71 39h9q7 -1 12.5 -21t5.5 -37q0 -88 -99 -164z"/>
<glyph glyph-name="bullet" horiz-adv-x="361" unicode="•" d="M179 345l14 5q21 -9 55 -48t51 -71l-5 -19q-14 -29 -50.5 -66.5t-61.5 -51.5l-15 -5q-28 16 -58.5 51.5t-46.5 65.5l5 20q24 36 56 70.5t56 48.5z"/>
<glyph glyph-name="guilsinglleft" horiz-adv-x="276" unicode="‹" d="M223 38l-9 -10q-84 112 -166 188q82 82 163 187l9 -11q-8 -16 -99 -176q78 -123 102 -178z"/>
<glyph glyph-name="guilsinglright" horiz-adv-x="275" unicode="›" d="M51 392l10 11q80 -110 164 -188q-99 -103 -160 -187l-9 13q11 19 45 81t52 93q-79 127 -102 177z"/>
<glyph glyph-name="fraction" horiz-adv-x="97" unicode="⁄" d="M247 664l19 -20q-190 -308 -417 -685l-19 22q248 405 417 683z"/>
<glyph glyph-name="foursuperior" horiz-adv-x="294" unicode="⁴" d="M166 550l8 172h-2q-61 -85 -113 -171zM213 528l2 -72l52 -21l-3 -8q-15 0 -41 1t-38 1q-15 0 -42.5 -1t-39.5 -1l2 8l59 21l2 70l-136 -3l-10 15q23 38 79.5 117.5t66.5 90.5q11 8 47 14v-210l34 -1q12 18 21 27l8 -1q0 -9 -4.5 -37t-7.5 -36l-7 -4q-8 14 -13 32z"/>
<glyph glyph-name="Euro" d="M38 388h33q20 119 90.5 186t159.5 67q78 0 132 -42q-2 -16 -12.5 -52.5t-16.5 -48.5l-8 -5q-5 12 -14 48.5t-11 62.5q-17 10 -55 10q-77 0 -126.5 -57t-64.5 -167l284 4l-14 -35l-273 4q-2 -26 -2 -50v-15l258 4l-15 -37l-241 4q5 -108 50 -173t120 -65q25 0 42 8 q61 74 89 98l11 -2q-2 -12 -21 -57t-24 -51q-56 -27 -110 -27q-97 0 -161 73t-72 197l-60 1l9 25l49 1v18q0 33 3 49l-38 -1z" unicode="€"/>
<glyph glyph-name="afii61352" horiz-adv-x="821" unicode="№" d="M734 168l-217 -10l30 41h222v-3zM652 266h1q32 0 51 32.5t19 88.5q0 59 -21 99t-60 40q-34 0 -53.5 -37t-19.5 -87q0 -56 22 -96t61 -40zM648 243h-1q-66 0 -104 43.5t-38 104.5q0 76 43 116.5t98 40.5q62 0 100.5 -43.5t38.5 -112.5t-41 -109t-96 -40zM32 623l1 8 q73 22 116 25l21 -62q123 -250 247 -491h2q0 49 -3 195.5t-3 190.5q0 53 9 89t24 50.5t26.5 19.5t23.5 5q29 -8 53 -24l-3 -8l-82 -46q-17 -30 -17 -128v-397l42 -52l-4 -8l-77 -7q-78 150 -267 538h-2v-54q0 -78 1.5 -191.5t1.5 -145.5q0 -48 -9 -80t-24 -45t-26.5 -17.5 t-23.5 -4.5q-30 23 -41 34l2 9l72 35q19 23 19 184v334q-13 21 -26 27.5t-53 16.5z"/>
<glyph glyph-name="uni2215" horiz-adv-x="97" unicode="∕" d="M247 664l19 -20q-190 -308 -417 -685l-19 22q248 405 417 683z"/>
</font>
</defs>
</svg>
