<?xml version="1.0" encoding="UTF-8" standalone="no"?>
<!DOCTYPE svg  PUBLIC '-//W3C//DTD SVG 1.1//EN'  'http://www.w3.org/Graphics/SVG/1.1/DTD/svg11.dtd'>
<svg xmlns="http://www.w3.org/2000/svg">
<defs>
<font id="WarnockPro-LightItSubh" horiz-adv-x="483">
<font-face slope="-15" underline-position="-75" font-weight="300" descent="-200" panose-1="2 10 5 3 6 5 11 9 2 4" units-per-em="1000" unicode-range="U+0020-E0FF" bbox="-211 -247 1048 860" x-height="445" underline-thickness="50" font-family="Warnock Pro Light Subhead" ascent="800" font-style="italic" cap-height="661"/>
<missing-glyph horiz-adv-x="1000"/>
<glyph glyph-name=".notdef" horiz-adv-x="1000"/>
<glyph glyph-name=".null" horiz-adv-x="0"/>
<glyph glyph-name="nonmarkingreturn" horiz-adv-x="333"/>
<glyph glyph-name="space" horiz-adv-x="212" unicode=" "/>
<glyph glyph-name="exclam" horiz-adv-x="217" unicode="!" d="M71 97h6q7 -6 17.5 -25.5t12.5 -29.5l-1 -6q-6 -11 -26.5 -29t-30.5 -23h-5q-23 19 -34 60l1 1q30 41 60 52zM120 208l-25 -11q66 296 80 380l-2 40q33 26 89 32l6 -5q-40 -112 -148 -436z"/>
<glyph glyph-name="quotedbl" horiz-adv-x="276" unicode='&quot;' d="M272 489l-23 -14q4 21 18.5 81t19.5 86l-9 25q16 7 75 28l13 1q-4 -9 -41.5 -93.5t-52.5 -113.5zM144 485l-24 -15q32 117 40 166l-9 26q42 19 74 28l13 1q-2 -4 -40.5 -90t-53.5 -116z"/>
<glyph glyph-name="numbersign" d="M154 459l83 -1l61 168l34 5l-64 -173h111l62 168l34 5l-65 -173l88 1l-34 -50l-73 2l-52 -139h88l-33 -48l-73 1l-67 -185l-33 -5l68 190h-111l-68 -185l-32 -5l69 190l-97 -1l33 48h83l51 139l-96 -1zM360 411h-111l-52 -139h112z" unicode="#"/>
<glyph glyph-name="dollar" d="M273 286l-69 -248q81 2 115.5 39.5t34.5 90.5q0 39 -20.5 65t-60.5 53zM272 366l66 234q-3 0 -8.5 0.5t-8.5 0.5q-55 0 -94 -30.5t-39 -92.5q0 -39 22.5 -64t61.5 -48zM345 625l26 88l25 5l-27 -99q39 -11 65 -37q31 22 56 30l5 -3q-6 -19 -26 -68t-29 -63l-8 -4 q-4 25 -8 87q-21 24 -61 34l-71 -241q32 -21 48 -33t37.5 -33t30.5 -45t9 -54q0 -76 -59 -126t-161 -50l-26 -94l-30 -8l29 104q-43 6 -86.5 29.5t-64.5 47.5q1 9 21 41t36 52l9 2q0 -1 0.5 -6.5t0.5 -8.5q0 -15 -2 -54.5t-2 -43.5q38 -31 94 -35l75 261q-36 22 -58 40 t-41.5 51t-19.5 72q0 74 53 119t130 45q10 0 30 -2z" unicode="$"/>
<glyph glyph-name="percent" horiz-adv-x="732" unicode="%" d="M580 336h-1q-40 0 -72.5 -44.5t-48 -98t-15.5 -93.5q0 -41 14 -66.5t39 -25.5q37 0 68.5 44t46.5 98t15 96q0 90 -46 90zM576 357h1q46 0 74 -36.5t28 -105.5q0 -82 -56 -155t-134 -73q-42 0 -72 34t-30 98q0 84 55.5 161t133.5 77zM649 659l14 -22q-109 -134 -545 -671 l-16 23q444 540 547 670zM295 633h-1q-42 0 -75 -45t-47.5 -97t-14.5 -93t14 -66.5t39 -25.5q38 0 69.5 44t46.5 98t15 96q0 44 -13 66.5t-33 22.5zM291 654h1q46 0 74 -36.5t28 -104.5q0 -83 -56.5 -155.5t-134.5 -72.5q-41 0 -71.5 34t-30.5 98q0 83 57 160t133 77z"/>
<glyph glyph-name="ampersand" horiz-adv-x="687" unicode="&amp;" d="M305 189l-3 19q94 83 196 83q60 0 120 -6q41 37 71 58l9 -11q-41 -45 -76 -105q-22 7 -79 14q-12 -68 -41.5 -119t-70 -79.5t-84 -42t-91.5 -13.5q-95 0 -157 54.5t-62 140.5q0 132 187 200v2q-53 38 -53 102q0 72 58 119.5t144 47.5q39 0 74.5 -14t54.5 -35 q-2 -11 -18 -36.5t-32 -42.5l-10 -3q-7 32 -10 96q-14 9 -54 9q-62 0 -101.5 -37.5t-39.5 -96.5q0 -41 27.5 -70t81.5 -38l-18 -20q-11 3 -36 3q-74 -1 -128 -46.5t-54 -120.5q0 -73 48 -118.5t129 -45.5q83 0 148 55t85 151q-21 2 -61 2q-83 0 -154 -56z"/>
<glyph glyph-name="quotesingle" horiz-adv-x="149" unicode="&apos;" d="M144 485l-23 -15q32 117 40 166l-10 26q40 17 74 28l14 1q-4 -8 -23 -51t-39.5 -88t-32.5 -67z"/>
<glyph glyph-name="parenleft" horiz-adv-x="287" unicode="(" d="M385 728l11 -10q-134 -106 -214.5 -266t-80.5 -334q0 -192 61 -288l-13 -12q-96 109 -96 313v16q3 168 90.5 326t241.5 255z"/>
<glyph glyph-name="parenright" horiz-adv-x="292" unicode=")" d="M-53 -182l-8 14q128 88 210 256t82 337q0 96 -17 173.5t-43 118.5l13 10q44 -51 69.5 -137.5t25.5 -183.5v-10q-4 -176 -94 -337.5t-238 -240.5z"/>
<glyph glyph-name="asterisk" horiz-adv-x="343" unicode="*" d="M243 490l9 4l1 -102l7 -23q-1 0 -4 -0.5t-5 -0.5q-16 0 -35 5t-25 12l16 16zM262 530l-9 -2l-1 102l-4 20q6 2 13 2q41 0 53 -14l-14 -16zM264 511l3 11l82 48l16 16q9 -6 17 -26.5t8 -33.5v-3l-1 -2l-21 4zM238 511l-3 -11l-83 -49l-16 -16q-6 3 -14.5 23t-8.5 33 q0 4 2 8l20 -3zM244 524l-10 -4l-84 48l-21 4q2 12 17.5 31.5t26.5 21.5l9 -19zM261 496l5 4l86 -49l20 -4q-3 -14 -19 -31.5t-26 -18.5l-8 18z"/>
<glyph glyph-name="plus" horiz-adv-x="531" unicode="+" d="M293 22l-44 -12v205h-183l13 36h170v173l44 13v-186h183l-14 -36h-169v-193z"/>
<glyph glyph-name="comma" horiz-adv-x="194" unicode="," d="M-34 -109l-12 13q78 66 78 135q0 12 -2 18l-35 21l1 7l65 43h7q4 -1 9.5 -8t10 -22.5t4.5 -34.5q0 -49 -36.5 -93.5t-89.5 -78.5z"/>
<glyph glyph-name="hyphen" horiz-adv-x="333" unicode="-" d="M251 212l-215 -19l29 54l45 -1l178 9v-4z"/>
<glyph glyph-name="period" horiz-adv-x="194" unicode="." d="M61 99h4q8 -7 18.5 -26.5t12.5 -30.5l-1 -5q-5 -11 -25.5 -28.5t-31.5 -24.5h-6q-23 19 -34 60l1 2q30 41 62 53z"/>
<glyph glyph-name="slash" horiz-adv-x="364" unicode="/" d="M12 -38h-42l444 716h40z"/>
<glyph glyph-name="zero" d="M342 632h-1q-62 0 -116.5 -74.5t-84.5 -179.5t-30 -204q0 -86 27 -125.5t66 -39.5q62 0 115.5 75.5t82 179.5t28.5 200q0 168 -87 168zM343 654h1q66 0 109 -55t43 -166q0 -52 -11.5 -111t-36 -118.5t-58.5 -107.5t-83.5 -78.5t-105.5 -30.5q-69 0 -113.5 55.5 t-44.5 165.5q0 96 36 197t107 175t157 74z" unicode="0"/>
<glyph glyph-name="one" d="M323 583l-120 -2l6 8q4 2 36.5 12.5t76 25t72.5 27.5h11q-153 -563 -162 -613l113 -33l-7 -10q-29 0 -78 1t-71 1q-29 0 -82 -1t-77 -1l6 10l120 33q70 235 156 542z" unicode="1"/>
<glyph glyph-name="two" d="M2 8l44 43q14 6 20 11q141 106 239 217q97 107 97 209q0 64 -32.5 97.5t-87.5 33.5q-53 0 -95 -26q-15 -93 -30 -131l-8 -5q-23 47 -34 103q99 94 198 94q69 0 116.5 -42t47.5 -122q0 -67 -46 -130.5t-145 -149.5q-103 -89 -187 -153v-2h20q59 0 243 4q34 36 75 77l8 -7 q-25 -68 -61 -134q-19 0 -100 2.5t-131 2.5h-155z" unicode="2"/>
<glyph glyph-name="three" d="M163 492l-8 -5q-17 39 -31 92q98 75 188 75q69 0 107.5 -37.5t38.5 -90.5q0 -30 -12 -56t-29 -43.5t-44 -33.5t-49 -25.5t-52 -20.5v-3q156 -29 156 -155q0 -90 -74.5 -146t-177.5 -56q-58 0 -106 21.5t-68 44.5q31 63 56 94l9 1q4 -52 4 -101v-12q33 -20 92 -20 q82 0 134 48t52 128q0 64 -34.5 97t-88.5 39q-15 -2 -43 -7t-32 -5l-5 8q26 30 34 35q10 0 22.5 -0.5t20 -1t13.5 -0.5q70 23 109.5 64.5t39.5 96.5q0 48 -29 76t-79 28q-52 0 -83 -21q-29 -104 -31 -108z" unicode="3"/>
<glyph glyph-name="four" d="M288 236l106 360l-5 -1q-80 -79 -141 -144.5t-86 -96t-93 -114.5q76 -4 219 -4zM344 207l-42 -168l84 -31l-6 -10q-22 0 -64 1t-62 1q-23 0 -67 -1t-63 -1l4 10l101 31q3 11 12 41t19 62t19 65l-255 -2l-12 19q57 75 205 232t177 177q27 16 73 21l-114 -419l64 -1 q48 44 63 52l7 -1q-8 -23 -28 -71t-29 -62l-8 -2q-10 42 -11 59z" unicode="4"/>
<glyph glyph-name="five" d="M104 357l-4 17q6 19 47 129.5t49 135.5q122 -4 166 -4h28q49 0 92 24l6 -13q-37 -34 -64 -52q-20 -12 -43 -14q-22 -2 -171 -5q-4 -9 -29 -71.5t-43 -108.5q44 -12 126 -39q87 -30 121 -68.5t34 -100.5q0 -82 -69 -141t-172 -59q-46 0 -92.5 18.5t-72.5 43.5q25 51 56 88 l10 3q0 -11 1.5 -54t2.5 -54q29 -16 88 -16q76 0 125.5 48t49.5 114q0 50 -34 82.5t-106 60.5q-62 25 -102 36z" unicode="5"/>
<glyph glyph-name="six" d="M222 8h1q68 0 110.5 61.5t42.5 135.5q0 69 -30.5 105t-76.5 36q-40 0 -81 -20.5t-68 -48.5q-10 -35 -10 -82q0 -87 32 -137t80 -50zM503 664l10 -17q-43 -9 -105 -33.5t-116 -65.5q-129 -99 -168 -240h2q91 74 169 74q63 0 108 -42.5t45 -127.5q0 -96 -66 -160.5 t-160 -64.5q-84 0 -133.5 58t-49.5 156q0 95 47.5 189.5t147.5 167.5q65 48 140.5 74.5t128.5 31.5z" unicode="6"/>
<glyph glyph-name="seven" d="M81 -13l-5 7q5 11 18.5 31t37.5 51.5t46 60t58 75.5t60 78q135 175 210 292l1 2q-46 2 -145 2q-138 0 -167 -3q-7 -11 -25 -40.5t-27 -41.5l-12 -4q1 7 10 72t12 77q31 -5 54 -5q312 0 355 2l-8 -22q-19 -51 -192.5 -295t-190.5 -284l1 -39z" unicode="7"/>
<glyph glyph-name="eight" d="M218 9h1q58 0 96 38.5t38 103.5q0 13 -3.5 26.5t-8 24t-14.5 23.5t-15.5 20t-20 20t-19.5 17.5t-21.5 18t-19.5 15.5q-70 -41 -103 -81.5t-33 -90.5q0 -59 34 -97t89 -38zM300 631h-1q-51 0 -85.5 -39t-34.5 -91q0 -44 27.5 -78.5t82.5 -70.5q114 71 114 160 q0 52 -27.5 85.5t-75.5 33.5zM310 340v-3q28 -25 40 -36.5t33.5 -36t30.5 -50t9 -53.5q-1 -69 -58 -121.5t-151 -52.5q-83 0 -135.5 45.5t-52.5 107.5q0 55 37.5 91.5t147.5 98.5v1q-91 67 -91 147q0 75 57 125.5t133 50.5q68 0 110.5 -41t42.5 -106q0 -22 -7.5 -41.5 t-16.5 -32.5t-27.5 -28t-30.5 -22.5t-36.5 -22t-34.5 -20.5z" unicode="8"/>
<glyph glyph-name="nine" d="M310 633h-1q-64 0 -103.5 -58.5t-39.5 -131.5q0 -69 33.5 -104t77.5 -35q34 0 72 16.5t63 45.5q12 32 12 86q0 181 -114 181zM318 654h1q79 0 126.5 -58t47.5 -163q0 -204 -180 -345q-67 -53 -142 -79.5t-120 -29.5l-8 17q111 28 202 98q122 94 167 241l-2 1 q-79 -73 -157 -73q-60 0 -109.5 41.5t-49.5 128.5q0 90 67 155.5t157 65.5z" unicode="9"/>
<glyph glyph-name="colon" horiz-adv-x="194" unicode=":" d="M128 413h5q8 -7 18.5 -26.5t12.5 -30.5l-2 -5q-5 -11 -25.5 -29.5t-31.5 -23.5h-5q-9 8 -19.5 26t-14.5 34v1q30 40 62 54zM61 99h5q7 -7 17.5 -26.5t13.5 -30.5l-1 -5q-6 -11 -26.5 -29t-31.5 -24h-6q-23 21 -34 60l1 2q29 39 62 53z"/>
<glyph glyph-name="semicolon" horiz-adv-x="194" unicode=";" d="M-34 -110l-12 13q78 67 78 136q0 12 -2 17l-35 22l1 8l65 42h7q4 -1 9.5 -8t10 -22.5t4.5 -34.5q0 -48 -36.5 -93.5t-89.5 -79.5zM121 413h5q7 -7 18 -26.5t13 -30.5l-2 -5q-4 -11 -25 -29.5t-32 -23.5h-5q-9 7 -19.5 25.5t-14.5 34.5v2q31 40 62 53z"/>
<glyph glyph-name="less" horiz-adv-x="540" unicode="&lt;" d="M45 189l10 42l378 195l-7 -43l-337 -174v-3l344 -175l-7 -39z"/>
<glyph glyph-name="equal" horiz-adv-x="531" unicode="=" d="M472 331l-13 -35h-390l14 35h389zM472 175l-13 -35h-390l14 35h389z"/>
<glyph glyph-name="greater" horiz-adv-x="540" unicode="&gt;" d="M483 230l-10 -39l-377 -197l7 42l335 175v3l-342 173l7 38z"/>
<glyph glyph-name="question" horiz-adv-x="376" unicode="?" d="M149 98h5q7 -7 17.5 -26.5t12.5 -29.5l-1 -6q-6 -11 -26.5 -29t-30.5 -23h-5q-26 24 -33 60v1q28 38 61 53zM172 517l-9 -3q-14 31 -22 81q83 58 147 58q56 0 93 -34t37 -93q0 -73 -107 -145q-38 -25 -61 -42t-44.5 -39.5t-26.5 -40.5q-3 -11 -3 -22q0 -18 8 -37l-11 -6 q-11 6 -28 37t-17 59v5q29 48 122 113q37 27 55 43t32.5 39.5t14.5 49.5q0 38 -23 61.5t-65 23.5q-18 0 -49 -11q-28 -77 -43 -97z"/>
<glyph glyph-name="at" horiz-adv-x="776" unicode="@" d="M593 396l4 -5l-30 -44q-40 -110 -84 -284q-3 -14 4 -14q89 0 149.5 60t60.5 174q0 110 -67.5 175t-187.5 65q-156 0 -248 -107.5t-92 -265.5q0 -129 78.5 -208t202.5 -79q160 0 278 117l11 -16q-130 -140 -312 -140q-147 0 -232.5 89.5t-85.5 233.5q0 174 119.5 288.5 t293.5 114.5q128 0 207.5 -73.5t79.5 -189.5q0 -121 -84 -194.5t-202 -73.5h-9q-19 0 -29 5q27 93 51 165h-4q-54 -75 -113.5 -122.5t-100.5 -47.5q-48 0 -48 71q0 56 38 126t96 115q72 55 128 55q39 0 59 -23l8 20zM475 358h-1q-44 0 -98 -47q-45 -40 -79.5 -104.5 t-34.5 -113.5q0 -34 19 -34q25 0 75 40t99 113q41 62 62 127q-15 19 -42 19z"/>
<glyph glyph-name="A" horiz-adv-x="656" unicode="A" d="M401 561h-3q-118 -186 -175 -280q22 0 101 -2t103 -2q-5 51 -26 284zM395 632l63 48l7 -5q-6 -15 -6 -53v-17q1 -43 58 -553q25 -25 74 -43l-3 -11q-17 0 -51 1t-51 1q-15 0 -46.5 -1t-47.5 -1l2 9l53 29q-1 27 -18 212q-92 -5 -150 -5q-11 0 -37 0.5t-43 0.5 q-86 -140 -121 -200l85 -36l-3 -10q-19 0 -58.5 1t-59.5 1q-15 0 -46.5 -1t-47.5 -1l4 10l75 35q23 31 75 110t152.5 234t131.5 203q10 16 9 26v16z"/>
<glyph glyph-name="B" horiz-adv-x="563" unicode="B" d="M215 341q-58 -211 -81 -317q12 -1 35 -1q133 0 196 42q76 50 77 134v5q0 68 -48.5 102.5t-169.5 34.5h-9zM296 643l-75 -280q255 2 255 165q0 115 -170 115h-10zM143 644l5 10q100 10 181 12h6q215 0 215 -146q0 -68 -58 -109t-141 -55l-1 -3q170 -31 170 -155 q0 -97 -88 -148.5t-243 -51.5h-17q-10 0 -205 3l3 9l92 30q19 53 72 248l91 336z"/>
<glyph glyph-name="C" horiz-adv-x="641" unicode="C" d="M597 138l5 -13q-38 -64 -88 -112q-88 -31 -164 -31q-129 0 -206.5 76t-77.5 206q0 168 122 291t302 123q45 0 82.5 -12t53.5 -27q33 18 68 29l4 -5q-23 -60 -64 -137l-10 -3q-7 26 -7 76v17q-37 30 -121 30q-153 0 -253 -110t-100 -269q0 -115 63 -184t179 -69q31 0 64 6 q121 100 148 118z"/>
<glyph glyph-name="D" horiz-adv-x="693" unicode="D" d="M296 640l-80 -296q-80 -297 -82 -321q106 2 182.5 15t136.5 49q79 49 120.5 131t41.5 172q0 104 -51 163q-74 87 -262 87h-6zM142 647l4 8q4 1 33 3.5t77.5 5t88.5 2.5q165 0 254.5 -75.5t89.5 -210.5t-85 -231t-221 -131q-72 -19 -220 -19q-13 0 -40 0.5t-42 0.5h-38 h-73l5 10l84 26q12 25 88 308l78 285z"/>
<glyph glyph-name="E" horiz-adv-x="540" unicode="E" d="M137 652l7 9q21 0 61.5 -1t60.5 -1h239q31 9 62 9h3l3 -3q-34 -116 -44 -135l-8 -4q-1 7 -4.5 27.5t-7.5 46.5t-5 34l-212 -10l-72 -265q184 0 256 10l2 -9q-5 -5 -31.5 -23.5t-30.5 -18.5q-2 0 -92 4t-114 4q-61 -231 -74 -289l243 -12q13 12 36.5 34.5t42 39.5t37.5 33 l7 -5q-38 -89 -65 -130q-90 3 -203 3h-154q-20 0 -59 -1t-58 -1l4 10l94 32q14 34 87 303l73 278z"/>
<glyph glyph-name="F" horiz-adv-x="497" unicode="F" d="M144 651l7 10q18 0 53.5 -1t53.5 -1h250q28 8 66 8h4l3 -4q-27 -89 -47 -136l-8 -3q-1 9 -5 33.5t-7 45.5t-4 32l-217 -12l-77 -282q190 0 258 11l3 -10q-4 -5 -32 -23t-32 -18q-3 0 -42 1.5t-86.5 3.5t-69.5 2h-8q-61 -223 -66 -267l111 -33l-6 -10q-25 0 -77.5 1 t-79.5 1q-18 0 -54.5 -1t-54.5 -1l4 10l78 32q18 45 86 301l75 282z"/>
<glyph glyph-name="G" horiz-adv-x="694" unicode="G" d="M531 -20h-3q-26 14 -30 35q-58 -33 -146 -33q-134 0 -209.5 79.5t-75.5 204.5q0 168 121 289.5t310 121.5q48 0 87.5 -14t57.5 -32q18 12 67 33l4 -6q-24 -63 -66 -151l-9 -3q-5 55 -5 104q-46 37 -136 37q-106 0 -188 -53.5t-124 -138t-42 -182.5q0 -118 65 -185.5 t174 -67.5q76 0 118 22q54 159 78 225l-240 6l4 10l41 20q85 6 284 6q-15 -53 -69.5 -182.5t-67.5 -144.5z"/>
<glyph glyph-name="H" horiz-adv-x="713" unicode="H" d="M148 651l5 10q17 0 52.5 -1t54.5 -1q15 0 45 1t43 1l-3 -10l-57 -34l-66 -247h347l67 248l-42 34l5 9q13 0 36 -1t35 -1q21 0 61.5 1t60.5 1l-5 -10l-83 -34q-11 -33 -24 -79t-28.5 -106.5t-23.5 -90.5q-74 -277 -72 -299l82 -33l-6 -11q-20 0 -62.5 1t-64.5 1 q-14 0 -42 -1t-43 -1l5 11l55 32q19 63 46 168t35 135q-58 -10 -176 -10h-173q-7 -27 -22.5 -82.5t-28.5 -107t-24 -104.5l44 -32l-3 -10q-14 0 -42 1t-42 1q-20 0 -61.5 -1t-62.5 -1l6 11l83 31q21 45 90 307l70 271z"/>
<glyph glyph-name="I" horiz-adv-x="297" unicode="I" d="M158 652l3 9q17 0 51 -1t51 -1t53.5 1t54.5 1l-3 -10l-75 -32l-76 -275q-65 -232 -77 -304l83 -32l-7 -10q-18 0 -58.5 1t-62.5 1q-19 0 -60 -1t-64 -1l6 10l84 31q11 24 88 304l76 276z"/>
<glyph glyph-name="J" horiz-adv-x="278" unicode="J" d="M133 651l8 10q19 0 57 -1t57 -1q18 0 55.5 1t59.5 1l-5 -11l-81 -32q-11 -39 -64.5 -245t-64.5 -247q-26 -93 -66 -143q-32 -43 -75 -75t-74 -44l-16 12l2 7q48 18 84 59q39 44 71 156q20 70 75 285q44 171 57 237z"/>
<glyph glyph-name="K" horiz-adv-x="634" unicode="K" d="M148 652l6 9q16 0 51 -1t53 -1t55.5 1t56.5 1l-4 -10l-75 -30l-76 -277q-72 -263 -77 -304l86 -32l-8 -10q-19 0 -58.5 1t-59.5 1q-21 0 -62.5 -1t-62.5 -1l6 10l80 31q18 39 90 304l73 277zM732 659l-7 -10q-15 -5 -62.5 -14.5t-51.5 -10.5q-20 -6 -36 -19 q-52 -42 -270 -243v-3q31 -49 169 -245q49 -69 94 -124l-7 -5q-55 11 -87 32.5t-64 63.5q-88 118 -172 251l2 7q243 220 301 285q-3 10 -11 38q54 2 74 2q33 0 128 -5z"/>
<glyph glyph-name="L" horiz-adv-x="523" unicode="L" d="M153 651l4 10q17 0 51.5 -1t51.5 -1q20 0 60.5 1t60.5 1l-6 -11l-83 -30l-75 -272q-81 -293 -81 -311l224 -12q92 96 118 122l9 -3q-30 -79 -68 -148q-8 0 -41 1t-106.5 2t-179.5 1q-20 0 -60.5 -1t-61.5 -1l5 9l89 32q1 2 6 20.5t13 47.5t18 65t23 83t25 92l75 273z"/>
<glyph glyph-name="M" horiz-adv-x="903" unicode="M" d="M189 651l4 10q100 -2 151 -2q-6 -24 -6 -47q14 -84 89 -489h2q86 129 333 493q5 12 9 43q56 0 158 2l-4 -12l-93 -30q-17 -81 -48.5 -307t-35.5 -273l86 -31l-5 -10q-19 0 -60 1t-60 1q-20 0 -59 -1t-59 -1l3 10l79 30q15 86 46 265.5t47 270.5h-2q-255 -389 -376 -580 l-11 -6q-14 99 -88 550h-1q-9 -23 -53.5 -129.5t-81.5 -199t-66 -170.5l81 -31l-3 -10q-19 0 -58 1t-59 1q-15 0 -46 -1t-47 -1l3 10l82 35q144 312 238 539q-5 31 -18.5 41.5t-70.5 27.5z"/>
<glyph glyph-name="N" horiz-adv-x="705" unicode="N" d="M186 8l-5 -10q-18 0 -56.5 1t-57.5 1q-17 0 -51.5 -1t-51.5 -1l5 10l85 34q17 42 157 524q-21 46 -36.5 59t-65.5 24l4 10q7 0 56 2t71 4q1 -3 20 -51q39 -78 131.5 -258t137.5 -270h2q83 306 135 532l-79 33l6 10q18 0 53 -1t52 -1q18 0 54 1t53 1l-6 -10l-89 -34 q-39 -101 -160 -576l63 -34l-2 -7l-107 -11q-20 36 -273 537h-2q-109 -384 -127 -485z"/>
<glyph glyph-name="O" horiz-adv-x="710" unicode="O" d="M446 652h-1q-68 0 -126 -35.5t-96 -91.5t-59 -123.5t-21 -132.5q0 -122 51 -192.5t138 -70.5q83 0 152 60t105.5 149t36.5 182q0 126 -50.5 190.5t-129.5 64.5zM451 677h1q42 0 83 -15t80.5 -47t63.5 -92t24 -139q0 -73 -26 -143.5t-72.5 -128.5t-120.5 -94t-162 -36 q-44 0 -87 16t-82 48t-63 89.5t-24 132.5q0 104 51.5 198.5t141 152.5t192.5 58z"/>
<glyph glyph-name="P" horiz-adv-x="527" unicode="P" d="M137 642l7 11q106 13 181 13q234 0 234 -184q0 -104 -77 -163.5t-178 -59.5q-29 0 -47 10v11q104 7 166 59.5t62 145.5q0 79 -50 117t-129 38h-13l-74 -283q-69 -262 -80 -316l98 -33l-5 -10q-20 0 -67 1t-73 1q-20 0 -60 -1t-59 -1l4 10l84 32q12 31 89 313l74 271z"/>
<glyph glyph-name="Q" horiz-adv-x="708" unicode="Q" d="M437 653h-1q-54 0 -102.5 -25t-83 -65.5t-59.5 -91.5t-37 -104t-12 -102q0 -110 46 -180t131 -89q140 16 222 136.5t82 264.5q0 124 -51.5 190t-134.5 66zM627 -173l-6 -8h-9q-77 0 -165 47q-57 29 -166 106q-24 17 -47 26q-170 71 -170 269q0 100 48.5 194t137 155 t192.5 61q45 0 88 -16t82.5 -48.5t64 -91t24.5 -134.5q0 -153 -88.5 -260.5t-235.5 -140.5v-2q38 -26 80.5 -53t96 -59.5t73.5 -44.5z"/>
<glyph glyph-name="R" horiz-adv-x="566" unicode="R" d="M140 637l5 10q91 19 198 19q102 0 154 -41t52 -117q0 -136 -206 -198l-1 -2q40 -89 114 -220q54 -95 56 -99l-7 -4q-67 7 -113 76q-50 78 -130 243l2 5q212 46 212 195q0 136 -170 136h-10l-85 -321q-64 -239 -73 -278l85 -32l-6 -11q-20 0 -60 1.5t-59 1.5 q-20 0 -60.5 -1.5t-61.5 -1.5l7 11l78 30q10 29 81 279l85 307z"/>
<glyph glyph-name="S" horiz-adv-x="472" unicode="S" d="M321 677h1q69 0 109 -41q32 25 61 37l5 -3q-2 -14 -25 -73t-31 -70l-9 -2q-3 16 -9 86q-7 13 -33.5 25t-61.5 12q-64 0 -104 -38.5t-40 -97.5q0 -55 57 -106q13 -12 49.5 -41t60.5 -49q73 -60 73 -135q0 -85 -63 -142t-165 -57q-60 0 -113.5 25.5t-81.5 57.5q5 14 26 53 t34 55l9 3q1 -6 1 -36q0 -18 -0.5 -54t-0.5 -44q37 -28 116 -28q83 0 125.5 43t42.5 102q0 58 -57 105q-17 15 -53.5 46t-53.5 46q-69 62 -69 135q0 78 57.5 132t142.5 54z"/>
<glyph glyph-name="T" horiz-adv-x="619" unicode="T" d="M212 659h433q22 6 69 13l5 -3q-25 -60 -69 -149l-7 -1q-2 66 -2 115l-183 -10l-69 -258q-71 -262 -82 -326l115 -33l-9 -9q-25 0 -74 1t-74 1q-26 0 -76 -1t-75 -1l5 10l109 32q22 64 84 294l77 290l-183 10q-36 -51 -84 -113l-10 -3q5 16 19 72.5t21 78.5l3 3 q32 -4 57 -13z"/>
<glyph glyph-name="U" horiz-adv-x="715" unicode="U" d="M220 617l-70 34l5 10q16 0 51.5 -1t52.5 -1q13 0 35 1t30 1l-3 -10l-38 -38q-9 -30 -33 -109t-57.5 -199.5t-41.5 -165.5q-3 -17 -3 -30q0 -79 91 -79q134 0 279 149l127 440l-40 32l4 10q14 -2 75 -2q35 0 109 2l-7 -10l-77 -34q-20 -64 -87 -308t-68 -265l85 -16 l-6 -11q-111 -19 -165 -34l-4 2l45 151l-2 1q-55 -60 -139 -107t-165 -47q-61 0 -92 27q-37 30 -37 85q0 33 13 79q64 236 133 443z"/>
<glyph glyph-name="V" horiz-adv-x="656" unicode="V" d="M116 651l5 10q16 0 48 -1t48 -1q15 0 44 1t43 1l-4 -10l-41 -31q0 -15 2 -35t6.5 -61t10.5 -89t17 -145t23 -203h2q248 391 330 535l-41 29l7 10q12 0 36 -1t37 -1q15 0 47 1t48 1l-5 -10q-16 -6 -44 -18t-38 -16q-77 -99 -381 -587q-11 -16 -43 -48l-8 -1 q-19 175 -77 637q-46 22 -72 33z"/>
<glyph glyph-name="W" horiz-adv-x="928" unicode="W" d="M121 651l5 10q9 0 41 -1t48 -1q17 0 44 1t37 1l-5 -10l-37 -29q7 -109 60 -535h1q138 203 183 270q-22 168 -40 265q-49 22 -65 29l6 10q7 0 40 -1t54 -1h44l-2 -5l-8 -30q5 -56 25 -196l1 -1q92 139 125 197l9 32l3 3h46q12 0 37.5 1t41.5 1l-6 -10q-72 -29 -87 -35 q-31 -34 -163 -226q2 -15 16.5 -116t26.5 -184h2q63 104 171 287.5t140 244.5l-23 29l6 10q11 0 33.5 -1t32.5 -1q13 0 41 1t43 1l-4 -10q-47 -20 -82 -35q-56 -71 -359 -580q-14 -18 -47 -53l-6 -3q-2 11 -9.5 69.5t-17.5 131.5t-20 134h-1q-66 -95 -194 -284 q-16 -21 -41 -48l-6 -2q-4 26 -18 146t-31 271t-26 221q-34 18 -65 32z"/>
<glyph glyph-name="X" horiz-adv-x="645" unicode="X" d="M129 651l5 10q21 0 61.5 -1t60.5 -1q13 0 38 0.5t37 0.5l-4 -10l-33 -28q39 -131 72 -228h3q107 128 181 226l-21 30l5 10q9 0 31.5 -0.5t32.5 -0.5q18 0 51.5 1t52.5 1l-7 -11l-99 -36q-64 -66 -220 -251q8 -23 31 -95t42 -130t34 -98l99 -32l-6 -10q-22 0 -65.5 1.5 t-66.5 1.5q-12 0 -35.5 -1.5t-33.5 -1.5l32 39q-9 41 -80 266l-2 1q-162 -197 -211 -265l59 -31l-8 -10q-16 0 -48.5 1.5t-48.5 1.5q-14 0 -45 -1.5t-46 -1.5h-11l6 10l86 34q50 47 258 294q-52 172 -92 281z"/>
<glyph glyph-name="Y" horiz-adv-x="587" unicode="Y" d="M114 651l5 10q15 0 49 -1.5t52 -1.5q14 0 42.5 1.5t43.5 1.5l-5 -10l-40 -27q23 -91 83 -285h2q143 172 219 284l-29 28l6 10q12 0 42 -1.5t45 -1.5q14 0 42 1.5t43 1.5l-5 -11l-95 -33q-99 -106 -246 -294q-16 -23 -22 -39q-61 -226 -62 -245l104 -31l-4 -10 q-26 0 -76 1t-76 1q-22 0 -65 -1t-64 -1l5 10l98 31q24 61 77 251q1 4 1 13q0 15 -6 32q-37 126 -88 284q-14 7 -43 18.5t-33 13.5z"/>
<glyph glyph-name="Z" horiz-adv-x="615" unicode="Z" d="M651 659l-3 -15q-136 -146 -552 -611v-2q186 -7 364 -7q6 7 51.5 61t61.5 72l6 -3q-21 -68 -57 -159q-13 0 -94.5 1.5t-202.5 2.5t-229 1l-7 10q14 16 132 144t234 255.5t194 215.5v2q-38 0 -331 6q-13 -19 -39.5 -57t-39.5 -57l-10 -3l13.5 67.5t19.5 85.5l3 3 q15 -3 28 -6.5t19 -5t8 -1.5h431z"/>
<glyph glyph-name="bracketleft" horiz-adv-x="292" unicode="[" d="M269 676l-218 -810l99 -25l-4 -13h-148l239 887h149l-3 -13z"/>
<glyph glyph-name="backslash" horiz-adv-x="434" unicode="\" d="M338 -38h-37l-147 716h38z"/>
<glyph glyph-name="bracketright" horiz-adv-x="292" unicode="]" d="M54 -135l217 813l-99 27l4 10h148l-239 -887h-154l4 10z"/>
<glyph glyph-name="asciicircum" horiz-adv-x="429" unicode="^" d="M416 329l-42 -5l-132 282l-125 -277l-45 -5l150 321l40 6z"/>
<glyph glyph-name="underscore" d="M424 -101v-48h-483v48h483z" unicode="_"/>
<glyph glyph-name="grave" horiz-adv-x="386" unicode="`" d="M310 505l-15 -7l-80 155l1 8q22 14 45 14h7z"/>
<glyph glyph-name="a" horiz-adv-x="493" unicode="a" d="M99 33h1q37 0 89 47.5t105 129.5q26 41 39.5 71.5t37.5 108.5q-14 14 -45 14q-73 0 -139 -73q-54 -61 -82.5 -132t-28.5 -121q0 -45 23 -45zM387 439l81 14v-7l-37 -39q-31 -103 -61.5 -223t-35.5 -151l2 -1q29 9 56 31.5t37 36t25 35.5l4 -6q-4 -53 -52.5 -97.5 t-113.5 -44.5q-14 0 -28 3q6 29 27 105t27 102h-4q-59 -89 -128.5 -149.5t-114.5 -60.5q-60 0 -60 93q0 72 48 161t130 146q66 47 128 47q38 0 61 -21z"/>
<glyph glyph-name="b" horiz-adv-x="474" unicode="b" d="M147 11h1q70 0 126.5 55.5t83 126.5t26.5 133v6q-3 70 -43 70q-57 0 -146 -113q-45 -58 -70 -121.5t-28 -109.5q1 -22 16 -34.5t34 -12.5zM134 673l4 10q72 28 139 33l2 -1q-4 -13 -21.5 -70.5t-49 -163.5t-65.5 -223h2q45 70 94 115t79.5 58.5t52.5 13.5 q38 0 59.5 -32.5t21.5 -85.5q0 -135 -98 -237.5t-214 -102.5q-54 0 -118 39q29 107 71 255t67 238.5t38 142.5z"/>
<glyph glyph-name="c" horiz-adv-x="381" unicode="c" d="M344 137l5 -22q-34 -55 -87.5 -91.5t-117.5 -36.5q-60 0 -90 39t-30 100q0 138 105 239q81 80 177 80q52 0 72 -20q-12 -51 -38 -100l-10 -5q-6 16 -20 100q-10 2 -17 2q-62 0 -123 -71q-74 -90 -76 -213q0 -47 20 -76.5t60 -29.5q84 0 169 105h1z"/>
<glyph glyph-name="d" horiz-adv-x="509" unicode="d" d="M323 413h-1q-59 0 -115.5 -52t-90 -126.5t-33.5 -142.5q0 -58 32 -58q30 0 84.5 45.5t111.5 136.5q31 49 44.5 78.5t33.5 99.5q-28 19 -66 19zM400 675l5 8q28 11 74.5 22t62.5 11l1 -2q-1 -4 -27 -89t-55.5 -183t-62 -215.5t-47.5 -186.5l2 -1q18 6 35.5 17t31 24.5 t23 24.5t19 24.5t11.5 15.5l5 -5q-10 -61 -60.5 -107t-109.5 -46q-16 0 -29 3q6 28 62 222h-2q-71 -106 -140 -165.5t-120 -59.5q-27 0 -46 25.5t-19 75.5q0 82 44.5 165.5t115 137.5t140.5 54q42 0 82 -28q55 193 67 245z"/>
<glyph glyph-name="e" horiz-adv-x="386" unicode="e" d="M272 423h-1q-48 0 -96 -58t-70 -142q51 9 117.5 30.5t82.5 43.5q15 22 15 58q0 32 -13.5 50t-34.5 18zM349 132l4 -23q-42 -58 -95 -90t-107 -32q-53 0 -88.5 31.5t-37.5 107.5v5q0 65 31.5 136.5t93.5 124.5t135 53q45 0 70 -27t25 -69q0 -27 -18 -52 q-21 -31 -110 -59.5t-151 -39.5q-6 -28 -6 -62q0 -48 20 -77.5t63 -29.5q44 0 91 32t78 71h2z"/>
<glyph glyph-name="f" horiz-adv-x="239" unicode="f" d="M65 432h71q35 161 114 232q58 53 118 53q45 0 65 -19q-21 -52 -41 -78l-10 -5q-13 41 -19 75q-2 1 -10 1q-97 0 -156 -260h112l-12 -18l-109 -16q-62 -266 -86 -363q-23 -91 -48 -139t-69 -92q-55 -50 -107 -50q-26 0 -46.5 12t-26.5 27l34 45l5 1q27 -42 75 -42 q15 0 25 3.5t24 17.5t27.5 47.5t27.5 86.5q35 135 104 446l-75 17z"/>
<glyph glyph-name="g" horiz-adv-x="380" unicode="g" d="M151 -211h5q59 0 92 22.5t33 53.5q0 23 -40 49q-51 33 -139 75q-121 -71 -121 -103q0 -31 46.5 -64t123.5 -33zM241 423h-1q-50 0 -92.5 -71.5t-42.5 -150.5q0 -39 14 -58.5t36 -19.5q52 0 95 72.5t43 147.5q0 37 -14 58.5t-38 21.5zM445 453l-37 -56l-76 -4l-1 -2 q17 -25 17 -73q0 -81 -57.5 -148.5t-140.5 -67.5q-19 0 -33 7q-14 -16 -14 -34q0 -21 25 -35q2 -1 46.5 -21.5t77.5 -38.5q84 -45 84 -86q0 -57 -71.5 -99t-139.5 -42q-54 0 -96 14.5t-64.5 36t-33.5 42t-11 35.5q0 19 20 34q50 37 145 85l1 1q-27 25 -27 61q0 16 42 55 q-54 35 -54 110q0 84 62 151t142 67q10 0 40 -5q72 -14 80 -15l70 35z"/>
<glyph glyph-name="h" horiz-adv-x="498" unicode="h" d="M74 0l-62 -8q63 230 94 343q81 303 86 328l-71 13l6 8q29 11 77.5 21.5t65.5 10.5l1 -1q-4 -15 -20 -71t-53 -187.5t-79 -282.5h3q129 193 267 259q30 12 58 12q15 0 15 -13q0 -11 -7 -35q-29 -94 -56 -202t-32 -143l87 12l-6 -15q-24 -8 -56 -21.5t-66 -29t-39 -17.5 l-5 2q2 15 54 192t58 204q4 18 -7 18q-36 0 -115.5 -77.5t-128.5 -160.5q-41 -68 -69 -159z"/>
<glyph glyph-name="i" horiz-adv-x="259" unicode="i" d="M139 388l-61 9l4 10q22 12 63.5 24.5t68.5 13.5l2 -2q-31 -103 -126 -421l2 -1q27 9 66 47t63 71l3 -6q-8 -46 -51 -96t-98 -50q-14 0 -24 13t-10 40q0 25 8 54q2 8 90 294zM224 654h5q5 -6 12.5 -23.5t7.5 -27.5l-1 -4q-6 -11 -23.5 -27.5t-26.5 -19.5h-4q-7 6 -14.5 22 t-9.5 31l1 1q23 32 53 48z"/>
<glyph glyph-name="j" horiz-adv-x="235" unicode="j" d="M221 654h4q6 -6 13 -23t8 -28l-1 -4q-7 -10 -25 -26.5t-26 -20.5h-4q-19 19 -23 53v1q27 34 54 48zM139 392l-75 12l5 9q27 12 71 21.5t73 11.5l2 -2q-53 -214 -108 -402q-27 -100 -70 -165q-28 -42 -66.5 -75.5t-70.5 -48.5l-15 13q28 17 48.5 36t50 70t49.5 123 q70 260 106 397z"/>
<glyph glyph-name="k" horiz-adv-x="440" unicode="k" d="M200 662l-63 14l5 7q95 34 137 34l2 -2q-47 -141 -206 -710l-33 -5.5t-34 -5.5q119 393 192 668zM486 430l-8 -10q-97 -20 -110 -28q-76 -54 -149 -125l-1 -1q16 -32 47 -82.5t75 -120t50 -79.5l-4 -4q-38 4 -61 16.5t-51 50.5q-31 42 -71.5 110t-45.5 83l2 4 q80 68 153 140q15 16 20 24t18 35q3 1 12 1q23 0 66.5 -5.5t57.5 -8.5z"/>
<glyph glyph-name="l" horiz-adv-x="253" unicode="l" d="M204 662l-62 15l4 8q88 33 137 33l2 -2q-54 -173 -108 -355q-24 -81 -45.5 -157.5t-34 -122t-16.5 -58.5l1 -2q10 3 23 12.5t23 18.5t26 26t23 25t22.5 26.5t16.5 19.5l4 -5q-8 -51 -53.5 -104t-104.5 -53q-12 0 -21.5 14t-9.5 42q0 19 8 53q5 17 32 110.5t67.5 231.5 t65.5 224z"/>
<glyph glyph-name="m" horiz-adv-x="786" unicode="m" d="M88 0l-62 -8q19 53 62.5 212t46.5 186l-65 8l5 9q26 12 70 25t67 14l1 -3q-6 -23 -30.5 -104.5t-47.5 -164.5h2q125 199 269 259q29 12 57 12q13 0 13 -17q0 -10 -3 -27q-17 -70 -64 -225h2q123 193 263 256q29 13 61 13q14 0 14 -15q0 -12 -7 -34q-69 -235 -89 -346 l88 14l-5 -16q-33 -11 -98 -38.5t-67 -28.5l-3 6q2 10 53.5 185.5t58.5 208.5q4 15 -6 15q-37 0 -111.5 -70.5t-126.5 -157.5q-46 -77 -74 -168l-64 -8q23 66 62.5 203.5t48.5 185.5q2 15 -6 15q-40 0 -115.5 -71.5t-128.5 -161.5q-38 -65 -71 -163z"/>
<glyph glyph-name="n" horiz-adv-x="512" unicode="n" d="M88 0l-62 -8q19 55 63.5 216.5t45.5 181.5l-63 8l3 9q21 11 69.5 24.5t66.5 13.5l2 -1q-2 -8 -12.5 -43.5t-29 -98.5t-36.5 -130h3q136 203 267 261q28 12 55 12q16 0 16 -16q0 -11 -6 -33q-77 -262 -90 -346l87 14l-5 -16q-68 -23 -163 -67l-4 6q1 4 53 181.5t60 213.5 q5 14 -7 14q-35 0 -112 -74.5t-130 -160.5q-41 -69 -71 -161z"/>
<glyph glyph-name="o" horiz-adv-x="447" unicode="o" d="M275 423h-1q-51 0 -93.5 -52t-63.5 -118t-21 -123q0 -121 71 -121q68 0 125 93t57 191q0 130 -74 130zM285 445h1q57 0 93.5 -47.5t36.5 -118.5q0 -111 -78.5 -201.5t-174.5 -90.5q-58 0 -96 42.5t-38 114.5q0 119 79 210t177 91z"/>
<glyph glyph-name="p" horiz-adv-x="491" unicode="p" d="M159 11h1q54 0 101.5 32.5t78 81.5t48 104.5t17.5 104.5v8q-1 60 -37 60q-28 0 -78 -44t-103 -132q-55 -81 -78 -178q6 -13 20.5 -25t29.5 -12zM137 392l-65 6l5 9q24 13 67 27.5t70 16.5l1 -2l-66 -224h3q84 125 148.5 172.5t104.5 47.5q29 0 48 -29t19 -75 q0 -143 -97 -248.5t-205 -105.5q-17 0 -40.5 6.5t-35.5 17.5q-24 -87 -49 -184l83 -24l-6 -11q-136 -12 -215 -12l5 11l63 31q24 62 66 214q71 254 96 356z"/>
<glyph glyph-name="q" horiz-adv-x="471" unicode="q" d="M323 412h-1q-63 0 -121 -57.5t-89.5 -133.5t-31.5 -139q0 -25 9 -39t21 -14q35 0 90 48t101 116q29 42 42 70.5t43 117.5q-21 31 -63 31zM146 -219l1 7q13 7 39 18.5t35 16.5q28 79 107 365h-2q-145 -201 -249 -201q-24 0 -43.5 27t-19.5 75q0 84 47 167.5t119.5 136 t143.5 52.5q20 0 39 -12t29 -26h2l8 21q48 14 87 17l1 -6l-44 -51q-22 -55 -74.5 -245t-83.5 -320l75 -24l-3 -12q-62 -6 -214 -6z"/>
<glyph glyph-name="r" horiz-adv-x="352" unicode="r" d="M57 398l4 9q89 38 124 38l2 -2v-6q0 -67 -33 -180h4q103 188 196 188q23 0 34 -11q1 -10 -17 -50t-30 -57l-8 -6q-5 15 -14 75q-1 1 -7 1q-26 0 -69 -50t-91 -156q-23 -50 -64 -191l-64 -8q41 125 71 239t33 155z"/>
<glyph glyph-name="s" horiz-adv-x="328" unicode="s" d="M222 445h1q60 0 90 -27q-6 -19 -20.5 -48.5t-22.5 -39.5l-10 -3q-2 18 -9 89q-9 6 -33 6q-41 0 -68.5 -24.5t-27.5 -61.5q0 -18 10 -34.5t21 -26.5t41 -34q43 -37 60 -64t17 -57q0 -55 -45.5 -94t-115.5 -39q-40 0 -77 16.5t-52 32.5q19 42 52 90l9 2q8 -59 9 -105 q18 -10 55 -10q46 0 75.5 25t29.5 65q0 38 -60 86q-48 37 -65.5 65t-17.5 59q0 61 45.5 96.5t108.5 35.5z"/>
<glyph glyph-name="t" horiz-adv-x="294" unicode="t" d="M175 526l71 60l5 -4l-44 -149h131l-14 -18l-127 -16q-63 -214 -101 -372l1 -2q40 1 86.5 34t80.5 78l3 -9q-18 -46 -43.5 -77t-52 -43.5t-44.5 -16.5t-35 -4q-20 0 -35.5 11t-15.5 40q0 15 4 31q31 131 92 330l-77 16l14 18h73z"/>
<glyph glyph-name="u" horiz-adv-x="533" unicode="u" d="M143 388l-78 6l5 11q24 11 70.5 24t76.5 16l5 -4q-94 -283 -111 -364q-3 -15 -3 -23q0 -20 14 -20q40 0 102 63t125 162q25 40 39.5 75t33.5 97q31 9 78 14l3 -6l-37 -49q-45 -138 -92 -352l2 -1q65 19 116 100l5 -7q-5 -54 -57.5 -98.5t-114.5 -44.5q-7 0 -23 2 q11 46 73 263h-2q-50 -79 -108 -145t-107 -96q-42 -24 -74 -24q-40 0 -40 44q0 23 8 51q22 81 91 306z"/>
<glyph glyph-name="v" horiz-adv-x="421" unicode="v" d="M103 387l-70 4l3 10q20 13 66.5 28.5t62.5 15.5l2 -3q1 -147 12 -377h2q112 125 154 208q27 57 27 124q0 22 -1 35q1 4 17 12.5t26 8.5h4q13 -28 13 -66q0 -45 -41 -108.5t-118.5 -154t-96.5 -115.5q-18 -19 -35 -25l-5 1q-1 11 -3 61.5t-5 120t-6 116.5q-4 69 -8 104z "/>
<glyph glyph-name="w" horiz-adv-x="652" unicode="w" d="M107 379l-68 13l2 9q22 11 72 27.5t58 16.5l2 -3q-2 -59 -2.5 -181t-1.5 -185h2q19 29 77 120.5t102 160.5q-1 28 -4 64q13 11 34.5 17.5t33.5 6.5l3 -3q-7 -56 -7 -61q0 -74 4 -184t7 -130h3q86 100 134 197q36 74 36 153v16q20 20 42 20h4q11 -27 11 -61 q0 -35 -32 -93.5t-65.5 -103.5t-84.5 -109t-62 -78q-18 -17 -35 -24l-4 2q-5 25 -15 327h-2q-171 -267 -195 -306q-14 -16 -35 -23l-4 2q-1 12 -1.5 60.5t-1.5 119.5t-2 116q-3 90 -5 97z"/>
<glyph glyph-name="x" horiz-adv-x="457" unicode="x" d="M-16 106l7 11q33 -49 55 -74q16 4 60.5 52.5t100.5 127.5q-37 158 -50 171q-40 -14 -100 -91l-5 16q21 44 62.5 83.5t80.5 42.5q7 -4 13 -15t12.5 -31.5t10.5 -35.5t11 -43t10 -38h2q48 63 72 90q56 66 89 80h6q13 -12 22.5 -44t8.5 -65l-9 -8q-24 50 -44 65 q-17 -5 -63.5 -56.5t-75.5 -91.5q8 -29 26 -93.5t26 -99.5q3 -9 8 -9q6 0 20 8.5t36.5 31.5t40.5 54l6 -14q-19 -70 -65.5 -106.5t-88.5 -36.5q-4 14 -19.5 78.5t-33.5 128.5h-2q-93 -129 -118 -158q-48 -56 -64 -56q-5 0 -8 2q-30 40 -40 124z"/>
<glyph glyph-name="y" horiz-adv-x="408" unicode="y" d="M42 275l-12 15q12 46 28.5 79.5t33 48.5t28 21t20.5 7q43 -4 63 -101q20 -93 20 -247v-50h4q43 65 84 171t46 165l-27 41l3 5q36 14 69 16q11 0 11 -11q-12 -70 -60 -190q-71 -176 -179 -319q-41 -54 -87 -95.5t-74 -57.5t-39 -16q-5 0 -12 6.5t-16 24t-15 43.5l1 6 q25 -3 91 -26q15 8 49 39t57 65q43 63 43 166v6q-3 169 -34 263q-13 41 -22 41q-4 0 -16 -15t-29 -43t-29 -58z"/>
<glyph glyph-name="z" horiz-adv-x="402" unicode="z" d="M378 122l8 -19q-79 -117 -125 -139q-26 4 -83 34q-44 24 -71 34q-21 8 -36 8q-19 0 -33 -12q-17 -13 -34 -44h-4q-4 5 -4 15q0 13 6 28q5 16 20 32t26 22q229 232 284 298l-1 2q-27 -6 -61 -6q-19 0 -53 4q-45 6 -70 11q-15 -11 -50 -49.5t-47 -55.5l-9 17q26 45 59 90 t48 58q73 -29 173 -29q28 0 48 8t45 33l7 -18q-16 -35 -327 -361l2 -2q34 0 87 -23q59 -26 86 -34q47 28 109 98z"/>
<glyph glyph-name="braceleft" horiz-adv-x="292" unicode="{" d="M219 339l-114 -61v-2l83 -56q-66 -182 -72 -212q-8 -37 -8 -62q0 -63 57 -113l-8 -15q-40 21 -70 59.5t-30 90.5q0 22 6 44q18 72 82 202l-80 60l8 12l106 61q2 115 24 205q15 55 70.5 105.5t107.5 70.5l6 -18q-57 -29 -87.5 -69.5t-46.5 -102.5q-19 -76 -34 -199z"/>
<glyph glyph-name="bar" horiz-adv-x="290" unicode="|" d="M111 724h48v-965h-48v965z"/>
<glyph glyph-name="braceright" horiz-adv-x="292" unicode="}" d="M112 221l113 61v1l-83 56q16 34 38 96.5t31 102.5q9 34 9 64q0 68 -58 113l11 12q35 -15 65.5 -57t30.5 -92q0 -15 -5 -37q-18 -78 -82 -195l84 -61l-6 -12l-106 -60q-6 -131 -29 -217q-18 -69 -69 -113t-108 -64l-6 16q57 32 87 72t48 106q21 84 35 208z"/>
<glyph glyph-name="asciitilde" horiz-adv-x="539" unicode="~" d="M504 296l26 -14q-29 -62 -62 -89t-78 -27q-43 0 -116 47q-67 46 -104 46q-30 0 -59 -24t-50 -65l-25 15q49 112 145 112q45 0 120 -50q60 -40 97 -40q61 0 106 89z"/>
<glyph glyph-name="uni00A0" horiz-adv-x="212" unicode=" "/>
<glyph glyph-name="exclamdown" horiz-adv-x="217" unicode="¡" d="M92 221l25 11q-67 -303 -80 -381l2 -41q-32 -24 -89 -31l-6 5q26 72 148 437zM140 331h-5q-7 7 -17.5 26.5t-12.5 30.5l1 5q6 11 26.5 29t30.5 23h5q9 -7 19 -25t15 -34l-1 -2q-28 -38 -61 -53z"/>
<glyph glyph-name="cent" d="M224 134l106 375l-2 2q-83 -16 -134 -96.5t-51 -166.5q0 -47 21.5 -78.5t59.5 -35.5zM338 538l23 80l28 5l-22 -84q38 0 67.5 -11.5t37.5 -22.5q-2 -12 -17 -41.5t-26 -43.5l-8 -3q-10 31 -14 92q-15 5 -38 5h-9l-108 -380q51 3 100.5 31.5t80.5 59.5l8 -15 q-34 -44 -86 -77.5t-114 -40.5l-21 -75l-31 -9l23 82q-72 2 -106.5 45t-34.5 103q0 118 81 202t186 98z" unicode="¢"/>
<glyph glyph-name="sterling" d="M449 139l9 -11q-25 -68 -67 -133q-5 0 -80 2.5t-131 2.5h-196l2 13l46 34q14 1 34 17q18 27 30 49.5t28 74.5t27 124l-99 19l13 15h94l7 37q5 28 8.5 43t13.5 48.5t22.5 56t35.5 49.5t51 46q44 28 95 28q32 0 58 -11.5t38 -25.5q-18 -47 -41 -89l-11 -5q-13 41 -19 102 q-11 5 -29 5q-112 0 -146 -199q-2 -14 -6.5 -42.5t-6.5 -42.5h187l-12 -20l-183 -14q-17 -96 -45.5 -148.5t-91.5 -110.5l1 -2h45q152 0 240 5q41 38 79 83z" unicode="£"/>
<glyph glyph-name="currency" d="M474 500l-58 -59q20 -42 20 -87v-10q-3 -90 -59 -146l41 -47l-29 -37l-47 58q-42 -31 -101 -31q-61 0 -99 36l-60 -62l-21 29l62 57q-28 38 -28 97v8q1 36 17.5 74t40.5 62l-45 51l29 39l47 -62q54 40 114 40t97 -41l61 60zM289 476h-1q-62 0 -102 -50.5t-42 -120.5v-8 q0 -56 28 -89t74 -33q63 0 101 47.5t40 120.5v6q0 59 -26 93t-72 34z" unicode="¤"/>
<glyph glyph-name="yen" d="M111 345h119q-22 128 -53 261l-51 28l5 10q15 0 41 -1t38 -1q18 0 53 1t52 1l-4 -10l-67 -28l41 -246l2 -2q147 204 176 247l-66 29l5 10q16 0 49 -1t50 -1q12 0 38 1t39 1l-5 -10l-68 -33q-72 -84 -198 -256h136l-17 -26h-134l-22 -79h144l-18 -26h-132 q-42 -161 -44 -177l80 -29l-6 -10q-19 0 -58 1t-58 1t-59 -1t-60 -1l6 10l80 29q10 21 55 177h-137l18 26h126l22 79h-137z" unicode="¥"/>
<glyph glyph-name="brokenbar" horiz-adv-x="290" unicode="¦" d="M111 -183v367h48v-367h-48zM111 667h48v-366h-48v366z"/>
<glyph glyph-name="section" horiz-adv-x="414" unicode="§" d="M127 400v-1q0 -48 31 -131q8 -21 28 -72t29 -74q22 -60 22 -93v-6q0 -20 -5 -35h2q70 66 70 151q0 41 -24 102q-16 43 -36.5 92t-28.5 73q-14 39 -14 73v6q0 31 12 57l-2 1q-43 -28 -63.5 -67.5t-20.5 -75.5zM81 370v1q0 59 38.5 114.5t120.5 94.5q34 24 75 24 q27 0 47 -11q24 8 50 13l6 -3q-22 -72 -47 -110l-7 -1q-2 7 -6.5 38.5t-6.5 42.5q-10 10 -40 10q-26 0 -46.5 -20.5t-20.5 -50.5q0 -17 8 -46t46 -106q55 -130 55 -190q0 -133 -149 -229q-45 -40 -105 -40q-32 0 -64.5 14t-43.5 28q4 13 19 39.5t29 41.5h6q2 -14 4 -43.5 t4 -49.5q18 -7 44 -7q38 1 64.5 24.5t26.5 54.5q0 35 -28 104q-7 18 -22 57t-27 71q-30 81 -30 135z"/>
<glyph glyph-name="dieresis" horiz-adv-x="386" unicode="¨" d="M388 642h5q5 -5 14.5 -21.5t10.5 -24.5l-1 -5q-5 -10 -21.5 -25.5t-25.5 -20.5h-5q-22 25 -29 52l1 2q26 33 51 43zM219 642h4q6 -4 15 -20.5t11 -25.5l-1 -5q-4 -10 -20.5 -25.5t-26.5 -20.5h-5q-24 27 -29 52v2q28 33 52 43z"/>
<glyph glyph-name="copyright" horiz-adv-x="652" unicode="©" d="M365 460h1q36 0 62 -13q22 12 36 15l6 -2q0 -13 -7.5 -46t-11.5 -38l-4 -3q-10 13 -25 53q-10 12 -46 12q-49 0 -81 -32t-32 -86q0 -59 33 -97t89 -38q16 0 26 5q36 30 58 41l5 -4q-2 -10 -14.5 -29t-19.5 -26q-28 -11 -74 -11q-64 0 -111.5 37.5t-47.5 109.5 q0 40 15.5 71t40.5 48t51 25t51 8zM353 564h-1q-103 0 -172 -73t-69 -181t69.5 -181t172.5 -73q102 0 169.5 73t67.5 181t-67.5 181t-169.5 73zM352 594h1q114 0 194.5 -83t80.5 -202q0 -118 -81 -200.5t-195 -82.5q-116 0 -197.5 82.5t-81.5 200.5q0 119 81.5 202t197.5 83 z"/>
<glyph glyph-name="ordfeminine" horiz-adv-x="293" unicode="ª" d="M116 340h1q14 0 42 24.5t56 65.5q27 41 38 75q-9 22 -35 22q-25 0 -52 -27q-28 -27 -46.5 -67.5t-18.5 -70.5q0 -22 15 -22zM315 551l-16 -24q-26 -80 -48 -178q11 3 22.5 9.5t17 11t14 13l9.5 9.5l2 -5q-3 -24 -29.5 -48.5t-65.5 -24.5q-11 0 -18 4q13 52 29 100h-3 q-75 -104 -135 -104q-18 0 -28 14.5t-10 36.5q0 36 22.5 79.5t65.5 74.5q38 28 76 28q29 0 39 -24l8 21l45 9z"/>
<glyph glyph-name="guillemotleft" horiz-adv-x="472" unicode="«" d="M375 40l-12 -11q-57 105 -134 188q117 91 202 187l5 -12q-34 -56 -133 -177q51 -114 72 -175zM200 40l-12 -11q-55 102 -135 188q34 25 93 79t109 108l6 -12q-31 -50 -135 -177q56 -120 74 -175z"/>
<glyph glyph-name="logicalnot" horiz-adv-x="531" unicode="¬" d="M402 90v196h-334l19 36h358v-216z"/>
<glyph glyph-name="uni00AD" horiz-adv-x="333" unicode="­" d="M251 212l-215 -19l29 54l45 -1l178 9v-4z"/>
<glyph glyph-name="registered" horiz-adv-x="249" unicode="®" d="M177 589l2 7q16 4 36 4q36 0 36 -24q0 -18 -20 -23q9 -15 22 -30l16 -16l-2 -1q-19 1 -29 11q-16 16 -27 35q13 3 17.5 7.5t4.5 13.5q0 19 -28 19v-74l14 -5l-1 -5h-41l1 5l11 4v73zM218 633h-1q-31 0 -53.5 -24t-22.5 -58t22.5 -58t54.5 -24t54.5 24t22.5 58t-22.5 58 t-54.5 24zM218 648h1q40 0 67.5 -28t27.5 -69t-27.5 -69t-68.5 -28q-40 0 -68 28t-28 68q0 41 28 69.5t68 28.5z"/>
<glyph glyph-name="macron" horiz-adv-x="386" unicode="¯" d="M378 558h-185l16 39h185z"/>
<glyph glyph-name="degree" horiz-adv-x="273" unicode="°" d="M235 616h-1q-32 0 -53 -27t-21 -61q0 -30 17.5 -47.5t42.5 -17.5q36 0 55 26t19 61q0 30 -15.5 48t-43.5 18zM239 647h1q38 0 64 -27t26 -71q0 -53 -34 -85t-84 -32q-38 0 -63.5 26t-25.5 69q0 50 34 85t82 35z"/>
<glyph glyph-name="plusminus" horiz-adv-x="531" unicode="±" d="M271 97l-43 -14v192h-183l14 36h169v162l43 13v-175h183l-13 -36h-170v-178zM454 36l-13 -36h-396l14 36h395z"/>
<glyph glyph-name="twosuperior" horiz-adv-x="295" unicode="²" d="M91 438l28 25q10 5 16 9q6 5 29 22t35 26.5t33 26.5t32.5 30.5t24.5 30t19 32.5t6 31q0 31 -15 48.5t-43 17.5q-25 0 -41 -9q-15 -54 -24 -68l-8 -6q-10 16 -19 61q54 45 112 45q38 0 63.5 -23t25.5 -64q0 -36 -25 -64.5t-82 -70.5q-76 -56 -101 -74q15 0 71 1t66 1 q4 4 19 17.5t26 23.5l10 -7q-25 -49 -42 -74q-5 0 -50 1.5t-75 1.5h-93z"/>
<glyph glyph-name="threesuperior" horiz-adv-x="295" unicode="³" d="M192 672l-9 -6q-8 16 -16 56q56 38 102 38q42 0 64 -20t22 -50q0 -31 -25.5 -49t-68.5 -33l-1 -2q87 -13 87 -78q0 -49 -47 -78.5t-106 -29.5q-30 0 -57.5 10t-40.5 23q12 28 37 59l7 2q2 -13 5.5 -34t4.5 -32q13 -7 37 -7q45 0 74.5 24.5t29.5 64.5q0 58 -61 63 q-32 -8 -47 -8l-4 4q1 7 7 16t13 13q28 -2 32 -2h5q68 25 68 70q0 24 -13.5 38t-36.5 14q-22 0 -38 -8q-13 -34 -24 -58z"/>
<glyph glyph-name="acute" horiz-adv-x="386" unicode="´" d="M240 499l-11 11l106 149h8q24 0 45 -12v-7z"/>
<glyph glyph-name="mu" horiz-adv-x="519" unicode="µ" d="M408 432l82 13l-1 -5l-37 -48q-46 -149 -90 -354l2 -1q18 5 34.5 15t30 24t21.5 23.5t18 23.5l10 14l4 -7q-5 -51 -56 -97t-110 -46q-11 0 -25 2q8 35 71 261h-2q-23 -36 -47.5 -71t-63 -83.5t-77 -78.5t-67.5 -30q-22 0 -34 16h-2q-46 -132 -46 -226v-8l-6 -4 q-34 9 -34 78q0 33 10 76q11 53 52 196q23 86 93 310q27 18 66 21l4 -5q-58 -164 -108 -341q-6 -22 -6 -36q0 -30 24 -30q80 0 218 221q36 57 72 177z"/>
<glyph glyph-name="paragraph" horiz-adv-x="499" unicode="¶" d="M502 650l-66 -116l-134 -512q-70 -269 -224 -269q-38 0 -56 21q-24 34 -26 49l6 6q27 -24 78 -24q131 0 193 227l13 47q-34 -16 -46 -16q-66 0 -121.5 55.5t-55.5 145.5q0 125 94 198t227 73h15l29 105l72 12z"/>
<glyph glyph-name="periodcentered" horiz-adv-x="187" unicode="·" d="M115 295h5q7 -7 18 -26t13 -30l-1 -5q-6 -11 -26 -29t-31 -24h-6q-23 19 -34 60l1 1q32 43 61 53z"/>
<glyph glyph-name="cedilla" horiz-adv-x="386" unicode="¸" d="M138 0h26l-48 -58q50 -21 50 -58q0 -36 -40.5 -61t-78.5 -31l-7 15q22 7 49 26t27 39q0 24 -47 42l-1 3z"/>
<glyph glyph-name="onesuperior" horiz-adv-x="295" unicode="¹" d="M266 705l-69 -2l4 10q2 1 45 18t69 29h8q-60 -236 -80 -304l64 -21l-6 -9q-17 0 -48 1t-46 1q-13 0 -40 -1t-41 -1l4 9l61 21q45 143 75 249z"/>
<glyph glyph-name="ordmasculine" horiz-adv-x="284" unicode="º" d="M217 537h-1q-35 0 -64 -52.5t-29 -99.5q0 -54 33 -54q28 0 50.5 29t32.5 64t10 63q0 50 -32 50zM219 554h1q36 0 55.5 -22.5t19.5 -62.5q0 -58 -40.5 -106.5t-100.5 -48.5q-36 0 -56.5 23t-20.5 61q0 58 43 107t99 49z"/>
<glyph glyph-name="guillemotright" horiz-adv-x="472" unicode="»" d="M91 393l11 11q57 -105 134 -188q-113 -88 -202 -187l-5 12q27 45 133 177q-51 115 -71 175zM265 393l12 11q55 -102 135 -188q-92 -70 -202 -187l-6 12q43 66 133 177q-48 104 -72 175z"/>
<glyph glyph-name="onequarter" horiz-adv-x="652" unicode="¼" d="M451 110l56 176h-3q-87 -85 -165 -174zM487 88l-19 -71l51 -23l-4 -8q-13 0 -38.5 1t-37.5 1q-13 0 -40 -1t-40 -1l4 8l58 22l23 71l-145 -2l-7 14q31 39 112 119t98 92q17 6 49 10l-58 -211l32 -1q17 14 35 23h5q-2 -7 -12.5 -33.5t-15.5 -34.5l-6 -2q-2 3 -10 28z M606 661l16 -22q-496 -603 -553 -674l-17 23q65 79 184 222.5t212 256.5t158 194zM223 599l-69 -2l4 10q2 1 45 18t69 29h8q-60 -236 -80 -304l64 -21l-6 -9q-17 0 -48 1t-46 1q-14 0 -40.5 -1t-40.5 -1l4 9l61 21q45 142 75 249z"/>
<glyph glyph-name="onehalf" horiz-adv-x="652" unicode="½" d="M317 -2l28 25q10 5 16 9q6 5 29 22t35 26.5t33 26.5t32.5 30.5t24.5 30t19 32.5t6 31q0 31 -15 48.5t-43 17.5q-25 0 -41 -9q-15 -54 -24 -68l-8 -6q-10 16 -19 61q54 45 112 45q38 0 63.5 -23t25.5 -64q0 -36 -25 -64.5t-82 -70.5q-76 -56 -101 -74q15 0 71 1t66 1 q4 4 19 17.5t26 23.5l10 -7q-25 -49 -42 -74q-5 0 -50 1.5t-75 1.5h-93zM604 661l16 -22q-496 -603 -553 -674l-17 23q65 79 184 222.5t212 256.5t158 194zM223 599l-69 -2l4 10q2 1 45 18t69 29h8q-60 -236 -80 -304l64 -21l-6 -9q-17 0 -48 1t-46 1q-14 0 -40.5 -1 t-40.5 -1l4 9l61 21q45 142 75 249z"/>
<glyph glyph-name="threequarters" horiz-adv-x="652" unicode="¾" d="M470 110l56 176h-3q-87 -85 -165 -174zM506 88l-19 -71l51 -23l-4 -8q-13 0 -38.5 1t-37.5 1q-13 0 -39.5 -1t-40.5 -1l4 8l58 22l23 71l-145 -2l-7 14q31 39 112 119t98 92q17 6 49 10l-58 -211l32 -1q16 14 35 23h5q-2 -7 -12.5 -33.5t-15.5 -34.5l-6 -2q-2 3 -10 28z M622 661l16 -22q-496 -603 -553 -674l-17 23q65 79 184 222.5t212 256.5t158 194zM180 566l-9 -6q-8 16 -16 56q56 38 102 38q42 0 64 -20t22 -50q0 -31 -25.5 -49t-68.5 -33l-1 -2q87 -13 87 -78q0 -49 -47 -78.5t-106 -29.5q-30 0 -57.5 10t-40.5 23q12 28 37 59l7 2 q2 -13 5.5 -34t4.5 -32q13 -7 37 -7q45 0 74.5 24.5t29.5 64.5q0 58 -61 63q-32 -8 -47 -8l-4 4q1 7 7 16t13 13q28 -2 32 -2h5q68 25 68 70q0 24 -13.5 38t-36.5 14q-22 0 -38 -8q-13 -34 -24 -58z"/>
<glyph glyph-name="questiondown" horiz-adv-x="376" unicode="¿" d="M215 -89l9 3q14 -31 22 -81q-83 -58 -148 -58q-57 0 -94 33.5t-37 94.5q0 71 108 144q43 29 62.5 43.5t43 37.5t27.5 42q3 10 3 22q0 16 -8 37l12 5q11 -5 27.5 -36.5t16.5 -59.5v-5q-29 -48 -122 -113q-55 -39 -79.5 -66.5t-24.5 -65.5t23 -61.5t65 -23.5q23 0 50 12 q31 79 44 96zM243 331h-3q-8 7 -18.5 26.5t-12.5 30.5l1 5q6 11 26 29t30 23h5q9 -7 19.5 -25t15.5 -34l-1 -2q-30 -41 -62 -53z"/>
<glyph glyph-name="Agrave" horiz-adv-x="656" unicode="À" d="M488 724l-8 -12l-172 66v10q24 26 46 32zM401 561h-3q-118 -186 -175 -280q22 0 101 -2t103 -2q-5 51 -26 284zM395 632l63 48l7 -5q-6 -15 -6 -53v-17q1 -43 58 -553q25 -25 74 -43l-3 -11q-17 0 -51 1t-51 1q-15 0 -46.5 -1t-47.5 -1l2 9l53 29q-1 27 -18 212 q-92 -5 -150 -5q-11 0 -37 0.5t-43 0.5q-86 -140 -121 -200l85 -36l-3 -10q-19 0 -58.5 1t-59.5 1q-15 0 -46.5 -1t-47.5 -1l4 10l75 35q23 31 75 110t152.5 234t131.5 203q10 16 9 26v16z"/>
<glyph glyph-name="Aacute" horiz-adv-x="656" unicode="Á" d="M406 697l-8 13l136 95q27 -5 49 -31l-1 -9zM401 561h-3q-118 -186 -175 -280q22 0 101 -2t103 -2q-5 51 -26 284zM395 632l63 48l7 -5q-6 -15 -6 -53v-17q1 -43 58 -553q25 -25 74 -43l-3 -11q-17 0 -51 1t-51 1q-15 0 -46.5 -1t-47.5 -1l2 9l53 29q-1 27 -18 212 q-92 -5 -150 -5q-11 0 -37 0.5t-43 0.5q-86 -140 -121 -200l85 -36l-3 -10q-19 0 -58.5 1t-59.5 1q-15 0 -46.5 -1t-47.5 -1l4 10l75 35q23 31 75 110t152.5 234t131.5 203q10 16 9 26v16z"/>
<glyph glyph-name="Acircumflex" horiz-adv-x="656" unicode="Â" d="M456 811h15q21 -24 97 -102l-13 -12q-61 34 -101 59q-73 -36 -130 -59l-8 13q73 50 140 101zM401 561h-3q-118 -186 -175 -280q22 0 101 -2t103 -2q-5 51 -26 284zM395 632l63 48l7 -5q-6 -15 -6 -53v-17q1 -43 58 -553q25 -25 74 -43l-3 -11q-17 0 -51 1t-51 1 q-15 0 -46.5 -1t-47.5 -1l2 9l53 29q-1 27 -18 212q-92 -5 -150 -5q-11 0 -37 0.5t-43 0.5q-86 -140 -121 -200l85 -36l-3 -10q-19 0 -58.5 1t-59.5 1q-15 0 -46.5 -1t-47.5 -1l4 10l75 35q23 31 75 110t152.5 234t131.5 203q10 16 9 26v16z"/>
<glyph glyph-name="Atilde" horiz-adv-x="656" unicode="Ã" d="M567 780l10 -9q-24 -33 -48.5 -49t-40.5 -16q-10 0 -51 18q-30 15 -43 15q-30 0 -63 -35l-11 12q56 65 90 65q7 0 47 -16q40 -17 47 -17q29 0 63 32zM401 561h-3q-118 -186 -175 -280q22 0 101 -2t103 -2q-5 51 -26 284zM395 632l63 48l7 -5q-6 -15 -6 -53v-17 q1 -43 58 -553q25 -25 74 -43l-3 -11q-17 0 -51 1t-51 1q-15 0 -46.5 -1t-47.5 -1l2 9l53 29q-1 27 -18 212q-92 -5 -150 -5q-11 0 -37 0.5t-43 0.5q-86 -140 -121 -200l85 -36l-3 -10q-19 0 -58.5 1t-59.5 1q-15 0 -46.5 -1t-47.5 -1l4 10l75 35q23 31 75 110t152.5 234 t131.5 203q10 16 9 26v16z"/>
<glyph glyph-name="Adieresis" horiz-adv-x="656" unicode="Ä" d="M548 803h4q7 -7 16 -22.5t10 -25.5l-1 -3q-4 -10 -21.5 -25.5t-26.5 -19.5h-4q-8 7 -17.5 21.5t-11.5 27.5v2q22 30 52 45zM381 803h4q7 -7 16 -22.5t10 -25.5v-3q-4 -10 -21.5 -25.5t-27.5 -19.5h-4q-20 18 -29 49v2q17 23 52 45zM401 561h-3q-118 -186 -175 -280 q22 0 101 -2t103 -2q-5 51 -26 284zM395 632l63 48l7 -5q-6 -15 -6 -53v-17q1 -43 58 -553q25 -25 74 -43l-3 -11q-17 0 -51 1t-51 1q-15 0 -46.5 -1t-47.5 -1l2 9l53 29q-1 27 -18 212q-92 -5 -150 -5q-11 0 -37 0.5t-43 0.5q-86 -140 -121 -200l85 -36l-3 -10 q-19 0 -58.5 1t-59.5 1q-15 0 -46.5 -1t-47.5 -1l4 10l75 35q23 31 75 110t152.5 234t131.5 203q10 16 9 26v16z"/>
<glyph glyph-name="Aring" horiz-adv-x="656" unicode="Å" d="M468 860h1q27 0 46 -16.5t19 -45.5q0 -11 -1 -16q-7 -36 -33.5 -56.5t-58.5 -20.5q-28 0 -47 16.5t-19 45.5q0 10 1 15q7 36 34 57t58 21zM446 734h1q40 0 50 48q1 5 1 13q0 36 -35 36q-42 0 -51 -49q-2 -10 -2 -14q0 -34 36 -34zM401 561h-3q-118 -186 -175 -280 q22 0 101 -2t103 -2q-5 51 -26 284zM395 632l63 48l7 -5q-6 -15 -6 -53v-17q1 -43 58 -553q25 -25 74 -43l-3 -11q-17 0 -51 1t-51 1q-15 0 -46.5 -1t-47.5 -1l2 9l53 29q-1 27 -18 212q-92 -5 -150 -5q-11 0 -37 0.5t-43 0.5q-86 -140 -121 -200l85 -36l-3 -10 q-19 0 -58.5 1t-59.5 1q-15 0 -46.5 -1t-47.5 -1l4 10l75 35q23 31 75 110t152.5 234t131.5 203q10 16 9 26v16z"/>
<glyph glyph-name="AE" horiz-adv-x="905" unicode="Æ" d="M306 345l191 -1l64 282h-42q-180 -235 -213 -281zM489 311h-209q-128 -173 -197 -269l86 -33l-7 -11q-16 0 -53.5 1.5t-57.5 1.5q-17 0 -53.5 -1.5t-54.5 -1.5l6 11l79 32q171 212 454 581l-117 28l5 11q21 0 77 -1t100 -1h311q27 9 63 9h3l3 -3q-32 -110 -44 -134l-7 -5 q-3 8 -18 108l-234 -10l-59 -280q208 0 273 9l5 -8q-5 -7 -32.5 -24.5t-32.5 -17.5q-3 0 -48.5 2t-98.5 4t-74 2q-4 -19 -26 -121.5t-31 -151.5l242 -12q107 100 117 108l7 -5q-40 -92 -64 -131q-90 3 -203 3h-141q-20 0 -61 -1.5t-62 -1.5l5 11l87 32q17 47 62 270z"/>
<glyph glyph-name="Ccedilla" horiz-adv-x="641" unicode="Ç" d="M279 -83l55 65l-1 1q-121 5 -194 80t-73 201q0 168 122 291t302 123q45 0 82.5 -12t53.5 -27q29 16 67 29l4 -5q-26 -67 -63 -137l-11 -3q-7 28 -7 91q-34 32 -121 32q-152 0 -252 -110.5t-100 -268.5q0 -115 62.5 -184t177.5 -69q32 0 65 6q119 98 148 118l6 -13 q-39 -65 -89 -112q-73 -27 -149 -30l-34 -41q47 -22 47 -58q0 -35 -40 -59.5t-78 -32.5l-8 15q22 7 49 26.5t27 40.5q0 23 -45 40z"/>
<glyph glyph-name="Egrave" horiz-adv-x="540" unicode="È" d="M453 709l-8 -12l-172 66v10q24 26 46 32zM137 652l7 9q21 0 61.5 -1t60.5 -1h239q31 9 62 9h3l3 -3q-34 -116 -44 -135l-8 -4q-1 7 -4.5 27.5t-7.5 46.5t-5 34l-212 -10l-72 -265q184 0 256 10l2 -9q-5 -5 -31.5 -23.5t-30.5 -18.5q-2 0 -92 4t-114 4q-61 -231 -74 -289 l243 -12q13 12 36.5 34.5t42 39.5t37.5 33l7 -5q-38 -89 -65 -130q-90 3 -203 3h-154q-20 0 -59 -1t-58 -1l4 10l94 32q14 34 87 303l73 278z"/>
<glyph glyph-name="Eacute" horiz-adv-x="540" unicode="É" d="M349 697l-8 13l136 95q27 -5 49 -31l-1 -9zM137 652l7 9q21 0 61.5 -1t60.5 -1h239q31 9 62 9h3l3 -3q-34 -116 -44 -135l-8 -4q-1 7 -4.5 27.5t-7.5 46.5t-5 34l-212 -10l-72 -265q184 0 256 10l2 -9q-5 -5 -31.5 -23.5t-30.5 -18.5q-2 0 -92 4t-114 4 q-61 -231 -74 -289l243 -12q13 12 36.5 34.5t42 39.5t37.5 33l7 -5q-38 -89 -65 -130q-90 3 -203 3h-154q-20 0 -59 -1t-58 -1l4 10l94 32q14 34 87 303l73 278z"/>
<glyph glyph-name="Ecircumflex" horiz-adv-x="540" unicode="Ê" d="M406 811h15q21 -24 97 -102l-13 -12q-61 34 -101 59q-73 -36 -130 -59l-8 13q73 50 140 101zM137 652l7 9q21 0 61.5 -1t60.5 -1h239q31 9 62 9h3l3 -3q-34 -116 -44 -135l-8 -4q-1 7 -4.5 27.5t-7.5 46.5t-5 34l-212 -10l-72 -265q184 0 256 10l2 -9q-5 -5 -31.5 -23.5 t-30.5 -18.5q-2 0 -92 4t-114 4q-61 -231 -74 -289l243 -12q13 12 36.5 34.5t42 39.5t37.5 33l7 -5q-38 -89 -65 -130q-90 3 -203 3h-154q-20 0 -59 -1t-58 -1l4 10l94 32q14 34 87 303l73 278z"/>
<glyph glyph-name="Edieresis" horiz-adv-x="540" unicode="Ë" d="M495 803h4q7 -7 16 -22.5t10 -25.5l-1 -3q-4 -10 -21.5 -25.5t-26.5 -19.5h-4q-8 7 -17.5 21.5t-11.5 27.5v2q22 30 52 45zM328 803h4q7 -7 16 -22.5t10 -25.5v-3q-4 -10 -21.5 -25.5t-27.5 -19.5h-4q-20 18 -29 49v2q17 23 52 45zM137 652l7 9q21 0 61.5 -1t60.5 -1h239 q31 9 62 9h3l3 -3q-34 -116 -44 -135l-8 -4q-1 7 -4.5 27.5t-7.5 46.5t-5 34l-212 -10l-72 -265q184 0 256 10l2 -9q-5 -5 -31.5 -23.5t-30.5 -18.5q-2 0 -92 4t-114 4q-61 -231 -74 -289l243 -12q13 12 36.5 34.5t42 39.5t37.5 33l7 -5q-38 -89 -65 -130q-90 3 -203 3h-154 q-20 0 -59 -1t-58 -1l4 10l94 32q14 34 87 303l73 278z"/>
<glyph glyph-name="Igrave" horiz-adv-x="297" unicode="Ì" d="M352 709l-8 -12l-172 66v10q24 26 46 32zM158 652l3 9q17 0 51 -1t51 -1t53.5 1t54.5 1l-3 -10l-75 -32l-76 -275q-65 -232 -77 -304l83 -32l-7 -10q-18 0 -58.5 1t-62.5 1q-19 0 -60 -1t-64 -1l6 10l84 31q11 24 88 304l76 276z"/>
<glyph glyph-name="Iacute" horiz-adv-x="297" unicode="Í" d="M230 705l-8 13l136 95q27 -5 49 -31l-1 -9zM158 652l3 9q17 0 51 -1t51 -1t53.5 1t54.5 1l-3 -10l-75 -32l-76 -275q-65 -232 -77 -304l83 -32l-7 -10q-18 0 -58.5 1t-62.5 1q-19 0 -60 -1t-64 -1l6 10l84 31q11 24 88 304l76 276z"/>
<glyph glyph-name="Icircumflex" horiz-adv-x="297" unicode="Î" d="M292 816h15q21 -24 97 -102l-13 -12q-61 35 -101 59q-73 -36 -130 -59l-8 13q73 50 140 101zM158 652l3 9q17 0 51 -1t51 -1t53.5 1t54.5 1l-3 -10l-75 -32l-76 -275q-65 -232 -77 -304l83 -32l-7 -10q-18 0 -58.5 1t-62.5 1q-19 0 -60 -1t-64 -1l6 10l84 31 q11 24 88 304l76 276z"/>
<glyph glyph-name="Idieresis" horiz-adv-x="297" unicode="Ï" d="M380 803h4q7 -7 16 -22.5t10 -25.5l-1 -3q-4 -10 -21.5 -25.5t-26.5 -19.5h-4q-8 7 -17.5 21.5t-11.5 27.5v2q22 30 52 45zM213 803h4q7 -7 16 -22.5t10 -25.5v-3q-4 -10 -21.5 -25.5t-27.5 -19.5h-4q-20 18 -29 49v2q17 23 52 45zM158 652l3 9q17 0 51 -1t51 -1t53.5 1 t54.5 1l-3 -10l-75 -32l-76 -275q-65 -232 -77 -304l83 -32l-7 -10q-18 0 -58.5 1t-62.5 1q-19 0 -60 -1t-64 -1l6 10l84 31q11 24 88 304l76 276z"/>
<glyph glyph-name="Eth" horiz-adv-x="723" unicode="Ð" d="M250 363h198l-21 -30h-185q-79 -289 -79 -309q215 0 318 66q80 50 121.5 129.5t41.5 170.5q0 104 -53 167q-37 43 -99 63.5t-167 20.5zM87 363h96l69 266l-79 18l4 8q4 1 34 3.5t80.5 5t94.5 2.5q155 0 243.5 -74t88.5 -206q0 -137 -85.5 -235t-220.5 -133 q-71 -19 -213 -19q-12 0 -38.5 0.5t-40.5 0.5h-43h-78l6 10l82 25q20 39 87 298h-104z"/>
<glyph glyph-name="Ntilde" horiz-adv-x="705" unicode="Ñ" d="M588 780l10 -9q-24 -33 -48.5 -49t-40.5 -16q-10 0 -51 18q-30 15 -43 15q-30 0 -63 -35l-11 12q56 65 90 65q7 0 47 -16q40 -17 47 -17q29 0 63 32zM186 8l-5 -10q-18 0 -56.5 1t-57.5 1q-17 0 -51.5 -1t-51.5 -1l5 10l85 34q17 42 157 524q-21 46 -36.5 59t-65.5 24 l4 10q7 0 56 2t71 4q1 -3 20 -51q39 -78 131.5 -258t137.5 -270h2q83 306 135 532l-79 33l6 10q18 0 53 -1t52 -1q18 0 54 1t53 1l-6 -10l-89 -34q-39 -101 -160 -576l63 -34l-2 -7l-107 -11q-20 36 -273 537h-2q-109 -384 -127 -485z"/>
<glyph glyph-name="Ograve" horiz-adv-x="710" unicode="Ò" d="M548 723l-8 -12l-172 66v10q24 26 46 32zM446 652h-1q-68 0 -126 -35.5t-96 -91.5t-59 -123.5t-21 -132.5q0 -122 51 -192.5t138 -70.5q83 0 152 60t105.5 149t36.5 182q0 126 -50.5 190.5t-129.5 64.5zM451 677h1q42 0 83 -15t80.5 -47t63.5 -92t24 -139 q0 -73 -26 -143.5t-72.5 -128.5t-120.5 -94t-162 -36q-44 0 -87 16t-82 48t-63 89.5t-24 132.5q0 104 51.5 198.5t141 152.5t192.5 58z"/>
<glyph glyph-name="Oacute" horiz-adv-x="710" unicode="Ó" d="M417 707l-8 13l136 95q27 -5 49 -31l-1 -9zM446 652h-1q-68 0 -126 -35.5t-96 -91.5t-59 -123.5t-21 -132.5q0 -122 51 -192.5t138 -70.5q83 0 152 60t105.5 149t36.5 182q0 126 -50.5 190.5t-129.5 64.5zM451 677h1q42 0 83 -15t80.5 -47t63.5 -92t24 -139 q0 -73 -26 -143.5t-72.5 -128.5t-120.5 -94t-162 -36q-44 0 -87 16t-82 48t-63 89.5t-24 132.5q0 104 51.5 198.5t141 152.5t192.5 58z"/>
<glyph glyph-name="Ocircumflex" horiz-adv-x="710" unicode="Ô" d="M471 819h15q21 -24 97 -102l-13 -12q-61 35 -101 59q-73 -36 -130 -59l-8 13q73 50 140 101zM446 652h-1q-68 0 -126 -35.5t-96 -91.5t-59 -123.5t-21 -132.5q0 -122 51 -192.5t138 -70.5q83 0 152 60t105.5 149t36.5 182q0 126 -50.5 190.5t-129.5 64.5zM451 677h1 q42 0 83 -15t80.5 -47t63.5 -92t24 -139q0 -73 -26 -143.5t-72.5 -128.5t-120.5 -94t-162 -36q-44 0 -87 16t-82 48t-63 89.5t-24 132.5q0 104 51.5 198.5t141 152.5t192.5 58z"/>
<glyph glyph-name="Otilde" horiz-adv-x="710" unicode="Õ" d="M585 792l10 -9q-24 -33 -48.5 -49t-40.5 -16q-10 0 -51 18q-30 15 -43 15q-30 0 -63 -35l-11 12q56 65 90 65q7 0 47 -16q40 -17 47 -17q29 0 63 32zM446 652h-1q-68 0 -126 -35.5t-96 -91.5t-59 -123.5t-21 -132.5q0 -122 51 -192.5t138 -70.5q83 0 152 60t105.5 149 t36.5 182q0 126 -50.5 190.5t-129.5 64.5zM451 677h1q42 0 83 -15t80.5 -47t63.5 -92t24 -139q0 -73 -26 -143.5t-72.5 -128.5t-120.5 -94t-162 -36q-44 0 -87 16t-82 48t-63 89.5t-24 132.5q0 104 51.5 198.5t141 152.5t192.5 58z"/>
<glyph glyph-name="Odieresis" horiz-adv-x="710" unicode="Ö" d="M570 813h4q7 -7 16 -22.5t10 -25.5l-1 -3q-4 -10 -21.5 -25.5t-26.5 -19.5h-4q-8 7 -17.5 21.5t-11.5 27.5v2q22 30 52 45zM403 813h4q7 -7 16 -22.5t10 -25.5v-3q-4 -10 -21.5 -25.5t-27.5 -19.5h-4q-20 18 -29 49v2q17 23 52 45zM446 652h-1q-68 0 -126 -35.5 t-96 -91.5t-59 -123.5t-21 -132.5q0 -122 51 -192.5t138 -70.5q83 0 152 60t105.5 149t36.5 182q0 126 -50.5 190.5t-129.5 64.5zM451 677h1q42 0 83 -15t80.5 -47t63.5 -92t24 -139q0 -73 -26 -143.5t-72.5 -128.5t-120.5 -94t-162 -36q-44 0 -87 16t-82 48t-63 89.5 t-24 132.5q0 104 51.5 198.5t141 152.5t192.5 58z"/>
<glyph glyph-name="multiply" horiz-adv-x="531" unicode="×" d="M445 371l-153 -156l148 -150l-21 -33l-154 156l-154 -156l-21 33l148 150l-152 155l23 32l156 -159l158 160z"/>
<glyph glyph-name="Oslash" horiz-adv-x="710" unicode="Ø" d="M592 556l-401 -472q49 -80 140 -80q82 0 151 60t105.5 149.5t36.5 182.5q0 91 -30 159zM177 111l401 471q-50 72 -130 72q-70 0 -129.5 -35.5t-96.5 -92.5t-58 -124t-21 -132q0 -89 32 -158zM610 615l68 77l17 -19l-65 -76q71 -80 71 -213q0 -72 -25.5 -143t-71.5 -129 t-119.5 -94t-160.5 -36q-97 0 -170 64l-82 -95l-16 24l79 91q-69 78 -69 203q0 104 50.5 198t139 152t190.5 58q96 0 164 -62z"/>
<glyph glyph-name="Ugrave" horiz-adv-x="715" unicode="Ù" d="M536 709l-8 -12l-172 66v10q24 26 46 32zM220 617l-70 34l5 10q16 0 51.5 -1t52.5 -1q13 0 35 1t30 1l-3 -10l-38 -38q-9 -30 -33 -109t-57.5 -199.5t-41.5 -165.5q-3 -17 -3 -30q0 -79 91 -79q134 0 279 149l127 440l-40 32l4 10q14 -2 75 -2q35 0 109 2l-7 -10l-77 -34 q-20 -64 -87 -308t-68 -265l85 -16l-6 -11q-111 -19 -165 -34l-4 2l45 151l-2 1q-55 -60 -139 -107t-165 -47q-61 0 -92 27q-37 30 -37 85q0 33 13 79q64 236 133 443z"/>
<glyph glyph-name="Uacute" horiz-adv-x="715" unicode="Ú" d="M444 697l-8 13l136 95q27 -5 49 -31l-1 -9zM220 617l-70 34l5 10q16 0 51.5 -1t52.5 -1q13 0 35 1t30 1l-3 -10l-38 -38q-9 -30 -33 -109t-57.5 -199.5t-41.5 -165.5q-3 -17 -3 -30q0 -79 91 -79q134 0 279 149l127 440l-40 32l4 10q14 -2 75 -2q35 0 109 2l-7 -10 l-77 -34q-20 -64 -87 -308t-68 -265l85 -16l-6 -11q-111 -19 -165 -34l-4 2l45 151l-2 1q-55 -60 -139 -107t-165 -47q-61 0 -92 27q-37 30 -37 85q0 33 13 79q64 236 133 443z"/>
<glyph glyph-name="Ucircumflex" horiz-adv-x="715" unicode="Û" d="M501 811h15q21 -24 97 -102l-13 -12q-61 34 -101 59q-73 -36 -130 -59l-8 13q73 50 140 101zM220 617l-70 34l5 10q16 0 51.5 -1t52.5 -1q13 0 35 1t30 1l-3 -10l-38 -38q-9 -30 -33 -109t-57.5 -199.5t-41.5 -165.5q-3 -17 -3 -30q0 -79 91 -79q134 0 279 149l127 440 l-40 32l4 10q14 -2 75 -2q35 0 109 2l-7 -10l-77 -34q-20 -64 -87 -308t-68 -265l85 -16l-6 -11q-111 -19 -165 -34l-4 2l45 151l-2 1q-55 -60 -139 -107t-165 -47q-61 0 -92 27q-37 30 -37 85q0 33 13 79q64 236 133 443z"/>
<glyph glyph-name="Udieresis" horiz-adv-x="715" unicode="Ü" d="M596 803h4q7 -7 16 -22.5t10 -25.5l-1 -3q-4 -10 -21.5 -25.5t-26.5 -19.5h-4q-8 7 -17.5 21.5t-11.5 27.5v2q22 30 52 45zM429 803h4q7 -7 16 -22.5t10 -25.5v-3q-4 -10 -21.5 -25.5t-27.5 -19.5h-4q-20 18 -29 49v2q17 23 52 45zM220 617l-70 34l5 10q16 0 51.5 -1 t52.5 -1q13 0 35 1t30 1l-3 -10l-38 -38q-9 -30 -33 -109t-57.5 -199.5t-41.5 -165.5q-3 -17 -3 -30q0 -79 91 -79q134 0 279 149l127 440l-40 32l4 10q14 -2 75 -2q35 0 109 2l-7 -10l-77 -34q-20 -64 -87 -308t-68 -265l85 -16l-6 -11q-111 -19 -165 -34l-4 2l45 151l-2 1 q-55 -60 -139 -107t-165 -47q-61 0 -92 27q-37 30 -37 85q0 33 13 79q64 236 133 443z"/>
<glyph glyph-name="Yacute" horiz-adv-x="587" unicode="Ý" d="M383 697l-8 13l136 95q27 -5 49 -31l-1 -9zM114 651l5 10q15 0 49 -1.5t52 -1.5q14 0 42.5 1.5t43.5 1.5l-5 -10l-40 -27q23 -91 83 -285h2q143 172 219 284l-29 28l6 10q12 0 42 -1.5t45 -1.5q14 0 42 1.5t43 1.5l-5 -11l-95 -33q-99 -106 -246 -294q-16 -23 -22 -39 q-61 -226 -62 -245l104 -31l-4 -10q-26 0 -76 1t-76 1q-22 0 -65 -1t-64 -1l5 10l98 31q24 61 77 251q1 4 1 13q0 15 -6 32q-37 126 -88 284q-14 7 -43 18.5t-33 13.5z"/>
<glyph glyph-name="Thorn" horiz-adv-x="529" unicode="Þ" d="M-4 8l70 30q14 37 84 298l77 286l-64 29l4 10q17 0 47.5 -1t43.5 -1q22 0 63 1t58 1l-4 -10l-79 -29l-27 -97q52 4 61 4h11q85 0 137.5 -39t52.5 -125t-71.5 -146.5t-174.5 -60.5q-29 0 -55 13l-1 13q100 0 164 48t64 143q0 130 -145 130q-25 0 -51 -5l-37 -141 q-73 -274 -81 -320l80 -31l-3 -10q-19 0 -57 1t-57 1q-18 0 -56 -1t-58 -1z"/>
<glyph glyph-name="germandbls" horiz-adv-x="496" unicode="ß" d="M61 435h70q13 39 22 61.5t26 58t39.5 63.5t51.5 51q62 50 133 50q59 0 94 -32t35 -92q0 -16 -6 -22q-76 -58 -119.5 -113.5t-43.5 -94.5q0 -33 42 -113q37 -68 37 -109v-7q-3 -52 -55 -100.5t-130 -48.5q-31 0 -60.5 11t-43.5 26q14 28 44 72l9 2q4 -14 14 -80 q12 -7 41 -7q50 0 84.5 31t36.5 71v6q0 38 -39 113q-37 74 -37 105q0 46 40.5 97.5t124.5 117.5q6 21 6 45q0 40 -24 68.5t-69 28.5q-30 0 -54.5 -12.5t-52.5 -46.5t-54.5 -105.5t-49.5 -177.5q-11 -54 -61 -276q-24 -106 -52 -165t-68 -98q-63 -60 -118 -60q-48 0 -64 27 l36 56l6 1q23 -41 67 -41q64 0 102 153q23 88 103 450l-76 17z"/>
<glyph glyph-name="agrave" horiz-adv-x="493" unicode="à" d="M351 505l-15 -7l-80 155l1 8q22 14 45 14h7zM99 33h1q37 0 89 47.5t105 129.5q26 41 39.5 71.5t37.5 108.5q-14 14 -45 14q-73 0 -139 -73q-54 -61 -82.5 -132t-28.5 -121q0 -45 23 -45zM387 439l81 14v-7l-37 -39q-31 -103 -61.5 -223t-35.5 -151l2 -1q29 9 56 31.5 t37 36t25 35.5l4 -6q-4 -53 -52.5 -97.5t-113.5 -44.5q-14 0 -28 3q6 29 27 105t27 102h-4q-59 -89 -128.5 -149.5t-114.5 -60.5q-60 0 -60 93q0 72 48 161t130 146q66 47 128 47q38 0 61 -21z"/>
<glyph glyph-name="aacute" horiz-adv-x="493" unicode="á" d="M305 499l-11 11l106 149h8q24 0 45 -12v-7zM99 33h1q37 0 89 47.5t105 129.5q26 41 39.5 71.5t37.5 108.5q-14 14 -45 14q-73 0 -139 -73q-54 -61 -82.5 -132t-28.5 -121q0 -45 23 -45zM387 439l81 14v-7l-37 -39q-31 -103 -61.5 -223t-35.5 -151l2 -1q29 9 56 31.5 t37 36t25 35.5l4 -6q-4 -53 -52.5 -97.5t-113.5 -44.5q-14 0 -28 3q6 29 27 105t27 102h-4q-59 -89 -128.5 -149.5t-114.5 -60.5q-60 0 -60 93q0 72 48 161t130 146q66 47 128 47q38 0 61 -21z"/>
<glyph glyph-name="acircumflex" horiz-adv-x="493" unicode="â" d="M340 664l12 3l56 -156l-15 -9l-62 95l-102 -95l-14 11zM99 33h1q37 0 89 47.5t105 129.5q26 41 39.5 71.5t37.5 108.5q-14 14 -45 14q-73 0 -139 -73q-54 -61 -82.5 -132t-28.5 -121q0 -45 23 -45zM387 439l81 14v-7l-37 -39q-31 -103 -61.5 -223t-35.5 -151l2 -1 q29 9 56 31.5t37 36t25 35.5l4 -6q-4 -53 -52.5 -97.5t-113.5 -44.5q-14 0 -28 3q6 29 27 105t27 102h-4q-59 -89 -128.5 -149.5t-114.5 -60.5q-60 0 -60 93q0 72 48 161t130 146q66 47 128 47q38 0 61 -21z"/>
<glyph glyph-name="atilde" horiz-adv-x="493" unicode="ã" d="M459 611l11 -8q-47 -65 -83 -65q-7 0 -49 17q-31 15 -41 15q-25 0 -58 -35l-12 12q54 65 85 65q7 0 45 -16q36 -16 45 -16q26 0 57 31zM99 33h1q37 0 89 47.5t105 129.5q26 41 39.5 71.5t37.5 108.5q-14 14 -45 14q-73 0 -139 -73q-54 -61 -82.5 -132t-28.5 -121 q0 -45 23 -45zM387 439l81 14v-7l-37 -39q-31 -103 -61.5 -223t-35.5 -151l2 -1q29 9 56 31.5t37 36t25 35.5l4 -6q-4 -53 -52.5 -97.5t-113.5 -44.5q-14 0 -28 3q6 29 27 105t27 102h-4q-59 -89 -128.5 -149.5t-114.5 -60.5q-60 0 -60 93q0 72 48 161t130 146q66 47 128 47 q38 0 61 -21z"/>
<glyph glyph-name="adieresis" horiz-adv-x="493" unicode="ä" d="M433 642h5q5 -5 14.5 -21.5t10.5 -24.5l-1 -5q-5 -10 -21.5 -25.5t-25.5 -20.5h-5q-22 25 -29 52l1 2q26 33 51 43zM264 642h4q6 -4 15 -20.5t11 -25.5l-1 -5q-4 -10 -20.5 -25.5t-26.5 -20.5h-5q-24 27 -29 52v2q28 33 52 43zM99 33h1q37 0 89 47.5t105 129.5 q26 41 39.5 71.5t37.5 108.5q-14 14 -45 14q-73 0 -139 -73q-54 -61 -82.5 -132t-28.5 -121q0 -45 23 -45zM387 439l81 14v-7l-37 -39q-31 -103 -61.5 -223t-35.5 -151l2 -1q29 9 56 31.5t37 36t25 35.5l4 -6q-4 -53 -52.5 -97.5t-113.5 -44.5q-14 0 -28 3q6 29 27 105 t27 102h-4q-59 -89 -128.5 -149.5t-114.5 -60.5q-60 0 -60 93q0 72 48 161t130 146q66 47 128 47q38 0 61 -21z"/>
<glyph glyph-name="aring" horiz-adv-x="493" unicode="å" d="M359 661h1q27 0 46 -17t19 -46q0 -10 -1 -15q-6 -34 -33.5 -55t-57.5 -21q-28 0 -47 16.5t-19 44.5q0 10 1 15q7 36 34 57t57 21zM338 536h1q40 0 49 47q1 5 1 13q0 36 -34 36q-18 0 -33 -12.5t-19 -36.5q-1 -4 -1 -11q0 -36 36 -36zM99 33h1q37 0 89 47.5t105 129.5 q26 41 39.5 71.5t37.5 108.5q-14 14 -45 14q-73 0 -139 -73q-54 -61 -82.5 -132t-28.5 -121q0 -45 23 -45zM387 439l81 14v-7l-37 -39q-31 -103 -61.5 -223t-35.5 -151l2 -1q29 9 56 31.5t37 36t25 35.5l4 -6q-4 -53 -52.5 -97.5t-113.5 -44.5q-14 0 -28 3q6 29 27 105 t27 102h-4q-59 -89 -128.5 -149.5t-114.5 -60.5q-60 0 -60 93q0 72 48 161t130 146q66 47 128 47q38 0 61 -21z"/>
<glyph glyph-name="ae" horiz-adv-x="667" unicode="æ" d="M560 422h-1q-48 0 -100 -58t-76 -141q47 4 114 26q64 19 81 42q23 31 23 84q0 47 -41 47zM637 138l5 -23q-91 -128 -214 -128q-120 0 -124 137q0 22 2 30h-2q-54 -70 -117.5 -118.5t-110.5 -48.5q-32 0 -49 22t-17 57q0 36 18 82t64.5 102.5t112.5 98.5q106 67 245 67h18 q51 29 102 29q44 0 67.5 -25.5t23.5 -62.5q0 -28 -15 -60q-9 -17 -36 -30q-21 -13 -89.5 -36.5t-142.5 -34.5q-8 -30 -8 -66v-11q2 -38 21.5 -65.5t60.5 -27.5q39 0 76.5 19.5t58.5 39.5t49 53h1zM71 61v-1q0 -36 30 -36q34 0 96 50t116 132q51 128 120 185l-2 3h-8 q-83 0 -170 -57q-78 -51 -130 -134t-52 -142z"/>
<glyph glyph-name="ccedilla" horiz-adv-x="381" unicode="ç" d="M80 -82l59 68l-1 2q-57 3 -85.5 41t-28.5 98q0 59 25.5 123.5t81.5 117.5q82 77 172 77q55 0 75 -20q-12 -51 -38 -100l-10 -5q-5 15 -20 99q-10 3 -19 3q-61 0 -116 -63q-79 -93 -81 -221q0 -47 19.5 -76.5t59.5 -29.5q86 0 170 105h2l4 -20q-30 -49 -77 -85t-101 -42 l-39 -47q47 -23 47 -58q0 -25 -23.5 -46t-48 -31.5t-47.5 -15.5l-7 16q21 5 48.5 25t27.5 41q0 23 -48 41z"/>
<glyph glyph-name="egrave" horiz-adv-x="386" unicode="è" d="M320 505l-15 -7l-80 155l1 8q22 14 45 14h7zM272 423h-1q-48 0 -96 -58t-70 -142q51 9 117.5 30.5t82.5 43.5q15 22 15 58q0 32 -13.5 50t-34.5 18zM349 132l4 -23q-42 -58 -95 -90t-107 -32q-53 0 -88.5 31.5t-37.5 107.5v5q0 65 31.5 136.5t93.5 124.5t135 53 q45 0 70 -27t25 -69q0 -27 -18 -52q-21 -31 -110 -59.5t-151 -39.5q-6 -28 -6 -62q0 -48 20 -77.5t63 -29.5q44 0 91 32t78 71h2z"/>
<glyph glyph-name="eacute" horiz-adv-x="386" unicode="é" d="M250 499l-11 11l106 149h8q24 0 45 -12v-7zM272 423h-1q-48 0 -96 -58t-70 -142q51 9 117.5 30.5t82.5 43.5q15 22 15 58q0 32 -13.5 50t-34.5 18zM349 132l4 -23q-42 -58 -95 -90t-107 -32q-53 0 -88.5 31.5t-37.5 107.5v5q0 65 31.5 136.5t93.5 124.5t135 53 q45 0 70 -27t25 -69q0 -27 -18 -52q-21 -31 -110 -59.5t-151 -39.5q-6 -28 -6 -62q0 -48 20 -77.5t63 -29.5q44 0 91 32t78 71h2z"/>
<glyph glyph-name="ecircumflex" horiz-adv-x="386" unicode="ê" d="M318 664l12 3l56 -156l-15 -9l-62 95l-102 -95l-14 11zM272 423h-1q-48 0 -96 -58t-70 -142q51 9 117.5 30.5t82.5 43.5q15 22 15 58q0 32 -13.5 50t-34.5 18zM349 132l4 -23q-42 -58 -95 -90t-107 -32q-53 0 -88.5 31.5t-37.5 107.5v5q0 65 31.5 136.5t93.5 124.5 t135 53q45 0 70 -27t25 -69q0 -27 -18 -52q-21 -31 -110 -59.5t-151 -39.5q-6 -28 -6 -62q0 -48 20 -77.5t63 -29.5q44 0 91 32t78 71h2z"/>
<glyph glyph-name="edieresis" horiz-adv-x="386" unicode="ë" d="M403 642h5q5 -5 14.5 -21.5t10.5 -24.5l-1 -5q-5 -10 -21.5 -25.5t-25.5 -20.5h-5q-22 25 -29 52l1 2q26 33 51 43zM234 642h4q6 -4 15 -20.5t11 -25.5l-1 -5q-4 -10 -20.5 -25.5t-26.5 -20.5h-5q-24 27 -29 52v2q28 33 52 43zM272 423h-1q-48 0 -96 -58t-70 -142 q51 9 117.5 30.5t82.5 43.5q15 22 15 58q0 32 -13.5 50t-34.5 18zM349 132l4 -23q-42 -58 -95 -90t-107 -32q-53 0 -88.5 31.5t-37.5 107.5v5q0 65 31.5 136.5t93.5 124.5t135 53q45 0 70 -27t25 -69q0 -27 -18 -52q-21 -31 -110 -59.5t-151 -39.5q-6 -28 -6 -62 q0 -48 20 -77.5t63 -29.5q44 0 91 32t78 71h2z"/>
<glyph glyph-name="igrave" horiz-adv-x="259" unicode="ì" d="M218 505l-15 -7l-80 155l1 8q22 14 45 14h7zM139 388l-61 9l4 10q22 12 63.5 24.5t68.5 13.5l2 -2q-31 -103 -126 -421l2 -1q27 9 66.5 47.5t62.5 70.5l3 -6q-8 -46 -51 -96t-98 -50q-14 0 -24 13t-10 40q0 25 8 54q2 8 90 294z"/>
<glyph glyph-name="iacute" horiz-adv-x="259" unicode="í" d="M174 499l-11 11l106 149h8q24 0 45 -12v-7zM139 388l-61 9l4 10q22 12 63.5 24.5t68.5 13.5l2 -2q-31 -103 -126 -421l2 -1q27 9 66.5 47.5t62.5 70.5l3 -6q-8 -46 -51 -96t-98 -50q-14 0 -24 13t-10 40q0 25 8 54q2 8 90 294z"/>
<glyph glyph-name="icircumflex" horiz-adv-x="259" unicode="î" d="M216 664l12 3l56 -156l-15 -9l-62 95l-102 -95l-14 11zM139 388l-61 9l4 10q22 12 63.5 24.5t68.5 13.5l2 -2q-31 -103 -126 -421l2 -1q27 9 66.5 47.5t62.5 70.5l3 -6q-8 -46 -51 -96t-98 -50q-14 0 -24 13t-10 40q0 25 8 54q2 8 90 294z"/>
<glyph glyph-name="idieresis" horiz-adv-x="259" unicode="ï" d="M309 642h5q5 -5 14.5 -21.5t10.5 -24.5l-1 -5q-5 -10 -21.5 -25.5t-25.5 -20.5h-5q-22 25 -29 52l1 2q26 33 51 43zM140 642h4q6 -4 15 -20.5t11 -25.5l-1 -5q-4 -10 -20.5 -25.5t-26.5 -20.5h-5q-24 27 -29 52v2q28 33 52 43zM139 388l-61 9l4 10q22 12 63.5 24.5 t68.5 13.5l2 -2q-31 -103 -126 -421l2 -1q27 9 66.5 47.5t62.5 70.5l3 -6q-8 -46 -51 -96t-98 -50q-14 0 -24 13t-10 40q0 25 8 54q2 8 90 294z"/>
<glyph glyph-name="eth" horiz-adv-x="424" unicode="ð" d="M278 423h-1q-38 0 -76 -36q-44 -44 -76.5 -115.5t-32.5 -151.5q0 -51 20 -80.5t51 -29.5q50 0 93 52q30 37 60 120t30 174q0 20 -14 39q-23 28 -54 28zM170 514l136 70q-37 72 -124 122l14 12q38 -14 79.5 -46t66.5 -68l106 58l19 -20l-109 -58q53 -86 53 -215 q0 -78 -22.5 -157.5t-66.5 -133.5q-72 -91 -167 -91q-59 0 -94 43t-35 110q0 121 87 217q82 88 166 88q42 0 72 -26q-1 83 -33 145l-130 -70z"/>
<glyph glyph-name="ntilde" horiz-adv-x="512" unicode="ñ" d="M437 611l11 -8q-47 -65 -83 -65q-7 0 -49 17q-32 15 -41 15q-25 0 -58 -35l-12 12q54 65 85 65q7 0 45 -16q36 -16 45 -16q26 0 57 31zM88 0l-62 -8q19 55 63.5 216.5t45.5 181.5l-63 8l3 9q21 11 69.5 24.5t66.5 13.5l2 -1q-2 -8 -12.5 -43.5t-29 -98.5t-36.5 -130h3 q136 203 267 261q28 12 55 12q16 0 16 -16q0 -11 -6 -33q-77 -262 -90 -346l87 14l-5 -16q-68 -23 -163 -67l-4 6q1 4 53 181.5t60 213.5q5 14 -7 14q-35 0 -112 -74.5t-130 -160.5q-41 -69 -71 -161z"/>
<glyph glyph-name="ograve" horiz-adv-x="447" unicode="ò" d="M329 505l-15 -7l-80 155l1 8q22 14 45 14h7zM275 423h-1q-51 0 -93.5 -52t-63.5 -118t-21 -123q0 -121 71 -121q68 0 125 93t57 191q0 130 -74 130zM285 445h1q57 0 93.5 -47.5t36.5 -118.5q0 -111 -78.5 -201.5t-174.5 -90.5q-58 0 -96 42.5t-38 114.5q0 119 79 210 t177 91z"/>
<glyph glyph-name="oacute" horiz-adv-x="447" unicode="ó" d="M271 499l-11 11l106 149h8q24 0 45 -12v-7zM275 423h-1q-51 0 -93.5 -52t-63.5 -118t-21 -123q0 -121 71 -121q68 0 125 93t57 191q0 130 -74 130zM285 445h1q57 0 93.5 -47.5t36.5 -118.5q0 -111 -78.5 -201.5t-174.5 -90.5q-58 0 -96 42.5t-38 114.5q0 119 79 210 t177 91z"/>
<glyph glyph-name="ocircumflex" horiz-adv-x="447" unicode="ô" d="M330 664l12 3l56 -156l-15 -9l-62 95l-102 -95l-14 11zM275 423h-1q-51 0 -93.5 -52t-63.5 -118t-21 -123q0 -121 71 -121q68 0 125 93t57 191q0 130 -74 130zM285 445h1q57 0 93.5 -47.5t36.5 -118.5q0 -111 -78.5 -201.5t-174.5 -90.5q-58 0 -96 42.5t-38 114.5 q0 119 79 210t177 91z"/>
<glyph glyph-name="otilde" horiz-adv-x="447" unicode="õ" d="M423 611l11 -8q-47 -65 -83 -65q-7 0 -49 17q-32 15 -41 15q-25 0 -58 -35l-12 12q54 65 85 65q7 0 45 -16q36 -16 45 -16q26 0 57 31zM275 423h-1q-51 0 -93.5 -52t-63.5 -118t-21 -123q0 -121 71 -121q68 0 125 93t57 191q0 130 -74 130zM285 445h1q57 0 93.5 -47.5 t36.5 -118.5q0 -111 -78.5 -201.5t-174.5 -90.5q-58 0 -96 42.5t-38 114.5q0 119 79 210t177 91z"/>
<glyph glyph-name="odieresis" horiz-adv-x="447" unicode="ö" d="M416 642h5q5 -5 14.5 -21.5t10.5 -24.5l-1 -5q-5 -10 -21.5 -25.5t-25.5 -20.5h-5q-22 25 -29 52l1 2q26 33 51 43zM247 642h4q6 -4 15 -20.5t11 -25.5l-1 -5q-4 -10 -20.5 -25.5t-26.5 -20.5h-5q-24 27 -29 52v2q28 33 52 43zM275 423h-1q-51 0 -93.5 -52t-63.5 -118 t-21 -123q0 -121 71 -121q68 0 125 93t57 191q0 130 -74 130zM285 445h1q57 0 93.5 -47.5t36.5 -118.5q0 -111 -78.5 -201.5t-174.5 -90.5q-58 0 -96 42.5t-38 114.5q0 119 79 210t177 91z"/>
<glyph glyph-name="divide" horiz-adv-x="531" unicode="÷" d="M267 408l5 1q6 -3 17 -15.5t16 -22.5l-1 -6q-15 -25 -36 -38l-5 -2q-22 12 -34 39l1 6q17 24 37 38zM266 145h6q6 -3 17 -15.5t15 -22.5l-1 -6q-9 -20 -36 -39l-5 -1q-24 15 -33 38l1 7q22 27 36 39zM74 251h396l-13 -36h-397z"/>
<glyph glyph-name="oslash" horiz-adv-x="448" unicode="ø" d="M346 349l-238 -298q20 -42 58 -42q54 0 98.5 50.5t66.5 117t22 126.5q0 23 -5 45zM98 80l238 297q-17 46 -60 46q-57 0 -100.5 -51.5t-63.5 -118.5t-20 -129q0 -18 4 -44h2zM369 415l49 60l15 -22l-49 -60q32 -45 32 -112q0 -112 -78.5 -203t-177.5 -91q-51 0 -84 32 l-49 -58l-15 22l47 55q-30 43 -30 105q0 119 80 210.5t176 91.5q50 0 84 -30z"/>
<glyph glyph-name="ugrave" horiz-adv-x="533" unicode="ù" d="M362 505l-15 -7l-80 155l1 8q22 14 45 14h7zM143 388l-78 6l5 11q24 11 70.5 24t76.5 16l5 -4q-94 -283 -111 -364q-3 -15 -3 -23q0 -20 14 -20q40 0 102 63t125 162q25 40 39.5 75t33.5 97q31 9 78 14l3 -6l-37 -49q-45 -138 -92 -352l2 -1q65 19 116 100l5 -7 q-5 -54 -57.5 -98.5t-114.5 -44.5q-7 0 -23 2q11 46 73 263h-2q-50 -79 -108 -145t-107 -96q-42 -24 -74 -24q-40 0 -40 44q0 23 8 51q22 81 91 306z"/>
<glyph glyph-name="uacute" horiz-adv-x="533" unicode="ú" d="M314 499l-11 11l106 149h8q24 0 45 -12v-7zM143 388l-78 6l5 11q24 11 70.5 24t76.5 16l5 -4q-94 -283 -111 -364q-3 -15 -3 -23q0 -20 14 -20q40 0 102 63t125 162q25 40 39.5 75t33.5 97q31 9 78 14l3 -6l-37 -49q-45 -138 -92 -352l2 -1q65 19 116 100l5 -7 q-5 -54 -57.5 -98.5t-114.5 -44.5q-7 0 -23 2q11 46 73 263h-2q-50 -79 -108 -145t-107 -96q-42 -24 -74 -24q-40 0 -40 44q0 23 8 51q22 81 91 306z"/>
<glyph glyph-name="ucircumflex" horiz-adv-x="533" unicode="û" d="M362 664l12 3l56 -156l-15 -9l-62 95l-102 -95l-14 11zM143 388l-78 6l5 11q24 11 70.5 24t76.5 16l5 -4q-94 -283 -111 -364q-3 -15 -3 -23q0 -20 14 -20q40 0 102 63t125 162q25 40 39.5 75t33.5 97q31 9 78 14l3 -6l-37 -49q-45 -138 -92 -352l2 -1q65 19 116 100 l5 -7q-5 -54 -57.5 -98.5t-114.5 -44.5q-7 0 -23 2q11 46 73 263h-2q-50 -79 -108 -145t-107 -96q-42 -24 -74 -24q-40 0 -40 44q0 23 8 51q22 81 91 306z"/>
<glyph glyph-name="udieresis" horiz-adv-x="533" unicode="ü" d="M442 642h5q5 -5 14.5 -21.5t10.5 -24.5l-1 -5q-5 -10 -21.5 -25.5t-25.5 -20.5h-5q-22 25 -29 52l1 2q26 33 51 43zM273 642h4q6 -4 15 -20.5t11 -25.5l-1 -5q-4 -10 -20.5 -25.5t-26.5 -20.5h-5q-24 27 -29 52v2q28 33 52 43zM143 388l-78 6l5 11q24 11 70.5 24t76.5 16 l5 -4q-94 -283 -111 -364q-3 -15 -3 -23q0 -20 14 -20q40 0 102 63t125 162q25 40 39.5 75t33.5 97q31 9 78 14l3 -6l-37 -49q-45 -138 -92 -352l2 -1q65 19 116 100l5 -7q-5 -54 -57.5 -98.5t-114.5 -44.5q-7 0 -23 2q11 46 73 263h-2q-50 -79 -108 -145t-107 -96 q-42 -24 -74 -24q-40 0 -40 44q0 23 8 51q22 81 91 306z"/>
<glyph glyph-name="yacute" horiz-adv-x="408" unicode="ý" d="M253 499l-11 11l106 149h8q24 0 45 -12v-7zM42 275l-12 15q12 46 28.5 79.5t33 48.5t28 21t20.5 7q43 -4 63 -101q20 -93 20 -247v-50h4q43 65 84 171t46 165l-27 41l3 5q36 14 69 16q11 0 11 -11q-12 -70 -60 -190q-71 -176 -179 -319q-41 -54 -87 -95.5t-74 -57.5 t-39 -16q-5 0 -12 6.5t-16 24t-15 43.5l1 6q25 -3 91 -26q15 8 49 39t57 65q43 63 43 166v6q-3 169 -34 263q-13 41 -22 41q-4 0 -16 -15t-29 -43t-29 -58z"/>
<glyph glyph-name="thorn" horiz-adv-x="472" unicode="þ" d="M349 403h-1q-60 0 -180 -175q-51 -73 -83 -186q23 -31 70 -31q66 0 121 55t82.5 128t27.5 139v8q-1 62 -37 62zM129 677l4 8q31 11 74 20.5t64 9.5l3 -2q0 -1 -44.5 -151.5t-99.5 -341.5h2q151 225 255 225q28 0 47 -30t19 -74q0 -140 -95 -247t-203 -107q-49 0 -79 23 q-16 -49 -56 -209l93 -24l-5 -11q-170 -11 -223 -11l5 11l63 32q15 42 136 476q59 209 107 390z"/>
<glyph glyph-name="ydieresis" horiz-adv-x="408" unicode="ÿ" d="M369 642h5q5 -5 14.5 -21.5t10.5 -24.5l-1 -5q-5 -10 -21.5 -25.5t-25.5 -20.5h-5q-22 25 -29 52l1 2q26 33 51 43zM200 642h4q6 -4 15 -20.5t11 -25.5l-1 -5q-4 -10 -20.5 -25.5t-26.5 -20.5h-5q-24 27 -29 52v2q28 33 52 43zM42 275l-12 15q12 46 28.5 79.5t33 48.5 t28 21t20.5 7q43 -4 63 -101q20 -93 20 -247v-50h4q43 65 84 171t46 165l-27 41l3 5q36 14 69 16q11 0 11 -11q-12 -70 -60 -190q-71 -176 -179 -319q-41 -54 -87 -95.5t-74 -57.5t-39 -16q-5 0 -12 6.5t-16 24t-15 43.5l1 6q25 -3 91 -26q15 8 49 39t57 65q43 63 43 166v6 q-3 169 -34 263q-13 41 -22 41q-4 0 -16 -15t-29 -43t-29 -58z"/>
<glyph glyph-name="dotlessi" horiz-adv-x="259" unicode="ı" d="M139 388l-61 9l4 10q22 12 63.5 24.5t68.5 13.5l2 -2q-31 -103 -126 -421l2 -1q27 9 66.5 47.5t62.5 70.5l3 -6q-8 -46 -51 -96t-98 -50q-14 0 -24 13t-10 40q0 25 8 54q2 8 90 294z"/>
<glyph glyph-name="OE" horiz-adv-x="946" unicode="Œ" d="M708 659h205q27 9 62 9h3l2 -3q-4 -18 -19.5 -68t-23.5 -67l-9 -4q-6 23 -16 108l-212 -10l-72 -265q184 0 254 11l4 -10q-5 -5 -31.5 -23.5t-30.5 -18.5q-2 0 -92 3.5t-114 3.5q-58 -216 -74 -288l243 -12q98 93 116 108l7 -4q-33 -84 -66 -132q-87 3 -202 3h-100 q-21 0 -89 -3t-91 -3q-141 0 -217.5 76.5t-76.5 202.5q0 174 128.5 283t337.5 109q30 0 96.5 -3t77.5 -3zM473 33l159 593q-46 14 -104 14q-188 0 -286 -102t-98 -267q0 -104 58.5 -177t183.5 -74q58 0 87 13z"/>
<glyph glyph-name="oe" horiz-adv-x="684" unicode="œ" d="M578 424h-1q-48 0 -99.5 -58t-75.5 -143q57 7 110 25q54 18 78.5 42.5t25.5 64.5q0 34 -11 51.5t-27 17.5zM290 445h1q43 0 73 -32t30 -88v-7h3q41 61 91.5 94t99.5 33q43 0 66.5 -26.5t23.5 -68.5q0 -52 -53 -81q-74 -44 -229 -70q-9 -34 -9 -65v-9q1 -39 20 -69t60 -30 q95 0 175 105l1 -1l7 -18q-37 -57 -91.5 -91t-113.5 -34q-48 0 -79 28t-37 73l-2 -1q-73 -100 -173 -100q-57 0 -91 38.5t-34 111.5q0 67 32.5 137t94.5 120.5t134 50.5zM283 423h-1q-54 0 -98 -54t-65 -121t-21 -121q0 -58 19.5 -87.5t45.5 -29.5q48 0 85.5 35t56.5 87 t28.5 99.5t9.5 83.5q1 108 -60 108z"/>
<glyph glyph-name="circumflex" horiz-adv-x="386" unicode="ˆ" d="M299 664l12 3l56 -156l-15 -9l-62 95l-102 -95l-14 11z"/>
<glyph glyph-name="ring" horiz-adv-x="386" unicode="˚" d="M307 661h1q27 0 46 -17t19 -46q0 -10 -1 -15q-6 -34 -33.5 -55t-57.5 -21q-28 0 -47 16.5t-19 44.5q0 10 1 15q7 36 34 57t57 21zM286 536h1q40 0 49 47q1 5 1 13q0 36 -34 36q-18 0 -33 -12.5t-19 -36.5q-1 -4 -1 -11q0 -36 36 -36z"/>
<glyph glyph-name="tilde" horiz-adv-x="386" unicode="˜" d="M409 611l11 -8q-47 -65 -83 -65q-7 0 -49 17q-32 15 -41 15q-25 0 -58 -35l-12 12q54 65 85 65q7 0 45 -16q36 -16 45 -16q26 0 57 31z"/>
<glyph glyph-name="afii10023" horiz-adv-x="540" unicode="Ё" d="M501 803h4q7 -7 16 -22.5t10 -25.5l-1 -3q-4 -10 -21.5 -25.5t-26.5 -19.5h-4q-8 7 -17.5 21.5t-11.5 27.5v2q22 30 52 45zM334 803h4q7 -7 16 -22.5t10 -25.5v-3q-4 -10 -21.5 -25.5t-27.5 -19.5h-4q-20 18 -29 49v2q17 23 52 45zM137 652l7 9q21 0 61.5 -1t60.5 -1h239 q31 9 62 9h3l3 -3q-34 -116 -44 -135l-8 -4q-1 7 -4.5 27.5t-7.5 46.5t-5 34l-212 -10l-72 -265q184 0 256 10l2 -9q-5 -5 -31.5 -23.5t-30.5 -18.5q-2 0 -92 4t-114 4q-61 -231 -74 -289l243 -12q13 12 36.5 34.5t42 39.5t37.5 33l7 -5q-38 -89 -65 -130q-90 3 -203 3h-154 q-20 0 -59 -1t-58 -1l4 10l94 32q14 34 87 303l73 278z"/>
<glyph glyph-name="afii10051" horiz-adv-x="727" unicode="Ђ" d="M210 659h443q34 9 66 13l4 -3q-16 -43 -66 -148l-9 -1q-1 32 -1 114l-195 -10l-72 -267q84 40 143 40q65 0 109 -48t44 -136q-1 -137 -88 -235t-232 -141l-7 18q119 49 186 141.5t67 211.5q0 73 -32.5 110.5t-89.5 37.5q-58 0 -107 -22q-46 -178 -72 -293l91 -32l-6 -11 q-111 3 -134 3q-5 0 -128 -3l6 11l94 32q10 28 83 293l78 290l-182 10q-26 -36 -84 -112l-10 -3q35 138 39 150l5 3q23 -2 57 -13z"/>
<glyph glyph-name="afii10052" horiz-adv-x="466" unicode="Ѓ" d="M334 697l-8 13l136 95q27 -5 49 -31l-1 -9zM143 651l7 10q17 0 53 -1t54 -1h229q40 10 70 10h3l2 -3q-14 -59 -50 -147l-9 -4q-11 91 -14 120l-196 -12l-85 -314q-65 -235 -67 -268l106 -32l-5 -11q-25 0 -76 1.5t-77 1.5q-19 0 -55.5 -1.5t-54.5 -1.5l5 11l78 32 q14 34 86 300l77 281z"/>
<glyph glyph-name="afii10053" horiz-adv-x="648" unicode="Є" d="M600 136l7 -10q-49 -77 -86 -113q-88 -31 -166 -31q-128 0 -208.5 78.5t-80.5 212.5q0 164 116 284.5t294 120.5q45 0 83 -12.5t56 -29.5q35 18 67 30l3 -3q-34 -100 -64 -152l-9 -3q-6 72 -6 108q-38 31 -123 31q-133 0 -222.5 -84t-110.5 -205q360 0 431 11l3 -6 q-4 -9 -30 -28t-42 -19q-20 0 -146.5 4t-219.5 5q-3 -16 -3 -45q0 -125 66 -195.5t183 -70.5q32 0 64 6q18 14 47 38.5t52.5 43.5t44.5 34z"/>
<glyph glyph-name="afii10054" horiz-adv-x="472" unicode="Ѕ" d="M321 677h1q69 0 109 -41q32 25 61 37l5 -3q-2 -14 -25 -73t-31 -70l-9 -2q-3 16 -9 86q-7 13 -33.5 25t-61.5 12q-64 0 -104 -38.5t-40 -97.5q0 -55 57 -106q13 -12 49.5 -41t60.5 -49q73 -60 73 -135q0 -85 -63 -142t-165 -57q-60 0 -113.5 25.5t-81.5 57.5q5 14 26 53 t34 55l9 3q1 -6 1 -36q0 -18 -0.5 -54t-0.5 -44q37 -28 116 -28q83 0 125.5 43t42.5 102q0 58 -57 105q-17 15 -53.5 46t-53.5 46q-69 62 -69 135q0 78 57.5 132t142.5 54z"/>
<glyph glyph-name="afii10055" horiz-adv-x="297" unicode="І" d="M158 652l3 9q17 0 51 -1t51 -1t53.5 1t54.5 1l-3 -10l-75 -32l-76 -275q-65 -232 -77 -304l83 -32l-7 -10q-18 0 -58.5 1t-62.5 1q-19 0 -60 -1t-64 -1l6 10l84 31q11 24 88 304l76 276z"/>
<glyph glyph-name="afii10056" horiz-adv-x="297" unicode="Ї" d="M380 803h4q7 -7 16 -22.5t10 -25.5l-1 -3q-4 -10 -21.5 -25.5t-26.5 -19.5h-4q-8 7 -17.5 21.5t-11.5 27.5v2q22 30 52 45zM213 803h4q7 -7 16 -22.5t10 -25.5v-3q-4 -10 -21.5 -25.5t-27.5 -19.5h-4q-20 18 -29 49v2q17 23 52 45zM158 652l3 9q17 0 51 -1t51 -1t53.5 1 t54.5 1l-3 -10l-75 -32l-76 -275q-65 -232 -77 -304l83 -32l-7 -10q-18 0 -58.5 1t-62.5 1q-19 0 -60 -1t-64 -1l6 10l84 31q11 24 88 304l76 276z"/>
<glyph glyph-name="afii10057" horiz-adv-x="278" unicode="Ј" d="M133 651l8 10q19 0 57 -1t57 -1q18 0 55.5 1t59.5 1l-5 -11l-81 -32q-11 -39 -64.5 -245t-64.5 -247q-26 -93 -66 -143q-32 -43 -75 -75t-74 -44l-16 12l2 7q48 18 84 59q39 44 71 156q20 70 75 285q44 171 57 237z"/>
<glyph glyph-name="afii10058" horiz-adv-x="842" unicode="Љ" d="M467 333l32 -310q224 21 224 190q0 63 -39.5 100t-112.5 37q-65 0 -104 -17zM379 634l61 48l5 -5q-7 -16 -7 -39q0 -15 1 -24q5 -65 25 -258q84 28 155 28q91 0 135.5 -49t44.5 -115q0 -116 -87.5 -169t-234.5 -53h-5h-95l4 11l45 27q0 17 -42 523h-2 q-274 -458 -308 -517l75 -33l-5 -11q-52 2 -104 2q-33 0 -89 -2l3 11l71 32q76 103 348 551q6 12 6 24v18z"/>
<glyph glyph-name="afii10059" horiz-adv-x="905" unicode="Њ" d="M782 218v1q0 59 -38 96.5t-101 37.5q-51 0 -75 -6q-59 -224 -82 -325q47 0 84 3.5t78.5 15.5t69 32.5t46 57.5t18.5 87zM221 617l-71 33l3 11q17 0 53 -1.5t55 -1.5q15 0 44 1.5t43 1.5l-2 -11l-58 -33l-66 -249h282l68 249l-42 34l5 10q12 0 35.5 -1.5t35.5 -1.5 q21 0 61.5 1.5t59.5 1.5l-4 -11l-83 -33q-30 -99 -67 -247q49 13 102 13q93 0 139 -47.5t46 -108.5q0 -62 -25 -108t-70.5 -72t-101.5 -38t-125 -12h-18q-10 0 -193 3l4 10l84 30q14 43 83 303q-55 -11 -168 -11h-117q-70 -267 -76 -292l45 -32l-3 -10q-15 0 -43 1t-42 1 q-20 0 -61.5 -1t-62.5 -1l7 11l83 31q6 13 36 115.5t53 192.5z"/>
<glyph glyph-name="afii10060" horiz-adv-x="747" unicode="Ћ" d="M209 659h437q35 9 71 13l3 -3q-22 -56 -67 -148l-8 -1q-2 66 -2 114l-192 -10l-72 -268q88 43 147 43q87 0 117 -55q15 -24 15 -61q0 -29 -9 -63l-43 -167q-4 -15 10 -21l56 -28l-7 -10h-28q-99 0 -122 8q28 64 67 219q8 29 8 54q0 87 -96 87q-57 0 -121 -28 q-59 -222 -72 -293l82 -32l-5 -11q-111 3 -127 3l-120 -3l6 11l87 32q11 30 81 293l78 290l-182 10q-61 -85 -82 -112l-12 -3q3 12 17.5 69.5t22.5 80.5l5 3q21 -2 57 -13z"/>
<glyph glyph-name="afii10061" horiz-adv-x="612" unicode="Ќ" d="M396 697l-8 13l136 95q27 -5 49 -31l-1 -9zM227 620l-73 31l6 10q78 -2 105 -2q37 0 111 2l-6 -10l-77 -32l-75 -267q57 9 78 27q132 108 249 242l7 40q40 -2 57 -2q16 0 47.5 1t47.5 1l-5 -10l-106 -40q-45 -38 -159 -141l-114 -104v-2q18 -33 29 -52q135 -241 191 -320 l-4 -5q-40 1 -66 18t-51 53q-13 19 -154 256q-12 20 -32 20q-4 0 -20 -2q-68 -243 -77 -292l83 -31l-5 -11q-54 2 -123 2q-46 0 -116 -2l6 11l78 30q10 20 90 304z"/>
<glyph glyph-name="afii10062" horiz-adv-x="604" unicode="Ў" d="M531 797l22 14l7 -3q-16 -51 -50.5 -76.5t-76.5 -25.5q-43 0 -64 20t-21 47q0 8 3 11q17 20 39 27l6 -5q0 -1 -0.5 -4t-0.5 -5q0 -23 14.5 -38t41.5 -15q48 0 80 53zM296 650l-46 -30l107 -402h2q33 53 89 142t89.5 144t68.5 115l-38 31l4 11q15 0 37 -1.5t32 -1.5 q18 0 48 1.5t44 1.5l-5 -12l-48 -19q-18 -7 -25.5 -13.5t-20.5 -25.5q-79 -118 -297 -453q-114 -173 -189 -173q-33 0 -48 32q-9 17 -11 38l5 7q29 -16 72 -16q50 0 88 44t44 75q2 12 2 18q0 17 -7 45q-33 142 -108 391q-4 14 -10 20t-21 13l-39 18l4 11q14 0 45.5 -1.5 t48.5 -1.5q15 0 45 1.5t44 1.5z"/>
<glyph glyph-name="afii10145" horiz-adv-x="697" unicode="Џ" d="M220 617l-71 34l4 10q18 0 54.5 -1t55.5 -1q14 0 42.5 1t41.5 1l-3 -10l-56 -34l-68 -255q-57 -212 -80 -324q54 -8 168 -8q116 0 158 8q15 51 91 325l69 253l-41 36l6 9q13 0 36.5 -1t35.5 -1q20 0 59 1t58 1l-5 -10l-80 -34q-22 -69 -77 -276q-25 -91 -48.5 -189.5 t-22.5 -109.5l80 -33l-6 -11q-20 0 -63.5 1.5t-68.5 1.5h-145q-13 -29 -40.5 -91t-37.5 -84l-15 -6q1 19 6.5 82.5t7.5 98.5h-171q-20 0 -61.5 -1.5t-61.5 -1.5l6 11l82 31q18 41 90 308z"/>
<glyph glyph-name="afii10017" horiz-adv-x="656" unicode="А" d="M401 561h-3q-118 -186 -175 -280q22 0 101 -2t103 -2q-5 51 -26 284zM395 632l63 48l7 -5q-6 -15 -6 -53v-17q1 -43 58 -553q25 -25 74 -43l-3 -11q-17 0 -51 1t-51 1q-15 0 -46.5 -1t-47.5 -1l2 9l53 29q-1 27 -18 212q-92 -5 -150 -5q-11 0 -37 0.5t-43 0.5 q-86 -140 -121 -200l85 -36l-3 -10q-19 0 -58.5 1t-59.5 1q-15 0 -46.5 -1t-47.5 -1l4 10l75 35q23 31 75 110t152.5 234t131.5 203q10 16 9 26v16z"/>
<glyph glyph-name="afii10018" horiz-adv-x="561" unicode="Б" d="M284 359h-1q-39 0 -64 -6q-46 -168 -84 -331q51 0 89 3.5t81 16t70.5 33.5t46 58.5t18.5 88.5q0 63 -41.5 100t-114.5 37zM225 619l-79 33l5 9q21 0 58 -1t51 -1h249q30 8 60 8h5l3 -3q-42 -126 -47 -137l-10 -4q-14 85 -15 111l-213 -10l-67 -247q53 12 102 12 q97 0 144 -48t47 -112q0 -120 -90.5 -175.5t-242.5 -55.5h-18q-66 2 -190 2l5 10l79 30q10 25 75 261z"/>
<glyph glyph-name="afii10019" horiz-adv-x="563" unicode="В" d="M215 341q-58 -211 -81 -317q12 -1 35 -1q133 0 196 42q76 50 77 134v5q0 68 -48.5 102.5t-169.5 34.5h-9zM296 643l-75 -280q255 2 255 165q0 115 -170 115h-10zM143 644l5 10q100 10 181 12h6q215 0 215 -146q0 -68 -58 -109t-141 -55l-1 -3q170 -31 170 -155 q0 -97 -88 -148.5t-243 -51.5h-17q-10 0 -205 3l3 9l92 30q19 53 72 248l91 336z"/>
<glyph glyph-name="afii10020" horiz-adv-x="466" unicode="Г" d="M143 651l7 10q17 0 53 -1t54 -1h229q40 10 70 10h3l2 -3q-14 -59 -50 -147l-9 -4q-11 91 -14 120l-196 -12l-85 -314q-65 -235 -67 -268l106 -32l-5 -11q-25 0 -76 1.5t-77 1.5q-19 0 -55.5 -1.5t-54.5 -1.5l5 11l78 32q14 34 86 300l77 281z"/>
<glyph glyph-name="afii10021" horiz-adv-x="651" unicode="Д" d="M403 555h-1q-301 -500 -310 -517q60 -8 171 -8q104 0 179 7q0 15 -4 60t-14 173t-21 285zM397 634l63 49l5 -5q-5 -15 -5 -34q0 -16 1 -27q41 -484 53 -585l63 -6q-57 -133 -88 -195l-13 -5q2 26 10 87t11 87h-460q-14 -22 -51 -85t-51 -85l-15 -4q13 47 30 108.5 t26 93.5l65 6q91 134 349 554q8 11 8 23z"/>
<glyph glyph-name="afii10022" horiz-adv-x="540" unicode="Е" d="M137 652l7 9q21 0 61.5 -1t60.5 -1h239q31 9 62 9h3l3 -3q-34 -116 -44 -135l-8 -4q-1 7 -4.5 27.5t-7.5 46.5t-5 34l-212 -10l-72 -265q184 0 256 10l2 -9q-5 -5 -31.5 -23.5t-30.5 -18.5q-2 0 -92 4t-114 4q-61 -231 -74 -289l243 -12q13 12 36.5 34.5t42 39.5t37.5 33 l7 -5q-38 -89 -65 -130q-90 3 -203 3h-154q-20 0 -59 -1t-58 -1l4 10l94 32q14 34 87 303l73 278z"/>
<glyph glyph-name="afii10024" horiz-adv-x="900" unicode="Ж" d="M525 620l-67 31l6 10q87 -3 100 -3q12 0 102 3l-6 -11l-73 -32l-72 -266q56 9 77 26q148 131 238 241l8 42q57 -3 58 -3q16 0 47.5 1.5t47.5 1.5l-5 -11l-106 -40q-43 -36 -151.5 -137.5t-120.5 -112.5v-2q22 -17 37 -46q143 -258 183 -321l-6 -5q-39 1 -64.5 18.5 t-47.5 53.5q-13 20 -29.5 49t-51 89t-68.5 118q-12 20 -32 20q-4 0 -20 -2q-70 -263 -75 -292l81 -31l-5 -11q-66 2 -122 2q-60 0 -112 -2l6 11l78 30q12 29 85 292q-14 2 -22 2q-32 0 -57 -24q-37 -35 -139 -136.5t-146 -140.5q-47 -44 -126 -49l-4 5q29 26 158 155 t179 176q32 32 77 45l1 3q-37 56 -146 243l-97 40l7 11q8 0 36.5 -1.5t47.5 -1.5q9 0 54 3l-5 -43q37 -87 117 -225q22 -37 72 -41z"/>
<glyph glyph-name="afii10025" horiz-adv-x="514" unicode="З" d="M154 497l-10 -4q-11 73 -11 105q95 80 198 80q69 0 112.5 -42.5t43.5 -104.5q0 -82 -70 -132q-46 -31 -100 -48l-1 -2q50 -13 79 -33q65 -44 65 -125q0 -99 -80 -154.5t-179 -55.5q-73 0 -126.5 29.5t-77.5 59.5q27 50 66 109l9 3v-27q0 -31 -2 -115q11 -10 42.5 -17.5 t67.5 -7.5h5q90 2 144.5 54t54.5 134q0 131 -154 131q-33 0 -63 -5l-3 9l49 32q12 -3 44 -3q74 1 118.5 42.5t44.5 108.5q0 60 -34 93.5t-89 33.5q-44 0 -90 -23q-27 -68 -53 -125z"/>
<glyph glyph-name="afii10026" horiz-adv-x="714" unicode="И" d="M223 620l-70 31l6 10q74 -2 106 -2q29 0 101 2l-7 -11l-70 -31l-81 -294q-45 -165 -72 -246h4q83 92 248 273.5t246 271.5l4 35h52q36 0 108 2l-7 -11l-82 -31l-71 -269q-74 -277 -78 -311l76 -30l-5 -11q-52 2 -116 2q-56 0 -112 -2l4 11l78 30q24 72 89 314 q15 55 37 132t29 101h-4l-498 -552l-6 -34h-41q-15 0 -53.5 -1t-61.5 -1l5 11l81 30q10 27 87 308z"/>
<glyph glyph-name="afii10027" horiz-adv-x="714" unicode="Й" d="M578 797l22 14l7 -3q-16 -51 -50.5 -76.5t-76.5 -25.5q-43 0 -64 20t-21 47q0 8 3 11q17 20 39 27l6 -5q0 -1 -0.5 -4t-0.5 -5q0 -23 14.5 -38t41.5 -15q48 0 80 53zM223 620l-70 31l6 10q74 -2 106 -2q29 0 101 2l-7 -11l-70 -31l-81 -294q-45 -165 -72 -246h4 q83 92 248 273.5t246 271.5l4 35h52q36 0 108 2l-7 -11l-82 -31l-71 -269q-74 -277 -78 -311l76 -30l-5 -11q-52 2 -116 2q-56 0 -112 -2l4 11l78 30q24 72 89 314q15 55 37 132t29 101h-4l-498 -552l-6 -34h-41q-15 0 -53.5 -1t-61.5 -1l5 11l81 30q10 27 87 308z"/>
<glyph glyph-name="afii10028" horiz-adv-x="612" unicode="К" d="M227 620l-73 31l6 10q78 -2 105 -2q37 0 111 2l-6 -10l-77 -32l-75 -267q57 9 78 27q132 108 249 242l7 40q40 -2 57 -2q16 0 47.5 1t47.5 1l-5 -10l-106 -40q-45 -38 -159 -141l-114 -104v-2q18 -33 29 -52q135 -241 191 -320l-4 -5q-40 1 -66 18t-51 53 q-13 19 -154 256q-12 20 -32 20q-4 0 -20 -2q-68 -243 -77 -292l83 -31l-5 -11q-54 2 -123 2q-46 0 -116 -2l6 11l78 30q10 20 90 304z"/>
<glyph glyph-name="afii10029" horiz-adv-x="659" unicode="Л" d="M395 634l64 48l5 -5q-7 -16 -7 -41q0 -3 0.5 -10.5t0.5 -11.5q3 -49 25.5 -267.5t33.5 -293.5q25 -24 78 -43l-5 -12q-58 2 -96 2q-35 0 -97 -2l3 10l46 29q0 11 -1.5 28t-5 56.5t-7.5 88.5t-12.5 145.5t-17.5 206.5h-2q-269 -430 -323 -520l78 -33l-5 -11q-54 2 -110 2 q-32 0 -92 -2l4 11l74 32q85 114 363 551q7 14 6 23v19z"/>
<glyph glyph-name="afii10030" horiz-adv-x="903" unicode="М" d="M189 651l4 10q100 -2 151 -2q-6 -24 -6 -47q14 -84 89 -489h2q86 129 333 493q5 12 9 43q56 0 158 2l-4 -12l-93 -30q-17 -81 -48.5 -307t-35.5 -273l86 -31l-5 -10q-19 0 -60 1t-60 1q-20 0 -59 -1t-59 -1l3 10l79 30q15 86 46 265.5t47 270.5h-2q-255 -389 -376 -580 l-11 -6q-14 99 -88 550h-1q-9 -23 -53.5 -129.5t-81.5 -199t-66 -170.5l81 -31l-3 -10q-19 0 -58 1t-59 1q-15 0 -46 -1t-47 -1l3 10l82 35q144 312 238 539q-5 31 -18.5 41.5t-70.5 27.5z"/>
<glyph glyph-name="afii10031" horiz-adv-x="713" unicode="Н" d="M148 651l5 10q17 0 52.5 -1t54.5 -1q15 0 45 1t43 1l-3 -10l-57 -34l-66 -247h347l67 248l-42 34l5 9q13 0 36 -1t35 -1q21 0 61.5 1t60.5 1l-5 -10l-83 -34q-11 -33 -24 -79t-28.5 -106.5t-23.5 -90.5q-74 -277 -72 -299l82 -33l-6 -11q-20 0 -62.5 1t-64.5 1 q-14 0 -42 -1t-43 -1l5 11l55 32q19 63 46 168t35 135q-58 -10 -176 -10h-173q-7 -27 -22.5 -82.5t-28.5 -107t-24 -104.5l44 -32l-3 -10q-14 0 -42 1t-42 1q-20 0 -61.5 -1t-62.5 -1l6 11l83 31q21 45 90 307l70 271z"/>
<glyph glyph-name="afii10032" horiz-adv-x="710" unicode="О" d="M446 652h-1q-68 0 -126 -35.5t-96 -91.5t-59 -123.5t-21 -132.5q0 -122 51 -192.5t138 -70.5q83 0 152 60t105.5 149t36.5 182q0 126 -50.5 190.5t-129.5 64.5zM451 677h1q42 0 83 -15t80.5 -47t63.5 -92t24 -139q0 -73 -26 -143.5t-72.5 -128.5t-120.5 -94t-162 -36 q-44 0 -87 16t-82 48t-63 89.5t-24 132.5q0 104 51.5 198.5t141 152.5t192.5 58z"/>
<glyph glyph-name="afii10033" horiz-adv-x="698" unicode="П" d="M220 617l-78 33l6 11q18 0 57 -1t58 -1h399q21 0 61 1t59 1l-5 -11l-86 -33q-48 -182 -73 -274q-74 -282 -71 -301l73 -33l-6 -11q-20 0 -58.5 1t-60.5 1q-14 0 -41.5 -1t-42.5 -1l5 11l54 32q20 67 75 278l81 303q-44 7 -170 7q-119 0 -166 -7l-81 -298 q-55 -207 -71 -282l42 -34l-4 -10q-13 0 -40.5 1t-41.5 1q-20 0 -61 -1t-62 -1l7 10l82 32q25 60 90 307z"/>
<glyph glyph-name="afii10034" horiz-adv-x="527" unicode="Р" d="M137 642l7 11q106 13 181 13q234 0 234 -184q0 -104 -77 -163.5t-178 -59.5q-29 0 -47 10v11q104 7 166 59.5t62 145.5q0 79 -50 117t-129 38h-13l-74 -283q-69 -262 -80 -316l98 -33l-5 -10q-20 0 -67 1t-73 1q-20 0 -60 -1t-59 -1l4 10l84 32q12 31 89 313l74 271z"/>
<glyph glyph-name="afii10035" horiz-adv-x="641" unicode="С" d="M597 138l5 -13q-38 -64 -88 -112q-88 -31 -164 -31q-129 0 -206.5 76t-77.5 206q0 168 122 291t302 123q45 0 82.5 -12t53.5 -27q33 18 68 29l4 -5q-23 -60 -64 -137l-10 -3q-7 26 -7 76v17q-37 30 -121 30q-153 0 -253 -110t-100 -269q0 -115 63 -184t179 -69q31 0 64 6 q121 100 148 118z"/>
<glyph glyph-name="afii10036" horiz-adv-x="619" unicode="Т" d="M212 659h433q22 6 69 13l5 -3q-25 -60 -69 -149l-7 -1q-2 66 -2 115l-183 -10l-69 -258q-71 -262 -82 -326l115 -33l-9 -9q-25 0 -74 1t-74 1q-26 0 -76 -1t-75 -1l5 10l109 32q22 64 84 294l77 290l-183 10q-36 -51 -84 -113l-10 -3q5 16 19 72.5t21 78.5l3 3 q32 -4 57 -13z"/>
<glyph glyph-name="afii10037" horiz-adv-x="604" unicode="У" d="M296 650l-46 -30l107 -402h2q33 53 89 142t89.5 144t68.5 115l-38 31l4 11q15 0 37 -1.5t32 -1.5q18 0 48 1.5t44 1.5l-5 -12l-48 -19q-18 -7 -25.5 -13.5t-20.5 -25.5q-79 -118 -297 -453q-114 -173 -189 -173q-33 0 -48 32q-9 17 -11 38l5 7q29 -16 72 -16q50 0 88 44 t44 75q2 12 2 18q0 17 -7 45q-33 142 -108 391q-4 14 -10 20t-21 13l-39 18l4 11q14 0 45.5 -1.5t48.5 -1.5q15 0 45 1.5t44 1.5z"/>
<glyph glyph-name="afii10038" horiz-adv-x="747" unicode="Ф" d="M498 571l-124 -474q141 7 214.5 77t73.5 182q0 174 -164 215zM309 105l128 470q-134 0 -213 -74t-79 -188q0 -160 164 -208zM452 630l-63 31l6 10q17 0 48.5 -1.5t47.5 -1.5q15 0 48 1.5t51 1.5l-4 -11l-70 -30l-11 -37q100 -18 165 -75t65 -163q0 -63 -21.5 -112.5 t-56.5 -80.5t-84 -51t-99.5 -28t-107.5 -9l-7 -36l72 -30l-7 -10q-13 0 -49.5 1t-56.5 1q-16 0 -53 -1t-54 -1l6 10l73 29l12 44q-230 39 -230 228q0 60 21 109t56.5 82.5t83 56t99 33t106.5 10.5h6z"/>
<glyph glyph-name="afii10039" horiz-adv-x="645" unicode="Х" d="M129 651l5 10q21 0 61.5 -1t60.5 -1q13 0 38 0.5t37 0.5l-4 -10l-33 -28q39 -131 72 -228h3q107 128 181 226l-21 30l5 10q9 0 31.5 -0.5t32.5 -0.5q18 0 51.5 1t52.5 1l-7 -11l-99 -36q-64 -66 -220 -251q8 -23 31 -95t42 -130t34 -98l99 -32l-6 -10q-22 0 -65.5 1.5 t-66.5 1.5q-12 0 -35.5 -1.5t-33.5 -1.5l32 39q-9 41 -80 266l-2 1q-162 -197 -211 -265l59 -31l-8 -10q-16 0 -48.5 1.5t-48.5 1.5q-14 0 -45 -1.5t-46 -1.5h-11l6 10l86 34q50 47 258 294q-52 172 -92 281z"/>
<glyph glyph-name="afii10040" horiz-adv-x="705" unicode="Ц" d="M220 617l-70 33l4 11q18 0 54 -1.5t55 -1.5q15 0 43 1.5t41 1.5l-3 -11l-55 -32l-78 -293q-46 -175 -73 -288q57 -7 167 -7q119 0 168 7q5 10 80 287l80 293l-41 34l6 10q12 0 35.5 -1.5t35.5 -1.5q20 0 59.5 1.5t58.5 1.5l-5 -11l-80 -33q-17 -51 -77 -276 q-72 -261 -76 -307l74 -7q-18 -42 -47.5 -110.5t-36.5 -85.5l-14 -5q11 116 14 175h-445q-20 0 -61.5 -1.5t-61.5 -1.5l7 11l83 31q13 30 88 308z"/>
<glyph glyph-name="afii10041" horiz-adv-x="623" unicode="Ч" d="M198 618l-68 33l6 10q21 0 52.5 -1t49.5 -1q13 0 42 1t47 1l-4 -11l-59 -32l-43 -149q-10 -33 -10 -61q0 -92 122 -92q82 0 146 27l75 277l-72 31l6 10q74 -2 113 -2q38 0 104 2l-6 -12l-78 -31l-75 -275q-73 -264 -79 -304l78 -30l-6 -11q-68 2 -125 2q-62 0 -112 -2 l5 11l83 30q14 31 83 282q-94 -47 -178 -47q-100 0 -138 57q-15 22 -15 55q0 30 13 78z"/>
<glyph glyph-name="afii10042" horiz-adv-x="889" unicode="Ш" d="M219 617l-70 34l4 10q18 0 50 -1.5t51 -1.5q15 0 46.5 1.5t44.5 1.5l-3 -11l-56 -34l-78 -291q-43 -163 -71 -288q52 -7 113 -7q70 0 108 7q24 62 88 311l71 270l-69 33l5 10q17 0 52.5 -1.5t53.5 -1.5q17 0 54 1.5t51 1.5l-3 -11l-76 -32l-78 -294q-33 -126 -72 -287 q52 -7 111 -7q72 0 111 7q1 4 80 287l80 292l-42 36l6 9q13 0 36.5 -1.5t34.5 -1.5q20 0 59.5 1.5t58.5 1.5l-5 -11l-82 -33l-75 -276q-71 -266 -75 -299l82 -33l-6 -11q-19 0 -60 1.5t-62 1.5h-594q-21 0 -61.5 -1.5t-60.5 -1.5l6 11l83 31q13 30 88 308z"/>
<glyph glyph-name="afii10043" horiz-adv-x="889" unicode="Щ" d="M219 617l-70 34l4 10q18 0 50 -1.5t51 -1.5q15 0 46.5 1.5t44.5 1.5l-3 -11l-56 -34l-78 -291q-43 -163 -71 -288q52 -7 113 -7q70 0 108 7q24 62 88 311l71 270l-69 33l5 10q17 0 52.5 -1.5t53.5 -1.5q16 0 54 1.5t52 1.5l-4 -11l-76 -32l-78 -294q-33 -126 -72 -287 q52 -7 112 -7q72 0 110 7q1 4 80 287l80 292l-42 36l6 9q13 0 36.5 -1.5t34.5 -1.5q20 0 59.5 1.5t58.5 1.5l-6 -11l-81 -33l-75 -276q-73 -276 -76 -305l74 -7q-14 -34 -30 -72t-32 -75t-22 -51l-14 -5q11 116 14 175h-629q-21 0 -61.5 -1.5t-60.5 -1.5l6 11l83 31 q13 30 88 308z"/>
<glyph glyph-name="afii10044" horiz-adv-x="691" unicode="Ъ" d="M423 352h-1q-34 0 -63 -6q-48 -172 -83 -323q295 0 295 195q0 59 -40.5 96.5t-107.5 37.5zM366 624l-167 10q-58 -80 -82 -112l-12 -3q4 16 18.5 72t21.5 78l5 3q24 -2 54 -13h188q23 0 62.5 1t57.5 1l-4 -11l-76 -31l-66 -250q49 13 97 13q93 0 139.5 -47t46.5 -107 q0 -230 -347 -230q-34 0 -94.5 1t-94.5 1l5 10l83 30q26 77 76 260z"/>
<glyph glyph-name="afii10045" horiz-adv-x="789" unicode="Ы" d="M716 618l-66 34l3 9q17 0 51 -1t51 -1t53.5 1t54.5 1l-3 -10l-76 -33l-75 -274q-72 -266 -76 -304l83 -31l-7 -11q-18 0 -59.5 1t-63.5 1q-19 0 -59.5 -1t-63.5 -1l6 11l84 31q15 34 88 304zM281 352h-1q-34 0 -61 -6q-44 -153 -82 -324h7q285 0 285 198q0 58 -40.5 95 t-107.5 37zM225 619l-71 33l3 9q19 0 54.5 -1t52.5 -1t53 1t54 1l-3 -11l-76 -31l-67 -249q60 12 98 12q92 0 138 -47t46 -107q0 -62 -25 -107t-70.5 -71.5t-102.5 -39t-128 -12.5h-18q-13 0 -191 3l5 10l84 30q23 69 76 259z"/>
<glyph glyph-name="afii10046" horiz-adv-x="560" unicode="Ь" d="M284 350h-1q-38 0 -65 -6q-42 -143 -83 -321h13q292 0 292 193q0 60 -42 97t-114 37zM225 619l-71 33l3 9q20 0 55.5 -1t51.5 -1q17 0 53.5 1t54.5 1l-4 -10l-76 -32l-68 -251q55 12 103 12q97 0 144 -47.5t47 -110.5q0 -117 -92 -170.5t-248 -53.5h-19q-58 2 -186 2 l5 10l83 29q17 42 77 261z"/>
<glyph glyph-name="afii10047" horiz-adv-x="639" unicode="Э" d="M160 501l-14 -4q-12 47 -14 111q118 70 232 70q115 0 191 -80t76 -217q0 -174 -112.5 -287t-288.5 -113q-78 0 -145.5 33t-90.5 64q34 65 69 111l11 3v-16q0 -63 -6 -125q23 -15 66 -25.5t86 -10.5h5q45 1 85 9.5t80.5 30.5t72 56t55.5 89t35 125q-332 -4 -419 -11l-4 6 q4 8 28.5 27t37.5 20q191 -9 359 -9q1 13 1 30q0 133 -68 194.5t-165 61.5q-67 0 -118 -23q-34 -99 -45 -120z"/>
<glyph glyph-name="afii10048" horiz-adv-x="921" unicode="Ю" d="M679 654h-1q-77 0 -141 -64t-97.5 -156.5t-33.5 -185.5q0 -119 43.5 -181.5t121.5 -62.5q75 0 136.5 57t95.5 151.5t34 203.5q0 105 -36.5 171.5t-121.5 66.5zM225 618l-67 33l3 10q18 0 51.5 -1.5t50.5 -1.5q18 0 54.5 1.5t53.5 1.5l-3 -11l-76 -32l-67 -246h118 q34 136 129.5 220.5t212.5 84.5q110 0 169.5 -75.5t59.5 -194.5q0 -114 -41.5 -210t-123 -155.5t-188.5 -59.5q-96 0 -164 69.5t-68 201.5q0 49 6 80h-120q-63 -225 -74 -293l83 -31l-7 -11q-19 0 -60 1t-62 1q-19 0 -60 -1t-64 -1l6 11l85 31q11 27 87 304z"/>
<glyph glyph-name="afii10049" horiz-adv-x="591" unicode="Я" d="M442 331l83 305q-26 4 -61 4q-98 0 -156 -42t-58 -125q0 -64 42 -103t128 -39h22zM670 643l-84 -20l-73 -273q-52 -191 -80 -312l78 -30l-5 -12q-18 0 -56 2t-57 2q-25 0 -65.5 -2t-51.5 -2l5 13l76 29q40 129 78 271q-41 0 -72.5 -7.5t-51.5 -15.5t-48.5 -36.5 t-42.5 -45t-54 -66.5q-9 -10 -33.5 -42.5t-43 -55t-26.5 -27.5q-17 -13 -49.5 -22.5t-63.5 -9.5l-1 6q26 21 81 84.5t96 117.5q40 51 82 82.5t105 44.5v1q-137 36 -137 153q0 93 73 144.5t205 51.5t222 -12z"/>
<glyph glyph-name="afii10065" horiz-adv-x="493" unicode="а" d="M99 33h1q37 0 89 47.5t105 129.5q26 41 39.5 71.5t37.5 108.5q-14 14 -45 14q-73 0 -139 -73q-54 -61 -82.5 -132t-28.5 -121q0 -45 23 -45zM387 439l81 14v-7l-37 -39q-31 -103 -61.5 -223t-35.5 -151l2 -1q29 9 56 31.5t37 36t25 35.5l4 -6q-4 -53 -52.5 -97.5 t-113.5 -44.5q-14 0 -28 3q6 29 27 105t27 102h-4q-59 -89 -128.5 -149.5t-114.5 -60.5q-60 0 -60 93q0 72 48 161t130 146q66 47 128 47q38 0 61 -21z"/>
<glyph glyph-name="afii10066" horiz-adv-x="469" unicode="б" d="M296 417h-1q-75 0 -124.5 -92t-49.5 -190q0 -60 20.5 -93t58.5 -33q49 0 90 50t61.5 115t20.5 122q0 121 -76 121zM314 445h1q59 0 91.5 -42.5t32.5 -115.5q0 -120 -71.5 -210t-174.5 -90q-139 0 -139 188q0 139 68 266t165 189q69 43 132 50q58 6 80 11.5t39 19.5l7 -7 q-19 -42 -61 -67q-21 -11 -46 -12q-37 -3 -47 -3q-61 -3 -104 -27t-83 -76q-31 -40 -53.5 -102t-27.5 -115h4q77 143 187 143z"/>
<glyph glyph-name="afii10067" horiz-adv-x="451" unicode="в" d="M178 215l10 20q145 30 145 114q0 70 -99 70q-18 0 -28 -1q-31 -103 -92 -324q-5 -20 -5 -33q0 -52 68 -52q59 0 98.5 37t39.5 88q0 39 -27 61t-74 22q-24 0 -36 -2zM144 390l-82 -1l6 10q109 47 210 47q61 0 90.5 -24.5t29.5 -64.5q0 -24 -11.5 -44t-35 -34.5t-39.5 -22 t-42 -17.5v-4q45 -4 80.5 -26t35.5 -69q0 -52 -40 -88.5t-88.5 -50.5t-96.5 -14q-63 0 -100 24q-22 15 -22 35q0 10 5 28q75 240 100 316z"/>
<glyph glyph-name="afii10068" horiz-adv-x="359" unicode="г" d="M124 322l-10 -7q-6 16 -18 69q25 22 65.5 41.5t82.5 19.5q41 0 66.5 -26t25.5 -66q0 -63 -75 -105q-69 -38 -92 -52q-40 -22 -61.5 -43.5t-21.5 -50.5q0 -34 24.5 -55.5t56.5 -21.5q14 0 30 4q78 56 98 68l2 -11q-15 -33 -66 -75q-50 -22 -97 -22q-55 0 -88 31t-33 78 q0 49 69 85q28 14 103 54q42 22 64 45.5t22 56.5q0 30 -19 50.5t-48 20.5q-20 0 -50 -10q-12 -40 -30 -78z"/>
<glyph glyph-name="afii10069" horiz-adv-x="440" unicode="д" d="M280 422h-1q-69 0 -125.5 -94t-56.5 -204q0 -55 19 -85t51 -30q49 0 93.5 58t67.5 128t23 120q0 51 -18.5 79t-52.5 28zM282 445h1q70 0 98 -81h2q12 39 12 89q0 12 -2 36q-5 58 -28 91t-76 43q-66 15 -84 20q-31 22 -40 67l6 8q11 -5 79 -23q101 -23 142 -104 q36 -70 36 -190q0 -100 -33 -194t-96.5 -157t-141.5 -63q-60 0 -93 41t-33 117q0 70 32 138.5t91 115t128 46.5z"/>
<glyph glyph-name="afii10070" horiz-adv-x="386" unicode="е" d="M272 423h-1q-48 0 -96 -58t-70 -142q51 9 117.5 30.5t82.5 43.5q15 22 15 58q0 32 -13.5 50t-34.5 18zM349 132l4 -23q-42 -58 -95 -90t-107 -32q-53 0 -88.5 31.5t-37.5 107.5v5q0 65 31.5 136.5t93.5 124.5t135 53q45 0 70 -27t25 -69q0 -27 -18 -52 q-21 -31 -110 -59.5t-151 -39.5q-6 -28 -6 -62q0 -48 20 -77.5t63 -29.5q44 0 91 32t78 71h2z"/>
<glyph glyph-name="afii10072" horiz-adv-x="700" unicode="ж" d="M149 389l-86 -4v10q76 39 122 49q17 -11 31 -42.5t14 -76.5q0 -55 -16.5 -112t-42.5 -97h6q130 141 191 260l18 60q9 9 30.5 20.5t35.5 13.5l4 -4l-103 -324h5q71 100 165 195.5t125 106.5q11 0 32.5 -13.5t39.5 -33.5l-2 -7l-92 4q-103 -109 -103 -248q0 -42 11 -68.5 t23 -34.5l89 21l-2 -12q-28 -22 -69.5 -45.5t-55.5 -25.5q-18 11 -32 43t-14 82q0 100 66 209h-6q-167 -175 -228 -330q-24 -22 -55 -30l-2 7q17 42 100 324h-4q-53 -80 -120 -154t-111.5 -111.5t-57.5 -39.5q-26 0 -74 48l2 9l94 2q38 22 70.5 90t33.5 155q0 40 -9.5 68 t-22.5 36z"/>
<glyph glyph-name="afii10073" horiz-adv-x="394" unicode="з" d="M95 311l-9 -6q-7 26 -15 77q90 63 164 63q53 0 82.5 -26.5t29.5 -69.5q0 -46 -33 -71.5t-89 -44.5v-3q37 -11 61 -24q43 -29 43 -76q0 -69 -61 -106t-137 -37q-49 0 -88.5 18t-55.5 38q16 33 51 86l7 2q7 -31 9 -105q25 -9 66 -9q63 0 99 34.5t36 87.5q0 34 -23.5 54.5 t-67.5 20.5q-27 0 -59 -4l-2 8l41 34q10 -3 35 -3q46 0 73.5 27t27.5 67q0 33 -22 50.5t-56 18.5h-5q-32 0 -64 -15q-21 -53 -38 -86z"/>
<glyph glyph-name="afii10074" horiz-adv-x="533" unicode="и" d="M143 388l-78 6l5 11q24 11 70.5 24t76.5 16l5 -4q-94 -283 -111 -364q-3 -15 -3 -23q0 -20 14 -20q40 0 102 63t125 162q25 40 39.5 75t33.5 97q31 9 78 14l3 -6l-37 -49q-45 -138 -92 -352l2 -1q65 19 116 100l5 -7q-5 -54 -57.5 -98.5t-114.5 -44.5q-7 0 -23 2 q11 46 73 263h-2q-50 -79 -108 -145t-107 -96q-42 -24 -74 -24q-40 0 -40 44q0 23 8 51q22 81 91 306z"/>
<glyph glyph-name="afii10075" horiz-adv-x="533" unicode="й" d="M429 621l22 14l7 -2q-16 -57 -49 -85t-73 -28q-37 0 -58 20t-21 48v7q1 5 4 11q22 25 36 29l3 -3q-2 -72 56 -72q44 0 73 61zM143 388l-78 6l5 11q24 11 70.5 24t76.5 16l5 -4q-94 -283 -111 -364q-3 -15 -3 -23q0 -20 14 -20q40 0 102 63t125 162q25 40 39.5 75t33.5 97 q31 9 78 14l3 -6l-37 -49q-45 -138 -92 -352l2 -1q65 19 116 100l5 -7q-5 -54 -57.5 -98.5t-114.5 -44.5q-7 0 -23 2q11 46 73 263h-2q-50 -79 -108 -145t-107 -96q-42 -24 -74 -24q-40 0 -40 44q0 23 8 51q22 81 91 306z"/>
<glyph glyph-name="afii10076" horiz-adv-x="480" unicode="к" d="M136 390l-67 8l4 9q20 11 68 24t68 14l2 -1q-2 -9 -13 -46t-28 -95.5t-31 -106.5h4q207 234 266 249q30 0 70 -32l-6 -9l-115 -28q-23 -17 -68.5 -58.5t-68.5 -68.5l1 -4q29 -2 39 -21t34 -66t39.5 -77t22.5 -39l79 12l-1 -10q-86 -52 -115 -63l-6 2q-7 12 -97 205 q-12 24 -23 24t-34 -28q-31 -37 -74 -184l-59 -8q71 228 109 398z"/>
<glyph glyph-name="afii10077" horiz-adv-x="460" unicode="л" d="M342 49l74 13l-5 -16q-82 -36 -126 -65l-5 6q-2 22 -2 69q0 128 7 314h-3q-127 -238 -188 -317q-51 -68 -71 -72q-36 0 -70 27v6l115 62q23 16 95.5 134.5t104.5 182.5v3l-72 1l5 10q27 13 65.5 24t57.5 13h8q-2 -60 -2 -104q0 -204 12 -291z"/>
<glyph glyph-name="afii10078" horiz-adv-x="622" unicode="м" d="M631 436l-67 -43q-21 -84 -75 -342l82 13l-5 -16q-101 -39 -157 -67l-5 8q108 387 108 388h-4q-82 -111 -241 -357q-22 -24 -39 -33l-4 4q-7 112 -32 371h-4q-70 -258 -123 -350q-37 -23 -98 -26l-5 8l96 88q20 28 56.5 125.5t56.5 184.5l-91 5l3 9q73 27 143 39l6 -3 q6 -83 47 -345h2q35 49 86 121.5t86 122t59 84.5q41 15 118 20z"/>
<glyph glyph-name="afii10079" horiz-adv-x="510" unicode="н" d="M160 244h206q21 71 55 181q26 11 86 20l3 -7l-46 -57q-14 -41 -48 -170t-40 -158l80 2l-5 -12q-23 -10 -54.5 -22.5t-61 -24.5t-37.5 -15l-6 7q33 108 64 224q-55 -6 -207 -6q-13 -44 -33.5 -117.5t-24.5 -88.5l-67 -8q20 59 66 216t50 182l-65 8l6 9q19 11 66.5 24 t68.5 14l1 -1q-2 -6 -8.5 -30t-21 -74.5t-27.5 -95.5z"/>
<glyph glyph-name="afii10080" horiz-adv-x="447" unicode="о" d="M275 423h-1q-51 0 -93.5 -52t-63.5 -118t-21 -123q0 -121 71 -121q68 0 125 93t57 191q0 130 -74 130zM285 445h1q57 0 93.5 -47.5t36.5 -118.5q0 -111 -78.5 -201.5t-174.5 -90.5q-58 0 -96 42.5t-38 114.5q0 119 79 210t177 91z"/>
<glyph glyph-name="afii10081" horiz-adv-x="512" unicode="п" d="M88 0l-62 -8q19 55 63.5 216.5t45.5 181.5l-63 8l3 9q21 11 69.5 24.5t66.5 13.5l2 -1q-2 -8 -12.5 -43.5t-29 -98.5t-36.5 -130h3q136 203 267 261q28 12 55 12q16 0 16 -16q0 -11 -6 -33q-77 -262 -90 -346l87 14l-5 -16q-68 -23 -163 -67l-4 6q1 4 53 181.5t60 213.5 q5 14 -7 14q-35 0 -112 -74.5t-130 -160.5q-41 -69 -71 -161z"/>
<glyph glyph-name="afii10082" horiz-adv-x="491" unicode="р" d="M159 11h1q54 0 101.5 32.5t78 81.5t48 104.5t17.5 104.5v8q-1 60 -37 60q-28 0 -78 -44t-103 -132q-55 -81 -78 -178q6 -13 20.5 -25t29.5 -12zM137 392l-65 6l5 9q24 13 67 27.5t70 16.5l1 -2l-66 -224h3q84 125 148.5 172.5t104.5 47.5q29 0 48 -29t19 -75 q0 -143 -97 -248.5t-205 -105.5q-17 0 -40.5 6.5t-35.5 17.5q-24 -87 -49 -184l83 -24l-6 -11q-136 -12 -215 -12l5 11l63 31q24 62 66 214q71 254 96 356z"/>
<glyph glyph-name="afii10083" horiz-adv-x="381" unicode="с" d="M344 137l5 -22q-34 -55 -87.5 -91.5t-117.5 -36.5q-60 0 -90 39t-30 100q0 138 105 239q81 80 177 80q52 0 72 -20q-12 -51 -38 -100l-10 -5q-6 16 -20 100q-10 2 -17 2q-62 0 -123 -71q-74 -90 -76 -213q0 -47 20 -76.5t60 -29.5q84 0 169 105h1z"/>
<glyph glyph-name="afii10084" horiz-adv-x="786" unicode="т" d="M88 0l-62 -8q19 53 62.5 212t46.5 186l-65 8l5 9q26 12 70 25t67 14l1 -3q-6 -23 -30.5 -104.5t-47.5 -164.5h2q125 199 269 259q29 12 57 12q13 0 13 -17q0 -10 -3 -27q-17 -70 -64 -225h2q123 193 263 256q29 13 61 13q14 0 14 -15q0 -12 -7 -34q-69 -235 -89 -346 l88 14l-5 -16q-33 -11 -98 -38.5t-67 -28.5l-3 6q2 10 53.5 185.5t58.5 208.5q4 15 -6 15q-37 0 -111.5 -70.5t-126.5 -157.5q-46 -77 -74 -168l-64 -8q23 66 62.5 203.5t48.5 185.5q2 15 -6 15q-40 0 -115.5 -71.5t-128.5 -161.5q-38 -65 -71 -163z"/>
<glyph glyph-name="afii10085" horiz-adv-x="408" unicode="у" d="M42 275l-12 15q12 46 28.5 79.5t33 48.5t28 21t20.5 7q43 -4 63 -101q20 -93 20 -247v-50h4q43 65 84 171t46 165l-27 41l3 5q36 14 69 16q11 0 11 -11q-12 -70 -60 -190q-71 -176 -179 -319q-41 -54 -87 -95.5t-74 -57.5t-39 -16q-5 0 -12 6.5t-16 24t-15 43.5l1 6 q25 -3 91 -26q15 8 49 39t57 65q43 63 43 166v6q-3 169 -34 263q-13 41 -22 41q-4 0 -16 -15t-29 -43t-29 -58z"/>
<glyph glyph-name="afii10086" horiz-adv-x="636" unicode="ф" d="M321 434l1 -20q-11 5 -30 5q-76 0 -138.5 -100t-62.5 -216q0 -41 13 -62t33 -21q33 0 73 42.5t63 90.5q39 157 80 317q33 123 79 175q24 29 57 50.5t49 21.5q20 0 35 -16t16 -44l-4 -7q-49 23 -82 23q-15 0 -29.5 -17t-30.5 -67q-24 -78 -64 -239h2q82 96 142 96 q36 0 60 -36.5t24 -96.5q0 -75 -23.5 -139t-58.5 -104t-74 -62t-72 -22q-43 0 -61 23l-1 17q24 -11 48 -11q69 0 123 93t54 212q0 89 -44 89q-31 0 -72.5 -44.5t-63.5 -85.5l-72 -289q-29 -115 -86 -175q-59 -62 -99 -62q-21 0 -41 24.5t-22 47.5l6 7q47 -34 91 -34 q13 0 23.5 6.5t27.5 39t32 92.5q25 97 36 144l-3 3q-72 -98 -145 -98q-37 0 -60.5 33t-23.5 90q0 134 81.5 235.5t179.5 101.5q21 0 34 -11z"/>
<glyph glyph-name="afii10087" horiz-adv-x="457" unicode="х" d="M-16 106l7 11q33 -49 55 -74q16 4 60.5 52.5t100.5 127.5q-37 158 -50 171q-40 -14 -100 -91l-5 16q21 44 62.5 83.5t80.5 42.5q7 -4 13 -15t12.5 -31.5t10.5 -35.5t11 -43t10 -38h2q48 63 72 90q56 66 89 80h6q13 -12 22.5 -44t8.5 -65l-9 -8q-24 50 -44 65 q-17 -5 -63.5 -56.5t-75.5 -91.5q8 -29 26 -93.5t26 -99.5q3 -9 8 -9q6 0 20 8.5t36.5 31.5t40.5 54l6 -14q-19 -70 -65.5 -106.5t-88.5 -36.5q-4 14 -19.5 78.5t-33.5 128.5h-2q-93 -129 -118 -158q-48 -56 -64 -56q-5 0 -8 2q-30 40 -40 124z"/>
<glyph glyph-name="afii10088" horiz-adv-x="533" unicode="ц" d="M142 388l-78 6l5 11q24 11 70.5 24t76.5 16l5 -4q-28 -84 -67 -212t-44 -153q-3 -15 -3 -23q0 -19 14 -19q42 0 106 64.5t124 162.5q39 64 70 170q31 10 79 14l2 -6l-37 -48q-47 -153 -91 -348l2 -2q61 14 114 93q2 3 3 4l3 -9q-4 -19 -14 -42q-14 -135 -44.5 -188 t-102.5 -66q-21 -4 -35.5 -11t-21 -13.5t-17.5 -20.5l-11 7q27 67 52 85q31 6 45.5 9.5t34.5 12.5t30 22q29 38 47 137q-26 -35 -63 -54.5t-65 -19.5q-14 0 -28 2q5 22 72 263h-2q-50 -79 -108 -145t-107 -96q-40 -24 -73 -24q-42 0 -42 46q0 22 8 49q42 153 91 306z"/>
<glyph glyph-name="afii10089" horiz-adv-x="466" unicode="ч" d="M476 437l-53 -52q-54 -171 -96 -333l79 13l-6 -16q-14 -6 -76.5 -33.5t-77.5 -34.5l-6 7q72 216 101 306h-3q-118 -129 -235 -129q-37 0 -37 30q0 4 2 16q4 18 57 181l-66 6l6 9q87 33 142 38l2 -2q-18 -39 -45 -113t-31 -101v-5q0 -18 17 -18q55 0 119 53t88 99 q5 12 13.5 36.5t10.5 30.5q31 17 94 20z"/>
<glyph glyph-name="afii10090" horiz-adv-x="786" unicode="ш" d="M143 390l-78 5l4 10q26 12 71.5 26t74.5 15l5 -4q-93 -288 -110 -369q-2 -8 -2 -20q0 -19 13 -19q42 0 105.5 65t119.5 163q42 81 67 168l63 11l4 -3q-84 -258 -108 -361q-3 -15 -3 -24q0 -19 13 -19q41 0 102 63.5t120 162.5q39 64 72 172l77 13l2 -4l-36 -49 q-45 -144 -89 -349l1 -2q61 15 114 95l4 -8q-5 -50 -56 -95.5t-110 -45.5q-8 0 -24 2q3 13 69 258h-3q-114 -180 -209 -236q-39 -24 -72 -24q-36 0 -36 46q0 23 12 65q4 12 18 60.5t27 86.5h-2q-107 -177 -208 -234q-39 -24 -68 -24q-41 0 -41 52q0 21 9 56q30 113 88 295z "/>
<glyph glyph-name="afii10091" horiz-adv-x="786" unicode="щ" d="M143 390l-78 5l4 10q26 12 71.5 26t74.5 15l5 -4q-93 -288 -110 -369q-3 -12 -3 -20q0 -19 13 -19q42 0 106 65.5t120 162.5q38 72 67 168l63 11l4 -3q-24 -62 -61 -190.5t-47 -170.5q-3 -15 -3 -24q0 -19 13 -19q40 0 100.5 63t121.5 163q37 61 72 172l77 13l2 -4 l-36 -49q-46 -148 -89 -349l1 -1q69 15 115 95l3 -7q-5 -21 -12 -42q-15 -136 -45 -189.5t-102 -66.5q-30 -5 -44.5 -14.5t-29.5 -28.5l-12 7q26 64 52 83q87 17 108 44q31 38 47 136q-25 -34 -61 -53t-63 -19q-12 0 -28 2q9 39 68 256h-2q-114 -179 -210 -234 q-37 -24 -67 -24q-39 0 -39 46q0 27 11 65q4 13 17.5 61t26.5 86h-2q-105 -175 -207 -234q-39 -24 -68 -24q-41 0 -41 52q0 21 9 56q40 150 88 295z"/>
<glyph glyph-name="afii10092" horiz-adv-x="505" unicode="ъ" d="M391 207v1q0 60 -46 60q-36 0 -82 -34.5t-70 -66.5q-13 -25 -20 -63q-2 -10 -2 -26q0 -34 16 -49.5t41 -15.5q63 0 113 62t50 132zM56 315l-15 10q16 40 53 78.5t69 39.5h9q21 0 61 -8q48 -11 55 -11q15 11 38 21l21 -1q-81 -65 -143 -232h3q93 96 178 96 q34 0 53.5 -25.5t19.5 -66.5q0 -52 -36 -106t-97 -88q-60 -35 -122 -35q-55 0 -81 28q-20 20 -20 51q0 28 17 77q61 163 145 248v2q-10 -1 -31 0q-30 3 -58 3h-12q-54 -1 -107 -81z"/>
<glyph glyph-name="afii10093" horiz-adv-x="628" unicode="ы" d="M620 440l-46 -53q-54 -160 -112 -364l1 -2q37 7 127 118l4 -5q-8 -48 -49.5 -97.5t-97.5 -49.5q-38 0 -38 49q0 17 8 47q26 92 109 342q29 15 93 20zM326 204v1q0 62 -40 62q-35 0 -83 -43t-68 -80q-13 -28 -21 -59q-3 -14 -3 -26q0 -46 46 -46q70 0 119.5 59t49.5 132z M141 390l-66 8l6 9q20 11 69 24.5t67 13.5l3 -1q-31 -105 -79 -249h3q103 112 180 112q31 0 50 -26.5t19 -69.5q0 -53 -36 -106t-96 -85q-64 -33 -116 -33q-71 0 -104 29l-4 12q9 27 52 178t52 184z"/>
<glyph glyph-name="afii10094" horiz-adv-x="458" unicode="ь" d="M343 204v1q0 62 -46 62q-41 0 -91.5 -43.5t-70.5 -80.5q-14 -28 -21 -59q-3 -14 -3 -24q0 -48 55 -48q74 0 125.5 60t51.5 132zM141 390l-67 9l6 8q20 11 70 24.5t70 13.5q-33 -105 -79 -251h3q110 113 189 113q35 0 56 -26.5t21 -69.5q0 -54 -36.5 -106.5t-97.5 -85.5 q-64 -32 -128 -32q-30 0 -62.5 8.5t-45.5 20.5l-4 11q5 16 28.5 96.5t48 167.5t28.5 99z"/>
<glyph glyph-name="afii10095" horiz-adv-x="409" unicode="э" d="M99 307l-10 -3q-10 40 -10 83v8q74 50 144 50q61 0 104.5 -47.5t43.5 -136.5q0 -121 -79 -197.5t-178 -76.5q-47 0 -84.5 18t-48.5 36q22 39 53 79l10 5v-46t1 -55q22 -8 52 -8q72 2 128.5 51t75.5 157q-46 -25 -77 -30q-15 0 -44 13q-15 7 -34 7q-34 0 -75 -25v13 q68 58 97 59q24 -4 61 -20q17 -7 33 -7q24 0 40 11q2 22 2 40q0 66 -32.5 98t-79.5 32q-31 0 -47 -8q-27 -63 -46 -100z"/>
<glyph glyph-name="afii10096" horiz-adv-x="641" unicode="ю" d="M475 423h-1q-48 0 -89.5 -52t-62 -119.5t-20.5 -123.5q0 -119 72 -119q68 0 119 90t51 203q0 121 -69 121zM141 389l-66 9l4 8q20 12 68.5 25t69.5 14l2 -1q-2 -5 -58 -194h94q29 85 93.5 140t134.5 55q61 0 94.5 -50t33.5 -116q0 -121 -73.5 -206.5t-170.5 -85.5 q-57 0 -94 40.5t-38 112.5q0 37 9 73h-95q-30 -105 -60 -213l-66 -8q13 36 118 397z"/>
<glyph glyph-name="afii10097" horiz-adv-x="470" unicode="я" d="M315 220l60 184q-12 7 -58 7q-71 0 -109.5 -27.5t-38.5 -79.5q0 -36 29.5 -60t95.5 -24h21zM330 52l87 13l-5 -16q-118 -42 -167 -68l-6 6q22 63 43 130t26 81q-50 0 -81 -15.5t-65 -52.5q-54 -60 -105 -108q-44 -35 -99 -35h-7l-2 6q4 4 63 65.5t86 87.5q45 43 110 59 l1 2q-51 6 -79 35.5t-28 65.5q0 64 54 96.5t141 32.5q55 0 92 -10q42 15 97 18l-1 -7l-58 -45q-37 -107 -97 -341z"/>
<glyph glyph-name="afii10071" horiz-adv-x="386" unicode="ё" d="M388 642h5q5 -5 14.5 -21.5t10.5 -24.5l-1 -5q-5 -10 -21.5 -25.5t-25.5 -20.5h-5q-22 25 -29 52l1 2q26 33 51 43zM219 642h4q6 -4 15 -20.5t11 -25.5l-1 -5q-4 -10 -20.5 -25.5t-26.5 -20.5h-5q-24 27 -29 52v2q28 33 52 43zM272 423h-1q-48 0 -96 -58t-70 -142 q51 9 117.5 30.5t82.5 43.5q15 22 15 58q0 32 -13.5 50t-34.5 18zM349 132l4 -23q-42 -58 -95 -90t-107 -32q-53 0 -88.5 31.5t-37.5 107.5v5q0 65 31.5 136.5t93.5 124.5t135 53q45 0 70 -27t25 -69q0 -27 -18 -52q-21 -31 -110 -59.5t-151 -39.5q-6 -28 -6 -62 q0 -48 20 -77.5t63 -29.5q44 0 91 32t78 71h2z"/>
<glyph glyph-name="afii10099" horiz-adv-x="484" unicode="ђ" d="M75 0l-62 -8q28 99 78.5 285.5t73.5 269.5h-84l19 30h73q22 84 23 86l-73 13l4 8q30 11 78.5 22t66.5 11q-2 -9 -6.5 -25.5t-13.5 -49t-18 -65.5h195l-18 -30h-187q-48 -171 -103 -374h3q135 201 266 260q30 12 57 12q16 0 16 -18q0 -11 -6 -35q-51 -186 -81 -305 q-34 -136 -112 -210q-23 -22 -47 -37t-33 -15q-12 2 -24 18.5t-16 41.5l7 7q33 -13 60 -13q31 0 49 28t43 126q80 298 91 349q3 17 -6 17q-37 0 -113.5 -73.5t-129.5 -163.5q-39 -66 -70 -162z"/>
<glyph glyph-name="afii10100" horiz-adv-x="359" unicode="ѓ" d="M227 499l-11 11l106 149h8q24 0 45 -12v-7zM124 322l-10 -7q-6 16 -18 69q25 22 65.5 41.5t82.5 19.5q41 0 66.5 -26t25.5 -66q0 -63 -75 -105q-69 -38 -92 -52q-40 -22 -61.5 -43.5t-21.5 -50.5q0 -34 24.5 -55.5t56.5 -21.5q14 0 30 4q78 56 98 68l2 -11 q-15 -33 -66 -75q-50 -22 -97 -22q-55 0 -88 31t-33 78q0 49 69 85q28 14 103 54q42 22 64 45.5t22 56.5q0 30 -19 50.5t-48 20.5q-20 0 -50 -10q-12 -40 -30 -78z"/>
<glyph glyph-name="afii10101" horiz-adv-x="382" unicode="є" d="M337 114l8 -19q-34 -46 -84.5 -77t-111.5 -31t-92.5 40t-31.5 104q0 117 83 215.5t196 98.5q58 0 77 -21q-10 -46 -38 -98l-9 -4q-4 14 -21 98q-16 2 -19 2q-68 0 -120 -64t-70 -146q44 35 77 42h5q12 0 40 -11q11 -5 28 -5q32 0 76 23l4 -13q-54 -55 -98 -57 q-23 5 -55 16q-9 4 -22 4q-25 0 -59 -19q-5 -22 -5 -55q0 -45 20.5 -75t62.5 -30q85 0 159 82z"/>
<glyph glyph-name="afii10102" horiz-adv-x="328" unicode="ѕ" d="M222 445h1q60 0 90 -27q-6 -19 -20.5 -48.5t-22.5 -39.5l-10 -3q-2 18 -9 89q-9 6 -33 6q-41 0 -68.5 -24.5t-27.5 -61.5q0 -18 10 -34.5t21 -26.5t41 -34q43 -37 60 -64t17 -57q0 -55 -45.5 -94t-115.5 -39q-40 0 -77 16.5t-52 32.5q19 42 52 90l9 2q8 -59 9 -105 q18 -10 55 -10q46 0 75.5 25t29.5 65q0 38 -60 86q-48 37 -65.5 65t-17.5 59q0 61 45.5 96.5t108.5 35.5z"/>
<glyph glyph-name="afii10103" horiz-adv-x="259" unicode="і" d="M139 388l-61 9l4 10q22 12 63.5 24.5t68.5 13.5l2 -2q-31 -103 -126 -421l2 -1q27 9 66 47t63 71l3 -6q-8 -46 -51 -96t-98 -50q-14 0 -24 13t-10 40q0 25 8 54q2 8 90 294zM224 654h5q5 -6 12.5 -23.5t7.5 -27.5l-1 -4q-6 -11 -23.5 -27.5t-26.5 -19.5h-4q-7 6 -14.5 22 t-9.5 31l1 1q23 32 53 48z"/>
<glyph glyph-name="afii10104" horiz-adv-x="259" unicode="ї" d="M309 642h5q5 -5 14.5 -21.5t10.5 -24.5l-1 -5q-5 -10 -21.5 -25.5t-25.5 -20.5h-5q-22 25 -29 52l1 2q26 33 51 43zM140 642h4q6 -4 15 -20.5t11 -25.5l-1 -5q-4 -10 -20.5 -25.5t-26.5 -20.5h-5q-24 27 -29 52v2q28 33 52 43zM139 388l-61 9l4 10q22 12 63.5 24.5 t68.5 13.5l2 -2q-31 -103 -126 -421l2 -1q27 9 66.5 47.5t62.5 70.5l3 -6q-8 -46 -51 -96t-98 -50q-14 0 -24 13t-10 40q0 25 8 54q2 8 90 294z"/>
<glyph glyph-name="afii10105" horiz-adv-x="235" unicode="ј" d="M221 654h4q6 -6 13 -23t8 -28l-1 -4q-7 -10 -25 -26.5t-26 -20.5h-4q-19 19 -23 53v1q27 34 54 48zM139 392l-75 12l5 9q27 12 71 21.5t73 11.5l2 -2q-53 -214 -108 -402q-27 -100 -70 -165q-28 -42 -66.5 -75.5t-70.5 -48.5l-15 13q28 17 48.5 36t50 70t49.5 123 q70 260 106 397z"/>
<glyph glyph-name="afii10106" horiz-adv-x="642" unicode="љ" d="M533 203v1q0 63 -43 63q-31 0 -74 -30.5t-79 -74.5q1 -106 6 -147q6 -3 18 -3q70 0 121 59.5t51 131.5zM-48 14l118 62q25 18 102 136.5t103 180.5l1 4l-74 1l5 9q72 34 123 39h8q-2 -110 -2 -184v-67q107 112 189 112q35 0 55 -25.5t20 -66.5q0 -58 -38 -109.5 t-103 -87.5q-56 -31 -117 -31q-36 0 -65 9q1 68 11 368h-3q-120 -222 -189 -310q-54 -69 -72 -73q-39 0 -73 27z"/>
<glyph glyph-name="afii10107" horiz-adv-x="699" unicode="њ" d="M584 201v1q0 65 -46 65q-35 0 -84 -43t-68 -78q-15 -32 -22 -61q-3 -13 -3 -24q0 -48 56 -48q73 0 120 58.5t47 129.5zM160 248h188q18 57 53 177q26 9 88 21l3 -7l-45 -57q-11 -28 -55 -187h2q104 112 181 112q35 0 55.5 -26.5t20.5 -68.5q0 -55 -35.5 -106.5 t-97.5 -86.5q-58 -32 -120 -32q-30 0 -63 8t-45 20l-4 11q34 113 54 192q-40 -8 -192 -8q-12 -42 -33 -117t-26 -93l-66 -8q20 57 65 214.5t49 183.5l-64 9l6 8q20 11 68 24.5t68 13.5q0 -4 -6.5 -27t-21.5 -74.5t-27 -95.5z"/>
<glyph glyph-name="afii10108" horiz-adv-x="497" unicode="ћ" d="M74 0l-62 -8q29 103 80.5 294.5t71.5 262.5h-83l18 28h73q12 45 22 87l-72 12l5 8q29 11 77.5 22t66.5 11q0 -1 -38 -140h203l-17 -28h-196q-10 -36 -45 -161t-59 -214h2q127 192 267 259q30 12 60 12q14 0 14 -14q0 -12 -7 -34q-71 -234 -89 -347l87 12l-5 -13 q-24 -8 -56 -21.5t-66 -29t-39 -17.5l-5 2q1 4 52.5 182.5t59.5 214.5q4 20 -7 20q-36 0 -115 -77t-129 -163q-41 -70 -69 -160z"/>
<glyph glyph-name="afii10109" horiz-adv-x="480" unicode="ќ" d="M287 499l-11 11l106 149h8q24 0 45 -12v-7zM136 390l-67 8l4 9q20 11 68 24t68 14l2 -1q-2 -9 -13 -46t-28 -95.5t-31 -106.5h4q207 234 266 249q30 0 70 -32l-6 -9l-115 -28q-23 -17 -68.5 -58.5t-68.5 -68.5l1 -4q29 -2 39 -21t34 -66t39.5 -77t22.5 -39l79 12l-1 -10 q-86 -52 -115 -63l-6 2q-7 12 -97 205q-12 24 -23 24t-34 -28q-31 -37 -74 -184l-59 -8q71 228 109 398z"/>
<glyph glyph-name="afii10110" horiz-adv-x="408" unicode="ў" d="M363 621l22 14l7 -2q-16 -57 -49 -85t-73 -28q-37 0 -58 20t-21 48v7q1 5 4 11q22 25 36 29l3 -3q-2 -72 56 -72q44 0 73 61zM42 275l-12 15q12 46 28.5 79.5t33 48.5t28 21t20.5 7q43 -4 63 -101q20 -93 20 -247v-50h4q43 65 84 171t46 165l-27 41l3 5q36 14 69 16 q11 0 11 -11q-12 -70 -60 -190q-71 -176 -179 -319q-41 -54 -87 -95.5t-74 -57.5t-39 -16q-5 0 -12 6.5t-16 24t-15 43.5l1 6q25 -3 91 -26q15 8 49 39t57 65q43 63 43 166v6q-3 169 -34 263q-13 41 -22 41q-4 0 -16 -15t-29 -43t-29 -58z"/>
<glyph glyph-name="afii10193" horiz-adv-x="533" unicode="џ" d="M143 388l-78 6l5 11q24 10 71 23.5t77 16.5l5 -4q-97 -291 -112 -364q-3 -15 -3 -23q0 -20 14 -20q41 0 104.5 64t123.5 162q41 67 73 171q28 8 78 14l2 -6l-37 -49q-42 -136 -91 -348l2 -1q60 14 116 96l4 -7q-5 -54 -57.5 -98.5t-114.5 -44.5q-7 0 -23 2q13 56 74 263 h-2q-50 -79 -108 -145t-107 -96q-42 -24 -75 -24q-40 0 -40 44q0 23 8 51q42 153 91 306zM99 -209l-7 14q95 40 100 91q10 90 54 144l5 -1q-14 -40 -14 -94q0 -24 5 -56q0 -8 -6 -19.5t-20.5 -26t-44.5 -29t-72 -23.5z"/>
<glyph glyph-name="afii10050" horiz-adv-x="453" unicode="Ґ" d="M225 622l-81 29l7 10q18 0 53.5 -1t54.5 -1h218q28 36 86 102l12 4q-26 -99 -43 -143l-3 -2q-18 1 -55 13l-181 -10l-86 -314q-63 -232 -65 -268l90 -32l-5 -11q-20 0 -65.5 1.5t-72.5 1.5q-19 0 -55.5 -1.5t-54.5 -1.5l5 11l78 32q10 23 86 300z"/>
<glyph glyph-name="afii10098" horiz-adv-x="306" unicode="ґ" d="M135 373l-74 21l3 10q136 8 197 17q14 16 98 119l7 -11q-28 -87 -42 -117q-39 -9 -129 -28q-89 -324 -109 -384l-65 -8q72 221 114 381z"/>
<glyph glyph-name="endash" horiz-adv-x="552" unicode="–" d="M503 205h-463l15 43h462z"/>
<glyph glyph-name="emdash" horiz-adv-x="839" unicode="—" d="M789 205h-750l15 43h750z"/>
<glyph glyph-name="quoteleft" horiz-adv-x="171" unicode="‘" d="M249 699l9 -13q-33 -24 -53.5 -56t-21.5 -65q0 -7 3 -16l31 -19l-1 -7l-57 -39h-6q-8 3 -16 17.5t-8 36.5q0 47 35.5 90.5t84.5 70.5z"/>
<glyph glyph-name="quoteright" horiz-adv-x="171" unicode="’" d="M117 480l-10 14q32 24 53 56t22 64q0 5 -2 15l-32 20l1 6l57 40h7q8 -3 16 -18t8 -37q0 -46 -35 -88t-85 -72z"/>
<glyph glyph-name="quotesinglbase" horiz-adv-x="173" unicode="‚" d="M-25 -91l-11 14q71 59 71 121q0 13 -2 16l-32 19l1 7l56 39h7q7 -2 15.5 -18t8.5 -41q0 -44 -33 -85t-81 -72z"/>
<glyph glyph-name="quotedblleft" horiz-adv-x="296" unicode="“" d="M249 699l11 -13q-75 -53 -77 -121q0 -7 3 -16l31 -19l-1 -7l-58 -39h-6q-7 4 -15.5 18t-8.5 37q0 46 36 89.5t85 70.5zM374 699l10 -13q-33 -23 -53.5 -55.5t-21.5 -65.5q0 -4 2 -16l32 -19l-1 -7l-58 -39h-7q-23 14 -23 55q0 46 35.5 89.5t84.5 70.5z"/>
<glyph glyph-name="quotedblright" horiz-adv-x="296" unicode="”" d="M241 480l-10 13q75 55 76 120q0 11 -2 16l-33 19l1 7l58 40h7q7 -3 15 -18t8 -37q0 -47 -35 -89t-85 -71zM116 480l-10 13q32 24 53 56.5t22 64.5q0 10 -2 15l-32 20l1 6l57 40h7q7 -3 15.5 -17.5t8.5 -36.5q0 -47 -35.5 -90t-84.5 -71z"/>
<glyph glyph-name="quotedblbase" horiz-adv-x="292" unicode="„" d="M92 -91l-10 14q70 58 70 121q0 11 -2 16l-32 19l1 7l55 39h7q7 -2 16 -18.5t9 -40.5q0 -44 -33 -85t-81 -72zM-33 -91l-11 14q71 59 71 121q0 13 -2 16l-32 19l1 7l55 39h7q7 -2 16 -18.5t9 -40.5q0 -44 -33 -85t-81 -72z"/>
<glyph glyph-name="bullet" horiz-adv-x="322" unicode="•" d="M187 339h10q17 -13 44.5 -54.5t34.5 -66.5v-10q-11 -25 -57 -64.5t-70 -49.5h-10q-20 17 -46 55.5t-38 72.5l4 9q31 40 68.5 69.5t59.5 38.5z"/>
<glyph glyph-name="guilsinglleft" horiz-adv-x="296" unicode="‹" d="M200 40l-11 -11q-57 103 -136 188q34 25 93 79t109 108l6 -12q-38 -60 -133 -177q48 -104 72 -175z"/>
<glyph glyph-name="guilsinglright" horiz-adv-x="296" unicode="›" d="M91 393l11 11q57 -105 134 -188q-113 -88 -202 -187l-5 12q37 62 134 177q-50 107 -72 175z"/>
<glyph glyph-name="fraction" horiz-adv-x="97" unicode="⁄" d="M343 661l16 -22q-496 -603 -553 -674l-17 23q65 79 184 222.5t212 256.5t158 194z"/>
<glyph glyph-name="foursuperior" horiz-adv-x="295" unicode="⁴" d="M256 550l56 176h-3q-87 -85 -165 -174zM292 528l-19 -71l51 -23l-4 -8q-13 0 -38.5 1t-37.5 1q-14 0 -40 -1t-40 -1l4 8l58 22l23 71l-145 -2l-7 14q31 39 112 119t98 92q17 6 49 10l-58 -211l32 -1q17 14 35 23h5q-2 -7 -12.5 -33.5t-15.5 -34.5l-6 -2q-2 3 -10 28z"/>
<glyph glyph-name="Euro" d="M71 393h35q43 117 126 183t188 66q70 0 121 -41q-12 -33 -46 -90l-9 -3q-4 21 -4 55q0 7 0.5 21t0.5 21q-21 9 -53 9q-180 0 -252 -221l299 4l-21 -34l-285 4q-11 -37 -13 -71l277 4l-21 -34l-258 4q-1 -11 -1 -33q0 -96 35.5 -151.5t99.5 -55.5q20 0 32 4q30 22 74.5 58 t55.5 44l5 -12q-42 -64 -87 -104q-50 -20 -98 -20q-89 0 -139 70.5t-50 178.5v21h-58l15 25h45q2 38 13 73h-41z" unicode="€"/>
<glyph glyph-name="afii61352" horiz-adv-x="815" unicode="№" d="M730 155l-214 -10l27 40h225v-3zM659 254h1q32 0 58 33t38.5 75.5t12.5 79.5q0 74 -50 74q-46 0 -80.5 -61.5t-34.5 -119.5q0 -81 55 -81zM659 233h-1q-57 0 -84 32t-27 84q0 69 49.5 128t124.5 59q46 0 74.5 -32t28.5 -86q0 -81 -51 -133t-114 -52zM142 623l5 8 q80 22 116 25l4 -62q64 -287 115 -495h2q15 54 53 203t49 189q45 162 123 162q26 -7 45 -24l-3 -6l-93 -46q-26 -30 -52 -128l-110 -401l28 -51l-6 -6l-72 -8q-37 149 -120 541h-2q-21 -76 -40.5 -150t-38.5 -145.5t-26 -99.5q-13 -47 -31 -79t-36 -45t-30 -17.5t-22 -4.5 q-24 15 -34 34l3 6l82 35q26 24 69 186l93 337q-11 20 -23.5 27t-47.5 15z"/>
<glyph glyph-name="uni2215" horiz-adv-x="97" unicode="∕" d="M343 661l16 -22q-496 -603 -553 -674l-17 23q65 79 184 222.5t212 256.5t158 194z"/>
<glyph glyph-name="r.end" horiz-adv-x="396" unicode="" d="M56 398l5 8q102 39 124 39v-9q0 -66 -33 -192h3q47 82 88.5 129t66.5 59.5t51 12.5q17 0 70 -15q41 26 61 43l8 -13q-13 -19 -40 -56.5t-34 -46.5q-48 34 -94 34q-67 0 -157 -161q-41 -76 -88 -230l-63 -8q41 124 71 238.5t34 156.5z"/>
</font>
</defs>
</svg>
