<?xml version="1.0" encoding="UTF-8" standalone="no"?>
<!DOCTYPE svg  PUBLIC '-//W3C//DTD SVG 1.1//EN'  'http://www.w3.org/Graphics/SVG/1.1/DTD/svg11.dtd'>
<svg xmlns="http://www.w3.org/2000/svg">
<defs>
<font id="WarnockPro-SemiboldItSubh" horiz-adv-x="512">
<font-face slope="-15" underline-position="-75" font-weight="600" descent="-200" panose-1="2 10 6 3 7 5 11 9 2 4" units-per-em="1000" unicode-range="U+0020-E0FF" bbox="-215 -247 1077 865" x-height="450" underline-thickness="50" font-family="Warnock Pro SmBd Subhead" ascent="800" font-style="italic" cap-height="661"/>
<missing-glyph horiz-adv-x="1000"/>
<glyph glyph-name=".notdef" horiz-adv-x="1000"/>
<glyph glyph-name=".null" horiz-adv-x="0"/>
<glyph glyph-name="nonmarkingreturn" horiz-adv-x="333"/>
<glyph glyph-name="space" horiz-adv-x="204" unicode=" "/>
<glyph glyph-name="exclam" horiz-adv-x="245" unicode="!" d="M96 133h7q10 -9 25 -34t18 -40v-7q-7 -15 -35 -39.5t-43 -29.5h-6q-12 10 -27.5 34t-22.5 44l2 3q35 50 82 69zM131 211l-27 -12q54 345 57 373l-8 41q17 12 68 25t88 13l5 -6q-21 -59 -183 -434z"/>
<glyph glyph-name="quotedbl" horiz-adv-x="331" unicode='&quot;' d="M309 455l-28 -15q1 7 14.5 81.5t18.5 107.5l-6 31q44 25 107 33l8 -5q-9 -24 -49 -107t-65 -126zM151 450l-28 -15q30 151 34 189l-7 31q39 25 107 33l9 -4q-9 -25 -49.5 -108.5t-65.5 -125.5z"/>
<glyph glyph-name="numbersign" d="M154 473l93 -1l61 162l36 5l-63 -167h116l61 162l36 5l-63 -167l97 1l-41 -75l-84 1l-49 -125l99 1l-41 -73l-84 1l-68 -181l-35 -5l69 186h-115l-69 -181l-35 -5l70 186l-108 -1l41 73l94 -1l48 125l-107 -1zM369 399h-115l-49 -125h116z" unicode="#"/>
<glyph glyph-name="dollar" d="M273 255l-65 -227q62 2 98.5 35t37.5 85q0 60 -71 107zM283 388l62 219q-2 0 -6.5 0.5t-6.5 0.5q-51 0 -88 -31t-37 -85q0 -29 17 -52.5t59 -51.5zM353 634l27 93l30 4l-30 -103q39 -10 68 -39q40 27 74 38l5 -2q-7 -30 -29 -82.5t-40 -79.5l-10 -3q-11 47 -14 106 q-21 25 -62 35l-65 -229q33 -21 51.5 -35.5t42.5 -38t35 -51.5t11 -60q0 -65 -38.5 -108.5t-88.5 -60t-104 -16.5h-15l-27 -98l-32 -9l30 109q-54 8 -99 32.5t-69 50.5q4 14 26 53t40 63l10 2q6 -46 10 -145q31 -23 90 -29l69 240q-32 21 -50.5 35.5t-41.5 38t-34 51.5 t-11 60q0 84 59.5 132.5t142.5 48.5q20 0 39 -3z" unicode="$"/>
<glyph glyph-name="percent" horiz-adv-x="737" unicode="%" d="M577 310h-1q-33 0 -61 -47.5t-41 -100t-13 -86.5q0 -29 9.5 -48t26.5 -19q31 0 58.5 47.5t41 102t13.5 89.5q0 62 -33 62zM580 332h1q49 0 78 -32t29 -90q0 -81 -56.5 -152t-140.5 -71q-50 0 -80 32.5t-30 89.5q0 78 57 150.5t142 72.5zM667 664l22 -24 q-234 -271 -576 -678l-20 25q60 70 574 677zM300 632h-1q-33 0 -61 -47.5t-40.5 -100.5t-12.5 -87q0 -29 9.5 -48t26.5 -19q44 0 78 89.5t34 150.5q0 62 -33 62zM303 654h1q49 0 78 -32t29 -92q0 -80 -56.5 -151t-140.5 -71q-48 0 -78 33t-30 90q0 77 57 150t140 73z"/>
<glyph glyph-name="ampersand" horiz-adv-x="711" unicode="&amp;" d="M338 190l-11 18q84 112 204 112q80 0 120 -4q43 37 71 54l11 -12q-44 -69 -82 -139q-23 7 -77 15q-14 -68 -46 -118.5t-74 -77.5t-86.5 -39.5t-91.5 -12.5q-106 0 -169 53.5t-63 140.5q0 139 186 194v2q-58 35 -58 106q0 74 62.5 123t160.5 49q93 0 146 -49 q-2 -14 -22 -49t-37 -50l-14 -4q-15 41 -21 117q-15 6 -39 6q-57 0 -94 -34.5t-37 -93.5q0 -84 108 -110l-15 -24q-7 2 -20 2h-16q-73 -1 -121.5 -44t-48.5 -111t44.5 -110t120.5 -42q79 0 138.5 50t79.5 129q-31 4 -69 4q-80 0 -140 -51z"/>
<glyph glyph-name="quotesingle" horiz-adv-x="174" unicode="&apos;" d="M151 450l-28 -15q25 108 34 189l-7 31q39 25 107 33l9 -4q-9 -24 -49.5 -107.5t-65.5 -126.5z"/>
<glyph glyph-name="parenleft" horiz-adv-x="305" unicode="(" d="M399 720l9 -12q-127 -92 -207 -254.5t-80 -339.5q0 -172 54 -282l-14 -9q-116 126 -116 324v13q3 172 98 325.5t256 234.5z"/>
<glyph glyph-name="parenright" horiz-adv-x="306" unicode=")" d="M-56 -177l-8 13q125 86 205.5 252t80.5 340q0 169 -54 284l15 8q52 -58 83.5 -142.5t31.5 -183.5v-12q-3 -173 -97.5 -327t-256.5 -232z"/>
<glyph glyph-name="asterisk" horiz-adv-x="374" unicode="*" d="M255 470l10 4l8 -115l7 -26q-2 -1 -10 -1q-19 0 -44.5 6.5t-32.5 14.5l17 19zM276 514l-10 -2l-7 115l-5 22q6 2 15 2q18 0 41 -5.5t28 -11.5l-16 -18zM280 493l3 12l90 62l16 16q11 -7 21 -33t10 -43q0 -5 -1 -7l-24 5zM249 492l-3 -13l-90 -59l-17 -19q-9 5 -19 29 t-10 42q0 5 2 11l21 -5zM256 507l-11 -5l-96 49l-25 4q2 17 21.5 40t34.5 27l10 -22zM274 475l7 4l98 -48l21 -5q-2 -17 -21 -39.5t-34 -24.5l-8 21z"/>
<glyph glyph-name="plus" horiz-adv-x="580" unicode="+" d="M322 8l-57 -10v209h-186l10 48h176v179l57 10v-189h186l-10 -48h-176v-199z"/>
<glyph glyph-name="comma" horiz-adv-x="220" unicode="," d="M-33 -122l-13 16q42 27 70 65.5t28 78.5q0 21 -9 37l-37 24l1 10l83 53h13q11 -7 22.5 -28.5t11.5 -52.5q0 -67 -45 -119t-125 -84z"/>
<glyph glyph-name="hyphen" horiz-adv-x="352" unicode="-" d="M273 225l-236 -29l40 75l49 -1l194 11l1 -6z"/>
<glyph glyph-name="period" horiz-adv-x="220" unicode="." d="M87 135h6q10 -8 25 -34t19 -41l-1 -7q-7 -15 -35 -40t-43 -30h-6q-12 10 -27.5 34t-22.5 45l2 3q35 49 83 70z"/>
<glyph glyph-name="slash" horiz-adv-x="370" unicode="/" d="M22 -38h-51l442 714h51z"/>
<glyph glyph-name="zero" d="M357 630h-1q-52 0 -100.5 -87t-75.5 -200.5t-27 -203.5q0 -128 65 -128q40 0 79 58t64 140t40.5 164t15.5 136q0 121 -60 121zM356 654h1q77 0 121.5 -58.5t44.5 -162.5q0 -66 -18.5 -140t-53.5 -144t-96.5 -116t-138.5 -46t-124.5 57t-47.5 169q0 68 21 143.5 t58.5 142.5t99 111t133.5 44z" unicode="0"/>
<glyph glyph-name="one" d="M311 576l-117 3l4 11q29 10 225 64h12q-125 -462 -161 -610l117 -34l-5 -12q-31 0 -90.5 1t-88.5 1q-31 0 -91.5 -1t-90.5 -1l6 12l123 34q46 138 157 532z" unicode="1"/>
<glyph glyph-name="two" d="M-2 15l46 61q15 6 27 14q112 72 212 183q97 109 97 214q0 63 -29.5 95t-77.5 32q-35 0 -67 -16q-25 -100 -50 -149l-9 -5q-33 66 -38 116q108 94 217 94q75 0 125 -43.5t50 -125.5q0 -71 -50 -130.5t-167 -146.5q-99 -74 -176 -123v-2q34 0 269 5q49 46 83 71l9 -9 q-38 -101 -76 -155q-13 0 -101.5 2.5t-139.5 2.5h-158z" unicode="2"/>
<glyph glyph-name="three" d="M164 476l-9 -3q-6 9 -19 45.5t-16 57.5q102 78 205 78q70 0 117 -36.5t47 -98.5q0 -69 -56.5 -108.5t-148.5 -63.5l-1 -4q179 -23 179 -153q0 -90 -80.5 -146.5t-191.5 -56.5q-58 0 -112 20.5t-77 43.5q10 22 31.5 56.5t35.5 49.5l10 3q10 -35 18 -133q27 -9 64 -9 q76 0 127.5 51t51.5 127q0 57 -31 91t-73 36q-48 -11 -84 -15l-5 7q4 10 16.5 25t23.5 21q12 0 32.5 -2.5t24.5 -2.5q62 20 94.5 60.5t32.5 90.5q-1 52 -27.5 81t-74.5 29q-33 0 -53 -12q-35 -104 -51 -129z" unicode="3"/>
<glyph glyph-name="four" d="M285 238l107 354h-3q-179 -190 -304 -349q73 -5 200 -5zM380 207l-39 -165l78 -32l-5 -12q-24 0 -71 1t-70 1q-25 0 -75 -1t-74 -1l5 12l97 32q21 57 49 161l-246 -2l-13 22q55 75 202 232t175 177q25 14 109 22l-112 -417h49q40 41 69 59l8 -2q-4 -18 -25.5 -73.5 t-30.5 -69.5l-9 -2q-11 21 -19 60z" unicode="4"/>
<glyph glyph-name="five" d="M104 349l-5 12q4 14 102 282q95 -3 190 -3h39q22 0 86 28l6 -11q-10 -18 -34 -47t-44 -44q-17 -12 -50 -14q-52 -5 -187 -5q-1 -3 -21 -51t-34 -82q48 -11 123 -36q98 -32 139.5 -74t41.5 -110q0 -86 -75 -146.5t-183 -60.5q-54 0 -107.5 22t-71.5 44q9 22 31.5 57.5 t36.5 48.5l10 1l18 -132q25 -9 66 -9q70 0 117 44.5t47 107.5q0 47 -31.5 78.5t-102.5 60.5l-57 21t-50 18z" unicode="5"/>
<glyph glyph-name="six" d="M240 11h1q52 0 90 67t37 137q0 63 -26 92t-63 29q-26 0 -57.5 -13t-53.5 -37q-16 -41 -16 -112q0 -77 24 -120t64 -43zM531 663l8 -19q-113 -27 -195 -86q-129 -90 -169 -236l2 -1q86 64 157 64q61 0 104.5 -42.5t43.5 -122.5q0 -95 -68.5 -164t-176.5 -69q-90 0 -143 59 t-53 161q0 92 44.5 182.5t138.5 161.5q67 51 151.5 80.5t155.5 31.5z" unicode="6"/>
<glyph glyph-name="seven" d="M83 -15l-5 8q24 46 188 245q141 165 249 311l1 2q-66 3 -155 3q-119 0 -167 -4q-14 -23 -31.5 -49.5t-18.5 -28.5l-14 -4q11 132 24 178q54 -5 62 -5q266 0 374 2l-9 -37q-15 -42 -191 -281t-189 -271l-16 -54z" unicode="7"/>
<glyph glyph-name="eight" d="M238 11h1q51 0 83 36.5t32 90.5q0 41 -30.5 77.5t-98.5 88.5q-100 -66 -100 -160q0 -58 31.5 -95.5t81.5 -37.5zM316 630h-1q-45 0 -75.5 -36t-30.5 -81q0 -42 27.5 -75t86.5 -76q85 55 85 149q0 49 -24.5 84t-67.5 35zM344 348v-2q64 -54 83 -80q31 -42 31 -94 q0 -74 -63.5 -129.5t-168.5 -55.5q-88 0 -143.5 47t-55.5 108q0 56 39.5 93.5t136.5 83.5v2q-87 67 -87 148q0 80 61 132.5t146 52.5q75 0 123 -41.5t48 -103.5q0 -37 -23.5 -68.5t-44.5 -45t-70 -40.5q-8 -5 -12 -7z" unicode="8"/>
<glyph glyph-name="nine" d="M333 630h-1q-53 0 -89 -61.5t-36 -136.5q0 -63 28 -95.5t66 -32.5q62 0 95 34q20 62 20 139q0 153 -83 153zM336 654h1q87 0 137 -59.5t50 -162.5q0 -200 -184 -343q-117 -89 -275 -111l-9 18q91 30 173 93q54 41 96 98.5t64 115.5l-1 2q-68 -50 -134 -50q-65 0 -113 42 t-48 127q0 91 71 160.5t172 69.5z" unicode="9"/>
<glyph glyph-name="colon" horiz-adv-x="220" unicode=":" d="M156 428h5q11 -8 26 -34t19 -42l-1 -6q-7 -15 -34.5 -40t-42.5 -31h-7q-13 11 -28 35t-21 44l1 3q35 50 83 71zM87 135h6q11 -8 26 -34t18 -41v-7q-7 -15 -35.5 -39.5t-42.5 -30.5h-6q-13 10 -28 34t-22 45l2 3q32 47 82 70z"/>
<glyph glyph-name="semicolon" horiz-adv-x="220" unicode=";" d="M-33 -122l-13 16q42 27 70 65.5t28 78.5q0 22 -9 38l-37 24l1 10l83 53h13q11 -6 22.5 -28.5t11.5 -52.5q0 -67 -45.5 -119.5t-124.5 -84.5zM152 427h6q11 -8 26 -33.5t19 -41.5v-7q-8 -15 -36.5 -40t-42.5 -30h-6q-12 10 -27.5 34.5t-21.5 44.5v3q36 48 83 70z"/>
<glyph glyph-name="less" horiz-adv-x="576" unicode="&lt;" d="M58 195l5 55l406 201l-6 -60l-347 -168v-3l353 -170l-6 -57z"/>
<glyph glyph-name="equal" horiz-adv-x="580" unicode="=" d="M503 340l-10 -48h-411l11 48h410zM503 174l-10 -48h-411l11 48h410z"/>
<glyph glyph-name="greater" horiz-adv-x="576" unicode="&gt;" d="M513 250l-5 -55l-405 -202l6 61l342 168v3l-348 167l6 59z"/>
<glyph glyph-name="question" horiz-adv-x="414" unicode="?" d="M177 133h6q10 -7 25 -33t18 -41v-7q-8 -15 -36 -39.5t-42 -29.5h-6q-12 10 -27.5 34t-21.5 44l1 3q19 26 43 44.5t40 24.5zM173 479l-9 -4q-26 44 -29 103q38 26 84.5 43t84.5 17q62 0 104 -35t42 -97q0 -44 -26 -76t-76 -66q-119 -80 -125 -109q-2 -14 -2 -19 q0 -12 5 -30l-12 -8q-23 4 -47.5 34t-24.5 68q0 11 1 17q25 38 117 107q6 5 20 15.5t20.5 15.5t17.5 14t16 16t11 16t8.5 18t2.5 19q0 29 -21 50t-59 21q-23 0 -41 -8q-35 -85 -62 -122z"/>
<glyph glyph-name="at" horiz-adv-x="792" unicode="@" d="M618 394l3 -6l-30 -50q-32 -99 -76 -269q-4 -16 5 -16q77 0 133 62.5t56 163.5q0 113 -72.5 179t-185.5 66q-104 0 -182.5 -50.5t-117.5 -131t-39 -177.5q0 -140 81.5 -218.5t204.5 -78.5q167 0 286 122l13 -18q-134 -148 -323 -148q-146 0 -238 90t-92 243 q0 170 119 283t295 113q135 0 217 -73t82 -197q0 -115 -82 -189.5t-202 -74.5h-9q-29 0 -43 6q5 16 23.5 74.5t26.5 84.5h-4q-50 -74 -108.5 -119.5t-101.5 -45.5q-24 0 -38 20t-14 54q0 58 36.5 127.5t101.5 114.5q70 49 127 49q38 0 56 -21l8 19zM483 353h-1 q-37 0 -81 -43q-42 -41 -74 -103t-32 -111q0 -25 14 -25q18 0 58 32t81 92q45 63 69 144q-13 14 -34 14z"/>
<glyph glyph-name="A" horiz-adv-x="681" unicode="A" d="M398 553h-2q-103 -168 -168 -273q23 0 97.5 -2t90.5 -2q-17 266 -18 277zM396 635l106 49l3 -7q-8 -21 -8 -51q0 -3 0.5 -10.5t0.5 -11.5q14 -198 47 -522q6 -27 19 -37.5t64 -34.5l-4 -12q-21 0 -64.5 1t-66.5 1q-19 0 -57.5 -1t-57.5 -1l3 11l51 32q0 16 -2.5 45t-6 75 t-5.5 82q-52 -9 -152 -9q-9 0 -30.5 0.5t-34.5 0.5q-31 -50 -113 -187l86 -38l-4 -12q-18 0 -57.5 1t-59.5 1q-17 0 -53 -1t-54 -1l5 12l76 38q47 61 360 544q9 14 9 29v14z"/>
<glyph glyph-name="B" horiz-adv-x="618" unicode="B" d="M260 333q-66 -250 -79 -308q138 2 195 42q74 51 74 139q0 63 -41 95t-145 32h-4zM339 641l-72 -283q106 1 164 42.5t58 121.5q0 59 -37 89t-98 30h-15zM143 644l5 12q154 11 217 11q119 0 180.5 -33.5t61.5 -113.5q0 -72 -61 -115t-157 -53l-1 -5q188 -28 188 -154 q0 -97 -92.5 -146t-246.5 -49h-14q-41 1 -126 1.5t-126 1.5l5 12l87 36q14 28 71 239l92 334z"/>
<glyph glyph-name="C" horiz-adv-x="665" unicode="C" d="M634 153l5 -14q-50 -85 -89 -121q-91 -37 -178 -37q-138 0 -222 76.5t-84 216.5q0 107 55 199t155 148t221 56q48 0 86.5 -13t56.5 -29q42 20 80 26l4 -6q-36 -98 -73 -164l-9 -3q-11 69 -14 124q-37 26 -108 26q-77 0 -141 -32t-104.5 -84t-63 -115t-22.5 -128 q0 -121 59.5 -188.5t167.5 -67.5q37 0 56 5q86 73 162 125z"/>
<glyph glyph-name="D" horiz-adv-x="723" unicode="D" d="M340 638l-78 -293q-78 -288 -82 -321q155 0 255 62q82 50 122.5 136t40.5 183q0 91 -47 150q-67 83 -211 83zM143 645l7 11q132 11 229 11q166 0 254 -72t88 -211q0 -137 -87 -234.5t-227 -132.5q-80 -20 -228 -20q-9 0 -29 0.5t-31 0.5q-114 2 -148 2l4 12l86 35 q7 9 88 298l78 277z"/>
<glyph glyph-name="E" horiz-adv-x="573" unicode="E" d="M139 650l6 11q21 0 62.5 -1t61.5 -1h248q57 9 83 9h4l3 -4q-21 -86 -49 -149l-9 -4q-12 30 -34 118l-179 -10l-69 -258q145 0 242 11l4 -10q-5 -7 -34 -28t-33 -21q-5 0 -93 5t-97 5q-31 -107 -74 -281l211 -13q112 107 135 125l9 -3q-35 -101 -65 -153q-86 3 -207 3 h-160q-23 0 -71 -1.5t-71 -1.5l6 12l92 39q9 17 88 294l75 270z"/>
<glyph glyph-name="F" horiz-adv-x="532" unicode="F" d="M145 649l7 12q20 0 60.5 -1t61.5 -1h255q49 9 85 9h4l4 -5q-15 -65 -53 -155l-9 -4q-29 110 -32 126l-191 -10l-75 -276q150 0 250 10l3 -9q-5 -7 -32.5 -28t-32.5 -21q-1 0 -85.5 4.5t-107.5 4.5h-5q-61 -217 -65 -256l108 -39l-5 -12q-28 0 -85 1t-86 1q-24 0 -71 -1 t-70 -1l5 12l80 38q9 16 85 294l76 270z"/>
<glyph glyph-name="G" horiz-adv-x="715" unicode="G" d="M561 -19h-3q-52 11 -65 37q-52 -35 -140 -35q-129 0 -207.5 77.5t-78.5 205.5q0 173 121 291.5t312 118.5q47 0 86 -13t59 -32q37 18 88 28l3 -6q-6 -22 -34 -83t-43 -86l-9 -3q-9 43 -15 126q-40 31 -119 31q-77 0 -140.5 -33t-102.5 -86t-60.5 -116.5t-21.5 -128.5 q0 -115 57 -182t157 -67q45 0 88 18q5 17 70 220l-197 6l1 8l47 25q103 9 286 9q-16 -56 -70.5 -184t-68.5 -146z"/>
<glyph glyph-name="H" horiz-adv-x="744" unicode="H" d="M147 649l5 12q20 0 61.5 -1t62.5 -1q19 0 57.5 1t57.5 1l-3 -12l-57 -38l-64 -238h293l65 238l-42 39l6 11q14 0 42 -1t42 -1q26 0 76.5 1t75.5 1l-5 -12l-83 -38q-20 -64 -74 -270q-72 -270 -70 -292l80 -38l-7 -13q-23 0 -69 1.5t-70 1.5q-19 0 -58.5 -1.5t-59.5 -1.5 l5 12l56 39q17 56 81 293q-58 -10 -142 -10h-152q-41 -144 -74 -283l47 -39l-5 -12q-19 0 -55 1.5t-55 1.5q-24 0 -72 -1.5t-71 -1.5l6 12l81 39q7 10 36.5 107.5t54.5 191.5l71 263z"/>
<glyph glyph-name="I" horiz-adv-x="341" unicode="I" d="M150 649l5 12q21 0 61 -1t60 -1q24 0 72.5 1t72.5 1l-4 -12l-83 -38l-73 -267q-74 -271 -76 -296l81 -38l-5 -12q-23 0 -71 1t-72 1q-25 0 -74.5 -1t-74.5 -1l5 12l87 38q7 14 88 296l76 267z"/>
<glyph glyph-name="J" horiz-adv-x="321" unicode="J" d="M131 649l6 12q22 0 68 -1t72 -1t73.5 1t71.5 1l-5 -13l-86 -38q-30 -115 -125 -464q-23 -84 -51 -129q-66 -109 -210 -159l-18 14l3 7q41 16 80 58q38 43 74 167q7 26 72 278q56 214 60 228z"/>
<glyph glyph-name="K" horiz-adv-x="659" unicode="K" d="M149 649l5 12q23 0 66.5 -1t65.5 -1t67 1t68 1l-4 -12l-83 -37l-73 -268q-74 -275 -76 -296l80 -38l-4 -12q-25 0 -75.5 1t-75.5 1q-24 0 -70 -1t-70 -1l5 12l86 38q11 21 88 296l75 268zM771 659l-5 -13q-40 -19 -117 -37q-14 -3 -31 -18q-73 -59 -244 -211v-3 q72 -131 153 -258q15 -24 83 -126l-7 -7q-72 2 -110 22t-70 67q-85 121 -150 251l2 5q215 193 301 284q-14 25 -17 47q24 1 69 1q51 0 143 -4z"/>
<glyph glyph-name="L" horiz-adv-x="546" unicode="L" d="M146 649l6 12q23 0 67 -1t66 -1q23 0 69 1t70 1l-4 -12l-85 -37l-73 -266q-74 -263 -80 -305l181 -13q114 114 141 137l10 -4q-33 -95 -68 -164q-8 0 -45 0.5t-110.5 1.5t-169.5 1q-26 0 -76.5 -1t-72.5 -1l3 12l88 38q9 24 85 297l75 267z"/>
<glyph glyph-name="M" horiz-adv-x="920" unicode="M" d="M182 647l6 12q31 0 94 0.5t95 0.5q-5 -19 -5 -33q0 -3 0.5 -8t0.5 -7q3 -19 14 -77.5t29.5 -159t34.5 -190.5h2q163 237 290 430q6 12 9 45q137 0 204 -1l-5 -14l-94 -31q-17 -79 -48.5 -303.5t-34.5 -265.5l84 -35l-5 -12q-23 0 -69 1t-69 1q-24 0 -71.5 -1t-70.5 -1 l6 12l75 35q18 96 50 273.5t46 254.5h-3q-23 -37 -144 -228.5t-217 -351.5l-21 -6q-36 259 -77 543h-1q-11 -28 -52 -130t-75.5 -191.5t-58.5 -159.5l89 -39l-6 -12q-20 0 -61 1t-61 1q-18 0 -53.5 -1t-53.5 -1l5 12l81 38q94 187 235 530q-4 30 -18 39.5t-76 29.5z"/>
<glyph glyph-name="N" horiz-adv-x="724" unicode="N" d="M200 10l-5 -12q-18 0 -56 1t-57 1q-18 0 -55 -1t-56 -1l4 12l89 44q29 62 162 506q-22 45 -39.5 58t-66.5 28l7 12q82 5 174 5q2 -11 24 -62q191 -403 228 -486h2q14 46 64.5 243t61.5 250l-79 41l7 12q17 0 51.5 -1t52.5 -1q19 0 56 1t55 1l-5 -14l-85 -39 q-36 -87 -161 -548l61 -52l-3 -8l-144 -11q-45 92 -241 528h-2q-107 -373 -122 -464z"/>
<glyph glyph-name="O" horiz-adv-x="733" unicode="O" d="M463 650h-1q-75 0 -140.5 -67.5t-100.5 -162t-35 -183.5q0 -112 39.5 -170t111.5 -58q75 0 138.5 71.5t96.5 170t33 189.5q0 103 -38.5 156.5t-103.5 53.5zM464 676h1q47 0 91 -16t83 -49.5t63.5 -93t24.5 -137.5q0 -68 -25 -136.5t-71.5 -127.5t-124.5 -96t-174 -37 q-109 0 -188.5 73t-79.5 212q0 75 29.5 148t80.5 131t127 93.5t163 35.5z"/>
<glyph glyph-name="P" horiz-adv-x="572" unicode="P" d="M140 641l9 13q130 13 211 13q248 0 248 -188q0 -100 -79 -159.5t-188 -59.5q-29 0 -56 10v13q91 6 147.5 63t56.5 148q0 73 -41 108.5t-110 35.5l-72 -282q-77 -295 -78 -307l99 -39l-6 -12q-25 0 -77.5 1t-78.5 1q-25 0 -74.5 -1t-75.5 -1l5 12l83 39q7 16 88 304 l74 265z"/>
<glyph glyph-name="Q" horiz-adv-x="732" unicode="Q" d="M464 650h-1q-61 0 -115 -42.5t-88 -106.5t-54 -135.5t-20 -133.5q0 -193 142 -231q83 7 148.5 82t96.5 171t31 185q0 211 -140 211zM697 -172l-7 -10q-21 -3 -41 -3q-84 0 -166 38q-56 25 -199 116q-24 16 -46 25q-174 74 -174 269q0 77 29 151.5t80 132.5t126.5 93.5 t162.5 35.5q47 0 92 -17t84.5 -50t63.5 -90t24 -129q0 -154 -84 -254.5t-220 -136.5v-2q187 -112 275 -169z"/>
<glyph glyph-name="R" horiz-adv-x="605" unicode="R" d="M141 635l6 13q112 19 228 19q231 0 231 -157q0 -77 -54.5 -122t-147.5 -72l-1 -2q22 -57 109 -227q14 -26 25 -46.5t18 -33t9 -16.5l-5 -6q-61 2 -96 21t-59 56q-56 85 -120 237l4 7q97 20 149 66.5t52 129.5q0 135 -152 135l-84 -317q-65 -248 -69 -269l88 -41l-6 -12 q-24 0 -73.5 1t-74.5 1q-24 0 -72.5 -1t-72.5 -1l5 12l82 39q20 52 81 270l86 298z"/>
<glyph glyph-name="S" horiz-adv-x="497" unicode="S" d="M328 676h1q76 0 120 -42q33 22 78 34l5 -5q-8 -28 -30.5 -85.5t-33.5 -74.5l-10 -5q-15 53 -18 109q-7 11 -33 22t-62 11q-57 0 -92.5 -35t-35.5 -84q0 -52 44 -92q14 -12 53.5 -45t67.5 -58q76 -67 76 -145q0 -88 -68.5 -143t-174.5 -55q-64 0 -125 26.5t-89 58.5 q2 15 28.5 66t45.5 76l11 2q0 -2 9 -175q35 -19 102 -19q71 0 109.5 36.5t38.5 88.5q0 57 -48 99q-18 17 -56 50t-55 49q-71 64 -71 144q0 85 62 138t151 53z"/>
<glyph glyph-name="T" horiz-adv-x="642" unicode="T" d="M230 659h416q53 12 89 12l5 -3q-27 -70 -80 -167l-10 -3q-9 107 -11 132l-153 -8l-68 -257q-47 -178 -80 -316l112 -37l-7 -14q-29 0 -86.5 1.5t-86.5 1.5t-85.5 -1.5t-84.5 -1.5l6 12l108 39q9 25 83 284l81 289l-149 8q-56 -72 -108 -128l-12 -3q25 109 47 170l4 3 q29 0 70 -13z"/>
<glyph glyph-name="U" horiz-adv-x="744" unicode="U" d="M218 610l-73 39l5 12q16 0 59 -1t61 -1q16 0 53 1t54 1l-4 -12l-48 -42q-8 -21 -63.5 -210t-63.5 -240q-4 -20 -4 -38q0 -75 77 -75q68 0 133.5 38t95.5 76l137 454l-44 37l6 12q28 -2 110 -2q45 0 123 2l-7 -12l-81 -39q-16 -46 -85.5 -293t-70.5 -264l91 -22l-8 -14 q-17 -3 -102 -15t-113 -18l-4 2l40 126h-2q-141 -129 -273 -129q-68 0 -104 29q-39 29 -39 93q0 38 14 87q20 69 130 418z"/>
<glyph glyph-name="V" horiz-adv-x="662" unicode="V" d="M114 649l7 12q20 0 61 -1t62 -1q31 0 95 2l-4 -11l-34 -41q3 -64 43 -484h1q184 282 299 486l-23 39l5 11q10 0 33 -1t34 -1q16 0 49.5 1t50.5 1l-5 -12q-79 -40 -94 -54q-33 -41 -155 -226.5t-214 -330.5q-30 -36 -62 -57h-12q-7 82 -64 617q-5 10 -18 19t-55 32z"/>
<glyph glyph-name="W" horiz-adv-x="946" unicode="W" d="M114 650l6 11q19 0 59.5 -1t60.5 -1q15 0 43.5 1t42.5 1l-3 -11l-25 -39q5 -70 65 -486h1q43 62 142 214q-18 133 -42 257q-11 23 -66 53l6 12q19 0 55.5 -1t54.5 -1q12 0 35 1t34 1l1 -3l-10 -46q3 -41 24 -171h2q76 119 101 169l13 48l3 3q6 0 24.5 -1t26.5 -1 q13 0 43 1t44 1l-5 -12q-88 -44 -101 -55q-37 -43 -143 -197q2 -10 7 -43.5t14.5 -97.5t18.5 -123h3q132 213 276 472l-12 45l5 11q10 0 31 -1t32 -1q16 0 48 1t48 1l-5 -12q-79 -41 -97 -57q-46 -56 -342 -541q-14 -22 -62 -70h-10q-3 16 -18.5 127.5t-27.5 183.5h-2 q-27 -40 -81 -119t-83 -123q-29 -37 -66 -69h-9q-2 15 -38.5 277t-49.5 338q-6 13 -18.5 22.5t-53.5 31.5z"/>
<glyph glyph-name="X" horiz-adv-x="650" unicode="X" d="M114 649l5 12q22 0 65 -1t64 -1q16 0 48 1t48 1l-3 -12l-23 -38q16 -50 39.5 -116.5t29.5 -84.5h3q88 102 160 204l-19 35l5 12q8 0 31.5 -1t35.5 -1q16 0 53 1t57 1l-5 -12l-104 -44q-51 -50 -205 -229q17 -50 115 -323l94 -43l-6 -12q-25 0 -73.5 1t-72.5 1 q-15 0 -44.5 -1t-43.5 -1l26 51q-5 30 -78 241h-2q-127 -156 -195 -243l40 -37l-5 -12q-13 0 -40.5 1t-41.5 1q-76 0 -114 -2l6 12l95 45q51 47 245 271q-58 170 -103 283z"/>
<glyph glyph-name="Y" horiz-adv-x="608" unicode="Y" d="M107 649l7 12q19 0 58.5 -1.5t59.5 -1.5q16 0 49.5 1.5t48.5 1.5l-5 -13l-29 -29q2 -12 13 -46.5t30.5 -100t38.5 -132.5l3 -2q123 155 204 277l-30 34l7 12q8 0 33.5 -1.5t37.5 -1.5q18 0 53.5 1.5t54.5 1.5l-6 -12l-93 -41q-81 -86 -235 -286q-17 -22 -22 -44 q-60 -225 -60 -232l103 -36l-6 -12q-27 0 -81 1t-82 1q-27 0 -81 -1t-82 -1l5 12l101 35q24 53 73 233q3 13 3 22q0 11 -3 23q-28 98 -90 279q-9 10 -78 47z"/>
<glyph glyph-name="Z" horiz-adv-x="614" unicode="Z" d="M657 659l-1 -16q-376 -442 -512 -605l1 -2q142 0 302 -8q126 129 138 140l9 -3q-28 -95 -63 -169q-9 0 -205 2t-344 2l-7 12q371 428 529 612v2h-277q-39 -56 -95 -124l-12 -4q28 159 33 174l5 3q11 -2 27 -5.5t30 -6.5t17 -4h425z"/>
<glyph glyph-name="bracketleft" horiz-adv-x="306" unicode="[" d="M292 667l-216 -792l97 -26l-7 -15h-172l237 875h172l-8 -16z"/>
<glyph glyph-name="backslash" horiz-adv-x="438" unicode="\" d="M348 -38h-47l-148 714h46z"/>
<glyph glyph-name="bracketright" horiz-adv-x="306" unicode="]" d="M48 -125l214 793l-96 27l7 14h171l-237 -875h-171l7 14z"/>
<glyph glyph-name="asciicircum" horiz-adv-x="493" unicode="^" d="M458 293l-60 -8l-129 298l-123 -290l-62 -8l160 358l52 1z"/>
<glyph glyph-name="underscore" horiz-adv-x="483" unicode="_" d="M424 -101v-48h-483v48h483z"/>
<glyph glyph-name="grave" horiz-adv-x="386" unicode="`" d="M305 509l-17 -12l-111 156l3 9q25 14 70 14h10z"/>
<glyph glyph-name="a" horiz-adv-x="531" unicode="a" d="M134 45h1q25 0 69.5 38.5t98.5 123.5q45 71 80 189q-13 9 -34 9q-60 0 -121 -67q-50 -54 -81.5 -127.5t-31.5 -126.5q0 -39 19 -39zM402 443l117 12v-5l-40 -51q-62 -187 -97 -351l2 -1q59 19 115 96l5 -4q-4 -58 -60 -105t-139 -47q-8 0 -32 3q6 25 27 100t29 103h-3 q-141 -206 -250 -206q-32 0 -50 26.5t-18 71.5q0 71 42 154t120 142q78 58 160 58q36 0 64 -20z"/>
<glyph glyph-name="b" horiz-adv-x="513" unicode="b" d="M176 12h1q54 0 104.5 56.5t78.5 131t28 134.5v7q-2 58 -29 58q-42 0 -121 -93q-41 -48 -73 -125t-32 -127q0 -42 43 -42zM127 662l4 10q31 11 93.5 21.5t87.5 10.5l4 -2q-5 -18 -21 -69.5t-46.5 -148.5t-61.5 -199h3q125 165 224 165q37 0 60.5 -32t23.5 -82 q0 -143 -100.5 -246t-224.5 -103q-35 0 -80.5 18.5t-72.5 35.5q28 99 91 321.5t80 284.5z"/>
<glyph glyph-name="c" horiz-adv-x="403" unicode="c" d="M365 129l6 -21q-83 -121 -212 -121q-72 0 -105 43.5t-33 107.5q0 132 104 229q90 83 194 83q69 0 90 -26q-2 -14 -19.5 -54t-30.5 -57l-11 -4q-19 42 -32 114q-4 2 -12 2q-48 0 -95 -57q-37 -44 -56 -103.5t-19 -115.5q0 -52 20 -80t56 -28q45 0 87 29t67 60z"/>
<glyph glyph-name="d" horiz-adv-x="543" unicode="d" d="M329 412h-1q-49 0 -98.5 -56.5t-79 -131t-29.5 -131.5q0 -47 24 -47t68 38t95 119q40 63 75 181q-17 28 -54 28zM385 662l6 11q29 12 86 21.5t104 10.5l2 -2q-134 -407 -189 -655l2 -1q62 27 114 98l6 -5q-6 -57 -62 -105t-131 -48q-24 0 -42 4q30 103 58 205h-3 q-140 -209 -252 -209q-33 0 -53 30t-20 78q0 79 42 161.5t113.5 138t147.5 55.5q50 0 79 -38q66 231 67 235z"/>
<glyph glyph-name="e" horiz-adv-x="419" unicode="e" d="M292 426h-1q-35 0 -78 -59.5t-65 -142.5q128 27 154 67q22 32 22 81q0 54 -32 54zM382 136l4 -23q-40 -59 -98.5 -92.5t-118.5 -33.5q-62 0 -103 35t-43 112v5q0 67 33 137t99.5 122t147.5 52q54 0 84 -28.5t32 -71.5q0 -33 -20 -55q-21 -32 -103.5 -58.5t-152.5 -37.5 q-8 -37 -8 -63v-9q1 -38 18.5 -63.5t55.5 -25.5q45 0 93.5 30.5t77.5 67.5h2z"/>
<glyph glyph-name="f" horiz-adv-x="279" unicode="f" d="M59 435h71q41 146 125 215q64 55 139 55q62 0 87 -28q-22 -57 -58 -95l-10 -3q-13 37 -21 99q-4 2 -13 2q-85 0 -138 -247h109l-13 -23l-105 -14q-79 -315 -80 -317q-29 -103 -58.5 -158t-79.5 -95q-75 -60 -132 -60q-26 0 -48.5 11.5t-32.5 29.5l42 61l9 1 q19 -25 43 -41.5t43 -16.5q23 0 39 23t36 103q36 145 108 461l-76 16z"/>
<glyph glyph-name="g" horiz-adv-x="421" unicode="g" d="M184 -200h2q48 0 74.5 19.5t26.5 45.5t-47 50q-24 13 -149 67q-76 -42 -75 -76q0 -37 48 -71.5t120 -34.5zM261 426h-1q-41 0 -80 -80t-39 -156q0 -56 35 -56q45 0 81.5 84.5t36.5 145.5q0 62 -33 62zM480 464l-40 -65l-72 -4l-1 -2q21 -28 21 -79q0 -77 -58.5 -140 t-152.5 -63q-31 0 -51 9q-14 -10 -12 -24q2 -16 48 -37q83 -34 144 -63q72 -34 72 -79q0 -43 -42 -79.5t-95.5 -54t-97.5 -17.5q-60 0 -105 15.5t-67 38t-32.5 42.5t-10.5 36q0 17 15 27q50 37 131 69v2q-33 25 -33 61q0 14 21.5 36t44.5 36q-59 39 -59 118q0 78 63 140.5 t150 62.5h10q18 -2 50 -7q11 -2 27 -5.5t27 -6t20 -3.5l81 44z"/>
<glyph glyph-name="h" horiz-adv-x="531" unicode="h" d="M109 0l-106 -8q75 255 99 341q74 267 84 314l-67 15l6 10q28 11 93 21.5t91 10.5l3 -2q-46 -143 -151 -503h2q50 78 114 142t113 89q42 20 85 20q16 0 22.5 -3.5t6.5 -14.5q0 -10 -6 -30q-86 -274 -95 -338l89 2l-6 -15q-21 -8 -107 -35.5t-103 -34.5l-6 6q3 17 58 189.5 t61 194.5q4 16 -6 16q-25 0 -86.5 -61t-108.5 -141q-37 -62 -79 -185z"/>
<glyph glyph-name="i" horiz-adv-x="296" unicode="i" d="M135 379l-65 12l5 11q25 14 87 30t93 18l3 -3q-112 -355 -127 -417l1 -1q44 12 129 112l3 -8q-9 -49 -55 -97.5t-119 -48.5q-54 0 -54 57q0 22 9 53q24 80 90 282zM248 664h6q8 -7 19.5 -30.5t12.5 -37.5l-2 -5q-7 -14 -32.5 -36t-38.5 -27h-5q-10 8 -21.5 29.5 t-15.5 40.5l2 3q31 43 75 63z"/>
<glyph glyph-name="j" horiz-adv-x="262" unicode="j" d="M239 664h6q9 -7 19.5 -30t12.5 -38l-1 -5q-8 -14 -33 -35.5t-38 -27.5h-6q-10 8 -21 30t-15 40l1 3q31 43 75 63zM131 391l-69 15l6 12q27 10 89 21t93 11l2 -2q-43 -179 -101 -378q-33 -116 -72 -168q-45 -59 -92.5 -92.5t-80.5 -44.5l-13 16q27 18 44 33t43.5 63.5 t47.5 123.5q61 228 103 390z"/>
<glyph glyph-name="k" horiz-adv-x="475" unicode="k" d="M192 647l-65 15l5 11q29 11 93.5 21.5t89.5 10.5l3 -2q-58 -177 -208 -698q-11 -2 -110 -11q109 343 192 653zM522 437l-10 -15q-88 -22 -112 -32q-45 -31 -116 -100l-1 -2q11 -23 74 -141t84 -161l-5 -5q-59 3 -92.5 19t-64.5 68q-27 44 -55.5 98t-31.5 67l1 5 q93 89 149 150q14 16 18 24t12 38q3 1 15 1q27 0 75.5 -5.5t59.5 -8.5z"/>
<glyph glyph-name="l" horiz-adv-x="286" unicode="l" d="M195 647l-64 15l3 11q28 11 92 21.5t91 10.5l3 -2q-51 -156 -105 -342q-61 -207 -94 -330l1 -2q25 7 64.5 46t65.5 74l5 -7q-5 -51 -54 -103t-119 -52q-58 0 -58 59q0 19 8 49q41 152 161 552z"/>
<glyph glyph-name="m" horiz-adv-x="817" unicode="m" d="M124 0l-106 -8q20 54 65.5 212.5t46.5 177.5l-73 10l3 11q25 11 94 28.5t91 18.5l3 -3q-17 -74 -75 -250h3q51 85 112.5 147t113.5 86q40 20 99 20q14 0 14 -11q0 -10 -9 -43q-36 -123 -60 -197l3 -1q52 82 112 144t114 87q40 21 101 21q17 0 17 -11q0 -10 -9 -37 q-87 -289 -95 -339l90 3l-6 -15q-22 -8 -71 -23.5t-88 -28t-52 -18.5l-6 7q4 16 58.5 187t61.5 197q4 16 -4 16q-28 0 -89 -59.5t-111 -145.5q-36 -61 -77 -183l-106 -8q100 307 111 380q3 16 -5 16q-27 0 -86 -58t-110 -147q-33 -59 -75 -183z"/>
<glyph glyph-name="n" horiz-adv-x="545" unicode="n" d="M123 0l-106 -8q21 55 66.5 214t45.5 177l-72 9l4 11q21 11 91.5 28.5t93.5 19.5l3 -3q-4 -20 -76 -254h2q54 85 114.5 147.5t113.5 88.5q44 20 96 20q22 0 22 -12q0 -7 -8 -36q-88 -287 -95 -339l89 3l-6 -15q-20 -7 -107 -35t-103 -35l-7 7q4 16 58.5 187t61.5 197 q5 16 -4 16q-29 0 -87 -58t-106 -138q-49 -80 -84 -192z"/>
<glyph glyph-name="o" horiz-adv-x="480" unicode="o" d="M292 426h-1q-35 0 -72 -49.5t-60 -123.5t-23 -141q0 -101 54 -101q36 0 72.5 50.5t58.5 124t22 140.5q0 100 -51 100zM302 450h1q67 0 108.5 -47.5t41.5 -125.5q0 -116 -80 -203t-194 -87q-64 0 -108 46t-44 123q0 117 83.5 205.5t191.5 88.5z"/>
<glyph glyph-name="p" horiz-adv-x="530" unicode="p" d="M194 13h1q52 0 101.5 57.5t77.5 133.5t28 137q0 52 -25 52q-22 0 -58.5 -31t-80.5 -95q-65 -92 -93 -208q6 -21 19.5 -33.5t29.5 -12.5zM132 383l-73 9l5 11q21 12 90 31t94 21l2 -3l-66 -213h2q52 78 103.5 128t86.5 66.5t64 16.5q37 0 57 -30t20 -79q0 -95 -47.5 -178 t-118.5 -129.5t-143 -46.5q-45 0 -76 25q-16 -50 -47 -176l75 -31l-6 -12q-203 -11 -252 -11l4 12l67 37q14 36 65 216q55 192 94 336z"/>
<glyph glyph-name="q" horiz-adv-x="508" unicode="q" d="M329 414h-1q-46 0 -96.5 -60.5t-82 -139t-31.5 -133.5q0 -41 21 -41q25 0 70.5 38.5t88.5 97.5q29 41 46 79.5t42 122.5q-24 36 -57 36zM148 -219l1 10q19 13 71 38q13 32 111 346h-2q-143 -188 -247 -188q-30 0 -50.5 25.5t-20.5 78.5q0 66 29 133t73 115.5t98.5 79.5 t103.5 31q54 0 79 -47h2l9 24q46 11 117 23l2 -8l-36 -52q-21 -55 -73.5 -243t-84.5 -317l81 -28l-5 -12q-104 -9 -258 -9z"/>
<glyph glyph-name="r" horiz-adv-x="384" unicode="r" d="M53 392v11q24 12 79.5 28.5t80.5 18.5l3 -1v-12q0 -65 -25 -169h2q101 182 194 182q25 0 35 -12q-1 -21 -20.5 -67t-33.5 -64l-8 -4q-11 22 -29 83q-2 1 -7 1q-8 0 -18.5 -7t-26.5 -24t-37.5 -54.5t-44.5 -89.5q-21 -49 -69 -212l-107 -8q40 125 70 238.5t33 148.5z"/>
<glyph glyph-name="s" horiz-adv-x="357" unicode="s" d="M242 450h1q30 0 62 -10.5t45 -24.5q-6 -21 -22.5 -52t-27.5 -44l-9 -4q-11 41 -18 103q-9 6 -35 6q-36 0 -58 -20.5t-23 -51.5q0 -13 5 -24t21.5 -27.5l22 -22t32.5 -28.5q41 -36 56.5 -63.5t15.5 -63.5q0 -49 -49 -92.5t-130 -43.5q-45 0 -86.5 16t-60.5 34 q26 59 60 105l10 4q9 -35 22 -124q20 -9 50 -9q39 0 65 21.5t26 49.5q0 24 -14.5 44t-51.5 52q-46 39 -63 68t-17 59q0 66 50.5 104.5t120.5 38.5z"/>
<glyph glyph-name="t" horiz-adv-x="323" unicode="t" d="M175 531l117 61l6 -5l-48 -151h124l-14 -24l-121 -12q-77 -256 -101 -367l1 -2q75 13 161 115l3 -11q-13 -46 -39.5 -77.5t-58 -45.5t-56 -19.5t-47.5 -5.5q-67 0 -67 53q0 15 4 31q30 121 95 329l-75 12l17 24h69z"/>
<glyph glyph-name="u" horiz-adv-x="563" unicode="u" d="M134 380l-75 12l5 10q33 13 97 28.5t96 19.5l6 -2q-26 -68 -68.5 -202.5t-51.5 -176.5q-7 -22 6 -22q34 0 91 59t105 142q41 72 78 185q71 13 120 17l3 -5l-39 -51q-26 -71 -95 -345l1 -2q62 18 114 89l5 -9q-6 -51 -58.5 -95.5t-134.5 -44.5q-23 0 -40 5q21 76 72 241 h-3q-119 -182 -212 -226q-42 -20 -80 -20q-44 0 -44 38q0 14 8 43q2 7 94 312z"/>
<glyph glyph-name="v" horiz-adv-x="451" unicode="v" d="M98 382l-62 9l3 11q22 13 85 30.5t79 17.5l2 -2q4 -168 12 -358l3 -1q37 39 73.5 90t52.5 90q26 55 26 129q0 24 -1 37q32 20 67 20h2q14 -22 14 -66q0 -36 -34 -91.5t-70 -97.5t-95 -105.5t-74 -81.5q-21 -19 -54 -27l-4 2q-3 83 -16 295q-4 71 -9 99z"/>
<glyph glyph-name="w" horiz-adv-x="681" unicode="w" d="M100 379l-68 12l1 11q25 12 90.5 30t79.5 18l2 -2q-1 -56 -1 -167.5v-168.5h2q6 10 30.5 48t53.5 85t58 99q-4 63 -4 70q14 11 50.5 23.5t57.5 12.5l2 -3q-8 -64 -8 -65q1 -73 7.5 -173.5t9.5 -112.5h3q74 85 111 169q28 64 28 154v16q26 18 66 20l2 -2q12 -22 12 -62 q0 -29 -17.5 -67.5t-53.5 -87t-60.5 -78.5t-71.5 -83t-52 -59q-28 -24 -54 -29l-3 2q-10 49 -21 295h-2q-124 -191 -181 -268q-24 -23 -52 -29l-4 1q-1 10 -2.5 121.5t-4.5 173.5q-3 84 -6 96z"/>
<glyph glyph-name="x" horiz-adv-x="483" unicode="x" d="M-18 111l9 11q37 -49 64 -69q23 9 69.5 60.5t81.5 100.5q-23 100 -45 170q-16 -7 -48 -36t-59 -64l-7 11q17 58 69 106t118 49q13 -19 50 -152h2q62 78 67 84q56 65 83 75h7q14 -11 24.5 -43t10.5 -72v-9l-10 -10q-30 54 -50 66q-12 -3 -55.5 -47t-68.5 -75 q52 -190 55 -199q3 -10 8 -10q4 0 16.5 7.5t36 31t46.5 56.5l7 -11q-17 -78 -72.5 -116.5t-121.5 -38.5h-5q-5 19 -11.5 44.5t-17 69t-20.5 81.5h-2q-15 -20 -38 -53t-38.5 -54.5t-25.5 -34.5q-45 -55 -69 -64h-10q-15 15 -31.5 58t-18.5 77z"/>
<glyph glyph-name="y" horiz-adv-x="446" unicode="y" d="M41 282l-11 13q29 80 71 117t77 38q50 -2 72 -110q18 -91 18 -230v-33h2q32 48 72 152.5t43 150.5l-27 40l1 6q47 21 82 23q13 0 13 -8q0 -17 -2.5 -33.5t-10.5 -39t-12.5 -33.5t-19 -44t-19.5 -44q-76 -177 -194 -318q-43 -53 -85.5 -92.5t-66.5 -54.5t-34 -15 q-6 0 -14.5 7t-19 28.5t-17.5 52.5l3 8q40 -2 102 -31q36 24 72 77q42 61 42 155q0 174 -39 282q-7 29 -16 29q-6 0 -31 -28t-51 -65z"/>
<glyph glyph-name="z" horiz-adv-x="427" unicode="z" d="M404 148l11 -20q-80 -145 -129 -162q-25 1 -86 30q-44 22 -79 33q-20 7 -38 7q-26 0 -44 -15q-11 -10 -33 -37h-7q-2 6 -2 12q0 23 14 48q18 35 53 57q202 191 255 249l-1 2q-28 -7 -55 -7q-13 0 -55 4q-22 2 -64 9q-16 -10 -47.5 -40t-43.5 -46l-12 17q25 51 58 99.5 t51 64.5q96 -30 178 -30q34 0 57.5 8t53.5 33l8 -19q-14 -31 -328 -336l1 -3q6 1 19 1q31 0 79 -16q15 -5 43.5 -16t40.5 -15q35 14 102 88z"/>
<glyph glyph-name="braceleft" horiz-adv-x="299" unicode="{" d="M233 337l-109 -58v-2l80 -54q-40 -113 -64 -213q-11 -44 -11 -72q0 -60 56 -102l-10 -12q-51 14 -85.5 51t-34.5 90q0 19 6 42q14 57 88 211l-78 57l6 11l104 56v35q0 111 17 175q15 57 80 107.5t118 60.5l5 -16q-55 -28 -83.5 -66t-44.5 -100q-28 -111 -40 -201z"/>
<glyph glyph-name="bar" horiz-adv-x="302" unicode="|" d="M113 724h62v-965h-62v965z"/>
<glyph glyph-name="braceright" horiz-adv-x="306" unicode="}" d="M116 225l107 55v2l-78 54q31 79 62 202q10 42 10 67q0 61 -53 100l8 15q50 -16 84.5 -55.5t34.5 -89.5q0 -18 -4 -33q-18 -73 -87 -201l77 -56l-4 -11l-104 -56q-2 -150 -20 -222q-15 -63 -78.5 -110.5t-120.5 -61.5l-6 15q56 28 84.5 67.5t45.5 104.5q30 120 42 214z "/>
<glyph glyph-name="asciitilde" horiz-adv-x="572" unicode="~" d="M531 308l18 -18q-63 -125 -153 -125q-37 0 -111 46q-3 2 -13.5 8t-13.5 8t-11.5 7t-12.5 6.5t-11 5t-11.5 5l-10.5 3.5t-11 2.5t-10 0.5q-50 0 -117 -86l-20 14q73 125 156 125q19 0 42.5 -9t37.5 -16.5t44 -25.5q59 -36 91 -36q60 0 117 85z"/>
<glyph glyph-name="uni00A0" horiz-adv-x="204" unicode=" "/>
<glyph glyph-name="exclamdown" horiz-adv-x="245" unicode="¡" d="M107 215l28 12q-51 -317 -57 -373l8 -41q-16 -12 -67.5 -25t-88.5 -13l-5 6q21 59 182 434zM143 292h-7q-10 7 -25 33t-18 41v7q7 15 35.5 39.5t42.5 29.5h6q12 -10 27.5 -34t22.5 -44l-2 -3q-31 -45 -82 -69z"/>
<glyph glyph-name="cent" d="M261 155l99 360l-2 1q-70 -17 -114 -100.5t-44 -159.5q0 -88 61 -101zM369 542l22 81l30 5l-23 -84q38 -1 65 -11t37 -20q-3 -16 -20.5 -53t-28.5 -51l-7 -2q-13 29 -24 109q-16 4 -30 4l-101 -366q52 2 95.5 30t68.5 57l7 -20q-31 -43 -78 -74.5t-106 -39.5l-24 -85 l-31 -9l26 93q-77 2 -118.5 44.5t-41.5 112.5q0 107 83 188t199 91z" unicode="¢"/>
<glyph glyph-name="sterling" d="M474 167l12 -9q-16 -48 -63 -163q-5 0 -83 2.5t-135 2.5h-216l3 15l43 46q19 5 36 20q55 45 80 230l-98 13l20 23h84l6 36q30 166 125 231q59 40 127 40q39 0 66 -12t37 -25q-5 -19 -25 -53.5t-33 -48.5l-11 -5q-12 39 -24 117q-9 3 -19 3q-92 0 -123 -198 q-6 -36 -13 -85h168l-15 -24l-159 -12q-14 -91 -52 -140.5t-105 -88.5l1 -2h45q159 0 247 5q2 2 74 82z" unicode="£"/>
<glyph glyph-name="currency" d="M507 505l-70 -59q23 -37 23 -87v-11q-3 -91 -64 -150l49 -56l-42 -39l-46 64q-46 -35 -116 -35q-64 0 -106 38l-66 -66l-26 39l69 57q-26 40 -26 92v11q2 84 62 144l-50 54l41 42l46 -66q56 42 125 42q64 0 103 -42l67 66zM297 478h-1q-65 0 -103.5 -53t-40.5 -121v-8 q0 -57 28 -90t72 -33q64 0 102 51.5t40 124.5v8q0 55 -26.5 88t-70.5 33z" unicode="¤"/>
<glyph glyph-name="yen" d="M99 345h119q-38 198 -50 258l-60 30l5 11q17 0 56 -1t55 -1q20 0 58.5 1t57.5 1l-5 -11l-57 -31l34 -243l2 -1q114 157 172 243l-64 32l6 11q10 0 40.5 -1t46.5 -1q13 0 45.5 1t49.5 1l-5 -11l-70 -35q-92 -108 -198 -253h133l-18 -27h-130l-22 -87h138l-16 -27h-130 q-39 -157 -40 -164l77 -30l-5 -12q-23 0 -68 1t-67 1q-23 0 -69 -1t-68 -1l5 12l79 29q10 20 51 165h-137l17 27h128l24 87h-137z" unicode="¥"/>
<glyph glyph-name="brokenbar" horiz-adv-x="302" unicode="¦" d="M111 -183v367h62v-367h-62zM111 667h62v-366h-62v366z"/>
<glyph glyph-name="section" horiz-adv-x="453" unicode="§" d="M137 390v-1q0 -46 35 -113q10 -18 36 -61.5t39 -68.5q37 -67 37 -107q0 -22 -4 -40h2q56 51 56 136q0 47 -31 103q-18 35 -45 83t-40 75q-18 39 -18 79q0 28 14 59l-3 1q-78 -58 -78 -145zM75 345v1q0 147 181 233q39 25 80 25q30 0 54 -15q20 12 62 22l5 -2 q-3 -16 -21.5 -57t-32.5 -60h-7q-9 28 -16 73q-13 13 -45 13q-30 -1 -50 -19.5t-20 -44.5q0 -21 12 -46q15 -36 74 -128q53 -92 53 -158q0 -133 -154 -234q-66 -46 -137 -46q-69 0 -113 35q4 14 22.5 48.5t28.5 46.5l8 2q9 -34 17 -102q16 -7 39 -7q41 0 70 22.5t29 54.5 q0 34 -30 84q-50 83 -70 122q-39 76 -39 137z"/>
<glyph glyph-name="dieresis" horiz-adv-x="386" unicode="¨" d="M401 654h6q7 -6 19 -27.5t14 -32.5l-1 -6q-6 -12 -28 -31.5t-34 -25.5h-5q-27 23 -37 64v3q31 41 66 56zM221 654h5q7 -6 19 -27.5t14 -32.5l-1 -6q-5 -12 -27 -31.5t-34 -25.5h-5q-11 9 -22.5 28t-15.5 36v3q34 42 67 56z"/>
<glyph glyph-name="copyright" horiz-adv-x="653" unicode="©" d="M368 461h1q38 0 62 -16q14 9 40 15l4 -2q0 -11 -7 -45.5t-10 -41.5l-7 -4q-13 18 -26 59q-16 10 -41 10q-48 0 -77 -35t-29 -87q0 -54 30 -91t81 -37q13 0 25 3q45 41 60 49l6 -6q-5 -15 -17.5 -34t-20.5 -25q-26 -12 -73 -12q-72 0 -119.5 38.5t-47.5 108.5 q0 41 16.5 72.5t43 48t53.5 24.5t53 8zM352 565h-1q-101 0 -169.5 -73.5t-68.5 -181.5t68.5 -181.5t170.5 -73.5t170 73.5t68 181.5t-68 181.5t-170 73.5zM351 596h1q116 0 197 -83.5t81 -203.5q0 -119 -81.5 -202t-197.5 -83q-120 0 -199 81t-79 204q0 120 81 203.5 t197 83.5z"/>
<glyph glyph-name="ordfeminine" horiz-adv-x="323" unicode="ª" d="M133 350h1q27 0 81 75q29 40 44 86q-7 19 -24 19q-23 0 -47 -27q-25 -26 -44 -67.5t-20 -69.5q0 -16 9 -16zM348 557l-21 -33q-17 -49 -45 -164q20 6 58 40l4 -3q-3 -29 -37.5 -56t-86.5 -27q-10 0 -14 4q15 55 28 94h-3q-71 -98 -134 -98q-20 0 -31.5 13.5t-11.5 36.5 q0 37 22.5 82t69.5 79q40 28 78 28q31 0 46 -23l6 18l69 11z"/>
<glyph glyph-name="guillemotleft" horiz-adv-x="500" unicode="«" d="M400 54l-15 -12q-28 57 -70.5 110t-73.5 78q40 25 103.5 78t112.5 109l10 -14q-49 -93 -122 -175q39 -91 55 -174zM215 54l-16 -12q-30 58 -73 111.5t-72 76.5q41 25 104.5 78t111.5 109l11 -14q-66 -116 -123 -175q37 -91 57 -174z"/>
<glyph glyph-name="logicalnot" horiz-adv-x="580" unicode="¬" d="M426 77v205h-343l16 48h384v-239z"/>
<glyph glyph-name="uni00AD" horiz-adv-x="352" unicode="­" d="M273 225l-236 -29l40 75l49 -1l194 11l1 -6z"/>
<glyph glyph-name="registered" horiz-adv-x="254" unicode="®" d="M172 588l3 8q15 3 39 3q40 0 40 -24q0 -19 -19 -24q5 -12 19 -30q4 -6 7 -9.5t5 -6t3 -3.5l-1 -1q-22 1 -34 11q-12 14 -24 38q20 6 20 22q0 17 -21 17h-3v-75l15 -5l-2 -6h-47l1 6l12 4v75h-13zM217 633h-1q-32 0 -55 -25t-23 -59q0 -35 23 -59.5t56 -24.5 q32 0 54.5 24.5t22.5 59.5q0 34 -22.5 59t-54.5 25zM217 649h1q40 0 68 -29t28 -71q0 -43 -28.5 -72t-69.5 -29t-69.5 29t-28.5 72q0 42 28.5 71t70.5 29z"/>
<glyph glyph-name="macron" horiz-adv-x="386" unicode="¯" d="M396 549h-218l25 58h217z"/>
<glyph glyph-name="degree" horiz-adv-x="278" unicode="°" d="M239 615h-1q-27 0 -46.5 -27.5t-19.5 -59.5q0 -28 13 -44t36 -16q35 0 52.5 25.5t17.5 58.5q0 63 -52 63zM246 648h1q41 0 66 -26t25 -69q0 -52 -35 -85t-87 -33q-41 0 -66 25t-25 66q0 50 34.5 86t86.5 36z"/>
<glyph glyph-name="plusminus" horiz-adv-x="577" unicode="±" d="M301 106l-57 -10v189h-182l10 49h172v161l57 11v-172h182l-10 -49h-172v-179zM493 49l-14 -49h-415l14 49h415z"/>
<glyph glyph-name="twosuperior" horiz-adv-x="334" unicode="²" d="M96 437l29 40q13 5 16 7q32 20 55 37t53 42.5t46 53.5t16 55q0 28 -14 45t-38 17q-12 0 -25 -5q-30 -72 -39 -85l-9 -5q-18 30 -24 70q60 51 134 51q45 0 75 -24t30 -66q0 -38 -29.5 -67t-95.5 -64q-26 -14 -56.5 -31.5t-42.5 -23.5q60 3 149 3q23 21 51 40l9 -6 q-29 -68 -49 -96q-7 0 -61.5 1.5t-85.5 1.5h-96z"/>
<glyph glyph-name="threesuperior" horiz-adv-x="334" unicode="³" d="M198 660l-7 -4q-17 31 -23 60q57 44 125 44q48 0 73.5 -21t25.5 -52t-29.5 -50t-80.5 -32v-3q99 -11 99 -76q0 -47 -49 -76.5t-120 -29.5q-31 0 -64 11.5t-46 24.5q3 10 19.5 34.5t23.5 32.5l8 2q5 -17 15 -77q10 -5 27 -5q38 0 67 24.5t29 62.5q0 27 -13.5 42t-30.5 15 q-8 -1 -19.5 -3t-20 -3.5t-12.5 -1.5l-2 3q4 22 20 32q4 0 17 -1.5t21 -1.5q56 18 56 66q0 26 -14 41.5t-38 15.5q-13 0 -25 -5q-17 -46 -32 -69z"/>
<glyph glyph-name="acute" horiz-adv-x="386" unicode="´" d="M238 496l-11 14l99 143q5 1 17 1q40 0 64 -13v-11z"/>
<glyph glyph-name="mu" horiz-adv-x="557" unicode="µ" d="M415 433l126 17l-1 -4l-41 -52q-26 -68 -95 -341l1 -1q18 4 34.5 12t29.5 19.5t21 19.5t17.5 20t10.5 13l5 -5q-4 -48 -58.5 -96t-137.5 -48q-18 0 -36 5q8 29 64 225h-2q-1 -1 -13 -20t-19 -29t-22 -31.5t-26.5 -35.5t-27.5 -33.5t-29.5 -32t-28.5 -24.5t-29.5 -18 t-26.5 -6q-17 0 -27 10l-3 -1q-47 -130 -53 -227l-7 -5q-66 8 -66 82q0 31 10 72q14 56 56 198q14 48 46 153.5t48 158.5q12 6 50.5 13.5t69.5 9.5l2 -3q-112 -307 -124 -354q-4 -22 -4 -26q0 -22 17 -22q38 0 91 53.5t102 144.5q34 63 76 189z"/>
<glyph glyph-name="paragraph" horiz-adv-x="497" unicode="¶" d="M519 649l-65 -114l-133 -513q-70 -269 -223 -269q-37 0 -58 21q-9 10 -19.5 31t-12.5 34l6 7q27 -27 84 -27q133 0 191 214l12 42q-37 -12 -46 -12q-75 0 -133.5 55t-58.5 146q0 87 48.5 150.5t123 92.5t164.5 29h15l30 104l72 12z"/>
<glyph glyph-name="periodcentered" horiz-adv-x="204" unicode="·" d="M140 321h6q10 -8 25 -33.5t19 -41.5v-6q-8 -15 -35.5 -39.5t-42.5 -30.5h-6q-35 31 -50 79l2 2q33 48 82 70z"/>
<glyph glyph-name="cedilla" horiz-adv-x="386" unicode="¸" d="M138 0h29l-48 -53q48 -29 48 -65q0 -41 -42 -66.5t-88 -31.5l-6 15q77 26 77 67q0 27 -48 46v3z"/>
<glyph glyph-name="onesuperior" horiz-adv-x="334" unicode="¹" d="M268 700l-75 3l7 11q37 14 155 46h8q-42 -153 -78 -299l61 -25l-6 -10q-18 0 -54 1t-53 1q-19 0 -56 -1t-56 -1l5 10l68 25q29 80 74 239z"/>
<glyph glyph-name="ordmasculine" horiz-adv-x="306" unicode="º" d="M223 538h-1q-30 0 -55 -58.5t-25 -107.5q0 -39 25 -39q31 0 54 59t24 106q0 40 -22 40zM226 557h1q45 0 70 -25.5t25 -68.5q0 -60 -45 -104.5t-114 -44.5q-46 0 -71.5 24.5t-25.5 66.5q0 59 47 105.5t113 46.5z"/>
<glyph glyph-name="guillemotright" horiz-adv-x="500" unicode="»" d="M96 405l15 12q28 -57 70.5 -110t73.5 -78q-40 -25 -103.5 -78t-112.5 -109l-10 14q49 93 122 175q-39 91 -55 174zM281 405l16 12q30 -58 73 -111.5t72 -76.5q-41 -25 -104.5 -78t-111.5 -109l-11 14q68 118 122 175q-35 85 -56 174z"/>
<glyph glyph-name="onequarter" horiz-adv-x="706" unicode="¼" d="M473 112l49 155h-2q-46 -45 -144 -153zM545 84l-16 -63l47 -26l-4 -9q-15 0 -45.5 1t-46.5 1q-17 0 -49.5 -1t-48.5 -1l5 9l59 25l20 63l-136 -1l-4 17q30 37 106 114t91 88q20 12 82 19l-53 -209l37 -1q17 15 34 23l6 -1q-5 -29 -29 -74l-7 -1q-11 18 -12 28zM637 661 l20 -22q-138 -169 -546 -674l-21 23q363 444 547 673zM230 594l-75 3l7 11q37 14 155 46h8q-42 -153 -78 -299l61 -25l-6 -10q-18 0 -54 1t-53 1q-19 0 -56 -1t-56 -1l5 10l68 25q29 80 74 239z"/>
<glyph glyph-name="onehalf" horiz-adv-x="706" unicode="½" d="M344 -3l29 40q13 5 16 7q32 20 55 37t53 42.5t46 53.5t16 55q0 28 -14 45t-38 17q-12 0 -25 -5q-30 -72 -39 -85l-9 -5q-18 30 -24 70q60 51 134 51q45 0 75 -24t30 -66q0 -38 -29.5 -67t-95.5 -64q-26 -14 -56.5 -31.5t-42.5 -23.5q60 3 149 3q23 21 51 40l9 -6 q-29 -68 -49 -96q-7 0 -61.5 1.5t-85.5 1.5h-96zM621 661l20 -22q-138 -169 -546 -674l-21 23q363 444 547 673zM216 594l-75 3l7 11q37 14 155 46h8q-42 -153 -78 -299l61 -25l-6 -10q-18 0 -54 1t-53 1q-19 0 -56 -1t-56 -1l5 10l68 25q29 80 74 239z"/>
<glyph glyph-name="threequarters" horiz-adv-x="706" unicode="¾" d="M479 112l49 155h-2q-46 -45 -144 -153zM551 84l-16 -63l47 -26l-4 -9q-15 0 -45.5 1t-46.5 1q-17 0 -49.5 -1t-48.5 -1l5 9l59 25l20 63l-136 -1l-4 17q30 37 106 114t91 88q20 12 82 19l-53 -209l37 -1q17 15 34 23l6 -1q-5 -29 -29 -74l-7 -1q-11 18 -12 28zM645 661 l20 -22q-138 -169 -546 -674l-21 23q363 444 547 673zM177 554l-7 -4q-17 31 -23 60q57 44 125 44q48 0 73.5 -21t25.5 -52t-29.5 -50t-80.5 -32v-3q99 -11 99 -76q0 -47 -49 -76.5t-120 -29.5q-31 0 -64 11.5t-46 24.5q3 10 19.5 34.5t23.5 32.5l8 2q5 -17 15 -77 q10 -5 27 -5q38 0 67 24.5t29 62.5q0 27 -13.5 42t-30.5 15q-8 -1 -19.5 -3t-20 -3.5t-12.5 -1.5l-2 3q4 22 20 32q4 0 17 -1.5t21 -1.5q56 18 56 66q0 26 -14 41.5t-38 15.5q-12 0 -25 -5q-17 -46 -32 -69z"/>
<glyph glyph-name="questiondown" horiz-adv-x="414" unicode="¿" d="M253 -53l9 3q26 -44 29 -103q-91 -60 -169 -60q-62 0 -104 35t-42 98q0 44 25.5 75t76.5 66q41 28 62 43.5t41 34.5t22 31q2 14 2 19q0 13 -5 31l13 7q22 -4 46.5 -34t24.5 -68q0 -11 -1 -17q-25 -37 -116 -107q-62 -46 -77 -65q-20 -24 -20 -49q0 -29 20.5 -50t58.5 -21 q23 0 43 9q33 82 61 122zM251 292h-6q-11 8 -26 33.5t-18 40.5v7q8 15 36 40t42 29h6q12 -10 27.5 -34t22.5 -44l-2 -3q-35 -50 -82 -69z"/>
<glyph glyph-name="Agrave" horiz-adv-x="681" unicode="À" d="M521 733l-12 -15l-190 62v11q25 54 57 61zM398 553h-2q-103 -168 -168 -273q23 0 97.5 -2t90.5 -2q-17 266 -18 277zM396 635l106 49l3 -7q-8 -21 -8 -51q0 -3 0.5 -10.5t0.5 -11.5q14 -198 47 -522q6 -27 19 -37.5t64 -34.5l-4 -12q-21 0 -64.5 1t-66.5 1 q-19 0 -57.5 -1t-57.5 -1l3 11l51 32q0 16 -2.5 45t-6 75t-5.5 82q-52 -9 -152 -9q-9 0 -30.5 0.5t-34.5 0.5q-31 -50 -113 -187l86 -38l-4 -12q-18 0 -57.5 1t-59.5 1q-17 0 -53 -1t-54 -1l5 12l76 38q47 61 360 544q9 14 9 29v14z"/>
<glyph glyph-name="Aacute" horiz-adv-x="681" unicode="Á" d="M421 703l-12 15l145 119q16 -2 35 -18t31 -38v-11zM398 553h-2q-103 -168 -168 -273q23 0 97.5 -2t90.5 -2q-17 266 -18 277zM396 635l106 49l3 -7q-8 -21 -8 -51q0 -3 0.5 -10.5t0.5 -11.5q14 -198 47 -522q6 -27 19 -37.5t64 -34.5l-4 -12q-21 0 -64.5 1t-66.5 1 q-19 0 -57.5 -1t-57.5 -1l3 11l51 32q0 16 -2.5 45t-6 75t-5.5 82q-52 -9 -152 -9q-9 0 -30.5 0.5t-34.5 0.5q-31 -50 -113 -187l86 -38l-4 -12q-18 0 -57.5 1t-59.5 1q-17 0 -53 -1t-54 -1l5 12l76 38q47 61 360 544q9 14 9 29v14z"/>
<glyph glyph-name="Acircumflex" horiz-adv-x="681" unicode="Â" d="M474 831h21q36 -38 106 -114l-14 -14q-78 36 -117 53q-46 -17 -140 -53l-10 14q52 38 154 114zM398 553h-2q-103 -168 -168 -273q23 0 97.5 -2t90.5 -2q-17 266 -18 277zM396 635l106 49l3 -7q-8 -21 -8 -51q0 -3 0.5 -10.5t0.5 -11.5q14 -198 47 -522q6 -27 19 -37.5 t64 -34.5l-4 -12q-21 0 -64.5 1t-66.5 1q-19 0 -57.5 -1t-57.5 -1l3 11l51 32q0 16 -2.5 45t-6 75t-5.5 82q-52 -9 -152 -9q-9 0 -30.5 0.5t-34.5 0.5q-31 -50 -113 -187l86 -38l-4 -12q-18 0 -57.5 1t-59.5 1q-17 0 -53 -1t-54 -1l5 12l76 38q47 61 360 544q9 14 9 29v14z "/>
<glyph glyph-name="Atilde" horiz-adv-x="681" unicode="Ã" d="M607 807l13 -12q-57 -84 -104 -84q-17 0 -61 21q-39 17 -52 17q-29 0 -68 -41l-14 15q61 84 102 84q16 0 56 -17q40 -19 55 -19q34 0 73 36zM398 553h-2q-103 -168 -168 -273q23 0 97.5 -2t90.5 -2q-17 266 -18 277zM396 635l106 49l3 -7q-8 -21 -8 -51q0 -3 0.5 -10.5 t0.5 -11.5q14 -198 47 -522q6 -27 19 -37.5t64 -34.5l-4 -12q-21 0 -64.5 1t-66.5 1q-19 0 -57.5 -1t-57.5 -1l3 11l51 32q0 16 -2.5 45t-6 75t-5.5 82q-52 -9 -152 -9q-9 0 -30.5 0.5t-34.5 0.5q-31 -50 -113 -187l86 -38l-4 -12q-18 0 -57.5 1t-59.5 1q-17 0 -53 -1 t-54 -1l5 12l76 38q47 61 360 544q9 14 9 29v14z"/>
<glyph glyph-name="Adieresis" horiz-adv-x="681" unicode="Ä" d="M589 841h6q9 -8 21.5 -30t14.5 -35l-1 -6q-6 -12 -30 -33t-36 -27h-5q-29 23 -42 67l1 4q30 41 71 60zM392 841h5q9 -8 21 -30t14 -35l-1 -6q-6 -12 -29 -33t-36 -27h-6q-30 28 -40 67v4q34 42 72 60zM398 553h-2q-103 -168 -168 -273q23 0 97.5 -2t90.5 -2 q-17 266 -18 277zM396 635l106 49l3 -7q-8 -21 -8 -51q0 -3 0.5 -10.5t0.5 -11.5q14 -198 47 -522q6 -27 19 -37.5t64 -34.5l-4 -12q-21 0 -64.5 1t-66.5 1q-19 0 -57.5 -1t-57.5 -1l3 11l51 32q0 16 -2.5 45t-6 75t-5.5 82q-52 -9 -152 -9q-9 0 -30.5 0.5t-34.5 0.5 q-31 -50 -113 -187l86 -38l-4 -12q-18 0 -57.5 1t-59.5 1q-17 0 -53 -1t-54 -1l5 12l76 38q47 61 360 544q9 14 9 29v14z"/>
<glyph glyph-name="Aring" horiz-adv-x="681" unicode="Å" d="M485 865h1q28 0 48.5 -17t20.5 -46q0 -6 -2 -18q-6 -36 -34 -57.5t-61 -21.5q-29 0 -49.5 17t-20.5 46q0 5 2 17q6 37 34 58.5t61 21.5zM462 735h1q43 0 52 50q2 10 2 15q0 35 -37 35q-43 0 -52 -50q-2 -10 -2 -14q0 -36 36 -36zM398 553h-2q-103 -168 -168 -273 q23 0 97.5 -2t90.5 -2q-17 266 -18 277zM396 635l106 49l3 -7q-8 -21 -8 -51q0 -3 0.5 -10.5t0.5 -11.5q14 -198 47 -522q6 -27 19 -37.5t64 -34.5l-4 -12q-21 0 -64.5 1t-66.5 1q-19 0 -57.5 -1t-57.5 -1l3 11l51 32q0 16 -2.5 45t-6 75t-5.5 82q-52 -9 -152 -9 q-9 0 -30.5 0.5t-34.5 0.5q-31 -50 -113 -187l86 -38l-4 -12q-18 0 -57.5 1t-59.5 1q-17 0 -53 -1t-54 -1l5 12l76 38q47 61 360 544q9 14 9 29v14z"/>
<glyph glyph-name="AE" horiz-adv-x="919" unicode="Æ" d="M299 345h178l67 279h-42q-110 -146 -203 -279zM468 308h-196q-143 -204 -180 -260l85 -38l-7 -12q-19 0 -59.5 1.5t-61.5 1.5q-16 0 -51.5 -1.5t-52.5 -1.5l5 12l78 37q206 264 432 571l-109 29l8 14q23 0 72.5 -1t78.5 -1h349q36 9 80 9h3l4 -4q-22 -90 -49 -146l-8 -3 q-12 32 -33 115l-209 -10l-58 -275q160 0 247 11l4 -9q-5 -7 -34.5 -28t-34.5 -21q-3 0 -92 5t-99 5q-3 -12 -25 -115t-31 -151l217 -12q108 101 133 121l9 -3q-35 -98 -63 -150q-95 3 -209 3h-160q-24 0 -71.5 -1.5t-71.5 -1.5l5 12l92 37q14 35 63 261z"/>
<glyph glyph-name="Ccedilla" horiz-adv-x="665" unicode="Ç" d="M294 -85l60 65v2q-130 5 -209 81t-79 211q0 165 123.5 284t307.5 119q47 0 85.5 -13t57.5 -29q35 19 79 26l5 -6q-9 -33 -33.5 -84.5t-37.5 -70.5l-10 -3q-11 39 -15 115q-38 27 -108 27q-77 0 -141 -32.5t-104.5 -85.5t-63 -117t-22.5 -129q0 -118 59 -185.5t164 -67.5 q37 0 61 6q83 71 161 125l5 -14q-50 -85 -89 -121q-80 -33 -163 -36l-31 -35q47 -28 47 -64q0 -41 -42 -67t-89 -33l-8 16q78 25 78 66q0 27 -47 47z"/>
<glyph glyph-name="Egrave" horiz-adv-x="573" unicode="È" d="M478 718l-12 -15l-190 62v11q25 54 57 61zM139 650l6 11q21 0 62.5 -1t61.5 -1h248q57 9 83 9h4l3 -4q-21 -86 -49 -149l-9 -4q-12 30 -34 118l-179 -10l-69 -258q145 0 242 11l4 -10q-5 -7 -34 -28t-33 -21q-5 0 -93 5t-97 5q-31 -107 -74 -281l211 -13q112 107 135 125 l9 -3q-35 -101 -65 -153q-86 3 -207 3h-160q-23 0 -71 -1.5t-71 -1.5l6 12l92 39q9 17 88 294l75 270z"/>
<glyph glyph-name="Eacute" horiz-adv-x="573" unicode="É" d="M359 703l-12 15l145 119q16 -2 35 -18t31 -38v-11zM139 650l6 11q21 0 62.5 -1t61.5 -1h248q57 9 83 9h4l3 -4q-21 -86 -49 -149l-9 -4q-12 30 -34 118l-179 -10l-69 -258q145 0 242 11l4 -10q-5 -7 -34 -28t-33 -21q-5 0 -93 5t-97 5q-31 -107 -74 -281l211 -13 q112 107 135 125l9 -3q-35 -101 -65 -153q-86 3 -207 3h-160q-23 0 -71 -1.5t-71 -1.5l6 12l92 39q9 17 88 294l75 270z"/>
<glyph glyph-name="Ecircumflex" horiz-adv-x="573" unicode="Ê" d="M426 832h21q36 -38 106 -114l-14 -14q-78 36 -117 53q-46 -17 -140 -53l-10 14q52 38 154 114zM139 650l6 11q21 0 62.5 -1t61.5 -1h248q57 9 83 9h4l3 -4q-21 -86 -49 -149l-9 -4q-12 30 -34 118l-179 -10l-69 -258q145 0 242 11l4 -10q-5 -7 -34 -28t-33 -21 q-5 0 -93 5t-97 5q-31 -107 -74 -281l211 -13q112 107 135 125l9 -3q-35 -101 -65 -153q-86 3 -207 3h-160q-23 0 -71 -1.5t-71 -1.5l6 12l92 39q9 17 88 294l75 270z"/>
<glyph glyph-name="Edieresis" horiz-adv-x="573" unicode="Ë" d="M532 841h6q9 -8 21.5 -30t14.5 -35l-1 -6q-6 -12 -30 -33t-36 -27h-5q-29 23 -42 67l1 4q30 41 71 60zM335 841h5q9 -8 21 -30t14 -35l-1 -6q-6 -12 -29 -33t-36 -27h-6q-30 28 -40 67v4q34 42 72 60zM139 650l6 11q21 0 62.5 -1t61.5 -1h248q57 9 83 9h4l3 -4 q-21 -86 -49 -149l-9 -4q-12 30 -34 118l-179 -10l-69 -258q145 0 242 11l4 -10q-5 -7 -34 -28t-33 -21q-5 0 -93 5t-97 5q-31 -107 -74 -281l211 -13q112 107 135 125l9 -3q-35 -101 -65 -153q-86 3 -207 3h-160q-23 0 -71 -1.5t-71 -1.5l6 12l92 39q9 17 88 294l75 270z "/>
<glyph glyph-name="Igrave" horiz-adv-x="341" unicode="Ì" d="M382 718l-12 -15l-190 62v11q25 54 57 61zM150 649l5 12q21 0 61 -1t60 -1q24 0 72.5 1t72.5 1l-4 -12l-83 -38l-73 -267q-74 -271 -76 -296l81 -38l-5 -12q-23 0 -71 1t-72 1q-25 0 -74.5 -1t-74.5 -1l5 12l87 38q7 14 88 296l76 267z"/>
<glyph glyph-name="Iacute" horiz-adv-x="341" unicode="Í" d="M253 705l-12 15l145 119q16 -2 35 -18t31 -38v-11zM150 649l5 12q21 0 61 -1t60 -1q24 0 72.5 1t72.5 1l-4 -12l-83 -38l-73 -267q-74 -271 -76 -296l81 -38l-5 -12q-23 0 -71 1t-72 1q-25 0 -74.5 -1t-74.5 -1l5 12l87 38q7 14 88 296l76 267z"/>
<glyph glyph-name="Icircumflex" horiz-adv-x="341" unicode="Î" d="M315 836h21q36 -38 106 -114l-14 -14q-78 36 -117 53q-46 -17 -140 -53l-10 14q52 38 154 114zM150 649l5 12q21 0 61 -1t60 -1q24 0 72.5 1t72.5 1l-4 -12l-83 -38l-73 -267q-74 -271 -76 -296l81 -38l-5 -12q-23 0 -71 1t-72 1q-25 0 -74.5 -1t-74.5 -1l5 12l87 38 q7 14 88 296l76 267z"/>
<glyph glyph-name="Idieresis" horiz-adv-x="341" unicode="Ï" d="M426 841h6q9 -8 21.5 -30t14.5 -35l-1 -6q-6 -12 -30 -33t-36 -27h-5q-29 23 -42 67l1 4q30 41 71 60zM229 841h5q9 -8 21 -30t14 -35l-1 -6q-6 -12 -29 -33t-36 -27h-6q-30 28 -40 67v4q34 42 72 60zM150 649l5 12q21 0 61 -1t60 -1q24 0 72.5 1t72.5 1l-4 -12l-83 -38 l-73 -267q-74 -271 -76 -296l81 -38l-5 -12q-23 0 -71 1t-72 1q-25 0 -74.5 -1t-74.5 -1l5 12l87 38q7 14 88 296l76 267z"/>
<glyph glyph-name="Eth" horiz-adv-x="743" unicode="Ð" d="M287 364h158l-20 -34h-147q-77 -284 -78 -307q153 0 251 64q79 51 123 136t44 176q0 96 -47 155q-66 84 -211 84zM80 364h95l71 258l-81 23l6 11q132 11 228 11q164 0 253 -72t89 -209q0 -136 -87.5 -235t-226.5 -134q-80 -20 -233 -20q-10 0 -33.5 0.5t-35.5 0.5 q-114 2 -134 2l4 13l86 33q10 13 85 284h-101z"/>
<glyph glyph-name="Ntilde" horiz-adv-x="724" unicode="Ñ" d="M637 806l13 -12q-57 -84 -104 -84q-17 0 -61 21q-39 17 -52 17q-29 0 -68 -41l-14 15q61 84 102 84q16 0 56 -17q40 -19 55 -19q34 0 73 36zM200 10l-5 -12q-18 0 -56 1t-57 1q-18 0 -55 -1t-56 -1l4 12l89 44q29 62 162 506q-22 45 -39.5 58t-66.5 28l7 12q82 5 174 5 q2 -11 24 -62q191 -403 228 -486h2q14 46 64.5 243t61.5 250l-79 41l7 12q17 0 51.5 -1t52.5 -1q19 0 56 1t55 1l-5 -14l-85 -39q-36 -87 -161 -548l61 -52l-3 -8l-144 -11q-45 92 -241 528h-2q-107 -373 -122 -464z"/>
<glyph glyph-name="Ograve" horiz-adv-x="733" unicode="Ò" d="M570 728l-12 -15l-190 62v11q25 54 57 61zM463 650h-1q-75 0 -140.5 -67.5t-100.5 -162t-35 -183.5q0 -112 39.5 -170t111.5 -58q75 0 138.5 71.5t96.5 170t33 189.5q0 103 -38.5 156.5t-103.5 53.5zM464 676h1q47 0 91 -16t83 -49.5t63.5 -93t24.5 -137.5 q0 -68 -25 -136.5t-71.5 -127.5t-124.5 -96t-174 -37q-109 0 -188.5 73t-79.5 212q0 75 29.5 148t80.5 131t127 93.5t163 35.5z"/>
<glyph glyph-name="Oacute" horiz-adv-x="733" unicode="Ó" d="M428 713l-12 15l145 119q16 -2 35 -18t31 -38v-11zM463 650h-1q-75 0 -140.5 -67.5t-100.5 -162t-35 -183.5q0 -112 39.5 -170t111.5 -58q75 0 138.5 71.5t96.5 170t33 189.5q0 103 -38.5 156.5t-103.5 53.5zM464 676h1q47 0 91 -16t83 -49.5t63.5 -93t24.5 -137.5 q0 -68 -25 -136.5t-71.5 -127.5t-124.5 -96t-174 -37q-109 0 -188.5 73t-79.5 212q0 75 29.5 148t80.5 131t127 93.5t163 35.5z"/>
<glyph glyph-name="Ocircumflex" horiz-adv-x="733" unicode="Ô" d="M490 833h21q36 -38 106 -114l-14 -14q-78 36 -117 53q-46 -17 -140 -53l-10 14q52 38 154 114zM463 650h-1q-75 0 -140.5 -67.5t-100.5 -162t-35 -183.5q0 -112 39.5 -170t111.5 -58q75 0 138.5 71.5t96.5 170t33 189.5q0 103 -38.5 156.5t-103.5 53.5zM464 676h1 q47 0 91 -16t83 -49.5t63.5 -93t24.5 -137.5q0 -68 -25 -136.5t-71.5 -127.5t-124.5 -96t-174 -37q-109 0 -188.5 73t-79.5 212q0 75 29.5 148t80.5 131t127 93.5t163 35.5z"/>
<glyph glyph-name="Otilde" horiz-adv-x="733" unicode="Õ" d="M628 816l13 -12q-57 -84 -104 -84q-17 0 -61 21q-39 17 -52 17q-29 0 -68 -41l-14 15q61 84 102 84q16 0 56 -17q40 -19 55 -19q34 0 73 36zM463 650h-1q-75 0 -140.5 -67.5t-100.5 -162t-35 -183.5q0 -112 39.5 -170t111.5 -58q75 0 138.5 71.5t96.5 170t33 189.5 q0 103 -38.5 156.5t-103.5 53.5zM464 676h1q47 0 91 -16t83 -49.5t63.5 -93t24.5 -137.5q0 -68 -25 -136.5t-71.5 -127.5t-124.5 -96t-174 -37q-109 0 -188.5 73t-79.5 212q0 75 29.5 148t80.5 131t127 93.5t163 35.5z"/>
<glyph glyph-name="Odieresis" horiz-adv-x="733" unicode="Ö" d="M612 843h6q9 -8 21.5 -30t14.5 -35l-1 -6q-6 -12 -30 -33t-36 -27h-5q-29 23 -42 67l1 4q30 41 71 60zM415 843h5q9 -8 21 -30t14 -35l-1 -6q-6 -12 -29 -33t-36 -27h-6q-30 28 -40 67v4q34 42 72 60zM463 650h-1q-75 0 -140.5 -67.5t-100.5 -162t-35 -183.5 q0 -112 39.5 -170t111.5 -58q75 0 138.5 71.5t96.5 170t33 189.5q0 103 -38.5 156.5t-103.5 53.5zM464 676h1q47 0 91 -16t83 -49.5t63.5 -93t24.5 -137.5q0 -68 -25 -136.5t-71.5 -127.5t-124.5 -96t-174 -37q-109 0 -188.5 73t-79.5 212q0 75 29.5 148t80.5 131t127 93.5 t163 35.5z"/>
<glyph glyph-name="multiply" horiz-adv-x="580" unicode="×" d="M484 381l-152 -155l151 -154l-37 -41l-153 155l-151 -155l-38 41l151 154l-152 153l38 41l152 -155l154 157z"/>
<glyph glyph-name="Oslash" horiz-adv-x="732" unicode="Ø" d="M592 529l-382 -434q17 -41 48.5 -64t71.5 -23q78 0 143 66.5t99 163.5t34 195q0 59 -12 95zM201 128l383 436q-36 87 -120 87q-77 0 -142.5 -65t-101 -160.5t-35.5 -191.5q0 -65 15 -104zM635 614l72 78l18 -22l-69 -78q71 -79 71 -213q0 -68 -24.5 -136t-71.5 -127 t-124.5 -96t-172.5 -37q-105 0 -178 61l-84 -93l-18 26l80 89q-70 77 -70 202q0 100 49 192.5t142.5 154t207.5 61.5q101 0 172 -62z"/>
<glyph glyph-name="Ugrave" horiz-adv-x="744" unicode="Ù" d="M569 718l-12 -15l-190 62v11q25 54 57 61zM218 610l-73 39l5 12q16 0 59 -1t61 -1q16 0 53 1t54 1l-4 -12l-48 -42q-8 -21 -63.5 -210t-63.5 -240q-4 -20 -4 -38q0 -75 77 -75q68 0 133.5 38t95.5 76l137 454l-44 37l6 12q28 -2 110 -2q45 0 123 2l-7 -12l-81 -39 q-16 -46 -85.5 -293t-70.5 -264l91 -22l-8 -14q-17 -3 -102 -15t-113 -18l-4 2l40 126h-2q-141 -129 -273 -129q-68 0 -104 29q-39 29 -39 93q0 38 14 87q20 69 130 418z"/>
<glyph glyph-name="Uacute" horiz-adv-x="744" unicode="Ú" d="M466 703l-12 15l145 119q16 -2 35 -18t31 -38v-11zM218 610l-73 39l5 12q16 0 59 -1t61 -1q16 0 53 1t54 1l-4 -12l-48 -42q-8 -21 -63.5 -210t-63.5 -240q-4 -20 -4 -38q0 -75 77 -75q68 0 133.5 38t95.5 76l137 454l-44 37l6 12q28 -2 110 -2q45 0 123 2l-7 -12 l-81 -39q-16 -46 -85.5 -293t-70.5 -264l91 -22l-8 -14q-17 -3 -102 -15t-113 -18l-4 2l40 126h-2q-141 -129 -273 -129q-68 0 -104 29q-39 29 -39 93q0 38 14 87q20 69 130 418z"/>
<glyph glyph-name="Ucircumflex" horiz-adv-x="744" unicode="Û" d="M526 831h21q36 -38 106 -114l-14 -14q-78 36 -117 53q-46 -17 -140 -53l-10 14q52 38 154 114zM218 610l-73 39l5 12q16 0 59 -1t61 -1q16 0 53 1t54 1l-4 -12l-48 -42q-8 -21 -63.5 -210t-63.5 -240q-4 -20 -4 -38q0 -75 77 -75q68 0 133.5 38t95.5 76l137 454l-44 37 l6 12q28 -2 110 -2q45 0 123 2l-7 -12l-81 -39q-16 -46 -85.5 -293t-70.5 -264l91 -22l-8 -14q-17 -3 -102 -15t-113 -18l-4 2l40 126h-2q-141 -129 -273 -129q-68 0 -104 29q-39 29 -39 93q0 38 14 87q20 69 130 418z"/>
<glyph glyph-name="Udieresis" horiz-adv-x="744" unicode="Ü" d="M635 841h6q9 -8 21.5 -30t14.5 -35l-1 -6q-6 -12 -30 -33t-36 -27h-5q-29 23 -42 67l1 4q30 41 71 60zM438 841h5q9 -8 21 -30t14 -35l-1 -6q-6 -12 -29 -33t-36 -27h-6q-30 28 -40 67v4q34 42 72 60zM218 610l-73 39l5 12q16 0 59 -1t61 -1q16 0 53 1t54 1l-4 -12 l-48 -42q-8 -21 -63.5 -210t-63.5 -240q-4 -20 -4 -38q0 -75 77 -75q68 0 133.5 38t95.5 76l137 454l-44 37l6 12q28 -2 110 -2q45 0 123 2l-7 -12l-81 -39q-16 -46 -85.5 -293t-70.5 -264l91 -22l-8 -14q-17 -3 -102 -15t-113 -18l-4 2l40 126h-2q-141 -129 -273 -129 q-68 0 -104 29q-39 29 -39 93q0 38 14 87q20 69 130 418z"/>
<glyph glyph-name="Yacute" horiz-adv-x="608" unicode="Ý" d="M401 703l-12 15l145 119q16 -2 35 -18t31 -38v-11zM107 649l7 12q19 0 58.5 -1.5t59.5 -1.5q16 0 49.5 1.5t48.5 1.5l-5 -13l-29 -29q2 -12 13 -46.5t30.5 -100t38.5 -132.5l3 -2q123 155 204 277l-30 34l7 12q8 0 33.5 -1.5t37.5 -1.5q18 0 53.5 1.5t54.5 1.5l-6 -12 l-93 -41q-81 -86 -235 -286q-17 -22 -22 -44q-60 -225 -60 -232l103 -36l-6 -12q-27 0 -81 1t-82 1q-27 0 -81 -1t-82 -1l5 12l101 35q24 53 73 233q3 13 3 22q0 11 -3 23q-28 98 -90 279q-9 10 -78 47z"/>
<glyph glyph-name="Thorn" horiz-adv-x="569" unicode="Þ" d="M-18 10l81 37q7 15 95 328l67 239l-68 35l5 12q20 0 59 -1t58 -1q23 0 68.5 1t67.5 1l-6 -12l-77 -36l-25 -88q44 4 53 4h15q90 0 144 -39t54 -124q0 -86 -70.5 -146.5t-170.5 -60.5q-34 0 -62 11v14q86 3 135.5 55.5t49.5 138.5q0 58 -32 91t-88 33q-21 0 -35 -2 l-37 -141q-75 -285 -79 -311l85 -38l-6 -12q-24 0 -70 1t-68 1q-25 0 -74 -1t-73 -1z"/>
<glyph glyph-name="germandbls" horiz-adv-x="537" unicode="ß" d="M57 434h70q24 72 54.5 123t80.5 89q72 54 158 54q67 0 107.5 -32t40.5 -97q0 -15 -6 -21q-143 -88 -143 -183q0 -32 38 -105q37 -74 37 -114q0 -59 -53 -110t-138 -51q-31 0 -63.5 11.5t-46.5 30.5q20 42 58 84l10 2q8 -28 19 -97q12 -6 28 -6q38 0 66 25.5t29 54.5 q0 35 -40 103q-39 71 -39 118q0 27 11.5 53t36 53t45 45.5t55.5 47.5q9 25 9 52q0 54 -20 82t-54 28q-113 0 -182 -298q-10 -39 -30.5 -130t-36.5 -155q-28 -109 -59 -168t-82 -100q-71 -57 -132 -57q-57 0 -77 35l48 66l7 1q15 -24 39.5 -40.5t43.5 -16.5q12 0 21.5 7 t23 37t26.5 83q8 34 102 459l-75 16z"/>
<glyph glyph-name="agrave" horiz-adv-x="531" unicode="à" d="M380 509l-17 -12l-111 156l3 9q25 14 70 14h10zM134 45h1q25 0 69.5 38.5t98.5 123.5q45 71 80 189q-13 9 -34 9q-60 0 -121 -67q-50 -54 -81.5 -127.5t-31.5 -126.5q0 -39 19 -39zM402 443l117 12v-5l-40 -51q-62 -187 -97 -351l2 -1q59 19 115 96l5 -4q-4 -58 -60 -105 t-139 -47q-8 0 -32 3q6 25 27 100t29 103h-3q-141 -206 -250 -206q-32 0 -50 26.5t-18 71.5q0 71 42 154t120 142q78 58 160 58q36 0 64 -20z"/>
<glyph glyph-name="aacute" horiz-adv-x="531" unicode="á" d="M320 496l-11 14l99 143q5 1 17 1q40 0 64 -13v-11zM134 45h1q25 0 69.5 38.5t98.5 123.5q45 71 80 189q-13 9 -34 9q-60 0 -121 -67q-50 -54 -81.5 -127.5t-31.5 -126.5q0 -39 19 -39zM402 443l117 12v-5l-40 -51q-62 -187 -97 -351l2 -1q59 19 115 96l5 -4 q-4 -58 -60 -105t-139 -47q-8 0 -32 3q6 25 27 100t29 103h-3q-141 -206 -250 -206q-32 0 -50 26.5t-18 71.5q0 71 42 154t120 142q78 58 160 58q36 0 64 -20z"/>
<glyph glyph-name="acircumflex" horiz-adv-x="531" unicode="â" d="M362 670l24 7l54 -169l-17 -11l-68 91l-115 -91l-10 13zM134 45h1q25 0 69.5 38.5t98.5 123.5q45 71 80 189q-13 9 -34 9q-60 0 -121 -67q-50 -54 -81.5 -127.5t-31.5 -126.5q0 -39 19 -39zM402 443l117 12v-5l-40 -51q-62 -187 -97 -351l2 -1q59 19 115 96l5 -4 q-4 -58 -60 -105t-139 -47q-8 0 -32 3q6 25 27 100t29 103h-3q-141 -206 -250 -206q-32 0 -50 26.5t-18 71.5q0 71 42 154t120 142q78 58 160 58q36 0 64 -20z"/>
<glyph glyph-name="atilde" horiz-adv-x="531" unicode="ã" d="M498 618l12 -11q-55 -78 -99 -78q-15 0 -58 20q-38 16 -49 16q-27 0 -65 -38l-14 15q56 76 98 76q13 0 53 -16q38 -19 52 -19q35 0 70 35zM134 45h1q25 0 69.5 38.5t98.5 123.5q45 71 80 189q-13 9 -34 9q-60 0 -121 -67q-50 -54 -81.5 -127.5t-31.5 -126.5q0 -39 19 -39 zM402 443l117 12v-5l-40 -51q-62 -187 -97 -351l2 -1q59 19 115 96l5 -4q-4 -58 -60 -105t-139 -47q-8 0 -32 3q6 25 27 100t29 103h-3q-141 -206 -250 -206q-32 0 -50 26.5t-18 71.5q0 71 42 154t120 142q78 58 160 58q36 0 64 -20z"/>
<glyph glyph-name="adieresis" horiz-adv-x="531" unicode="ä" d="M472 654h6q7 -6 19 -27.5t14 -32.5l-1 -6q-6 -12 -28 -31.5t-34 -25.5h-5q-27 23 -37 64v3q31 41 66 56zM292 654h5q7 -6 19 -27.5t14 -32.5l-1 -6q-5 -12 -27 -31.5t-34 -25.5h-5q-11 9 -22.5 28t-15.5 36v3q34 42 67 56zM134 45h1q25 0 69.5 38.5t98.5 123.5 q45 71 80 189q-13 9 -34 9q-60 0 -121 -67q-50 -54 -81.5 -127.5t-31.5 -126.5q0 -39 19 -39zM402 443l117 12v-5l-40 -51q-62 -187 -97 -351l2 -1q59 19 115 96l5 -4q-4 -58 -60 -105t-139 -47q-8 0 -32 3q6 25 27 100t29 103h-3q-141 -206 -250 -206q-32 0 -50 26.5 t-18 71.5q0 71 42 154t120 142q78 58 160 58q36 0 64 -20z"/>
<glyph glyph-name="aring" horiz-adv-x="531" unicode="å" d="M377 663h1q29 0 48.5 -17.5t19.5 -49.5q0 -10 -1 -16q-7 -38 -35 -59.5t-60 -21.5q-30 0 -50 17t-20 48q0 10 1 16q7 39 35 61t61 22zM354 529h1q19 0 34 13.5t19 38.5q1 5 1 14q0 38 -37 38q-19 0 -33.5 -13t-18.5 -39q-1 -5 -1 -14q0 -38 35 -38zM134 45h1 q25 0 69.5 38.5t98.5 123.5q45 71 80 189q-13 9 -34 9q-60 0 -121 -67q-50 -54 -81.5 -127.5t-31.5 -126.5q0 -39 19 -39zM402 443l117 12v-5l-40 -51q-62 -187 -97 -351l2 -1q59 19 115 96l5 -4q-4 -58 -60 -105t-139 -47q-8 0 -32 3q6 25 27 100t29 103h-3 q-141 -206 -250 -206q-32 0 -50 26.5t-18 71.5q0 71 42 154t120 142q78 58 160 58q36 0 64 -20z"/>
<glyph glyph-name="ae" horiz-adv-x="706" unicode="æ" d="M581 426h-1q-35 0 -80.5 -59t-70.5 -143q47 8 104 28q36 14 56 42q22 37 22 84q0 48 -30 48zM670 138l4 -24q-40 -60 -98.5 -93.5t-124.5 -33.5q-63 0 -102 33t-41 102q0 14 1 23h-3q-52 -68 -110.5 -113t-109.5 -45q-36 0 -57 25t-21 70q0 66 51.5 150t146.5 139 q91 53 213 53q38 0 59 -2q58 28 110 28q57 0 86 -26.5t31 -67.5q0 -32 -15 -57q-9 -15 -34 -32q-21 -13 -89.5 -35t-143.5 -34q-9 -33 -9 -64v-9q4 -90 80 -90q46 0 95.5 33t78.5 70h2zM112 69v-1q0 -34 25 -34q13 0 39 14.5t66.5 57t73.5 102.5q17 43 27.5 65.5t37 58 t62.5 66.5l-1 3h-5q-96 0 -183 -73q-53 -43 -97.5 -123.5t-44.5 -135.5z"/>
<glyph glyph-name="ccedilla" horiz-adv-x="403" unicode="ç" d="M94 -80l61 67l-1 1q-69 1 -101 45t-32 107q0 131 106 229q88 81 193 81q68 0 90 -27q-2 -14 -20.5 -53.5t-30.5 -55.5l-10 -4q-20 44 -33 112q-6 2 -12 2q-20 0 -45.5 -15t-48.5 -43q-76 -91 -76 -217q0 -52 20 -80t56 -28q45 0 87 30t67 60l2 -2l5 -20 q-72 -108 -182 -119l-34 -38q47 -28 47 -64q0 -41 -42.5 -67.5t-88.5 -32.5l-7 16q78 25 78 66q0 28 -48 47v3z"/>
<glyph glyph-name="egrave" horiz-adv-x="419" unicode="è" d="M332 509l-17 -12l-111 156l3 9q25 14 70 14h10zM292 426h-1q-35 0 -78 -59.5t-65 -142.5q128 27 154 67q22 32 22 81q0 54 -32 54zM382 136l4 -23q-40 -59 -98.5 -92.5t-118.5 -33.5q-62 0 -103 35t-43 112v5q0 67 33 137t99.5 122t147.5 52q54 0 84 -28.5t32 -71.5 q0 -33 -20 -55q-21 -32 -103.5 -58.5t-152.5 -37.5q-8 -37 -8 -63v-9q1 -38 18.5 -63.5t55.5 -25.5q45 0 93.5 30.5t77.5 67.5h2z"/>
<glyph glyph-name="eacute" horiz-adv-x="419" unicode="é" d="M265 496l-11 14l99 143q5 1 17 1q40 0 64 -13v-11zM292 426h-1q-35 0 -78 -59.5t-65 -142.5q128 27 154 67q22 32 22 81q0 54 -32 54zM382 136l4 -23q-40 -59 -98.5 -92.5t-118.5 -33.5q-62 0 -103 35t-43 112v5q0 67 33 137t99.5 122t147.5 52q54 0 84 -28.5t32 -71.5 q0 -33 -20 -55q-21 -32 -103.5 -58.5t-152.5 -37.5q-8 -37 -8 -63v-9q1 -38 18.5 -63.5t55.5 -25.5q45 0 93.5 30.5t77.5 67.5h2z"/>
<glyph glyph-name="ecircumflex" horiz-adv-x="419" unicode="ê" d="M339 670l24 7l54 -169l-17 -11l-68 91l-115 -91l-10 13zM292 426h-1q-35 0 -78 -59.5t-65 -142.5q128 27 154 67q22 32 22 81q0 54 -32 54zM382 136l4 -23q-40 -59 -98.5 -92.5t-118.5 -33.5q-62 0 -103 35t-43 112v5q0 67 33 137t99.5 122t147.5 52q54 0 84 -28.5 t32 -71.5q0 -33 -20 -55q-21 -32 -103.5 -58.5t-152.5 -37.5q-8 -37 -8 -63v-9q1 -38 18.5 -63.5t55.5 -25.5q45 0 93.5 30.5t77.5 67.5h2z"/>
<glyph glyph-name="edieresis" horiz-adv-x="419" unicode="ë" d="M437 654h6q7 -6 19 -27.5t14 -32.5l-1 -6q-6 -12 -28 -31.5t-34 -25.5h-5q-27 23 -37 64v3q31 41 66 56zM257 654h5q7 -6 19 -27.5t14 -32.5l-1 -6q-5 -12 -27 -31.5t-34 -25.5h-5q-11 9 -22.5 28t-15.5 36v3q34 42 67 56zM292 426h-1q-35 0 -78 -59.5t-65 -142.5 q128 27 154 67q22 32 22 81q0 54 -32 54zM382 136l4 -23q-40 -59 -98.5 -92.5t-118.5 -33.5q-62 0 -103 35t-43 112v5q0 67 33 137t99.5 122t147.5 52q54 0 84 -28.5t32 -71.5q0 -33 -20 -55q-21 -32 -103.5 -58.5t-152.5 -37.5q-8 -37 -8 -63v-9q1 -38 18.5 -63.5 t55.5 -25.5q45 0 93.5 30.5t77.5 67.5h2z"/>
<glyph glyph-name="igrave" horiz-adv-x="296" unicode="ì" d="M244 509l-17 -12l-111 156l3 9q25 14 70 14h10zM135 379l-65 12l5 11q25 14 87 30t93 18l3 -3q-112 -355 -127 -417l1 -1q44 12 129 112l3 -8q-9 -49 -55 -97.5t-119 -48.5q-54 0 -54 57q0 22 9 53q24 80 90 282z"/>
<glyph glyph-name="iacute" horiz-adv-x="296" unicode="í" d="M188 496l-11 14l99 143q5 1 17 1q40 0 64 -13v-11zM135 379l-65 12l5 11q25 14 87 30t93 18l3 -3q-112 -355 -127 -417l1 -1q44 12 129 112l3 -8q-9 -49 -55 -97.5t-119 -48.5q-54 0 -54 57q0 22 9 53q24 80 90 282z"/>
<glyph glyph-name="icircumflex" horiz-adv-x="296" unicode="î" d="M244 670l24 7l54 -169l-17 -11l-68 91l-115 -91l-10 13zM135 379l-65 12l5 11q25 14 87 30t93 18l3 -3q-112 -355 -127 -417l1 -1q44 12 129 112l3 -8q-9 -49 -55 -97.5t-119 -48.5q-54 0 -54 57q0 22 9 53q24 80 90 282z"/>
<glyph glyph-name="idieresis" horiz-adv-x="296" unicode="ï" d="M343 654h6q7 -6 19 -27.5t14 -32.5l-1 -6q-6 -12 -28 -31.5t-34 -25.5h-5q-27 23 -37 64v3q31 41 66 56zM163 654h5q7 -6 19 -27.5t14 -32.5l-1 -6q-5 -12 -27 -31.5t-34 -25.5h-5q-11 9 -22.5 28t-15.5 36v3q34 42 67 56zM135 379l-65 12l5 11q25 14 87 30t93 18l3 -3 q-112 -355 -127 -417l1 -1q44 12 129 112l3 -8q-9 -49 -55 -97.5t-119 -48.5q-54 0 -54 57q0 22 9 53q24 80 90 282z"/>
<glyph glyph-name="eth" horiz-adv-x="464" unicode="ð" d="M299 425h-1q-32 0 -65 -38q-43 -48 -71 -127.5t-28 -154.5q0 -45 14.5 -69.5t34.5 -24.5q37 0 77 50q30 39 58.5 125t28.5 178q0 26 -12 43q-16 18 -36 18zM175 517l136 64q-38 68 -112 104l14 15q86 -23 151 -94l114 54l18 -25l-112 -53q67 -94 67 -220q0 -179 -93 -287 q-37 -43 -84.5 -65.5t-94.5 -22.5q-71 0 -112 46.5t-41 126.5q0 115 85 203q84 87 182 87q35 0 60 -18q-1 67 -27 125l-131 -62z"/>
<glyph glyph-name="ntilde" horiz-adv-x="545" unicode="ñ" d="M480 618l12 -11q-55 -78 -99 -78q-15 0 -58 20q-38 16 -49 16q-27 0 -65 -38l-14 15q56 76 98 76q13 0 53 -16q38 -19 52 -19q35 0 70 35zM123 0l-106 -8q21 55 66.5 214t45.5 177l-72 9l4 11q21 11 91.5 28.5t93.5 19.5l3 -3q-4 -20 -76 -254h2q54 85 114.5 147.5 t113.5 88.5q44 20 96 20q22 0 22 -12q0 -7 -8 -36q-88 -287 -95 -339l89 3l-6 -15q-20 -7 -107 -35t-103 -35l-7 7q4 16 58.5 187t61.5 197q5 16 -4 16q-29 0 -87 -58t-106 -138q-49 -80 -84 -192z"/>
<glyph glyph-name="ograve" horiz-adv-x="480" unicode="ò" d="M349 509l-17 -12l-111 156l3 9q25 14 70 14h10zM292 426h-1q-35 0 -72 -49.5t-60 -123.5t-23 -141q0 -101 54 -101q36 0 72.5 50.5t58.5 124t22 140.5q0 100 -51 100zM302 450h1q67 0 108.5 -47.5t41.5 -125.5q0 -116 -80 -203t-194 -87q-64 0 -108 46t-44 123 q0 117 83.5 205.5t191.5 88.5z"/>
<glyph glyph-name="oacute" horiz-adv-x="480" unicode="ó" d="M283 496l-11 14l99 143q5 1 17 1q40 0 64 -13v-11zM292 426h-1q-35 0 -72 -49.5t-60 -123.5t-23 -141q0 -101 54 -101q36 0 72.5 50.5t58.5 124t22 140.5q0 100 -51 100zM302 450h1q67 0 108.5 -47.5t41.5 -125.5q0 -116 -80 -203t-194 -87q-64 0 -108 46t-44 123 q0 117 83.5 205.5t191.5 88.5z"/>
<glyph glyph-name="ocircumflex" horiz-adv-x="480" unicode="ô" d="M346 670l24 7l54 -169l-17 -11l-68 91l-115 -91l-10 13zM292 426h-1q-35 0 -72 -49.5t-60 -123.5t-23 -141q0 -101 54 -101q36 0 72.5 50.5t58.5 124t22 140.5q0 100 -51 100zM302 450h1q67 0 108.5 -47.5t41.5 -125.5q0 -116 -80 -203t-194 -87q-64 0 -108 46t-44 123 q0 117 83.5 205.5t191.5 88.5z"/>
<glyph glyph-name="otilde" horiz-adv-x="480" unicode="õ" d="M459 618l12 -11q-55 -78 -99 -78q-15 0 -58 20q-38 16 -49 16q-27 0 -65 -38l-14 15q56 76 98 76q13 0 53 -16q38 -19 52 -19q35 0 70 35zM292 426h-1q-35 0 -72 -49.5t-60 -123.5t-23 -141q0 -101 54 -101q36 0 72.5 50.5t58.5 124t22 140.5q0 100 -51 100zM302 450h1 q67 0 108.5 -47.5t41.5 -125.5q0 -116 -80 -203t-194 -87q-64 0 -108 46t-44 123q0 117 83.5 205.5t191.5 88.5z"/>
<glyph glyph-name="odieresis" horiz-adv-x="480" unicode="ö" d="M447 654h6q7 -6 19 -27.5t14 -32.5l-1 -6q-6 -12 -28 -31.5t-34 -25.5h-5q-27 23 -37 64v3q31 41 66 56zM267 654h5q7 -6 19 -27.5t14 -32.5l-1 -6q-5 -12 -27 -31.5t-34 -25.5h-5q-11 9 -22.5 28t-15.5 36v3q34 42 67 56zM292 426h-1q-35 0 -72 -49.5t-60 -123.5 t-23 -141q0 -101 54 -101q36 0 72.5 50.5t58.5 124t22 140.5q0 100 -51 100zM302 450h1q67 0 108.5 -47.5t41.5 -125.5q0 -116 -80 -203t-194 -87q-64 0 -108 46t-44 123q0 117 83.5 205.5t191.5 88.5z"/>
<glyph glyph-name="divide" horiz-adv-x="580" unicode="÷" d="M292 431l6 1q8 -4 23 -21t21 -30l-1 -7q-6 -12 -22 -28.5t-26 -23.5l-7 -2q-28 16 -45 51l2 8q25 36 49 52zM290 141l7 1q9 -4 24 -21t20 -30l-1 -7q-7 -12 -22.5 -29t-25.5 -23l-7 -2q-30 17 -44 52l1 7q25 35 48 52zM86 255h421l-13 -48h-421z"/>
<glyph glyph-name="oslash" horiz-adv-x="480" unicode="ø" d="M346 340l-206 -271q10 -58 49 -58q41 0 78.5 51t59 124.5t21.5 143.5v8zM135 107l205 272q-9 47 -46 47q-57 0 -109 -99.5t-52 -207.5v-10zM385 428l43 54l18 -22l-41 -49q49 -49 49 -132q0 -117 -80 -204.5t-194 -87.5q-55 0 -91 30l-47 -59l-17 25l43 52 q-41 49 -41 120q0 118 83 206.5t192 88.5q49 0 83 -22z"/>
<glyph glyph-name="ugrave" horiz-adv-x="563" unicode="ù" d="M374 509l-17 -12l-111 156l3 9q25 14 70 14h10zM134 380l-75 12l5 10q33 13 97 28.5t96 19.5l6 -2q-26 -68 -68.5 -202.5t-51.5 -176.5q-7 -22 6 -22q34 0 91 59t105 142q41 72 78 185q71 13 120 17l3 -5l-39 -51q-26 -71 -95 -345l1 -2q62 18 114 89l5 -9 q-6 -51 -58.5 -95.5t-134.5 -44.5q-23 0 -40 5q21 76 72 241h-3q-119 -182 -212 -226q-42 -20 -80 -20q-44 0 -44 38q0 14 8 43q2 7 94 312z"/>
<glyph glyph-name="uacute" horiz-adv-x="563" unicode="ú" d="M325 496l-11 14l99 143q5 1 17 1q40 0 64 -13v-11zM134 380l-75 12l5 10q33 13 97 28.5t96 19.5l6 -2q-26 -68 -68.5 -202.5t-51.5 -176.5q-7 -22 6 -22q34 0 91 59t105 142q41 72 78 185q71 13 120 17l3 -5l-39 -51q-26 -71 -95 -345l1 -2q62 18 114 89l5 -9 q-6 -51 -58.5 -95.5t-134.5 -44.5q-23 0 -40 5q21 76 72 241h-3q-119 -182 -212 -226q-42 -20 -80 -20q-44 0 -44 38q0 14 8 43q2 7 94 312z"/>
<glyph glyph-name="ucircumflex" horiz-adv-x="563" unicode="û" d="M379 670l24 7l54 -169l-17 -11l-68 91l-115 -91l-10 13zM134 380l-75 12l5 10q33 13 97 28.5t96 19.5l6 -2q-26 -68 -68.5 -202.5t-51.5 -176.5q-7 -22 6 -22q34 0 91 59t105 142q41 72 78 185q71 13 120 17l3 -5l-39 -51q-26 -71 -95 -345l1 -2q62 18 114 89l5 -9 q-6 -51 -58.5 -95.5t-134.5 -44.5q-23 0 -40 5q21 76 72 241h-3q-119 -182 -212 -226q-42 -20 -80 -20q-44 0 -44 38q0 14 8 43q2 7 94 312z"/>
<glyph glyph-name="udieresis" horiz-adv-x="563" unicode="ü" d="M472 654h6q7 -6 19 -27.5t14 -32.5l-1 -6q-6 -12 -28 -31.5t-34 -25.5h-5q-27 23 -37 64v3q31 41 66 56zM292 654h5q7 -6 19 -27.5t14 -32.5l-1 -6q-5 -12 -27 -31.5t-34 -25.5h-5q-11 9 -22.5 28t-15.5 36v3q34 42 67 56zM134 380l-75 12l5 10q33 13 97 28.5t96 19.5 l6 -2q-26 -68 -68.5 -202.5t-51.5 -176.5q-7 -22 6 -22q34 0 91 59t105 142q41 72 78 185q71 13 120 17l3 -5l-39 -51q-26 -71 -95 -345l1 -2q62 18 114 89l5 -9q-6 -51 -58.5 -95.5t-134.5 -44.5q-23 0 -40 5q21 76 72 241h-3q-119 -182 -212 -226q-42 -20 -80 -20 q-44 0 -44 38q0 14 8 43q2 7 94 312z"/>
<glyph glyph-name="yacute" horiz-adv-x="446" unicode="ý" d="M276 496l-11 14l99 143q5 1 17 1q40 0 64 -13v-11zM41 282l-11 13q29 80 71 117t77 38q50 -2 72 -110q18 -91 18 -230v-33h2q32 48 72 152.5t43 150.5l-27 40l1 6q47 21 82 23q13 0 13 -8q0 -17 -2.5 -33.5t-10.5 -39t-12.5 -33.5t-19 -44t-19.5 -44q-76 -177 -194 -318 q-43 -53 -85.5 -92.5t-66.5 -54.5t-34 -15q-6 0 -14.5 7t-19 28.5t-17.5 52.5l3 8q40 -2 102 -31q36 24 72 77q42 61 42 155q0 174 -39 282q-7 29 -16 29q-6 0 -31 -28t-51 -65z"/>
<glyph glyph-name="thorn" horiz-adv-x="519" unicode="þ" d="M367 394h-1q-54 0 -144 -131q-58 -84 -94 -216q25 -30 63 -30q52 0 100 58t74 133t26 135q0 51 -24 51zM131 654l5 13q27 10 92 20.5t89 10.5l1 -2q-85 -254 -143 -454h3q74 113 138.5 160.5t112.5 47.5q36 0 56.5 -30.5t20.5 -78.5q0 -91 -45.5 -174t-115.5 -131.5 t-142 -48.5q-52 0 -83 32q-15 -51 -50 -192l91 -26l-4 -14q-3 0 -117 -5.5t-154 -5.5l7 14l66 32q11 27 39 125.5t60.5 217.5t47.5 167q17 55 46.5 161.5t41.5 147.5z"/>
<glyph glyph-name="ydieresis" horiz-adv-x="446" unicode="ÿ" d="M403 654h6q7 -6 19 -27.5t14 -32.5l-1 -6q-6 -12 -28 -31.5t-34 -25.5h-5q-27 23 -37 64v3q31 41 66 56zM223 654h5q7 -6 19 -27.5t14 -32.5l-1 -6q-5 -12 -27 -31.5t-34 -25.5h-5q-11 9 -22.5 28t-15.5 36v3q34 42 67 56zM41 282l-11 13q29 80 71 117t77 38 q50 -2 72 -110q18 -91 18 -230v-33h2q32 48 72 152.5t43 150.5l-27 40l1 6q47 21 82 23q13 0 13 -8q0 -17 -2.5 -33.5t-10.5 -39t-12.5 -33.5t-19 -44t-19.5 -44q-76 -177 -194 -318q-43 -53 -85.5 -92.5t-66.5 -54.5t-34 -15q-6 0 -14.5 7t-19 28.5t-17.5 52.5l3 8 q40 -2 102 -31q36 24 72 77q42 61 42 155q0 174 -39 282q-7 29 -16 29q-6 0 -31 -28t-51 -65z"/>
<glyph glyph-name="dotlessi" horiz-adv-x="296" unicode="ı" d="M135 379l-65 12l5 11q25 14 87 30t93 18l3 -3q-112 -355 -127 -417l1 -1q44 12 129 112l3 -8q-9 -49 -55 -97.5t-119 -48.5q-54 0 -54 57q0 22 9 53q24 80 90 282z"/>
<glyph glyph-name="OE" horiz-adv-x="992" unicode="Œ" d="M732 659h205q43 10 86 10l3 -4q-23 -92 -49 -150l-9 -5q-12 33 -34 120l-180 -10l-70 -259q145 0 244 11l3 -10q-4 -7 -33 -28t-34 -21t-93.5 5t-97.5 5q-24 -85 -73 -282l211 -12q124 117 135 125l9 -4q-35 -101 -65 -153q-102 3 -216 3h-109q-23 0 -95 -3t-85 -3 q-154 0 -237.5 77t-83.5 205q0 168 123 278.5t342 110.5q42 0 118.5 -3t84.5 -3zM488 39l157 577q-37 23 -114 23q-158 0 -250.5 -106t-92.5 -261q0 -105 54 -178.5t162 -73.5q48 0 84 19z"/>
<glyph glyph-name="oe" horiz-adv-x="717" unicode="œ" d="M588 427h-1q-31 0 -77 -60.5t-69 -143.5q37 6 98 26q38 15 59 51t21 76q0 26 -9.5 38.5t-21.5 12.5zM303 450h1q98 0 122 -81h2q35 38 79 59.5t86 21.5q63 0 93.5 -29t30.5 -76q0 -46 -51 -80q-61 -39 -232 -68q-8 -34 -8 -62v-8q2 -91 78 -91q46 0 96 33.5t77 67.5l2 -1 l4 -21q-38 -61 -94.5 -94.5t-120.5 -33.5q-89 0 -124 78h-3q-71 -78 -167 -78q-69 0 -108.5 43.5t-39.5 114.5q0 117 85 211t192 94zM303 426h-1q-34 0 -66 -39.5t-52.5 -94.5t-33 -108t-12.5 -84q0 -89 46 -89q42 0 80.5 63t58.5 140t20 133q1 79 -40 79z"/>
<glyph glyph-name="circumflex" horiz-adv-x="386" unicode="ˆ" d="M302 670l24 7l54 -169l-17 -11l-68 91l-115 -91l-10 13z"/>
<glyph glyph-name="ring" horiz-adv-x="386" unicode="˚" d="M306 663h1q29 0 48.5 -17.5t19.5 -49.5q0 -10 -1 -16q-7 -38 -35 -59.5t-60 -21.5q-30 0 -50 17t-20 48q0 10 1 16q7 39 35 61t61 22zM283 529h1q19 0 34 13.5t19 38.5q1 5 1 14q0 38 -37 38q-19 0 -33.5 -13t-18.5 -39q-1 -5 -1 -14q0 -38 35 -38z"/>
<glyph glyph-name="tilde" horiz-adv-x="386" unicode="˜" d="M427 618l12 -11q-55 -78 -99 -78q-15 0 -58 20q-38 16 -49 16q-27 0 -65 -38l-14 15q56 76 98 76q13 0 53 -16q38 -19 52 -19q35 0 70 35z"/>
<glyph glyph-name="afii10023" horiz-adv-x="573" unicode="Ё" d="M540 841h6q9 -8 21.5 -30t14.5 -35l-1 -6q-6 -12 -30 -33t-36 -27h-5q-29 23 -42 67l1 4q30 41 71 60zM343 841h5q9 -8 21 -30t14 -35l-1 -6q-6 -12 -29 -33t-36 -27h-6q-30 28 -40 67v4q34 42 72 60zM139 650l6 11q21 0 62.5 -1t61.5 -1h248q57 9 83 9h4l3 -4 q-21 -86 -49 -149l-9 -4q-12 30 -34 118l-179 -10l-69 -258q145 0 242 11l4 -10q-5 -7 -34 -28t-33 -21q-5 0 -93 5t-97 5q-31 -107 -74 -281l211 -13q112 107 135 125l9 -3q-35 -101 -65 -153q-86 3 -207 3h-160q-23 0 -71 -1.5t-71 -1.5l6 12l92 39q9 17 88 294l75 270z "/>
<glyph glyph-name="afii10051" horiz-adv-x="753" unicode="Ђ" d="M231 658h427q52 12 89 14l5 -4q-15 -38 -80 -166l-10 -2q-6 62 -10 131l-167 -9l-70 -260q87 36 135 36q68 0 111.5 -48t43.5 -134q0 -81 -30 -148.5t-81 -113t-111 -75t-129 -45.5l-6 20q100 42 169 137t69 214q0 73 -28.5 109t-78.5 36q-36 0 -72 -15 q-39 -155 -72 -286l90 -39l-6 -12q-18 0 -74.5 1t-85.5 1q-27 0 -77.5 -1t-70.5 -1l6 12l95 39q3 9 83 286l82 287l-151 8q-33 -40 -108 -127l-13 -2q29 120 46 168l5 3q28 0 75 -14z"/>
<glyph glyph-name="afii10052" horiz-adv-x="505" unicode="Ѓ" d="M346 703l-12 15l145 119q16 -2 35 -18t31 -38v-11zM144 649l7 11q20 0 60.5 -1.5t60.5 -1.5h234q71 10 93 11l2 -4q-16 -68 -54 -160l-9 -3q-29 111 -32 129l-170 -12l-86 -312q-62 -231 -65 -257l105 -39l-5 -12q-28 0 -83.5 1t-84.5 1q-23 0 -70.5 -1t-70.5 -1l6 12 l80 38q8 15 86 293l75 271z"/>
<glyph glyph-name="afii10053" horiz-adv-x="669" unicode="Є" d="M629 151l4 -12q-42 -82 -87 -124q-85 -34 -175 -34q-138 0 -221 77t-83 220q0 79 31 151.5t85 127.5t133 87.5t170 32.5q49 0 85.5 -12t52.5 -28q38 17 81 24l5 -5q-11 -33 -35.5 -89t-35.5 -75l-10 -3q-9 47 -15 127q-36 24 -106 24q-69 0 -126.5 -27t-94 -70.5t-59 -90 t-29.5 -92.5q300 0 393 14l4 -8q-3 -9 -31.5 -32.5t-41.5 -23.5q-23 0 -131 4.5t-199 6.5q-3 -18 -3 -40q0 -122 59 -191t162 -69q34 0 59 5q98 83 159 125z"/>
<glyph glyph-name="afii10054" horiz-adv-x="497" unicode="Ѕ" d="M328 676h1q76 0 120 -42q33 22 78 34l5 -5q-8 -28 -30.5 -85.5t-33.5 -74.5l-10 -5q-15 53 -18 109q-7 11 -33 22t-62 11q-57 0 -92.5 -35t-35.5 -84q0 -52 44 -92q14 -12 53.5 -45t67.5 -58q76 -67 76 -145q0 -88 -68.5 -143t-174.5 -55q-64 0 -125 26.5t-89 58.5 q2 15 28.5 66t45.5 76l11 2q0 -2 9 -175q35 -19 102 -19q71 0 109.5 36.5t38.5 88.5q0 57 -48 99q-18 17 -56 50t-55 49q-71 64 -71 144q0 85 62 138t151 53z"/>
<glyph glyph-name="afii10055" horiz-adv-x="341" unicode="І" d="M150 649l5 12q21 0 61 -1t60 -1q24 0 72.5 1t72.5 1l-4 -12l-83 -38l-73 -267q-74 -271 -76 -296l81 -38l-5 -12q-23 0 -71 1t-72 1q-25 0 -74.5 -1t-74.5 -1l5 12l87 38q7 14 88 296l76 267z"/>
<glyph glyph-name="afii10056" horiz-adv-x="341" unicode="Ї" d="M426 841h6q9 -8 21.5 -30t14.5 -35l-1 -6q-6 -12 -30 -33t-36 -27h-5q-29 23 -42 67l1 4q30 41 71 60zM229 841h5q9 -8 21 -30t14 -35l-1 -6q-6 -12 -29 -33t-36 -27h-6q-30 28 -40 67v4q34 42 72 60zM150 649l5 12q21 0 61 -1t60 -1q24 0 72.5 1t72.5 1l-4 -12l-83 -38 l-73 -267q-74 -271 -76 -296l81 -38l-5 -12q-23 0 -71 1t-72 1q-25 0 -74.5 -1t-74.5 -1l5 12l87 38q7 14 88 296l76 267z"/>
<glyph glyph-name="afii10057" horiz-adv-x="321" unicode="Ј" d="M131 649l6 12q22 0 68 -1t72 -1t73.5 1t71.5 1l-5 -13l-86 -38q-30 -115 -125 -464q-23 -84 -51 -129q-66 -109 -210 -159l-18 14l3 7q41 16 80 58q38 43 74 167q7 26 72 278q56 214 60 228z"/>
<glyph glyph-name="afii10058" horiz-adv-x="879" unicode="Љ" d="M502 343l28 -314q81 7 135.5 58.5t54.5 138.5q0 62 -33 97t-94 35q-57 0 -91 -15zM380 635l102 49l2 -7q-7 -21 -7 -47q0 -16 1 -25q1 -15 7.5 -89t13.5 -148q85 33 163 33q89 0 135.5 -48t46.5 -118q0 -69 -34 -118t-91.5 -73.5t-119 -35.5t-131.5 -11q-21 0 -58.5 0.5 t-51.5 0.5l5 11l48 31q0 9 -30 511h-2q-225 -380 -295 -504l81 -37l-5 -12q-17 0 -54.5 1t-55.5 1t-52 -1t-51 -1l4 12l73 37q50 67 348 544q9 16 8 29v15z"/>
<glyph glyph-name="afii10059" horiz-adv-x="961" unicode="Њ" d="M795 222v1q0 61 -37 97t-97 36q-21 0 -43 -4q-51 -185 -84 -328q261 2 261 198zM222 611l-73 38l5 12q20 0 61 -1t61 -1t58.5 1t57.5 1l-3 -12l-57 -38l-63 -234h244l66 234l-44 39l5 11q15 0 43 -1t42 -1q26 0 76 1t75 1l-5 -12l-83 -38q-37 -124 -63 -232q48 11 94 11 q95 0 147.5 -45.5t52.5 -115.5q0 -232 -359 -232h-6q-133 0 -222 4l5 12l82 37q19 56 87 297q-53 -11 -139 -11h-108q-48 -178 -74 -288l45 -38l-4 -12q-18 0 -55 1.5t-55 1.5q-23 0 -71 -1.5t-72 -1.5l6 12l82 39q18 32 90 299z"/>
<glyph glyph-name="afii10060" horiz-adv-x="773" unicode="Ћ" d="M220 659h436q44 11 89 13l4 -4q-23 -64 -80 -166l-9 -2q-10 111 -11 131l-174 -8l-70 -262q90 40 155 40q41 0 71.5 -15t44.5 -38q13 -22 13 -54q0 -30 -10 -69l-42 -163q-1 -4 -1 -9q0 -9 12 -17l56 -30l-7 -12h-36q-113 0 -164 8q32 66 73 221q7 30 7 52q0 79 -88 79 q-44 0 -91 -17l-42 -168l-23 -92l-7 -28l85 -39l-5 -12q-17 0 -71.5 1t-83.5 1q-27 0 -76 -1t-66 -1l6 12l89 39q11 29 83 286l81 287l-151 9q-33 -43 -108 -128l-13 -3q28 118 48 169l3 3q27 0 73 -13z"/>
<glyph glyph-name="afii10061" horiz-adv-x="655" unicode="Ќ" d="M422 703l-12 15l145 119q16 -2 35 -18t31 -38v-11zM225 611l-65 38l5 12q22 0 63 -1t62 -1q22 0 64 1t63 1l-6 -12l-78 -40l-72 -260q69 13 90 32q105 94 223 234l10 46q9 0 30.5 -1t32.5 -1q17 0 50 1t49 1l-6 -13l-116 -47q-112 -99 -238 -228v-3q25 -50 32 -63 q152 -283 172 -316l-6 -6q-66 1 -99.5 20.5t-62.5 65.5q-16 26 -35 60t-47 86t-48 89q-13 22 -36 22q-60 -219 -73 -279l78 -39l-7 -12q-22 0 -69 1t-73 1q-23 0 -68.5 -1t-66.5 -1l6 12l79 39q7 11 87 292z"/>
<glyph glyph-name="afii10062" horiz-adv-x="630" unicode="Ў" d="M570 815l23 16l9 -3q-22 -61 -63.5 -91.5t-93.5 -30.5q-47 0 -74 23t-27 52q0 8 4 18q38 30 53 32l5 -5v-6q0 -26 17 -43t49 -17q57 0 98 55zM337 649l-38 -33l96 -372h2q167 275 216 369l-41 36l5 12q12 0 37 -1t35 -1q19 0 55 1t54 1l-5 -12l-46 -20q-26 -12 -35.5 -20 t-24.5 -31q-47 -71 -159.5 -246.5t-132.5 -204.5q-110 -162 -193 -162q-38 0 -54 42q-6 14 -6 39v14l6 6q49 -25 98 -25q37 0 65 24t34 50q2 12 2 20q0 18 -6 48q-10 48 -109 402q-6 20 -12.5 28t-23.5 16l-41 20l5 12q17 0 56.5 -1t61.5 -1q20 0 55.5 1t47.5 1z"/>
<glyph glyph-name="afii10145" horiz-adv-x="731" unicode="Џ" d="M222 610l-72 39l6 12q27 0 70 -1t62 -1t54.5 1t53.5 1l-6 -13l-59 -37l-72 -267q-48 -178 -77 -301q50 -9 135 -9q88 0 138 9q29 90 90 310l70 257l-38 39l7 12q17 0 48.5 -1t46.5 -1q25 0 68.5 1t61.5 1l-5 -12l-79 -38q-12 -45 -37 -136t-37 -134q-66 -247 -72 -292 l80 -38l-5 -13q-27 0 -77 1.5t-73 1.5h-138q-42 -90 -89 -184l-17 -5q4 95 10 189h-158q-24 0 -68 -1.5t-64 -1.5l5 12l78 39q37 120 86 299z"/>
<glyph glyph-name="afii10017" horiz-adv-x="681" unicode="А" d="M398 553h-2q-103 -168 -168 -273q23 0 97.5 -2t90.5 -2q-17 266 -18 277zM396 635l106 49l3 -7q-8 -21 -8 -51q0 -3 0.5 -10.5t0.5 -11.5q14 -198 47 -522q6 -27 19 -37.5t64 -34.5l-4 -12q-21 0 -64.5 1t-66.5 1q-19 0 -57.5 -1t-57.5 -1l3 11l51 32q0 16 -2.5 45t-6 75 t-5.5 82q-52 -9 -152 -9q-9 0 -30.5 0.5t-34.5 0.5q-31 -50 -113 -187l86 -38l-4 -12q-18 0 -57.5 1t-59.5 1q-17 0 -53 -1t-54 -1l5 12l76 38q47 61 360 544q9 14 9 29v14z"/>
<glyph glyph-name="afii10018" horiz-adv-x="606" unicode="Б" d="M302 359h-1q-22 0 -38 -4q-53 -191 -85 -331q122 1 191.5 49t70.5 146q0 66 -37.5 103t-100.5 37zM222 612l-79 37l6 12q21 0 62 -1t61 -1h257q57 10 82 10l3 -5q-17 -71 -52 -156l-10 -4q-25 89 -31 126l-187 -10l-63 -239q42 11 87 11q99 0 153 -46t54 -121 q0 -228 -362 -228h-6q-120 0 -221 3l5 12l81 37q11 23 83 285z"/>
<glyph glyph-name="afii10019" horiz-adv-x="618" unicode="В" d="M260 333q-66 -250 -79 -308q138 2 195 42q74 51 74 139q0 63 -41 95t-145 32h-4zM339 641l-72 -283q106 1 164 42.5t58 121.5q0 59 -37 89t-98 30h-15zM143 644l5 12q154 11 217 11q119 0 180.5 -33.5t61.5 -113.5q0 -72 -61 -115t-157 -53l-1 -5q188 -28 188 -154 q0 -97 -92.5 -146t-246.5 -49h-14q-41 1 -126 1.5t-126 1.5l5 12l87 36q14 28 71 239l92 334z"/>
<glyph glyph-name="afii10020" horiz-adv-x="505" unicode="Г" d="M144 649l7 11q20 0 60.5 -1.5t60.5 -1.5h234q71 10 93 11l2 -4q-16 -68 -54 -160l-9 -3q-29 111 -32 129l-170 -12l-86 -312q-62 -231 -65 -257l105 -39l-5 -12q-28 0 -83.5 1t-84.5 1q-23 0 -70.5 -1t-70.5 -1l6 12l80 38q8 15 86 293l75 271z"/>
<glyph glyph-name="afii10021" horiz-adv-x="694" unicode="Д" d="M403 535h-2q-257 -417 -300 -493q61 -9 161 -9q116 0 168 9q0 10 -27 493zM402 634l102 49l4 -6q-8 -23 -8 -45q0 -15 1 -24q5 -73 48 -572l70 -7q-66 -146 -104 -220l-16 -5q1 8 21 196h-466q-16 -25 -61 -95t-63 -96l-16 -5q60 224 61 226l67 7q76 109 349 537 q11 15 11 28v32z"/>
<glyph glyph-name="afii10022" horiz-adv-x="573" unicode="Е" d="M139 650l6 11q21 0 62.5 -1t61.5 -1h248q57 9 83 9h4l3 -4q-21 -86 -49 -149l-9 -4q-12 30 -34 118l-179 -10l-69 -258q145 0 242 11l4 -10q-5 -7 -34 -28t-33 -21q-5 0 -93 5t-97 5q-31 -107 -74 -281l211 -13q112 107 135 125l9 -3q-35 -101 -65 -153q-86 3 -207 3 h-160q-23 0 -71 -1.5t-71 -1.5l6 12l92 39q9 17 88 294l75 270z"/>
<glyph glyph-name="afii10024" horiz-adv-x="958" unicode="Ж" d="M534 611l-61 38l6 12q18 0 58.5 -1t62.5 -1t60.5 1t53.5 1l-4 -12l-69 -39l-70 -260q68 12 89 33q99 93 217 232l10 46q8 0 30 -1t32 -1q17 0 50.5 1t49.5 1l-6 -13l-116 -46q-52 -48 -148.5 -143t-98.5 -97v-4q31 -22 46 -52q123 -237 167 -316l-4 -5q-67 1 -100.5 20.5 t-61.5 65.5q-20 34 -64.5 118t-62.5 117q-12 22 -35 22q-67 -247 -72 -279l75 -39l-6 -12q-23 0 -69.5 1t-70.5 1q-23 0 -68 -1t-66 -1l7 12l79 39q9 19 84 279q-46 0 -73 -27q-218 -231 -232 -244q-39 -36 -85 -54t-119 -19l-3 5q31 30 145.5 149t163.5 167q34 35 116 57 l1 2q-25 35 -140 240l-101 44l5 13q12 0 41 -1t44 -1q12 0 34 1t32 1l-3 -49q43 -110 103 -218q19 -36 77 -44z"/>
<glyph glyph-name="afii10025" horiz-adv-x="529" unicode="З" d="M150 484l-10 -3q-14 70 -15 119q104 77 211 77q83 0 130.5 -41.5t47.5 -107.5q0 -78 -86 -126q-39 -24 -109 -42l-1 -6q52 -12 93 -35q73 -41 73 -125q0 -70 -44 -120t-106 -71.5t-132 -21.5q-71 0 -130.5 28t-81.5 57q35 65 77 121l11 4q3 -36 3 -93q0 -41 -1 -63 q26 -18 82 -18h6q84 2 137.5 54.5t53.5 130.5q0 129 -146 129q-32 0 -53 -3l-2 10l51 37q18 -3 38 -3q73 0 112 40t39 102q0 58 -32.5 91t-87.5 33q-31 0 -60 -11q-43 -100 -68 -143z"/>
<glyph glyph-name="afii10026" horiz-adv-x="750" unicode="И" d="M221 611l-67 38l5 12q21 0 66 -1.5t65 -1.5q18 0 55 1.5t54 1.5l-6 -13l-64 -36l-79 -287q-42 -153 -73 -244h3q73 89 219 267.5t219 268.5l9 41h72q23 0 66.5 1.5t62.5 1.5l-6 -12l-81 -38l-71 -268q-74 -272 -74 -295l75 -38l-5 -12q-24 0 -70.5 1t-70.5 1 q-19 0 -60 -1t-59 -1l6 13l68 37q7 23 77 273q34 123 77 259h-8q-166 -208 -432 -538l-11 -42h-72q-21 0 -65 -1t-66 -1l6 12l78 38q28 80 86 299z"/>
<glyph glyph-name="afii10027" horiz-adv-x="750" unicode="Й" d="M622 815l23 16l9 -3q-22 -61 -63.5 -91.5t-93.5 -30.5q-47 0 -74 23t-27 52q0 8 4 18q38 30 53 32l5 -5v-6q0 -26 17 -43t49 -17q57 0 98 55zM221 611l-67 38l5 12q21 0 66 -1.5t65 -1.5q18 0 55 1.5t54 1.5l-6 -13l-64 -36l-79 -287q-42 -153 -73 -244h3 q73 89 219 267.5t219 268.5l9 41h72q23 0 66.5 1.5t62.5 1.5l-6 -12l-81 -38l-71 -268q-74 -272 -74 -295l75 -38l-5 -12q-24 0 -70.5 1t-70.5 1q-19 0 -60 -1t-59 -1l6 13l68 37q7 23 77 273q34 123 77 259h-8q-166 -208 -432 -538l-11 -42h-72q-21 0 -65 -1t-66 -1l6 12 l78 38q28 80 86 299z"/>
<glyph glyph-name="afii10028" horiz-adv-x="655" unicode="К" d="M225 611l-65 38l5 12q22 0 63 -1t62 -1q22 0 64 1t63 1l-6 -12l-78 -40l-72 -260q69 13 90 32q105 94 223 234l10 46q9 0 30.5 -1t32.5 -1q17 0 50 1t49 1l-6 -13l-116 -47q-112 -99 -238 -228v-3q25 -50 32 -63q152 -283 172 -316l-6 -6q-66 1 -99.5 20.5t-62.5 65.5 q-16 26 -35 60t-47 86t-48 89q-13 22 -36 22q-60 -219 -73 -279l78 -39l-7 -12q-22 0 -69 1t-73 1q-23 0 -68.5 -1t-66.5 -1l6 12l79 39q7 11 87 292z"/>
<glyph glyph-name="afii10029" horiz-adv-x="692" unicode="Л" d="M396 636l105 49l3 -7q-8 -21 -8 -50q0 -3 0.5 -10.5t0.5 -11.5q15 -208 48 -524q6 -27 19 -37.5t64 -34.5l-4 -12q-22 0 -65 1t-65 1q-19 0 -57.5 -1t-57.5 -1l3 11l49 32q0 10 -1 27.5t-3.5 56.5t-6 87t-9.5 141.5t-13 198.5h-2q-243 -396 -307 -505l85 -37l-6 -12 q-17 0 -56.5 1t-59.5 1q-18 0 -53 -1t-53 -1l5 12l76 37q72 93 361 545q8 13 8 29v15z"/>
<glyph glyph-name="afii10030" horiz-adv-x="920" unicode="М" d="M182 647l6 12q31 0 94 0.5t95 0.5q-5 -19 -5 -33q0 -3 0.5 -8t0.5 -7q3 -19 14 -77.5t29.5 -159t34.5 -190.5h2q163 237 290 430q6 12 9 45q137 0 204 -1l-5 -14l-94 -31q-17 -79 -48.5 -303.5t-34.5 -265.5l84 -35l-5 -12q-23 0 -69 1t-69 1q-24 0 -71.5 -1t-70.5 -1 l6 12l75 35q18 96 50 273.5t46 254.5h-3q-23 -37 -144 -228.5t-217 -351.5l-21 -6q-36 259 -77 543h-1q-11 -28 -52 -130t-75.5 -191.5t-58.5 -159.5l89 -39l-6 -12q-20 0 -61 1t-61 1q-18 0 -53.5 -1t-53.5 -1l5 12l81 38q94 187 235 530q-4 30 -18 39.5t-76 29.5z"/>
<glyph glyph-name="afii10031" horiz-adv-x="744" unicode="Н" d="M147 649l5 12q20 0 61.5 -1t62.5 -1q19 0 57.5 1t57.5 1l-3 -12l-57 -38l-64 -238h293l65 238l-42 39l6 11q14 0 42 -1t42 -1q26 0 76.5 1t75.5 1l-5 -12l-83 -38q-20 -64 -74 -270q-72 -270 -70 -292l80 -38l-7 -13q-23 0 -69 1.5t-70 1.5q-19 0 -58.5 -1.5t-59.5 -1.5 l5 12l56 39q17 56 81 293q-58 -10 -142 -10h-152q-41 -144 -74 -283l47 -39l-5 -12q-19 0 -55 1.5t-55 1.5q-24 0 -72 -1.5t-71 -1.5l6 12l81 39q7 10 36.5 107.5t54.5 191.5l71 263z"/>
<glyph glyph-name="afii10032" horiz-adv-x="733" unicode="О" d="M463 650h-1q-75 0 -140.5 -67.5t-100.5 -162t-35 -183.5q0 -112 39.5 -170t111.5 -58q75 0 138.5 71.5t96.5 170t33 189.5q0 103 -38.5 156.5t-103.5 53.5zM464 676h1q47 0 91 -16t83 -49.5t63.5 -93t24.5 -137.5q0 -68 -25 -136.5t-71.5 -127.5t-124.5 -96t-174 -37 q-109 0 -188.5 73t-79.5 212q0 75 29.5 148t80.5 131t127 93.5t163 35.5z"/>
<glyph glyph-name="afii10033" horiz-adv-x="732" unicode="П" d="M221 610l-80 39l6 12q23 0 67 -1.5t65 -1.5h386q25 0 75 1.5t75 1.5l-5 -12l-84 -39q-20 -67 -74 -269q-71 -276 -68 -292l77 -39l-6 -12q-23 0 -69 1t-70 1q-20 0 -59 -1t-58 -1l5 13l55 38q14 42 65 231l93 337q-42 8 -144 8q-101 0 -141 -8l-77 -291 q-58 -219 -70 -276l45 -40l-6 -12q-19 0 -55 1t-54 1q-24 0 -71 -1t-71 -1l6 12l81 38q18 34 90 298z"/>
<glyph glyph-name="afii10034" horiz-adv-x="572" unicode="Р" d="M140 641l9 13q130 13 211 13q248 0 248 -188q0 -100 -79 -159.5t-188 -59.5q-29 0 -56 10v13q91 6 147.5 63t56.5 148q0 73 -41 108.5t-110 35.5l-72 -282q-77 -295 -78 -307l99 -39l-6 -12q-25 0 -77.5 1t-78.5 1q-25 0 -74.5 -1t-75.5 -1l5 12l83 39q7 16 88 304 l74 265z"/>
<glyph glyph-name="afii10035" horiz-adv-x="665" unicode="С" d="M634 153l5 -14q-50 -85 -89 -121q-91 -37 -178 -37q-138 0 -222 76.5t-84 216.5q0 107 55 199t155 148t221 56q48 0 86.5 -13t56.5 -29q42 20 80 26l4 -6q-36 -98 -73 -164l-9 -3q-11 69 -14 124q-37 26 -108 26q-77 0 -141 -32t-104.5 -84t-63 -115t-22.5 -128 q0 -121 59.5 -188.5t167.5 -67.5q37 0 56 5q86 73 162 125z"/>
<glyph glyph-name="afii10036" horiz-adv-x="642" unicode="Т" d="M230 659h416q53 12 89 12l5 -3q-27 -70 -80 -167l-10 -3q-9 107 -11 132l-153 -8l-68 -257q-47 -178 -80 -316l112 -37l-7 -14q-29 0 -86.5 1.5t-86.5 1.5t-85.5 -1.5t-84.5 -1.5l6 12l108 39q9 25 83 284l81 289l-149 8q-56 -72 -108 -128l-12 -3q25 109 47 170l4 3 q29 0 70 -13z"/>
<glyph glyph-name="afii10037" horiz-adv-x="630" unicode="У" d="M337 649l-38 -33l96 -372h2q167 275 216 369l-41 36l5 12q12 0 37 -1t35 -1q19 0 55 1t54 1l-5 -12l-46 -20q-26 -12 -35.5 -20t-24.5 -31q-47 -71 -159.5 -246.5t-132.5 -204.5q-110 -162 -193 -162q-38 0 -54 42q-6 14 -6 39v14l6 6q49 -25 98 -25q37 0 65 24t34 50 q2 12 2 20q0 18 -6 48q-10 48 -109 402q-6 20 -12.5 28t-23.5 16l-41 20l5 12q17 0 56.5 -1t61.5 -1q20 0 55.5 1t47.5 1z"/>
<glyph glyph-name="afii10038" horiz-adv-x="789" unicode="Ф" d="M540 568l-124 -470q112 12 179 84t67 186q0 87 -33.5 136t-88.5 64zM309 109l128 467q-114 -9 -181.5 -82t-67.5 -190q0 -78 33.5 -127t87.5 -68zM452 627l-66 32l6 12q18 0 58 -1t60 -1q21 0 62.5 1t60.5 1l-3 -12l-73 -32l-10 -35q44 -8 81 -23.5t72.5 -42t56 -71 t20.5 -101.5q0 -75 -31.5 -131t-86.5 -87.5t-116.5 -46.5t-133.5 -17l-8 -30l78 -32l-7 -12q-22 0 -68 1t-68 1q-23 0 -67.5 -1t-62.5 -1l6 12l76 31l13 40q-44 6 -82.5 21.5t-73 42t-55 69t-20.5 95.5q0 73 32 130t86 91.5t119 52.5t138 19z"/>
<glyph glyph-name="afii10039" horiz-adv-x="650" unicode="Х" d="M114 649l5 12q22 0 65 -1t64 -1q16 0 48 1t48 1l-3 -12l-23 -38q16 -50 39.5 -116.5t29.5 -84.5h3q88 102 160 204l-19 35l5 12q8 0 31.5 -1t35.5 -1q16 0 53 1t57 1l-5 -12l-104 -44q-51 -50 -205 -229q17 -50 115 -323l94 -43l-6 -12q-25 0 -73.5 1t-72.5 1 q-15 0 -44.5 -1t-43.5 -1l26 51q-5 30 -78 241h-2q-127 -156 -195 -243l40 -37l-5 -12q-13 0 -40.5 1t-41.5 1q-76 0 -114 -2l6 12l95 45q51 47 245 271q-58 170 -103 283z"/>
<glyph glyph-name="afii10040" horiz-adv-x="736" unicode="Ц" d="M222 611l-71 38l5 12q27 0 70.5 -1t62.5 -1t54 1t53 1l-6 -13l-58 -37l-75 -275q-40 -148 -75 -293q45 -9 135 -9q95 0 140 9q31 90 88 302l73 267l-39 37l7 12q16 0 47.5 -1t47.5 -1q24 0 67.5 1t61.5 1l-4 -12l-79 -38q-12 -42 -73 -270q-68 -253 -76 -304l82 -7 q-66 -148 -99 -211l-15 -5q6 79 10 187h-444q-23 0 -68.5 -1.5t-67.5 -1.5l7 13l80 38q18 53 87 299z"/>
<glyph glyph-name="afii10041" horiz-adv-x="667" unicode="Ч" d="M195 611l-65 38l7 12q19 0 60 -1.5t62 -1.5q20 0 56.5 1.5t54.5 1.5l-4 -12l-61 -38l-42 -145q-10 -34 -10 -63q0 -86 108 -86q57 0 116 23l73 272l-66 37l6 12q24 0 66 -1.5t62 -1.5q22 0 62 1.5t60 1.5l-4 -13l-77 -37l-72 -267q-71 -266 -75 -296l80 -38l-6 -12 q-28 0 -77 1t-73 1q-23 0 -69 -1t-67 -1l6 12l84 38q15 30 79 267q-99 -46 -176 -46q-110 0 -142 63q-11 20 -11 48q0 34 13 78z"/>
<glyph glyph-name="afii10042" horiz-adv-x="945" unicode="Ш" d="M222 610l-71 39l5 12q28 0 70 -1.5t61 -1.5q18 0 54 1.5t53 1.5l-6 -13l-58 -37l-75 -276q-34 -124 -75 -292q34 -9 91 -9q59 0 95 9q34 109 88 305l71 262l-61 39l5 12q23 0 64 -1.5t60 -1.5t55.5 1.5t54.5 1.5l-5 -13l-65 -37l-74 -276q-31 -112 -75 -292q40 -9 92 -9 q61 0 94 9q28 83 88 302l72 265l-39 39l7 12q17 0 48.5 -1.5t47.5 -1.5q23 0 65.5 1.5t60.5 1.5l-4 -12l-78 -38l-73 -270q-64 -238 -75 -292l81 -38l-5 -13q-22 0 -68.5 1.5t-70.5 1.5h-615q-23 0 -68 -1.5t-67 -1.5l6 12l80 39q30 85 87 299z"/>
<glyph glyph-name="afii10043" horiz-adv-x="945" unicode="Щ" d="M222 610l-71 39l5 12q28 0 70 -1.5t60 -1.5q19 0 54.5 1.5t53.5 1.5l-6 -13l-58 -37l-75 -276q-38 -135 -76 -292q36 -9 92 -9q59 0 95 9q38 123 87 305l72 262l-61 39l5 12q23 0 63.5 -1.5t59.5 -1.5t56 1.5t55 1.5l-5 -13l-65 -37l-74 -276q-6 -22 -76 -292 q42 -9 93 -9q61 0 94 9q30 91 87 301l73 266l-39 39l7 12q16 0 47.5 -1.5t47.5 -1.5q23 0 66 1.5t60 1.5l-4 -12l-78 -38l-72 -270q-65 -235 -76 -304l81 -7q-49 -114 -98 -211l-15 -5q6 78 10 186h-655q-23 0 -68 -1t-67 -1l6 12l80 38q59 202 86 300z"/>
<glyph glyph-name="afii10044" horiz-adv-x="747" unicode="Ъ" d="M448 362h-1q-20 0 -36 -4q-58 -214 -86 -332q120 0 189 48t69 149q0 65 -37 102t-98 37zM373 621l-149 8q-55 -68 -109 -128l-12 -2q25 109 47 170l4 3q34 0 74 -14h191q25 0 73 1.5t72 1.5l-5 -12l-81 -38l-59 -225q44 10 93 10q93 0 144.5 -45.5t51.5 -118.5 q0 -235 -375 -235q-109 0 -211 3l5 12l82 37q14 35 83 285z"/>
<glyph glyph-name="afii10045" horiz-adv-x="878" unicode="Ы" d="M762 611l-74 38l5 12q20 0 60 -1.5t61 -1.5q24 0 72.5 1.5t71.5 1.5l-3 -13l-84 -37l-73 -267q-73 -275 -75 -296l81 -38l-6 -12q-23 0 -70.5 1t-72.5 1q-24 0 -73.5 -1t-75.5 -1l5 12l87 38q7 14 88 296zM303 358h-1q-22 0 -39 -4q-53 -192 -84 -330q114 2 182.5 50.5 t68.5 150.5q0 60 -36.5 96.5t-90.5 36.5zM222 611l-71 38l5 12q21 0 60.5 -1.5t60.5 -1.5q23 0 70 1.5t71 1.5l-5 -12l-82 -38l-62 -231q51 11 97 11q89 0 139 -46t50 -115q0 -65 -28.5 -112t-80 -72.5t-113 -37t-136.5 -11.5h-5q-197 3 -217 4l5 11l82 37q16 34 84 285z "/>
<glyph glyph-name="afii10046" horiz-adv-x="606" unicode="Ь" d="M302 358h-1q-20 0 -38 -3q-60 -221 -85 -332q121 1 191 49.5t71 146.5q0 64 -38 101.5t-100 37.5zM222 611l-72 38l5 12q21 0 61 -1.5t60 -1.5q23 0 70 1.5t71 1.5l-5 -12l-80 -38l-62 -231q44 11 91 11q99 0 151.5 -46t52.5 -121q0 -227 -369 -227h-6q-113 0 -215 3 l5 12l82 36q11 25 83 286z"/>
<glyph glyph-name="afii10047" horiz-adv-x="642" unicode="Э" d="M155 487l-13 -4q-13 64 -15 126q122 68 231 68q124 0 201 -80.5t77 -215.5q0 -176 -109 -288t-290 -112q-83 0 -150.5 35t-91.5 68q33 67 72 111l12 5q9 -41 9 -144v-10q12 -10 46 -18t75 -8h6q52 1 97 16.5t86 48.5t70.5 93t42.5 142q-353 -11 -388 -13l-4 8 q3 8 31 29.5t44 26.5q141 -11 318 -12q1 17 1 34q0 128 -59 187.5t-150 59.5q-48 0 -84 -14q-26 -77 -65 -139z"/>
<glyph glyph-name="afii10048" horiz-adv-x="985" unicode="Ю" d="M734 651h-1q-69 0 -127 -71t-88.5 -169.5t-30.5 -191.5q0 -101 35.5 -156t95.5 -55q68 0 124.5 66.5t85.5 165.5t29 204q0 98 -32.5 152.5t-90.5 54.5zM226 612l-74 37l5 12q20 0 60.5 -1t59.5 -1q24 0 72.5 1t72.5 1l-4 -12l-83 -37l-65 -237h112q35 127 133.5 214 t221.5 87q114 0 177.5 -81t63.5 -211q0 -71 -24.5 -141t-69 -128.5t-117 -95t-159.5 -36.5q-101 0 -171.5 71t-70.5 208q0 36 6 67h-113q-71 -250 -74 -281l82 -38l-5 -12q-24 0 -71.5 1t-71.5 1t-73.5 -1t-75.5 -1l5 12l87 38q10 19 88 295z"/>
<glyph glyph-name="afii10049" horiz-adv-x="634" unicode="Я" d="M441 334l83 302q-18 3 -47 3q-86 0 -139 -46t-53 -128q0 -57 38 -94t104 -37h14zM713 645l-84 -30l-72 -263q-43 -154 -78 -306l76 -36l-5 -14q-22 0 -68.5 2t-70.5 2q-29 0 -73.5 -2t-60.5 -2l5 15l75 35q43 136 77 263q-24 0 -44 -3t-38 -12.5t-29.5 -16t-28.5 -25.5 t-24.5 -28t-28 -36t-29.5 -39q-15 -20 -40 -54t-40 -53.5t-22 -25.5q-48 -35 -144 -35h-19l-2 7q42 33 164 189q44 60 90 92t113 43v3q-75 15 -110.5 57.5t-35.5 96.5q0 96 77.5 147.5t226.5 51.5q162 0 248 -12z"/>
<glyph glyph-name="afii10065" horiz-adv-x="531" unicode="а" d="M134 45h1q25 0 69.5 38.5t98.5 123.5q45 71 80 189q-13 9 -34 9q-60 0 -121 -67q-50 -54 -81.5 -127.5t-31.5 -126.5q0 -39 19 -39zM402 443l117 12v-5l-40 -51q-62 -187 -97 -351l2 -1q59 19 115 96l5 -4q-4 -58 -60 -105t-139 -47q-8 0 -32 3q6 25 27 100t29 103h-3 q-141 -206 -250 -206q-32 0 -50 26.5t-18 71.5q0 71 42 154t120 142q78 58 160 58q36 0 64 -20z"/>
<glyph glyph-name="afii10066" horiz-adv-x="502" unicode="б" d="M312 420h-1q-36 0 -71.5 -50t-57.5 -123.5t-22 -142.5q0 -44 14.5 -68t40.5 -24q40 0 76 57.5t55 130t19 127.5q0 93 -53 93zM342 450h1q62 0 97.5 -42t35.5 -115q0 -121 -80 -213.5t-192 -92.5q-155 0 -155 197q0 124 59.5 237.5t152.5 183.5q88 66 166 72 q63 4 91.5 9.5t50.5 22.5l7 -7q-12 -33 -38.5 -62.5t-49.5 -40.5q-18 -6 -56 -8q-41 0 -74 -1q-111 -3 -170 -108q-43 -78 -49 -168h3q50 74 98.5 105t101.5 31z"/>
<glyph glyph-name="afii10067" horiz-adv-x="496" unicode="в" d="M215 213l5 22q58 17 90 41.5t32 69.5q0 73 -86 73h-11q-45 -145 -89 -314q-6 -24 -6 -41q0 -53 53 -53q46 0 79.5 37.5t33.5 94.5q0 72 -74 72q-17 0 -27 -2zM137 383l-76 7l5 11q38 16 110.5 32.5t134.5 16.5q138 0 138 -90q0 -20 -10 -38t-22 -28.5t-34.5 -22 t-34.5 -16t-35 -12.5v-6q50 -4 84 -26t34 -69q0 -53 -42 -90t-94 -51t-105 -14q-79 0 -120 25q-31 18 -31 50q0 16 8 43q62 202 90 278z"/>
<glyph glyph-name="afii10068" horiz-adv-x="379" unicode="г" d="M121 310l-9 -6q-4 12 -19 83q86 63 165 63q50 0 78.5 -29.5t28.5 -71.5q0 -65 -74 -102q-16 -8 -50.5 -24t-51.5 -24q-63 -31 -63 -81q0 -33 23.5 -54.5t50.5 -21.5q13 0 25 3q51 39 99 67l5 -11q-14 -40 -63 -85q-56 -27 -112 -27q-67 0 -105 32.5t-38 82.5q0 56 69 84 q26 10 66 29l40 19q38 17 56.5 39t18.5 58q0 35 -18 54t-48 19q-20 0 -34 -8q-22 -58 -40 -88z"/>
<glyph glyph-name="afii10069" horiz-adv-x="472" unicode="д" d="M294 426h-1q-41 0 -78 -54.5t-56.5 -127.5t-19.5 -135q0 -46 14.5 -71.5t37.5 -25.5q39 0 76 56.5t57 129.5t20 131q0 97 -50 97zM293 450h1q82 0 111 -75h2q16 50 16 82q0 21 -6 39q-16 69 -96 81q-113 20 -126 23q-45 27 -47 105l6 5q24 -14 89 -26q73 -14 114 -42.5 t69 -81.5q34 -68 34 -173t-32.5 -195t-99 -147.5t-154.5 -57.5q-66 0 -106 43.5t-40 115.5q2 118 81.5 211t183.5 93z"/>
<glyph glyph-name="afii10070" horiz-adv-x="419" unicode="е" d="M292 426h-1q-35 0 -78 -59.5t-65 -142.5q128 27 154 67q22 32 22 81q0 54 -32 54zM382 136l4 -23q-40 -59 -98.5 -92.5t-118.5 -33.5q-62 0 -103 35t-43 112v5q0 67 33 137t99.5 122t147.5 52q54 0 84 -28.5t32 -71.5q0 -33 -20 -55q-21 -32 -103.5 -58.5t-152.5 -37.5 q-8 -37 -8 -63v-9q1 -38 18.5 -63.5t55.5 -25.5q45 0 93.5 30.5t77.5 67.5h2z"/>
<glyph glyph-name="afii10072" horiz-adv-x="765" unicode="ж" d="M147 380l-84 8l3 11q83 36 156 49q16 -8 29.5 -37.5t13.5 -69.5q0 -85 -58 -193h11q100 109 155 219l18 73q10 9 48 20.5t65 13.5l3 -3l-100 -308h7q81 100 163.5 187t104.5 98q17 0 46 -13t49 -31l-5 -12l-117 -21q-26 -25 -51 -75.5t-25 -117.5q0 -49 11 -78t23 -38 l94 3l-3 -12q-30 -19 -90.5 -45.5t-76.5 -26.5q-43 28 -43 108q0 85 70 198h-9q-147 -157 -200 -286q-13 -12 -41.5 -26.5t-52.5 -19.5l-5 5q13 38 49.5 158t45.5 148h-8q-64 -95 -154.5 -189.5t-108.5 -95.5q-15 0 -45.5 13t-56.5 33l4 12l124 22q32 19 57 67t26 120v9 q0 96 -42 123z"/>
<glyph glyph-name="afii10073" horiz-adv-x="418" unicode="з" d="M102 310l-10 -6q-4 10 -18 85q95 61 176 61q60 0 94 -28t34 -72q0 -77 -136 -110v-6q42 -8 69 -22q48 -29 48 -79q0 -72 -65.5 -109t-149.5 -37q-58 0 -102.5 20.5t-58.5 41.5q35 60 58 87l11 4q9 -36 14 -114q18 -8 51 -8q54 0 89 34t35 85q0 35 -20.5 55t-58.5 20 q-25 0 -52 -5l-3 9l42 36q11 -3 37 -3q35 0 57.5 26t22.5 60q0 38 -19 59t-50 21q-23 0 -47 -11q-27 -61 -48 -94z"/>
<glyph glyph-name="afii10074" horiz-adv-x="563" unicode="и" d="M134 380l-75 12l5 10q33 13 97 28.5t96 19.5l6 -2q-26 -68 -68.5 -202.5t-51.5 -176.5q-7 -22 6 -22q34 0 91 59t105 142q41 72 78 185q71 13 120 17l3 -5l-39 -51q-26 -71 -95 -345l1 -2q62 18 114 89l5 -9q-6 -51 -58.5 -95.5t-134.5 -44.5q-23 0 -40 5q21 76 72 241 h-3q-119 -182 -212 -226q-42 -20 -80 -20q-44 0 -44 38q0 14 8 43q2 7 94 312z"/>
<glyph glyph-name="afii10075" horiz-adv-x="563" unicode="й" d="M462 628l23 16l8 -4q-21 -62 -58.5 -93t-83.5 -31q-42 0 -64.5 24.5t-22.5 56.5q0 5 4 15q6 7 20 18t22 15l5 -5q0 -31 16 -51.5t47 -20.5q54 0 84 60zM134 380l-75 12l5 10q33 13 97 28.5t96 19.5l6 -2q-26 -68 -68.5 -202.5t-51.5 -176.5q-7 -22 6 -22q34 0 91 59 t105 142q41 72 78 185q71 13 120 17l3 -5l-39 -51q-26 -71 -95 -345l1 -2q62 18 114 89l5 -9q-6 -51 -58.5 -95.5t-134.5 -44.5q-23 0 -40 5q21 76 72 241h-3q-119 -182 -212 -226q-42 -20 -80 -20q-44 0 -44 38q0 14 8 43q2 7 94 312z"/>
<glyph glyph-name="afii10076" horiz-adv-x="508" unicode="к" d="M129 383l-72 9l4 11q23 12 93 29.5t93 17.5l2 -2q-9 -36 -75 -249h4q19 20 55.5 57t64 65t57 58t50 48t29.5 23q18 0 43.5 -9t43.5 -23l-7 -11l-129 -47q-50 -37 -110 -100l1 -3q22 -2 33 -11t21 -34q9 -20 24.5 -57.5t26 -63t15.5 -34.5l79 5l-2 -11q-41 -27 -92 -47.5 t-68 -22.5l-5 3q-10 23 -35.5 97.5t-31.5 90.5q-11 27 -22 27q-7 0 -23 -16q-31 -35 -74 -183l-105 -8q24 67 66 212.5t46 178.5z"/>
<glyph glyph-name="afii10077" horiz-adv-x="491" unicode="л" d="M382 63l75 1l-5 -15q-34 -11 -94.5 -34.5t-78.5 -33.5l-5 6q-2 9 -2 62q0 134 10 312h-3q-30 -61 -84.5 -156.5t-93.5 -148.5q-50 -69 -70 -75q-16 0 -43 11.5t-38 22.5l3 6l120 68q27 21 94 126t98 170l1 2l-72 5l3 12q74 34 163 46h10q-2 -70 -2 -123q0 -215 14 -264z "/>
<glyph glyph-name="afii10078" horiz-adv-x="655" unicode="м" d="M667 440l-68 -46q-32 -133 -68 -331l85 3l-6 -15q-21 -8 -69 -23.5t-86 -28t-51 -18.5l-6 8q92 310 108 375h-5q-60 -85 -219 -338q-29 -29 -56 -43l-6 4q-17 275 -26 370h-4q-23 -92 -59 -204.5t-57 -143.5q-45 -22 -111 -22l-3 11l106 100q56 97 104 285l-93 9l5 11 q67 25 182 48l5 -4q2 -18 21.5 -147t22.5 -154h2q171 241 198 283q48 17 148 21z"/>
<glyph glyph-name="afii10079" horiz-adv-x="545" unicode="н" d="M198 250h169q32 110 56 179q26 14 123 21l5 -8l-47 -58q-23 -76 -51 -186.5t-32 -133.5l85 1l-6 -15q-27 -10 -108 -36t-97 -33l-5 8q38 120 67 227q-51 -11 -147 -11h-24q-13 -47 -34.5 -122t-23.5 -83l-109 -8q20 59 65.5 215t47.5 176l-73 9l5 11q23 11 93.5 28.5 t96.5 18.5l2 -1q-1 -6 -8.5 -30t-22 -73.5t-27.5 -95.5z"/>
<glyph glyph-name="afii10080" horiz-adv-x="480" unicode="о" d="M292 426h-1q-35 0 -72 -49.5t-60 -123.5t-23 -141q0 -101 54 -101q36 0 72.5 50.5t58.5 124t22 140.5q0 100 -51 100zM302 450h1q67 0 108.5 -47.5t41.5 -125.5q0 -116 -80 -203t-194 -87q-64 0 -108 46t-44 123q0 117 83.5 205.5t191.5 88.5z"/>
<glyph glyph-name="afii10081" horiz-adv-x="545" unicode="п" d="M123 0l-106 -8q21 55 66.5 214t45.5 177l-72 9l4 11q21 11 91.5 28.5t93.5 19.5l3 -3q-4 -20 -76 -254h2q54 85 114.5 147.5t113.5 88.5q44 20 96 20q22 0 22 -12q0 -7 -8 -36q-88 -287 -95 -339l89 3l-6 -15q-20 -7 -107 -35t-103 -35l-7 7q4 16 58.5 187t61.5 197 q5 16 -4 16q-29 0 -87 -58t-106 -138q-49 -80 -84 -192z"/>
<glyph glyph-name="afii10082" horiz-adv-x="530" unicode="р" d="M194 13h1q52 0 101.5 57.5t77.5 133.5t28 137q0 52 -25 52q-22 0 -58.5 -31t-80.5 -95q-65 -92 -93 -208q6 -21 19.5 -33.5t29.5 -12.5zM132 383l-73 9l5 11q21 12 90 31t94 21l2 -3l-66 -213h2q52 78 103.5 128t86.5 66.5t64 16.5q37 0 57 -30t20 -79q0 -95 -47.5 -178 t-118.5 -129.5t-143 -46.5q-45 0 -76 25q-16 -50 -47 -176l75 -31l-6 -12q-203 -11 -252 -11l4 12l67 37q14 36 65 216q55 192 94 336z"/>
<glyph glyph-name="afii10083" horiz-adv-x="403" unicode="с" d="M365 129l6 -21q-83 -121 -212 -121q-72 0 -105 43.5t-33 107.5q0 132 104 229q90 83 194 83q69 0 90 -26q-2 -14 -19.5 -54t-30.5 -57l-11 -4q-19 42 -32 114q-4 2 -12 2q-48 0 -95 -57q-37 -44 -56 -103.5t-19 -115.5q0 -52 20 -80t56 -28q45 0 87 29t67 60z"/>
<glyph glyph-name="afii10084" horiz-adv-x="817" unicode="т" d="M124 0l-106 -8q20 54 65.5 212.5t46.5 177.5l-73 10l3 11q25 11 94 28.5t91 18.5l3 -3q-17 -74 -75 -250h3q51 85 112.5 147t113.5 86q40 20 99 20q14 0 14 -11q0 -10 -9 -43q-36 -123 -60 -197l3 -1q52 82 112 144t114 87q40 21 101 21q17 0 17 -11q0 -10 -9 -37 q-87 -289 -95 -339l90 3l-6 -15q-22 -8 -71 -23.5t-88 -28t-52 -18.5l-6 7q4 16 58.5 187t61.5 197q4 16 -4 16q-28 0 -89 -59.5t-111 -145.5q-36 -61 -77 -183l-106 -8q100 307 111 380q3 16 -5 16q-27 0 -86 -58t-110 -147q-33 -59 -75 -183z"/>
<glyph glyph-name="afii10085" horiz-adv-x="446" unicode="у" d="M41 282l-11 13q29 80 71 117t77 38q50 -2 72 -110q18 -91 18 -230v-33h2q32 48 72 152.5t43 150.5l-27 40l1 6q47 21 82 23q13 0 13 -8q0 -17 -2.5 -33.5t-10.5 -39t-12.5 -33.5t-19 -44t-19.5 -44q-76 -177 -194 -318q-43 -53 -85.5 -92.5t-66.5 -54.5t-34 -15 q-6 0 -14.5 7t-19 28.5t-17.5 52.5l3 8q40 -2 102 -31q36 24 72 77q42 61 42 155q0 174 -39 282q-7 29 -16 29q-6 0 -31 -28t-51 -65z"/>
<glyph glyph-name="afii10086" horiz-adv-x="689" unicode="ф" d="M321 439l4 -22q-12 3 -23 3q-46 0 -86 -53.5t-61 -124.5t-21 -133q0 -73 30 -73q22 0 55.5 34t54.5 69q12 49 38 160t38 161q16 65 40.5 106.5t63.5 73.5q31 26 67 45.5t50 19.5q23 0 38 -22t15 -48v-6l-5 -6q-60 31 -98 31q-10 0 -17.5 -10t-16.5 -40q-28 -95 -62 -241 h2q90 88 153 88q36 0 58.5 -34t22.5 -93q0 -142 -79 -239t-172 -97q-27 0 -49 14l-3 23q14 -6 33 -6q65 0 113 96.5t48 205.5q0 80 -33 80q-19 0 -55 -37t-52 -67l-67 -262q-18 -68 -43 -112.5t-70 -85.5q-74 -71 -123 -71q-21 0 -41 26t-21 56l5 10q63 -35 110 -35 q8 0 14 2.5t14.5 11t18 29.5t17.5 54q18 65 37 158l-1 1q-86 -94 -159 -94q-37 0 -58.5 32t-21.5 90q0 135 81.5 238t182.5 103q21 0 34 -9z"/>
<glyph glyph-name="afii10087" horiz-adv-x="483" unicode="х" d="M-18 111l9 11q37 -49 64 -69q23 9 69.5 60.5t81.5 100.5q-23 100 -45 170q-16 -7 -48 -36t-59 -64l-7 11q17 58 69 106t118 49q13 -19 50 -152h2q62 78 67 84q56 65 83 75h7q14 -11 24.5 -43t10.5 -72v-9l-10 -10q-30 54 -50 66q-12 -3 -55.5 -47t-68.5 -75 q52 -190 55 -199q3 -10 8 -10q4 0 16.5 7.5t36 31t46.5 56.5l7 -11q-17 -78 -72.5 -116.5t-121.5 -38.5h-5q-5 19 -11.5 44.5t-17 69t-20.5 81.5h-2q-15 -20 -38 -53t-38.5 -54.5t-25.5 -34.5q-45 -55 -69 -64h-10q-15 15 -31.5 58t-18.5 77z"/>
<glyph glyph-name="afii10088" horiz-adv-x="563" unicode="ц" d="M133 380l-75 12l5 10q33 13 97 28.5t96 19.5l6 -2q-26 -68 -68.5 -202.5t-51.5 -176.5q-5 -22 7 -22q32 0 88 58.5t108 144.5q42 72 78 183q71 13 121 17l2 -5l-39 -50q-24 -65 -95 -341l2 -2q23 5 44 17.5t31 23t24 27.5l14 16l5 -9q-6 -22 -16 -43q-15 -142 -45 -197.5 t-103 -65.5q-34 -5 -47.5 -12t-26.5 -26l-13 8q27 72 53 91q82 9 107 41q28 36 50 134q-64 -70 -149 -70q-23 0 -43 5q12 42 71 241h-3q-123 -184 -213 -226q-42 -20 -79 -20q-44 0 -44 38q0 14 8 43q24 83 94 312z"/>
<glyph glyph-name="afii10089" horiz-adv-x="499" unicode="ч" d="M516 442l-59 -54q-30 -95 -89 -324l82 3l-6 -16q-22 -8 -103.5 -35.5t-96.5 -34.5l-7 7q22 69 51 161t41 129h-2q-111 -127 -224 -127q-48 0 -48 38q0 9 3 23q30 116 53 172l-62 8l6 11q101 39 187 47l1 -3q-18 -32 -41.5 -101t-30.5 -105q-2 -12 -2 -16q0 -18 15 -18 q36 0 88 48.5t76 94.5q4 11 12 37t13 40q11 5 58 13t83 10z"/>
<glyph glyph-name="afii10090" horiz-adv-x="829" unicode="ш" d="M134 380l-75 12l4 10q34 13 98.5 29t94.5 19l6 -2q-24 -64 -67 -200t-53 -179q-3 -22 6 -22q32 0 88.5 60t106.5 147q41 72 75 179l101 17l3 -5q-41 -112 -112 -376q-5 -22 6 -22q31 0 87.5 59.5t106.5 143.5q40 70 77 183l121 18l2 -5l-39 -51q-25 -67 -94 -341l1 -1 q15 3 30 10t25 14t20.5 16.5t16 16t13 15t8.5 10.5l5 -7q-4 -47 -58 -94t-135 -47q-19 0 -39 5q6 22 28.5 101t39.5 139h-2q-119 -181 -211 -226q-38 -19 -75 -19t-37 37q0 17 9 47q15 50 47 160h-2q-117 -183 -210 -224q-42 -20 -79 -20q-40 0 -40 39q0 20 8 45 q44 154 94 309z"/>
<glyph glyph-name="afii10091" horiz-adv-x="829" unicode="щ" d="M134 380l-75 12l4 10q34 13 98.5 29t94.5 19l6 -2q-24 -64 -67 -200t-53 -179q-3 -22 6 -22q32 0 89 60t106 147q33 58 75 179l101 17l3 -5q-37 -96 -112 -376q-6 -22 6 -22q31 0 86.5 58t106.5 143q31 54 78 185l121 18l2 -5l-39 -51q-24 -66 -94 -340l1 -3 q18 4 34.5 12t30 19.5t21.5 19.5t18 21l10 12l4 -10q-6 -22 -16 -43q-15 -141 -45 -196.5t-104 -66.5q-34 -4 -48 -11.5t-26 -25.5l-13 8q29 73 53 91q83 9 108 40q29 36 49 134q-64 -69 -149 -69q-21 0 -41 5q5 20 14 51.5t25 86t29 101.5h-2q-120 -183 -211 -225 q-40 -19 -74 -19q-38 0 -38 37q0 17 9 47q23 77 47 160h-2q-117 -183 -210 -224q-42 -20 -78 -20q-41 0 -41 40q0 14 8 44q44 154 94 309z"/>
<glyph glyph-name="afii10092" horiz-adv-x="529" unicode="ъ" d="M378 198v1q0 55 -37 55q-25 0 -55.5 -25t-53.5 -55q-14 -25 -19 -56q-4 -21 -4 -41q0 -62 43 -62q48 0 87 61t39 122zM54 303l-15 10q15 46 52.5 90.5t72.5 45.5h9q23 0 68 -9q32 -6 62 -11q13 7 45 22l25 -1q-74 -59 -132 -231h2q91 94 170 94q35 0 57.5 -25.5 t22.5 -70.5q0 -53 -36.5 -105t-96.5 -86q-70 -39 -139 -39q-65 0 -99 24q-26 20 -26 54q0 29 16 77q61 172 140 236v1h-22q-6 0 -27.5 1.5t-31.5 1.5h-9q-52 -1 -108 -79z"/>
<glyph glyph-name="afii10093" horiz-adv-x="704" unicode="ы" d="M688 443l-41 -58q-39 -115 -106 -356l1 -1q43 11 126 101l2 -8q-10 -47 -53.5 -90.5t-117.5 -43.5q-57 0 -57 55q0 20 7 42q77 248 109 345q11 6 55.5 13t72.5 8zM319 202v1q0 57 -32 57q-23 0 -55.5 -28.5t-52.5 -59.5q-13 -26 -27 -80q-3 -15 -3 -27q0 -49 42 -49 q55 0 91.5 59.5t36.5 126.5zM133 382l-72 10l5 11q23 12 93.5 29.5t95.5 17.5l3 -3q-16 -52 -70 -224h3q98 96 169 96q33 0 53 -25.5t20 -66.5q0 -57 -35 -110t-92 -88q-69 -42 -140 -42t-125 30l-8 14q5 17 49.5 172.5t50.5 178.5z"/>
<glyph glyph-name="afii10094" horiz-adv-x="479" unicode="ь" d="M328 197v1q0 56 -40 56q-26 0 -59.5 -29t-51.5 -59q-16 -28 -27 -74q-4 -22 -4 -28q0 -48 47 -48q59 0 97 59t38 122zM131 382l-72 10l4 11q23 13 94 30t100 17q-52 -165 -73 -234h3q100 97 175 97q34 0 57 -26.5t23 -69.5q0 -57 -36 -108t-96 -83q-70 -39 -146 -39 q-72 0 -126 30l-8 14q4 16 28.5 99t46 158.5t26.5 93.5z"/>
<glyph glyph-name="afii10095" horiz-adv-x="434" unicode="э" d="M97 309l-11 -6q-10 50 -10 93q86 54 160 54q72 0 119 -47.5t47 -138.5q0 -121 -79 -199t-197 -78q-50 0 -92.5 20t-54.5 40q28 52 58 85l10 4q4 -24 6 -110q16 -8 51 -8q66 2 116 53t68 162q-57 -39 -88 -41h-3q-8 0 -38 12q-15 6 -32 6q-35 0 -70 -22l1 13q52 57 94 64 q16 -3 59 -19q17 -6 30 -6q28 0 50 19q1 7 1 24q0 68 -28 100.5t-72 32.5q-22 0 -39 -7q-21 -48 -56 -100z"/>
<glyph glyph-name="afii10096" horiz-adv-x="703" unicode="ю" d="M521 426h-1q-31 0 -65.5 -47.5t-58 -125t-23.5 -154.5q0 -42 13.5 -65t34.5 -23q53 0 98.5 107t45.5 221q0 87 -44 87zM133 383l-75 9l4 12q22 12 94.5 29t100.5 17l2 -3q-36 -115 -59 -193h82q29 85 97.5 140.5t149.5 55.5q66 0 106 -45.5t40 -127.5q0 -119 -77 -204.5 t-184 -85.5q-64 0 -106.5 40.5t-43.5 117.5q0 38 7 65h-84q-45 -158 -60 -210l-110 -8q18 53 64 208.5t52 182.5z"/>
<glyph glyph-name="afii10097" horiz-adv-x="509" unicode="я" d="M316 224l60 184q-12 2 -29 2q-64 0 -102.5 -31t-38.5 -79q0 -34 24 -55t70 -21h16zM376 66l89 3l-5 -14q-26 -9 -113.5 -36.5t-103.5 -34.5l-6 7q20 57 42.5 124t29.5 86q-58 0 -99 -47q-19 -21 -104 -132q-42 -35 -147 -35h-14l-2 5q25 22 132 142q44 59 132 74l1 2 q-56 7 -84.5 33.5t-28.5 65.5q0 62 58.5 96.5t164.5 34.5q40 0 77 -5q67 15 133 15v-6l-59 -48q-28 -79 -93 -330z"/>
<glyph glyph-name="afii10071" horiz-adv-x="419" unicode="ё" d="M418 654h6q7 -6 19 -27.5t14 -32.5l-1 -6q-6 -12 -28 -31.5t-34 -25.5h-5q-27 23 -37 64v3q31 41 66 56zM238 654h5q7 -6 19 -27.5t14 -32.5l-1 -6q-5 -12 -27 -31.5t-34 -25.5h-5q-11 9 -22.5 28t-15.5 36v3q34 42 67 56zM292 426h-1q-35 0 -78 -59.5t-65 -142.5 q128 27 154 67q22 32 22 81q0 54 -32 54zM382 136l4 -23q-40 -59 -98.5 -92.5t-118.5 -33.5q-62 0 -103 35t-43 112v5q0 67 33 137t99.5 122t147.5 52q54 0 84 -28.5t32 -71.5q0 -33 -20 -55q-21 -32 -103.5 -58.5t-152.5 -37.5q-8 -37 -8 -63v-9q1 -38 18.5 -63.5 t55.5 -25.5q45 0 93.5 30.5t77.5 67.5h2z"/>
<glyph glyph-name="afii10099" horiz-adv-x="518" unicode="ђ" d="M109 0l-105 -8q39 131 156 550h-82l20 34h71q5 17 12 41t9 31l-66 14l5 11q28 11 92.5 21.5t90.5 10.5q-2 -9 -6.5 -24.5t-14 -45.5t-17.5 -59h167l-21 -34h-158q-25 -89 -102 -347h3q53 81 116 145.5t112 89.5q43 20 95 20q22 0 22 -14q0 -7 -7 -35 q-15 -52 -45.5 -160.5t-44.5 -156.5q-20 -74 -54 -120t-95 -89q-55 -39 -77 -39q-13 1 -26 17.5t-16 44.5l6 10q46 -19 76 -19q15 0 26 16.5t27 71.5q58 189 113 395q5 17 -4 17q-27 0 -86 -59.5t-106 -134.5q-48 -77 -86 -195z"/>
<glyph glyph-name="afii10100" horiz-adv-x="379" unicode="ѓ" d="M235 496l-11 14l99 143q5 1 17 1q40 0 64 -13v-11zM121 310l-9 -6q-4 12 -19 83q86 63 165 63q50 0 78.5 -29.5t28.5 -71.5q0 -65 -74 -102q-16 -8 -50.5 -24t-51.5 -24q-63 -31 -63 -81q0 -33 23.5 -54.5t50.5 -21.5q13 0 25 3q51 39 99 67l5 -11q-14 -40 -63 -85 q-56 -27 -112 -27q-67 0 -105 32.5t-38 82.5q0 56 69 84q26 10 66 29l40 19q38 17 56.5 39t18.5 58q0 35 -18 54t-48 19q-20 0 -34 -8q-22 -58 -40 -88z"/>
<glyph glyph-name="afii10101" horiz-adv-x="410" unicode="є" d="M371 120l7 -21q-35 -48 -88 -80t-121 -32q-74 0 -110.5 46t-36.5 112q0 126 87 215.5t209 89.5q34 0 63 -10t37 -19q-1 -12 -18.5 -44.5t-32.5 -54.5l-9 -3q-13 31 -34 104q-1 0 -5.5 1t-6.5 1q-63 0 -111 -66.5t-61 -143.5q60 43 90 46h3q12 0 37 -11q14 -7 33 -7 q33 0 69 26l2 -12q-43 -59 -95 -69q-21 5 -60 20q-11 4 -23 4q-30 0 -60 -23q-2 -16 -2 -28q0 -56 23 -87t65 -31t84 25t65 52z"/>
<glyph glyph-name="afii10102" horiz-adv-x="357" unicode="ѕ" d="M242 450h1q30 0 62 -10.5t45 -24.5q-6 -21 -22.5 -52t-27.5 -44l-9 -4q-11 41 -18 103q-9 6 -35 6q-36 0 -58 -20.5t-23 -51.5q0 -13 5 -24t21.5 -27.5l22 -22t32.5 -28.5q41 -36 56.5 -63.5t15.5 -63.5q0 -49 -49 -92.5t-130 -43.5q-45 0 -86.5 16t-60.5 34 q26 59 60 105l10 4q9 -35 22 -124q20 -9 50 -9q39 0 65 21.5t26 49.5q0 24 -14.5 44t-51.5 52q-46 39 -63 68t-17 59q0 66 50.5 104.5t120.5 38.5z"/>
<glyph glyph-name="afii10103" horiz-adv-x="296" unicode="і" d="M135 379l-65 12l5 11q25 14 87 30t93 18l3 -3q-112 -355 -127 -417l1 -1q44 12 129 112l3 -8q-9 -49 -55 -97.5t-119 -48.5q-54 0 -54 57q0 22 9 53q24 80 90 282zM248 664h6q8 -7 19.5 -30.5t12.5 -37.5l-2 -5q-7 -14 -32.5 -36t-38.5 -27h-5q-10 8 -21.5 29.5 t-15.5 40.5l2 3q31 43 75 63z"/>
<glyph glyph-name="afii10104" horiz-adv-x="296" unicode="ї" d="M341 654h6q7 -6 19 -27.5t14 -32.5l-1 -6q-6 -12 -28 -31.5t-34 -25.5h-5q-27 23 -37 64v3q31 41 66 56zM161 654h5q7 -6 19 -27.5t14 -32.5l-1 -6q-5 -12 -27 -31.5t-34 -25.5h-5q-11 9 -22.5 28t-15.5 36v3q34 42 67 56zM135 379l-65 12l5 11q25 14 87 30t93 18l3 -3 q-112 -355 -127 -417l1 -1q44 12 129 112l3 -8q-9 -49 -55 -97.5t-119 -48.5q-54 0 -54 57q0 22 9 53q24 80 90 282z"/>
<glyph glyph-name="afii10105" horiz-adv-x="262" unicode="ј" d="M239 664h6q9 -7 19.5 -30t12.5 -38l-1 -5q-8 -14 -33 -35.5t-38 -27.5h-6q-10 8 -21 30t-15 40l1 3q31 43 75 63zM131 391l-69 15l6 12q27 10 89 21t93 11l2 -2q-43 -179 -101 -378q-33 -116 -72 -168q-45 -59 -92.5 -92.5t-80.5 -44.5l-13 16q27 18 44 33t43.5 63.5 t47.5 123.5q61 228 103 390z"/>
<glyph glyph-name="afii10106" horiz-adv-x="671" unicode="љ" d="M523 203v1q0 54 -34 54q-23 0 -57 -26t-61 -62q0 -111 8 -153q4 -1 12 -1q51 0 91.5 60t40.5 127zM-47 21l119 68q26 19 93 125.5t97 170.5l1 3l-69 5l3 11q81 35 163 46h12q-2 -102 -2 -176v-68q98 107 182 107q41 0 63.5 -25.5t22.5 -69.5q0 -59 -37 -109.5t-99 -84.5 q-69 -37 -142 -37q-49 0 -90 16v22q0 27 1.5 75.5t4 124t4.5 135.5h-3q-27 -57 -82.5 -152.5t-95.5 -150.5q-50 -71 -68 -76q-17 0 -44.5 11.5t-37.5 22.5z"/>
<glyph glyph-name="afii10107" horiz-adv-x="733" unicode="њ" d="M584 193v1q0 60 -42 60q-25 0 -56.5 -25.5t-53.5 -58.5q-14 -23 -25 -82q-3 -14 -3 -26q0 -49 45 -49q59 0 97 59t38 121zM199 250h150q9 28 26.5 88.5t27.5 90.5q34 15 127 21l4 -6l-46 -59q-32 -106 -49 -167h2q95 95 174 95q35 0 58 -27t23 -72q0 -113 -128 -189 q-63 -38 -137 -38q-97 0 -141 23l-6 9q6 23 26 93t30 104q-35 -11 -130 -11h-23q-44 -150 -59 -205l-110 -8q20 57 65.5 214t47.5 176l-72 10l5 11q22 12 93 29t100 18q-1 -4 -7.5 -27.5t-22 -76t-28.5 -96.5z"/>
<glyph glyph-name="afii10108" horiz-adv-x="530" unicode="ћ" d="M110 0l-106 -8q39 131 156 550h-83l21 34h71q19 70 20 72l-68 15l6 10q27 11 92.5 21.5t91.5 10.5q-1 -2 -14.5 -49t-23.5 -80h166l-19 -34h-158q-15 -50 -49 -165t-52 -179h2q51 80 115 143.5t113 88.5q38 20 85 20q16 0 22.5 -3.5t6.5 -14.5q0 -10 -6 -30 q-90 -285 -95 -339l89 3l-6 -15q-22 -7 -71 -23t-87.5 -28.5t-51.5 -18.5l-6 6q4 17 58 188t61 196q4 16 -6 16q-25 0 -85.5 -59.5t-109.5 -142.5q-37 -62 -79 -185z"/>
<glyph glyph-name="afii10109" horiz-adv-x="508" unicode="ќ" d="M299 496l-11 14l99 143q5 1 17 1q40 0 64 -13v-11zM129 383l-72 9l4 11q23 12 93 29.5t93 17.5l2 -2q-9 -36 -75 -249h4q19 20 55.5 57t64 65t57 58t50 48t29.5 23q18 0 43.5 -9t43.5 -23l-7 -11l-129 -47q-50 -37 -110 -100l1 -3q22 -2 33 -11t21 -34q9 -20 24.5 -57.5 t26 -63t15.5 -34.5l79 5l-2 -11q-41 -27 -92 -47.5t-68 -22.5l-5 3q-10 23 -35.5 97.5t-31.5 90.5q-11 27 -22 27q-7 0 -23 -16q-31 -35 -74 -183l-105 -8q24 67 66 212.5t46 178.5z"/>
<glyph glyph-name="afii10110" horiz-adv-x="446" unicode="ў" d="M403 628l23 16l8 -4q-21 -62 -58.5 -93t-83.5 -31q-42 0 -64.5 24.5t-22.5 56.5q0 5 4 15q6 7 20 18t22 15l5 -5q0 -31 16 -51.5t47 -20.5q54 0 84 60zM41 282l-11 13q29 80 71 117t77 38q50 -2 72 -110q18 -91 18 -230v-33h2q32 48 72 152.5t43 150.5l-27 40l1 6 q47 21 82 23q13 0 13 -8q0 -17 -2.5 -33.5t-10.5 -39t-12.5 -33.5t-19 -44t-19.5 -44q-76 -177 -194 -318q-43 -53 -85.5 -92.5t-66.5 -54.5t-34 -15q-6 0 -14.5 7t-19 28.5t-17.5 52.5l3 8q40 -2 102 -31q36 24 72 77q42 61 42 155q0 174 -39 282q-7 29 -16 29 q-6 0 -31 -28t-51 -65z"/>
<glyph glyph-name="afii10193" horiz-adv-x="563" unicode="џ" d="M133 380l-74 12l4 10q33 13 97 28.5t96 19.5l7 -2q-26 -66 -69 -201t-52 -178q-5 -22 6 -22q35 0 92 59t105 143q40 69 79 184q72 13 120 17l3 -5l-40 -51q-20 -54 -95 -344l2 -2q61 17 113 88l6 -9q-7 -51 -59.5 -95.5t-133.5 -44.5q-23 0 -41 5q27 89 71 241h-2 q-119 -182 -213 -226q-42 -20 -80 -20q-43 0 -43 39q0 17 7 42q24 83 94 312zM104 -210l-10 14q91 38 95 92q5 74 61 143h7q-10 -27 -10 -73q0 -39 7 -77q0 -9 -6 -20.5t-21 -26t-47 -29t-76 -23.5z"/>
<glyph glyph-name="afii10050" horiz-adv-x="479" unicode="Ґ" d="M224 612l-80 37l7 12q20 0 65 -1t71 -1h194q69 73 111 113l13 3q-25 -100 -50 -160l-3 -2q-31 3 -74 17l-142 -12l-86 -312q-61 -225 -64 -257l95 -39l-5 -12q-23 0 -76 1t-82 1q-24 0 -71 -1t-70 -1l5 12l80 38q7 13 86 293z"/>
<glyph glyph-name="afii10098" horiz-adv-x="344" unicode="ґ" d="M132 373l-73 22l4 12q12 1 61.5 3.5t92.5 5.5t61 6q51 57 119 125l8 -11q-31 -100 -45 -121q-19 -5 -39.5 -10t-45 -11t-38.5 -9q-103 -350 -115 -385l-108 -8q69 198 118 381z"/>
<glyph glyph-name="endash" horiz-adv-x="575" unicode="–" d="M517 204h-469l18 53h469z"/>
<glyph glyph-name="emdash" horiz-adv-x="909" unicode="—" d="M856 204h-812l18 53h812z"/>
<glyph glyph-name="quoteleft" horiz-adv-x="199" unicode="‘" d="M270 692l11 -15q-38 -22 -63.5 -56t-25.5 -71q0 -16 9 -32l32 -21v-9l-73 -47h-11q-10 5 -21 25.5t-11 46.5q0 60 41 106t112 73z"/>
<glyph glyph-name="quoteright" horiz-adv-x="200" unicode="’" d="M111 437l-12 15q38 23 63.5 56.5t25.5 69.5q0 15 -8 33l-33 21l1 10l73 46h11q10 -6 21 -25t11 -46q-1 -119 -153 -180z"/>
<glyph glyph-name="quotesinglbase" horiz-adv-x="219" unicode="‚" d="M-31 -119l-12 15q41 25 67.5 61t26.5 74q0 19 -9 35l-35 22l2 11l77 49h12q10 -6 22 -27t12 -50q0 -125 -163 -190z"/>
<glyph glyph-name="quotedblleft" horiz-adv-x="354" unicode="“" d="M270 692l12 -15q-39 -22 -64.5 -56t-25.5 -71q0 -16 9 -32l33 -21l-2 -9l-72 -47h-11q-10 5 -21 25.5t-11 46.5q0 60 41 106t112 73zM425 692l11 -15q-38 -23 -63.5 -56.5t-25.5 -70.5q0 -14 8 -32l33 -21l-1 -9l-72 -47h-12q-10 5 -21 25.5t-11 46.5q1 60 42 105.5 t112 73.5z"/>
<glyph glyph-name="quotedblright" horiz-adv-x="354" unicode="”" d="M264 437l-11 15q38 22 64 56t26 70q0 16 -8 32l-34 22l1 10l73 46h11q10 -7 21 -25.5t11 -45.5q0 -121 -154 -180zM111 437l-12 15q38 23 63.5 56.5t25.5 69.5q0 19 -8 32l-33 22l1 10l73 46h11q10 -5 21 -24.5t11 -46.5q0 -119 -153 -180z"/>
<glyph glyph-name="quotedblbase" horiz-adv-x="389" unicode="„" d="M133 -119l-12 15q41 25 67.5 61t26.5 74q0 19 -9 35l-35 22l2 11l77 49h12q11 -7 22.5 -27.5t11.5 -49.5q0 -125 -163 -190zM-33 -119l-12 15q41 25 67.5 61t26.5 74q0 19 -9 35l-35 22l2 11l77 49h12q10 -6 22 -27t12 -50q0 -125 -163 -190z"/>
<glyph glyph-name="bullet" horiz-adv-x="384" unicode="•" d="M226 368h12q20 -16 50.5 -65.5t37.5 -79.5l-1 -11q-15 -29 -68.5 -76.5t-82.5 -58.5h-11q-24 19 -54 65t-44 86l4 7q38 49 83.5 85.5t73.5 47.5z"/>
<glyph glyph-name="guilsinglleft" horiz-adv-x="313" unicode="‹" d="M215 54l-16 -12q-30 58 -73 111.5t-72 76.5q41 25 104.5 78t112.5 109l10 -14q-66 -115 -122 -175q37 -95 56 -174z"/>
<glyph glyph-name="guilsinglright" horiz-adv-x="313" unicode="›" d="M96 405l14 12q28 -57 71.5 -110t73.5 -78q-41 -25 -104 -78t-112 -109l-10 14q49 93 122 175q-39 91 -55 174z"/>
<glyph glyph-name="fraction" horiz-adv-x="97" unicode="⁄" d="M332 661l20 -22q-138 -169 -546 -674l-21 23q363 444 547 673z"/>
<glyph glyph-name="foursuperior" horiz-adv-x="334" unicode="⁴" d="M252 552l49 155h-2q-46 -45 -144 -153zM324 524l-16 -63l47 -26l-4 -9q-15 0 -45.5 1t-46.5 1q-17 0 -49.5 -1t-48.5 -1l5 9l59 25l20 63l-136 -1l-4 17q30 37 106 114t91 88q20 12 82 19l-53 -209l37 -1q17 15 34 23l6 -1q-5 -29 -29 -74l-7 -1q-11 18 -12 28z"/>
<glyph glyph-name="Euro" d="M83 391l38 1q36 108 119 179t200 71q79 0 130 -42q-8 -25 -53 -101l-10 -2q-12 46 -12 109q-18 6 -39 6q-77 0 -135.5 -63.5t-84.5 -154.5l262 4l-24 -38l-247 4q-10 -30 -12 -66l240 5l-26 -39l-216 5q-1 -11 -1 -33q0 -92 29 -146t88 -54q13 0 23 3q25 17 68 50t66 48 l5 -11q-43 -72 -86 -104q-48 -22 -107 -22q-93 0 -146.5 70.5t-53.5 186.5v12l-60 1l12 26h49q3 45 14 70h-43z" unicode="€"/>
<glyph glyph-name="afii61352" horiz-adv-x="882" unicode="№" d="M777 152l-228 -12l41 51h236l-2 -3zM714 262h1q27 0 49 38.5t32 82t10 73.5q0 64 -36 64q-39 0 -67.5 -69.5t-28.5 -119.5q0 -69 40 -69zM711 239h-1q-61 0 -90 34t-29 83q1 73 54 130t132 57q51 0 81 -32.5t30 -85.5q0 -83 -53.5 -134.5t-123.5 -51.5zM151 621l4 10 q86 22 151 25l5 -63q69 -293 113 -463h3q9 33 45 175.5t49 191.5q14 50 32.5 84.5t36.5 48t30 18.5t21 5q12 -3 28 -12.5t22 -17.5l-3 -8l-93 -48q-25 -27 -54 -131l-101 -368l29 -67l-8 -9l-106 -9q-20 76 -63 266.5t-58 252.5h-2q-91 -346 -98 -372q-13 -47 -30.5 -79.5 t-35.5 -45.5t-29.5 -17.5t-21.5 -4.5q-30 19 -42 45l4 8l85 35q26 24 67 176l84 306q-11 38 -22 48.5t-42 19.5z"/>
<glyph glyph-name="uni2215" horiz-adv-x="97" unicode="∕" d="M332 661l20 -22q-138 -169 -546 -674l-21 23q363 444 547 673z"/>
<glyph glyph-name="r.end" horiz-adv-x="415" unicode="" d="M53 391l1 11q24 13 78.5 29t82.5 19q1 -4 1 -17q0 -84 -30 -191h2q115 207 205 207q24 0 66 -15q38 25 61 44l11 -14q-62 -94 -81 -125q-59 34 -103 34q-29 0 -66 -36.5t-78 -120.5q-30 -61 -75 -216l-106 -8q39 122 69 236.5t34 150.5z"/>
</font>
</defs>
</svg>
