<?xml version="1.0" encoding="UTF-8" standalone="no"?>
<!DOCTYPE svg  PUBLIC '-//W3C//DTD SVG 1.1//EN'  'http://www.w3.org/Graphics/SVG/1.1/DTD/svg11.dtd'>
<svg xmlns="http://www.w3.org/2000/svg">
<defs>
<font id="WarnockPro-ItSubh" horiz-adv-x="492">
<font-face slope="-15" underline-position="-75" font-weight="400" descent="-200" panose-1="2 10 5 3 6 5 11 9 2 4" units-per-em="1000" unicode-range="U+0020-E0FF" bbox="-213 -247 1057 862" x-height="448" underline-thickness="50" font-family="Warnock Pro Subhead" ascent="800" font-style="italic" cap-height="661"/>
<missing-glyph horiz-adv-x="1000"/>
<glyph glyph-name=".notdef" horiz-adv-x="1000"/>
<glyph glyph-name=".null" horiz-adv-x="0"/>
<glyph glyph-name="nonmarkingreturn" horiz-adv-x="333"/>
<glyph glyph-name="space" horiz-adv-x="210" unicode=" "/>
<glyph glyph-name="exclam" horiz-adv-x="226" unicode="!" d="M79 109h5q8 -7 20.5 -28t14.5 -33l-1 -6q-5 -12 -28 -32t-35 -26h-6q-27 23 -39 65l1 2q32 44 68 58zM123 209l-26 -12q63 314 72 378l-3 40q36 29 110 34l6 -6q-38 -103 -159 -434z"/>
<glyph glyph-name="quotedbl" horiz-adv-x="294" unicode='&quot;' d="M284 478l-25 -15q4 22 18 84.5t19 89.5l-8 27q28 14 84 30l12 -1q-74 -167 -100 -215zM146 474l-25 -16q35 149 38 174l-9 27q43 22 85 30l12 -1q-74 -166 -101 -214z"/>
<glyph glyph-name="numbersign" d="M154 464l86 -1l62 166l35 5l-65 -171h113l62 166l35 5l-65 -171l91 1l-37 -58l-76 2l-51 -135h92l-36 -56l-76 1l-68 -184l-33 -5l68 189h-112l-69 -184l-33 -5l70 189l-101 -1l35 56h87l50 135l-99 -1zM363 408h-112l-51 -135h114z" unicode="#"/>
<glyph glyph-name="dollar" d="M273 277l-68 -242q75 2 110.5 38.5t35.5 89.5q0 61 -78 114zM275 373l65 230q-2 0 -7 0.5t-8 0.5q-54 0 -92.5 -31t-38.5 -90q0 -36 20.5 -60t60.5 -50zM348 627l26 91l26 4l-27 -100q38 -10 65 -37q36 24 62 32l5 -3q-6 -22 -27.5 -72t-32.5 -68l-8 -4q-8 42 -10 93 q-21 25 -61 35l-69 -238q33 -21 49.5 -33.5t38.5 -34.5t31.5 -47.5t9.5 -56.5q0 -82 -64.5 -130t-160.5 -48h-3l-26 -95l-31 -9l29 105q-47 6 -90.5 30t-65.5 49q2 11 22.5 45t37.5 55l9 2q2 -20 2 -45q0 -13 -0.5 -40t-0.5 -38q35 -27 93 -33l73 254q-28 18 -45.5 32 t-38.5 35t-31 47t-10 56q0 77 55 123t134 46q23 0 34 -2z" unicode="$"/>
<glyph glyph-name="percent" horiz-adv-x="734" unicode="%" d="M579 327h-1q-38 0 -69.5 -45.5t-46 -98.5t-14.5 -91q0 -37 12.5 -60.5t35.5 -23.5q35 0 65.5 45t45 99t14.5 94q0 81 -42 81zM577 349h1q47 0 75.5 -35t28.5 -101q0 -82 -56.5 -154t-136.5 -72q-45 0 -74.5 33.5t-29.5 95.5q0 82 55.5 157.5t136.5 75.5zM655 661l17 -23 q-203 -243 -555 -674l-18 24q420 505 556 673zM297 632h-1q-39 0 -70.5 -45.5t-45.5 -98t-14 -91.5q0 -37 12.5 -60.5t35.5 -23.5q35 0 65.5 45t45 99t14.5 94t-12 60.5t-30 20.5zM295 654h1q47 0 75.5 -35t28.5 -101q0 -82 -56.5 -154t-136.5 -72q-44 0 -74 33.5t-30 94.5 q0 82 56.5 158t135.5 76z"/>
<glyph glyph-name="ampersand" horiz-adv-x="694" unicode="&amp;" d="M314 189l-4 19q92 92 198 92q60 0 120 -6q42 38 71 57l10 -11q-43 -54 -78 -116q-24 7 -79 14q-24 -131 -105.5 -191t-184.5 -60q-98 0 -160.5 54t-62.5 140q0 133 186 198v2q-54 38 -54 103q0 73 59 121t149 48q42 0 78.5 -14t56.5 -35q-3 -12 -19.5 -40.5t-33.5 -45.5 l-11 -3q-10 33 -14 103q-14 8 -49 8q-61 0 -99.5 -36.5t-38.5 -95.5q0 -87 109 -109l-17 -21q-11 3 -35 3q-74 -1 -126.5 -46t-52.5 -118q0 -71 47 -115t126 -44q81 0 144.5 53.5t83.5 143.5q-22 2 -63 2q-83 0 -151 -54z"/>
<glyph glyph-name="quotesingle" horiz-adv-x="157" unicode="&apos;" d="M146 474l-25 -16q31 128 38 174l-9 27q38 19 85 30l12 -1q-70 -157 -101 -214z"/>
<glyph glyph-name="parenleft" horiz-adv-x="293" unicode="(" d="M389 725l11 -10q-132 -102 -212.5 -262.5t-80.5 -336.5q0 -185 58 -286l-13 -10q-102 112 -102 316v15q3 169 93 325.5t246 248.5z"/>
<glyph glyph-name="parenright" horiz-adv-x="296" unicode=")" d="M-54 -180l-8 14q127 87 208.5 255t81.5 338q0 188 -58 289l13 10q47 -54 74.5 -140t27.5 -184v-10q-4 -174 -95.5 -333.5t-243.5 -238.5z"/>
<glyph glyph-name="asterisk" horiz-adv-x="353" unicode="*" d="M247 483l9 6l4 -108l7 -24q-1 0 -4 -0.5t-5 -0.5q-16 0 -38 5.5t-28 12.5l16 17zM268 524l-11 -2l-2 107l-5 20q6 2 13 2q16 0 35 -4.5t24 -10.5l-15 -17zM270 504l3 11l84 53l16 18q9 -6 18 -29t9 -37v-3l-1 -2l-22 3zM241 505l-3 -12l-84 -52l-17 -17q-7 4 -15.5 25 t-8.5 36q0 7 1 9l21 -4zM248 519l-11 -4l-87 48l-22 4q2 14 18.5 34.5t28.5 22.5l10 -20zM265 490l6 3l90 -48l21 -5q-3 -14 -20 -33.5t-29 -20.5l-8 19z"/>
<glyph glyph-name="plus" horiz-adv-x="546" unicode="+" d="M302 17l-48 -12v207h-184l12 40h172v176l48 13v-189h184l-12 -40h-172v-195z"/>
<glyph glyph-name="comma" horiz-adv-x="202" unicode="," d="M-34 -114l-12 14q84 66 84 138q0 12 -5 24l-35 23l1 8l70 46h10q8 -3 17.5 -22t9.5 -48q0 -55 -39.5 -102.5t-100.5 -80.5z"/>
<glyph glyph-name="hyphen" horiz-adv-x="339" unicode="-" d="M258 217l-222 -22l33 60l46 -1l183 9v-4z"/>
<glyph glyph-name="period" horiz-adv-x="202" unicode="." d="M69 111h5q8 -7 20 -28.5t15 -34.5l-1 -6q-6 -12 -29 -32t-35 -26h-6q-26 22 -39 66l1 2q34 46 69 59z"/>
<glyph glyph-name="slash" horiz-adv-x="366" unicode="/" d="M15 -39h-45l443 716h44z"/>
<glyph glyph-name="zero" d="M347 631h-1q-59 0 -111.5 -78.5t-81.5 -186.5t-29 -204q0 -80 24 -116.5t60 -36.5q59 0 111 82.5t79 190t27 196.5q0 153 -78 153zM347 654h1q70 0 113 -56.5t43 -165.5q0 -52 -11.5 -110.5t-36 -118t-58 -107.5t-84 -78.5t-108.5 -30.5q-72 0 -117.5 56t-45.5 166 q0 95 35.5 195.5t107.5 175t161 74.5z" unicode="0"/>
<glyph glyph-name="one" d="M319 581l-119 -1l6 9q5 2 37.5 12t79.5 25t81 28h11q-145 -534 -162 -612l115 -33l-7 -11q-29 0 -81.5 1.5t-76.5 1.5q-30 0 -86 -1.5t-81 -1.5l6 11l121 33q50 156 156 539z" unicode="1"/>
<glyph glyph-name="two" d="M1 10l44 49q13 5 23 12q128 93 230 206q97 110 97 211q0 63 -31.5 96.5t-84.5 33.5q-47 0 -86 -23q-16 -91 -36 -137l-9 -5q-27 57 -35 108q104 93 204 93q71 0 119.5 -42.5t48.5 -123.5q0 -68 -47.5 -130t-152.5 -149q-105 -88 -183 -143v-2q65 0 265 4q26 27 78 75 l8 -8q-33 -83 -66 -140q-17 0 -100.5 2.5t-133.5 2.5h-156z" unicode="2"/>
<glyph glyph-name="three" d="M163 487l-8 -4q-21 45 -33 95q100 76 194 76q69 0 110.5 -37t41.5 -93q0 -37 -16.5 -66.5t-47 -50.5t-60 -34t-69.5 -26v-3q163 -28 163 -154q0 -91 -76 -147t-182 -56q-58 0 -107.5 21t-71.5 44q30 62 59 98l10 2q8 -64 8 -120q34 -16 83 -16q80 0 132 49t52 128 q0 61 -33 94.5t-84 38.5q-9 -1 -78 -14l-4 8q16 27 36 39q52 -2 56 -2q67 21 104.5 62t37.5 94q0 50 -28.5 78.5t-78.5 28.5q-45 0 -73 -18q-30 -103 -37 -115z" unicode="3"/>
<glyph glyph-name="four" d="M286 237l107 358l-5 -1q-79 -80 -136 -142t-88 -100t-90 -111q80 -4 212 -4zM355 207l-41 -166l83 -32l-6 -11q-23 0 -66.5 1.5t-64.5 1.5q-24 0 -70 -1.5t-66 -1.5l4 11l100 31q30 94 49 166l-252 -2l-12 20q56 76 203.5 232.5t177.5 176.5q28 16 84 21l-113 -418l59 -1 q43 41 64 54l8 -1q-6 -21 -26.5 -71.5t-29.5 -64.5l-9 -3q-10 35 -13 60z" unicode="4"/>
<glyph glyph-name="five" d="M103 354l-4 16q7 21 48.5 133.5t49.5 136.5q79 -4 167 -4h38q41 0 90 26l6 -13q-27 -35 -68 -65q-20 -11 -46 -13q-23 -2 -176 -5q-3 -9 -26.5 -66t-39.5 -99q49 -13 125 -38q91 -31 127 -70t36 -103q0 -84 -71 -143.5t-175 -59.5q-48 0 -97 19.5t-73 43.5 q9 20 28.5 50.5t31.5 43.5l10 3q4 -28 8 -116q30 -14 82 -14q73 0 122 47t49 112q0 49 -33.5 81.5t-104.5 59.5q-63 25 -104 37z" unicode="5"/>
<glyph glyph-name="six" d="M228 9h1q63 0 104 63.5t41 136.5q0 67 -29.5 100.5t-72.5 33.5q-36 0 -73.5 -18t-63.5 -45q-12 -38 -12 -92q0 -83 29.5 -131t75.5 -48zM512 664l9 -17q-120 -27 -212 -96q-130 -95 -169 -238l2 -1q88 71 166 71q62 0 106.5 -42.5t44.5 -126.5q0 -96 -66.5 -161.5 t-165.5 -65.5q-87 0 -137 58.5t-50 157.5q0 94 46.5 187.5t144.5 165.5q66 49 144.5 77t136.5 31z" unicode="6"/>
<glyph glyph-name="seven" d="M81 -14l-5 7q5 11 18 30t37.5 51t42 55t56 72t56.5 72q132 163 223 297l1 2q-23 2 -149 2q-135 0 -167 -3q-39 -64 -52 -80l-12 -5q17 140 23 159q39 -5 56 -5q298 0 362 2l-8 -27q-18 -48 -193 -290t-190 -280l-5 -43z" unicode="7"/>
<glyph glyph-name="eight" d="M224 10h1q56 0 92 38t36 99q0 32 -21 64t-41.5 50t-61.5 51q-125 -75 -125 -169q0 -58 33.5 -95.5t86.5 -37.5zM305 631h-1q-49 0 -82 -38t-33 -88q0 -43 27.5 -77t83.5 -73q105 66 105 157q0 51 -26.5 85t-73.5 34zM320 342v-2q26 -22 33.5 -29t28.5 -28.5t28.5 -35.5 t15.5 -36.5t8 -45.5q-1 -70 -60 -124t-157 -54q-85 0 -138 46t-53 108q0 55 38 91.5t145 93.5v2q-90 67 -90 147q0 77 58 128t138 51q70 0 114 -41t44 -105q0 -21 -7.5 -40.5t-15.5 -32t-28 -28.5t-29.5 -22t-37.5 -22.5t-35 -20.5z" unicode="8"/>
<glyph glyph-name="nine" d="M318 632h-1q-61 0 -99.5 -59.5t-38.5 -133.5q0 -68 32 -102t74 -34q32 0 66.5 14t55.5 39q15 45 15 104q0 172 -104 172zM324 654h1q82 0 130 -58.5t48 -162.5q0 -203 -181 -345q-66 -51 -140 -77t-126 -33l-9 18q105 29 193 97q120 91 165 232l-1 1q-75 -66 -151 -66 q-62 0 -110.5 41.5t-48.5 128.5q0 90 68 157t162 67z" unicode="9"/>
<glyph glyph-name="colon" horiz-adv-x="202" unicode=":" d="M136 418h6q8 -7 20 -28.5t15 -34.5l-2 -5q-6 -13 -28.5 -33.5t-34.5 -25.5h-6q-10 9 -22.5 29t-16.5 37l1 2q32 44 68 59zM69 111h5q8 -7 20 -28.5t15 -34.5l-1 -6q-6 -12 -29 -32t-35 -26h-6q-26 22 -39 66l1 2q30 41 69 59z"/>
<glyph glyph-name="semicolon" horiz-adv-x="202" unicode=";" d="M-34 -114l-12 14q84 66 84 138q0 14 -5 24l-35 22l1 9l70 46h10q8 -4 17.5 -23.5t9.5 -47.5q0 -54 -39.5 -101.5t-100.5 -80.5zM131 417h5q8 -8 20.5 -29t15.5 -33l-2 -6q-6 -13 -29 -33.5t-35 -25.5h-5q-10 9 -22.5 29t-16.5 38v1q33 45 69 59z"/>
<glyph glyph-name="less" horiz-adv-x="552" unicode="&lt;" d="M49 192l9 46l386 197l-6 -48l-340 -172v-3l346 -174l-6 -45z"/>
<glyph glyph-name="equal" horiz-adv-x="546" unicode="=" d="M481 334l-12 -39h-396l13 39h395zM481 174l-12 -39h-396l13 39h395z"/>
<glyph glyph-name="greater" horiz-adv-x="552" unicode="&gt;" d="M493 237l-9 -44l-386 -198l7 48l337 172v3l-344 171l7 45z"/>
<glyph glyph-name="question" horiz-adv-x="388" unicode="?" d="M158 109h5q8 -7 20 -28t15 -33l-1 -6q-6 -12 -28.5 -32t-34.5 -26h-6q-29 25 -39 66l1 1q32 44 68 58zM172 505l-9 -3q-17 36 -24 87q85 59 155 59q58 0 96.5 -34t38.5 -95q0 -42 -28 -75.5t-78 -67.5q-40 -27 -61.5 -42.5t-43 -37.5t-25.5 -38q-3 -10 -3 -22 q0 -16 8 -34l-12 -6q-15 5 -34.5 35t-19.5 61q0 2 0.5 5t0.5 5q27 44 120 111q38 28 54 41.5t31.5 37t15.5 48.5q0 35 -22.5 57.5t-63.5 22.5q-18 0 -46 -10q-31 -79 -50 -105z"/>
<glyph glyph-name="at" horiz-adv-x="781" unicode="@" d="M601 395l4 -5l-30 -46q-29 -82 -82 -279q-4 -15 5 -15q85 0 144 61t59 170q0 111 -69 176.5t-187 65.5q-156 0 -248 -106.5t-92 -262.5q0 -132 79.5 -210.5t203.5 -78.5q161 0 280 118l12 -16q-132 -143 -315 -143q-147 0 -234.5 90t-87.5 236q0 173 119 287t294 114 q130 0 210.5 -73.5t80.5 -192.5t-84 -192.5t-202 -73.5h-9q-21 0 -33 5q5 19 24 80.5t26 83.5h-3q-54 -75 -113 -122t-101 -47q-49 0 -49 72q0 56 37.5 126t98.5 115q72 53 127 53q39 0 59 -22l7 19zM478 356h-1q-43 0 -93 -46q-44 -40 -78 -103.5t-34 -112.5q0 -31 17 -31 q23 0 70 37.5t93 106.5q41 58 65 132q-14 17 -39 17z"/>
<glyph glyph-name="A" horiz-adv-x="664" unicode="A" d="M400 558h-3q-71 -114 -173 -277q22 0 100 -2t99 -2q-12 123 -23 281zM395 632l77 49l5 -6q-6 -17 -6 -54v-17q4 -90 55 -542q11 -18 25.5 -27.5t50.5 -24.5l-3 -12q-19 0 -56 1t-55 1q-16 0 -50 -1t-51 -1l2 10l53 30q0 12 -17 208q-68 -6 -148 -6q-10 0 -36 0.5t-42 0.5 q-85 -139 -118 -195l85 -37l-3 -11q-19 0 -58 1t-59 1q-17 0 -49.5 -1t-49.5 -1l5 11l74 36q34 44 360 545q10 15 9 27v15z"/>
<glyph glyph-name="B" horiz-adv-x="581" unicode="B" d="M230 338q-54 -192 -81 -314h25q136 0 195 41q76 51 76 138q0 66 -45.5 100.5t-160.5 34.5h-9zM310 642l-74 -281q245 2 245 165q0 116 -159 116h-12zM144 644l5 10q115 10 192 12q108 0 168 -32.5t60 -114.5q0 -69 -59 -110t-146 -55l-1 -4q175 -29 175 -154 q0 -97 -88.5 -147.5t-242.5 -50.5h-18q-5 0 -220 3l4 10l90 32q17 40 72 245l91 335z"/>
<glyph glyph-name="C" horiz-adv-x="649" unicode="C" d="M609 143l5 -13q-41 -72 -88 -115q-90 -33 -169 -33q-131 0 -211 76t-80 209q0 81 32.5 156t88 131t136 89.5t170.5 33.5q46 0 83.5 -12t54.5 -28q38 20 72 28l3 -4q-25 -64 -66 -147l-10 -3q-9 41 -9 103q-37 29 -117 29q-152 0 -249 -110t-97 -262q0 -118 61.5 -186 t175.5 -68q32 0 62 6q106 88 152 120z"/>
<glyph glyph-name="D" horiz-adv-x="703" unicode="D" d="M311 639l-80 -295q-81 -297 -82 -320q97 2 168.5 14.5t129.5 48.5q80 50 121.5 132.5t41.5 175.5q0 99 -50 158q-71 86 -249 86zM143 646l5 9q61 11 208 11q165 0 254.5 -74t89.5 -210t-86 -232.5t-223 -131.5q-75 -19 -225 -19q-11 0 -35 0.5t-37 0.5q-11 0 -33 0.5 t-32 0.5q-11 0 -30.5 -0.5t-28.5 -0.5l6 11l84 28q9 18 88 305l78 282z"/>
<glyph glyph-name="E" horiz-adv-x="551" unicode="E" d="M138 651l6 10q21 0 62 -1t61 -1h242q55 10 72 10l3 -4q-28 -102 -45 -139l-9 -4q-2 5 -22 111l-202 -10l-71 -263q169 0 252 11l2 -10q-4 -6 -31.5 -25t-31.5 -19q-3 0 -92.5 4.5t-108.5 4.5q-43 -151 -75 -287l234 -13q103 98 121 113l8 -4q-32 -85 -65 -137 q-89 3 -204 3h-156q-20 0 -62 -1.5t-63 -1.5l5 11l93 34q13 29 87 300l74 275z"/>
<glyph glyph-name="F" horiz-adv-x="508" unicode="F" d="M144 651l7 10q19 0 56 -1t55 -1h253q41 9 76 9l3 -4q-17 -67 -49 -143l-8 -4q-14 66 -22 116l-208 -12l-76 -279q177 0 255 11l3 -10q-4 -5 -32 -24.5t-32 -19.5q-1 0 -85 4t-112 4h-7q-63 -230 -65 -264l109 -34l-5 -11q-26 0 -80.5 1t-81.5 1q-20 0 -60 -1t-59 -1l5 11 l78 34q18 44 86 298l75 279z"/>
<glyph glyph-name="G" horiz-adv-x="701" unicode="G" d="M541 -20h-4q-34 12 -41 36q-55 -34 -144 -34q-132 0 -208.5 79t-76.5 205q0 169 121 290t311 121q48 0 87 -13.5t58 -32.5q12 7 74 32l3 -6q-30 -83 -70 -158l-9 -3q-7 53 -8 111q-44 36 -131 36q-104 0 -184 -54.5t-120 -138.5t-40 -179q0 -116 62.5 -183.5t168.5 -67.5 q65 0 108 20q45 137 76 224l-226 6l2 10l44 21q100 7 284 7q-14 -54 -68.5 -183t-68.5 -145z"/>
<glyph glyph-name="H" horiz-adv-x="723" unicode="H" d="M148 650l5 11q18 0 55.5 -1t56.5 -1q17 0 49.5 1t47.5 1l-3 -11l-57 -35l-65 -244h329l67 244l-42 36l5 10q13 0 38 -1t37 -1q23 0 67 1t65 1l-5 -11l-83 -35q-12 -36 -75 -274q-74 -278 -71 -297l81 -34l-7 -12q-21 0 -64.5 1.5t-66.5 1.5q-15 0 -47 -1.5t-48 -1.5l5 11 l55 34q8 25 81 300q-62 -10 -165 -10h-166q-61 -227 -75 -290l45 -34l-3 -11q-16 0 -47 1.5t-46 1.5q-21 0 -65 -1.5t-65 -1.5l6 11l82 34q17 30 91 304l70 268z"/>
<glyph glyph-name="I" horiz-adv-x="311" unicode="I" d="M155 651l4 10q18 0 54 -1t54 -1q19 0 59.5 1t60.5 1l-3 -10l-78 -35l-75 -272q-66 -241 -77 -302l83 -33l-7 -11q-20 0 -63 1t-65 1q-21 0 -64.5 -1t-67.5 -1l6 11l85 33q12 29 88 302l76 272z"/>
<glyph glyph-name="J" horiz-adv-x="292" unicode="J" d="M132 650l8 11q20 0 60.5 -1.5t61.5 -1.5t61.5 1.5t63.5 1.5l-5 -11l-83 -35q-4 -16 -59.5 -226.5t-68.5 -256.5q-23 -85 -61 -138q-34 -50 -83 -84.5t-86 -47.5l-16 12l2 8q46 17 83 58q39 46 72 160q19 67 74 283q49 192 58 234z"/>
<glyph glyph-name="K" horiz-adv-x="642" unicode="K" d="M149 651l5 10q18 0 56 -1t57 -1q20 0 59.5 1t59.5 1l-3 -10l-78 -33l-75 -274q-72 -264 -77 -302l85 -33l-7 -11q-21 0 -64 1t-65 1t-65 -1t-65 -1l6 11l82 33q16 34 89 302l74 274zM745 659l-6 -11q-14 -5 -62.5 -16.5t-52.5 -12.5q-21 -6 -35 -19q-58 -47 -262 -233v-2 q47 -77 164 -250q51 -74 91 -124l-7 -6q-61 8 -95 29t-65 65q-87 117 -165 251l2 6q230 209 301 285q-7 15 -13 41q52 2 73 2q32 0 132 -5z"/>
<glyph glyph-name="L" horiz-adv-x="530" unicode="L" d="M151 650l5 11q18 0 56 -1.5t56 -1.5q22 0 64 1.5t63 1.5l-5 -11l-84 -33l-74 -270q-78 -280 -81 -309l210 -12q100 102 126 126l9 -3q-29 -77 -68 -153q-8 0 -42 1t-107.5 2t-176.5 1q-22 0 -66 -1t-65 -1l4 10l89 34q28 94 85 304l75 271z"/>
<glyph glyph-name="M" horiz-adv-x="908" unicode="M" d="M187 649l5 11q26 0 81 -0.5t81 -0.5q-5 -25 -5 -48q3 -17 14 -77t31 -169t41 -222h2q12 18 127.5 188.5t191.5 283.5q6 13 9 44q29 0 87 0.5t86 0.5l-5 -12l-93 -31q-16 -80 -47.5 -303.5t-35.5 -272.5l85 -32l-5 -11q-21 0 -63.5 1.5t-62.5 1.5q-21 0 -62.5 -1.5 t-62.5 -1.5l3 11l78 31q17 94 48 271.5t46 261.5h-2q-279 -430 -372 -579l-14 -6q-13 95 -84 547h-1q-13 -32 -54 -131.5t-78 -192.5t-64 -168l83 -34l-3 -11q-20 0 -60 1.5t-59 1.5q-17 0 -49 -1.5t-49 -1.5l4 11l81 36q97 203 238 535q-5 30 -19 40.5t-72 28.5z"/>
<glyph glyph-name="N" horiz-adv-x="711" unicode="N" d="M190 9l-5 -11q-18 0 -56 1.5t-57 1.5q-17 0 -52.5 -1.5t-53.5 -1.5l5 11l86 37q20 48 159 517q-21 46 -37.5 59t-66.5 25l5 11q17 1 70 3t73 3q4 -19 21 -55q34 -68 123 -247t132 -267h2q15 53 67 257t66 263l-79 35l6 11q18 0 53 -1t52 -1q18 0 54.5 1t53.5 1l-6 -11 l-88 -36q-40 -104 -160 -567l62 -40l-2 -7l-118 -11q-28 51 -263 534h-3q-110 -395 -125 -478z"/>
<glyph glyph-name="O" horiz-adv-x="717" unicode="O" d="M452 652h-1q-85 0 -154.5 -63t-104.5 -152t-35 -179q0 -118 47.5 -185t129.5 -67q80 0 147.5 64t103 156t35.5 185q0 119 -47 180t-121 61zM456 677h1q43 0 85 -15.5t81.5 -48t63.5 -92t24 -138.5q0 -72 -25.5 -142t-72 -128.5t-122 -94.5t-166.5 -36q-46 0 -90 16 t-83 48.5t-62.5 90t-23.5 131.5q0 103 50.5 197t141.5 153t198 59z"/>
<glyph glyph-name="P" horiz-adv-x="542" unicode="P" d="M138 641l8 12q111 13 190 13q238 0 238 -185q0 -103 -77 -162.5t-181 -59.5q-31 0 -51 10v12q100 6 160.5 60t60.5 147q0 77 -48 114t-124 37h-7l-73 -282q-76 -287 -79 -314l98 -34l-5 -11q-22 0 -71 1t-75 1q-22 0 -65 -1t-64 -1l5 11l83 34q13 34 89 310l74 269z"/>
<glyph glyph-name="Q" horiz-adv-x="716" unicode="Q" d="M445 652h-1q-65 0 -121.5 -39.5t-91.5 -99.5t-55 -128t-20 -130q0 -107 43 -173t123 -84q91 9 160.5 77t102 156.5t32.5 179.5q0 118 -46.5 179.5t-125.5 61.5zM650 -173l-6 -8q-3 0 -8.5 -0.5t-8.5 -0.5q-81 0 -169 44q-50 24 -176 109q-24 17 -47 26q-171 70 -171 269 q0 101 48.5 195t138 155t197.5 61q46 0 90 -16.5t83 -49t63.5 -90.5t24.5 -133q0 -154 -87 -259t-231 -139v-2q57 -37 147 -92t112 -69z"/>
<glyph glyph-name="R" horiz-adv-x="579" unicode="R" d="M141 636l4 11q89 19 208 19q108 0 161 -41t53 -116q0 -138 -205 -197l-1 -3q43 -95 113 -222q15 -27 27 -48.5t18 -31.5t9 -17l-6 -5q-81 6 -127 77q-54 86 -126 240l3 6q208 44 208 195q0 136 -166 136h-5l-85 -320q-62 -228 -71 -275l85 -35l-5 -11q-21 0 -64 1t-65 1 t-64.5 -1t-64.5 -1l6 11l80 33q16 44 81 276l85 304z"/>
<glyph glyph-name="S" horiz-adv-x="480" unicode="S" d="M323 677h1q72 0 113 -42q34 25 66 36l5 -3q-4 -19 -26.5 -77.5t-31.5 -71.5l-9 -2q-10 47 -12 94q-8 12 -34 23.5t-62 11.5q-62 0 -100.5 -37t-38.5 -94q0 -56 53 -101q15 -13 54 -45t60 -49q74 -63 74 -139q0 -86 -65 -142.5t-168 -56.5q-62 0 -117.5 26t-83.5 58 q4 15 26.5 57.5t37.5 61.5l10 3q2 -8 2.5 -37t0.5 -64.5v-46.5q37 -25 111 -25q80 0 121 40.5t41 98.5q0 57 -54 103q-19 17 -55.5 48t-53.5 46q-69 63 -69 139q0 81 58.5 134t145.5 53z"/>
<glyph glyph-name="T" horiz-adv-x="626" unicode="T" d="M218 658h428q48 12 75 14l5 -3q-21 -52 -72 -155l-8 -2q-4 62 -6 121l-173 -9l-69 -258q-70 -264 -81 -323l114 -34l-8 -11q-26 0 -78 1.5t-78 1.5q-27 0 -79 -1.5t-78 -1.5l5 11l109 34q20 58 83 291l79 290l-172 9q-36 -50 -92 -118l-11 -3q38 144 43 157l3 3 q24 -2 61 -14z"/>
<glyph glyph-name="U" horiz-adv-x="725" unicode="U" d="M219 614l-71 36l5 11q16 0 54 -1.5t55 -1.5q14 0 40.5 1.5t38.5 1.5l-4 -11l-41 -39q-111 -356 -130 -466q-3 -18 -3 -33q0 -77 86 -77q56 0 116 29t91.5 55.5t55.5 52.5l130 444l-41 34l4 11q28 -3 87 -3q17 0 36 0.5t41.5 1.5t35.5 1l-7 -11l-78 -36 q-18 -57 -86 -302.5t-69 -264.5l87 -17l-7 -13q-141 -23 -181 -34l-4 2l43 144h-2q-57 -58 -135.5 -102t-158.5 -44q-61 0 -96 28q-37 28 -37 87q0 34 13 82q54 201 132 434z"/>
<glyph glyph-name="V" horiz-adv-x="658" unicode="V" d="M115 650l5 11q18 0 53.5 -1.5t52.5 -1.5q13 0 28 0.5t33 1.5t28 1l-4 -11l-39 -34q0 -22 54 -517h2q215 333 320 519l-35 32l6 11q12 0 36 -1.5t35 -1.5q16 0 48 1.5t49 1.5l-5 -11q-49 -23 -86 -41q-82 -105 -377 -576q-20 -27 -50 -51l-9 -1q-9 94 -72 630 q-15 10 -73 39z"/>
<glyph glyph-name="W" horiz-adv-x="934" unicode="W" d="M119 650l6 11q12 0 46.5 -1.5t51.5 -1.5q16 0 43.5 1.5t38.5 1.5l-3 -11l-34 -32q9 -110 62 -519h1q38 55 170 252q-23 171 -41 262q-27 19 -65 37l5 11q12 0 46 -1.5t54 -1.5q9 0 26.5 1t24.5 1l-1 -5l-8 -35q5 -53 25 -189h1q85 131 117 188l11 37l3 4q3 0 21 -1t26 -1 q13 0 39.5 1.5t41.5 1.5l-5 -11q-43 -19 -91 -41q-29 -32 -157 -217q1 -8 7.5 -53t15.5 -107.5t19 -127.5h3q221 367 299 512l-20 34l6 11q11 0 33 -1.5t32 -1.5q14 0 43.5 1.5t44.5 1.5l-4 -11q-74 -35 -87 -42q-44 -54 -354 -567q-14 -19 -51 -59l-7 -2q-2 13 -18 131.5 t-29 196.5l-1 -1q-115 -166 -184 -270q-21 -26 -49 -55l-8 -1q-4 25 -35.5 284t-43.5 346q-24 18 -67 39z"/>
<glyph glyph-name="X" horiz-adv-x="646" unicode="X" d="M125 651l5 10q21 0 62.5 -1t61.5 -1q14 0 41.5 0.5t40.5 0.5l-4 -10l-30 -31q18 -60 42.5 -133.5t28.5 -86.5h3q92 110 175 220l-21 31l5 10q9 0 31.5 -0.5t33.5 -0.5q18 0 52.5 1t53.5 1l-6 -11l-101 -39q-54 -53 -215 -244q94 -281 109 -323l98 -36l-7 -10 q-22 0 -67.5 1t-68.5 1q-13 0 -38 -1t-37 -1l30 42q-5 28 -79 259h-2q-141 -171 -206 -258l53 -33l-7 -10q-15 0 -45.5 1t-46.5 1q-18 0 -53 -1t-53 -1l6 10l89 38q49 45 254 287q-54 172 -96 282z"/>
<glyph glyph-name="Y" horiz-adv-x="594" unicode="Y" d="M112 651l6 10q16 0 52 -1t54 -1q15 0 45 1t45 1l-5 -11l-36 -27q9 -39 82 -283l2 -1q131 160 215 282l-29 30l6 10q10 0 38.5 -1t42.5 -1q16 0 46.5 1t46.5 1l-5 -11l-95 -36q-92 -99 -243 -291q-15 -22 -21 -41q-61 -226 -61 -240l103 -33l-4 -11q-27 0 -78.5 1.5 t-77.5 1.5q-23 0 -70 -1.5t-70 -1.5l5 11l99 32q23 55 76 246q2 10 2 14q0 11 -6 31q-35 118 -88 282q-8 5 -77 37z"/>
<glyph glyph-name="Z" horiz-adv-x="614" unicode="Z" d="M653 659l-2 -16q-203 -222 -539 -608v-2q16 0 98.5 -2t158 -3.5t87.5 -1.5q105 118 121 135l7 -3q-24 -76 -59 -162q-1 0 -193 2t-341 2l-7 11q326 358 551 614v2q-279 3 -314 4q-14 -20 -84 -117l-11 -4q32 158 33 160l4 3q13 -3 27.5 -6.5t22.5 -5.5t11 -2h429z"/>
<glyph glyph-name="bracketleft" horiz-adv-x="296" unicode="[" d="M276 674l-218 -805l99 -25l-5 -14h-156l239 884h156l-5 -14z"/>
<glyph glyph-name="backslash" horiz-adv-x="435" unicode="\" d="M341 -39h-40l-147 716h40z"/>
<glyph glyph-name="bracketright" horiz-adv-x="296" unicode="]" d="M52 -131l216 807l-98 27l5 11h155l-238 -884h-159l5 11z"/>
<glyph glyph-name="asciicircum" horiz-adv-x="450" unicode="^" d="M430 317l-48 -7l-131 288l-124 -281l-51 -7l154 333l43 5z"/>
<glyph glyph-name="underscore" horiz-adv-x="483" unicode="_" d="M424 -101v-48h-483v48h483z"/>
<glyph glyph-name="grave" horiz-adv-x="386" unicode="`" d="M308 506l-16 -9l-89 156l1 8q23 14 53 14h8z"/>
<glyph glyph-name="a" horiz-adv-x="505" unicode="a" d="M110 37h1q33 0 82.5 45t102.5 128q27 41 41 74.5t38 109.5q-15 12 -42 12q-69 0 -133 -71q-53 -60 -82.5 -131.5t-29.5 -123.5q0 -43 22 -43zM391 442l92 13l1 -6l-38 -43q-76 -251 -97 -368l2 -1q58 17 117 101l4 -5q-4 -55 -55 -100.5t-122 -45.5q-16 0 -28 3 q6 27 26.5 103t27.5 103h-4q-61 -91 -128.5 -150t-116.5 -59q-30 0 -46.5 24.5t-16.5 70.5q0 71 46.5 159t126.5 146q71 50 139 50q34 0 62 -20z"/>
<glyph glyph-name="b" horiz-adv-x="486" unicode="b" d="M156 11h1q50 0 94.5 33t72.5 82.5t44.5 103.5t16.5 99v6q-1 67 -39 67q-52 0 -138 -107q-44 -54 -71 -122t-29 -116q1 -23 14.5 -34.5t33.5 -11.5zM131 671l5 10q28 11 77.5 21t74.5 12l3 -2q-4 -13 -22 -70.5t-48.5 -158.5t-63.5 -215h2q64 95 124.5 137.5t100.5 42.5 q38 0 60.5 -32.5t22.5 -84.5q0 -138 -98.5 -241t-218.5 -103q-59 0 -129 44q36 132 97.5 350.5t77.5 276.5z"/>
<glyph glyph-name="c" horiz-adv-x="388" unicode="c" d="M351 134l5 -21q-35 -54 -88.5 -90t-118.5 -36q-64 0 -95 41t-31 104q0 133 105 234q85 82 182 82q58 0 78 -22q-2 -14 -16 -50t-26 -55l-10 -5q-11 29 -24 106q-8 2 -15 2q-59 0 -114 -68q-76 -91 -76 -215q0 -48 20 -77t58 -29q49 0 92.5 31.5t71.5 68.5z"/>
<glyph glyph-name="d" horiz-adv-x="520" unicode="d" d="M325 414h-1q-56 0 -110.5 -53.5t-86.5 -128.5t-32 -140q0 -54 30 -54q27 0 78.5 43t106.5 131q29 45 43.5 79.5t33.5 100.5q-25 22 -62 22zM395 672l6 9q28 12 78 22.5t75 10.5l2 -2q-37 -113 -101 -331t-91 -339l2 -1q18 7 35.5 18t31 25t22.5 24t18.5 23t10.5 14l6 -5 q-8 -60 -60.5 -106.5t-117.5 -46.5q-21 0 -33 4q6 26 29.5 105.5t31.5 110.5h-2q-70 -104 -137 -162t-121 -58q-28 0 -47.5 27.5t-19.5 76.5q0 81 43.5 164.5t114.5 138t143 54.5q47 0 81 -31q54 188 67 242z"/>
<glyph glyph-name="e" horiz-adv-x="397" unicode="e" d="M278 425h-1q-44 0 -90.5 -58.5t-68.5 -142.5q49 8 109.5 29t76.5 43q17 26 17 65q0 31 -12 47.5t-31 16.5zM359 134l4 -23q-41 -59 -95.5 -91.5t-110.5 -32.5t-93.5 32.5t-39.5 109.5v5q0 66 32 137t95.5 124t138.5 53q48 0 75 -28t27 -71q0 -28 -19 -52 q-21 -31 -110 -59.5t-150 -38.5q-6 -29 -6 -66q0 -44 19.5 -72.5t60.5 -28.5q44 0 92 32t78 70h2z"/>
<glyph glyph-name="f" horiz-adv-x="252" unicode="f" d="M62 434h71q36 154 118 226q61 54 125 54q49 0 72 -23q-21 -53 -46 -82l-10 -5q-13 32 -20 82q-4 2 -11 2q-93 0 -150 -255h111l-13 -20l-107 -16q-5 -20 -32 -135t-52 -213q-25 -94 -51.5 -144.5t-72.5 -93.5q-62 -53 -115 -53q-26 0 -47.5 12t-28.5 28l37 50l6 1 q30 -47 78 -47q19 0 31 6.5t29.5 40.5t34.5 99q32 126 106 450l-76 17z"/>
<glyph glyph-name="g" horiz-adv-x="393" unicode="g" d="M162 -206h4q56 0 87 21.5t31 50.5q0 24 -42 49q-57 33 -143 72q-59 -34 -83 -55.5t-24 -38.5q0 -32 47 -65.5t123 -33.5zM247 425h-1q-47 0 -88 -74.5t-41 -152.5q0 -71 45 -71q33 0 64.5 38t49 90t17.5 96q0 35 -12 54.5t-34 19.5zM456 457l-39 -59l-74 -4l-1 -2 q18 -26 18 -75q0 -80 -57.5 -146t-143.5 -66q-23 0 -39 8q-13 -13 -13 -29q0 -22 32 -37q7 -3 29.5 -13.5t49.5 -23t53 -25.5q79 -40 79 -83q0 -59 -74.5 -101.5t-144.5 -42.5q-56 0 -99 15t-65.5 37t-33.5 42t-11 36q0 18 19 31q50 37 140 79l1 2q-29 24 -29 61q0 21 50 60 q-55 37 -55 113q0 83 62 148.5t144 65.5h3q26 -3 43 -7q74 -15 78 -15l74 38z"/>
<glyph glyph-name="h" horiz-adv-x="508" unicode="h" d="M86 0l-76 -8q7 24 38.5 135.5t57.5 207.5q81 306 85 324l-70 14l6 8q28 11 82 22t74 11l2 -2q-3 -9 -21 -70t-53 -183t-78 -276h2q126 187 255 250q34 15 66 15q20 0 20 -14q0 -12 -7 -34q-29 -97 -57 -204.5t-33 -139.5l88 9l-6 -15q-62 -21 -177 -69l-5 3 q3 15 55 190.5t59 203.5q4 17 -7 17q-32 0 -105.5 -72.5t-122.5 -154.5q-40 -69 -72 -168z"/>
<glyph glyph-name="i" horiz-adv-x="271" unicode="i" d="M137 386l-62 11l4 10q24 12 72 26t76 15l2 -3q-105 -342 -126 -420l2 -1q27 9 65.5 46.5t63.5 69.5l3 -6q-8 -48 -52 -97.5t-105 -49.5q-41 0 -41 54q0 23 9 54q14 53 89 291zM232 656h5q6 -7 14.5 -26t8.5 -30l-1 -4q-6 -12 -26 -30t-30 -22h-5q-19 19 -28 58l2 2 q27 37 60 52z"/>
<glyph glyph-name="j" horiz-adv-x="243" unicode="j" d="M226 656h5q6 -6 14.5 -25.5t9.5 -30.5l-1 -4q-6 -11 -26.5 -29.5t-30.5 -22.5h-5q-22 22 -27 58v2q28 37 61 52zM136 392l-74 14l6 9q27 12 76.5 22t79.5 11l2 -2q-44 -178 -106 -395q-31 -108 -71 -166q-33 -47 -75 -80.5t-73 -46.5l-14 13q20 13 34.5 25t35.5 37 t39.5 66.5t33.5 97.5q69 251 106 395z"/>
<glyph glyph-name="k" horiz-adv-x="452" unicode="k" d="M198 659l-64 14l5 9q32 11 81.5 22t70.5 11l2 -2q-50 -153 -206 -708q-54 -8 -81 -11q108 351 192 665zM498 434l-8 -12q-95 -20 -111 -29q-71 -51 -139 -119v-1q14 -28 45.5 -82t70 -119t51.5 -87l-5 -4q-45 4 -71 17.5t-55 55.5q-28 41 -64.5 104t-43.5 80l2 4 q87 77 152 144q15 17 20 25t16 36q3 1 13 1q24 0 69 -5.5t58 -8.5z"/>
<glyph glyph-name="l" horiz-adv-x="263" unicode="l" d="M201 658l-63 14l4 9q30 11 79.5 22t72.5 11l2 -2q-48 -148 -107 -351q-24 -81 -45.5 -156t-34.5 -121.5t-16 -57.5l2 -2q38 11 132 125l4 -5q-6 -51 -52.5 -104t-109.5 -53q-17 0 -28.5 14t-11.5 43q0 18 8 52q5 18 32.5 112t68 232.5t63.5 217.5z"/>
<glyph glyph-name="m" horiz-adv-x="796" unicode="m" d="M99 0l-76 -8q19 55 63.5 214t46.5 183l-67 8l4 10q25 12 77 26.5t75 15.5l2 -3q-1 -2 -77 -264h2q120 193 255 251q34 15 71 15q15 0 15 -15q0 -9 -6 -32q-25 -98 -64 -217h3q121 188 251 249q34 15 74 15q15 0 15 -14q0 -11 -7 -35q-74 -245 -91 -344l88 10l-6 -16 q-31 -11 -179 -68l-4 7q2 12 55 186.5t60 205.5q5 15 -6 15q-34 0 -104 -67t-121 -154q-40 -67 -76 -174l-77 -8q24 70 63.5 206.5t47.5 181.5q3 15 -6 15q-36 0 -106 -67.5t-122 -157.5q-36 -62 -73 -170z"/>
<glyph glyph-name="n" horiz-adv-x="523" unicode="n" d="M99 0l-76 -8q19 54 64 215.5t46 181.5l-66 8l4 10q20 11 75.5 26t75.5 16l3 -2q-2 -9 -13 -45t-29.5 -98.5t-35.5 -124.5h3q130 198 255 254q34 15 68 15q18 0 18 -14q0 -13 -7 -35q-79 -267 -92 -344l88 10l-5 -16q-106 -37 -179 -68l-4 7q2 10 54.5 184.5t60.5 207.5 q5 15 -6 15q-33 0 -104 -69.5t-123 -154.5q-42 -72 -75 -171z"/>
<glyph glyph-name="o" horiz-adv-x="458" unicode="o" d="M281 425h-1q-46 0 -87 -51t-62.5 -120t-21.5 -130q0 -115 66 -115q64 0 118 97t54 198q0 121 -66 121zM291 448h1q59 0 97.5 -48t38.5 -121q0 -113 -79 -202.5t-181 -89.5q-60 0 -100 43.5t-40 117.5q0 118 80.5 209t182.5 91z"/>
<glyph glyph-name="p" horiz-adv-x="503" unicode="p" d="M170 12h1q50 0 95 33t74 83t46.5 106t17.5 104v6q-1 57 -33 57q-26 0 -71.5 -40t-96.5 -121q-55 -81 -83 -188q6 -16 20.5 -28t29.5 -12zM135 390l-67 7l5 10q23 13 74 29t78 18l1 -3l-66 -221h3q81 122 146 170t107 48q31 0 50.5 -29.5t19.5 -76.5q0 -72 -28 -139.5 t-72 -113.5t-98 -74t-106 -28q-47 0 -76 24q-17 -55 -48 -182l80 -26l-6 -12q-192 -11 -227 -11l5 11l65 33q16 43 65 216q75 264 95 350z"/>
<glyph glyph-name="q" horiz-adv-x="483" unicode="q" d="M324 414h-1q-57 0 -112.5 -59t-87 -136t-31.5 -138q0 -23 8 -35.5t19 -12.5q32 0 84 44.5t97 110.5q29 42 43.5 74t42.5 119q-23 33 -62 33zM147 -219v8q7 4 74 36q20 58 108 360h-2q-145 -198 -248 -198q-26 0 -46 26.5t-20 76.5q0 130 100.5 244t207.5 114 q23 0 42.5 -13t29.5 -28h2l8 22q44 12 96 19l1 -7l-41 -52q-21 -55 -74.5 -247t-82.5 -317l76 -25l-3 -12q-71 -7 -228 -7z"/>
<glyph glyph-name="r" horiz-adv-x="362" unicode="r" d="M56 397l3 10q29 14 73 27t62 14l2 -2v-7q0 -64 -30 -179h3q102 188 195 188q22 0 35 -11q-1 -14 -19 -56.5t-30 -60.5l-9 -5q-7 21 -18 79q-2 1 -7 1q-14 0 -34.5 -16t-52 -62.5t-63.5 -118.5q-25 -57 -65 -198l-78 -8q41 125 71 239.5t33 153.5z"/>
<glyph glyph-name="s" horiz-adv-x="337" unicode="s" d="M228 448h1q64 0 95 -29q-6 -21 -21 -51.5t-24 -40.5l-9 -4q-7 37 -13 95q-9 6 -33 6q-39 0 -65 -24t-26 -59q0 -18 10.5 -34.5t23 -28t41.5 -34.5q43 -36 59 -64t16 -61q-1 -52 -47.5 -92t-118.5 -40q-41 0 -80 16.5t-55 32.5q23 51 55 95l9 2q10 -58 13 -110 q18 -10 53 -10q43 0 71.5 24t28.5 59q1 23 -13.5 43t-47.5 47q-47 38 -64.5 66t-17.5 58q0 65 46.5 101.5t112.5 36.5z"/>
<glyph glyph-name="t" horiz-adv-x="303" unicode="t" d="M175 528l86 60l5 -4l-45 -150h129l-14 -20l-125 -15q-62 -205 -101 -370l1 -2q40 3 84.5 35t80.5 78l3 -10q-16 -46 -42 -77t-54.5 -44t-48.5 -17.5t-39 -4.5q-56 0 -56 51q0 16 4 32q37 145 93 329l-76 15l15 20h71z"/>
<glyph glyph-name="u" horiz-adv-x="543" unicode="u" d="M140 387l-77 8l5 10q26 12 78.5 26t82.5 17l6 -3q-27 -77 -67 -208t-47 -162q-3 -12 -3 -20q0 -17 12 -17q39 0 99 61.5t119 157.5q40 66 75 176q40 11 91 16l3 -6l-38 -50q-34 -108 -93 -351l2 -2q61 18 116 98l4 -8q-6 -53 -58 -98t-120 -45q-15 0 -29 3q16 62 73 257 h-3q-52 -81 -108.5 -145t-105.5 -92q-40 -23 -76 -23q-41 0 -41 43q0 16 8 48q24 88 92 309z"/>
<glyph glyph-name="v" horiz-adv-x="431" unicode="v" d="M101 387l-67 5l3 11q21 12 72.5 28.5t67.5 16.5l2 -3q1 -143 12 -372h2q106 115 146 200q27 57 27 125q0 23 -1 36q6 6 23 13.5t28 7.5h3q13 -26 13 -67q0 -46 -41.5 -109.5t-124 -157t-96.5 -111.5q-17 -18 -41 -25l-4 1q-1 12 -3.5 62.5t-5.5 120t-6 115.5 q-4 84 -9 103z"/>
<glyph glyph-name="w" horiz-adv-x="662" unicode="w" d="M105 381l-68 12l1 10q24 11 79 28t64 17l2 -3q-1 -58 -1.5 -177.5t-1.5 -180.5h2q4 7 62 98.5t105 168.5q-2 51 -4 66q13 11 39.5 19.5t41.5 8.5l2 -3q-7 -56 -7 -63q1 -74 5.5 -181.5t7.5 -124.5h3q85 100 127 189q34 72 34 153v17q24 20 50 20l2 -1q12 -22 12 -61 q0 -35 -33 -94.5t-64 -100.5t-88.5 -110.5t-63.5 -77.5q-15 -15 -40 -26l-4 2q-7 36 -17 319l-2 -1q-27 -43 -68.5 -106.5t-71 -109.5t-50.5 -79q-22 -20 -41 -25l-4 2q-1 11 -1.5 61t-1 119.5t-2.5 116.5q-1 24 -2 47.5t-2 36t-1 14.5z"/>
<glyph glyph-name="x" horiz-adv-x="465" unicode="x" d="M-17 108l7 10q35 -48 59 -72q17 5 62 54.5t96 119.5q-36 149 -49 171q-41 -15 -103 -94l-5 14q20 50 65 92.5t92 44.5q6 -5 12 -16.5t12 -31t10.5 -35t11 -41.5t9.5 -37h2q44 58 70 89q58 67 88 79h6q14 -12 23.5 -45t8.5 -70l-9 -9q-27 51 -46 66q-16 -5 -62 -54.5 t-72 -85.5q10 -37 28 -102.5t25 -92.5q3 -9 7 -9q6 0 19.5 8t36.5 31t42 55l6 -13q-19 -73 -67.5 -110t-98.5 -37h-2q-6 21 -21.5 84t-29.5 119h-2q-102 -141 -113 -153q-46 -55 -66 -59q-5 0 -8 2q-14 15 -27 53t-17 75z"/>
<glyph glyph-name="y" horiz-adv-x="420" unicode="y" d="M41 277l-12 15q17 59 43.5 96.5t45 48t33.5 11.5q46 -4 66 -104q20 -89 20 -242v-45h3q39 59 80 165t46 161l-28 41l3 5q41 17 73 19q12 0 12 -10q-12 -71 -62 -192q-71 -173 -183 -319q-42 -53 -87 -93.5t-72 -56.5t-37 -16q-6 0 -13.5 6.5t-17 25.5t-15.5 47l2 6 q27 -2 94 -28q14 8 44 36t52 59q42 65 42 160v7q-2 165 -35 269q-11 37 -20 37q-4 0 -16.5 -14t-29.5 -40t-31 -55z"/>
<glyph glyph-name="z" horiz-adv-x="410" unicode="z" d="M386 131l9 -20q-81 -128 -126 -146q-24 2 -85 32q-37 21 -73 34q-20 7 -37 7q-22 0 -36 -12q-15 -12 -34 -42h-5q-3 4 -3 15q0 15 8 34q6 16 21 32t27 22q235 235 275 283v2q-29 -6 -60 -6q-17 0 -53 4q-45 6 -68 10q-16 -10 -49 -45.5t-47 -53.5l-10 17q25 47 58.5 93 t49.5 60q93 -29 175 -29q30 0 51 8t47 33l8 -18q-15 -35 -328 -354l2 -2h5q37 0 86 -21q58 -24 85 -33q42 23 107 96z"/>
<glyph glyph-name="braceleft" horiz-adv-x="294" unicode="{" d="M223 338l-112 -60v-2l82 -55q-58 -161 -70 -212q-9 -37 -9 -66q0 -62 57 -109l-9 -14q-43 18 -74.5 56.5t-31.5 90.5q0 21 6 43q16 65 84 205l-79 59l6 12l106 59q2 129 22 206q15 57 73.5 107.5t111.5 66.5l5 -17q-56 -29 -86 -68.5t-46 -101.5q-24 -95 -36 -200z"/>
<glyph glyph-name="bar" horiz-adv-x="294" unicode="|" d="M111 724h53v-965h-53v965z"/>
<glyph glyph-name="braceright" horiz-adv-x="296" unicode="}" d="M113 222l111 59v2l-81 55q38 85 67 200q9 36 9 65q0 66 -56 109l10 13q40 -15 71.5 -56.5t31.5 -92.5q0 -19 -4 -35q-19 -78 -84 -196l82 -60l-6 -12l-105 -58q-4 -131 -26 -219q-12 -47 -46.5 -86t-69 -59t-69.5 -31l-6 16q56 30 86.5 70.5t47.5 105.5q24 100 37 210z "/>
<glyph glyph-name="asciitilde" horiz-adv-x="550" unicode="~" d="M512 301l24 -17q-58 -119 -144 -119q-43 0 -115 48q-27 18 -38.5 24.5t-30.5 14t-35 7.5q-58 0 -112 -88l-23 15q57 116 148 116q46 0 122 -52q58 -38 95 -38q62 0 109 89z"/>
<glyph glyph-name="uni00A0" horiz-adv-x="210" unicode=" "/>
<glyph glyph-name="exclamdown" horiz-adv-x="226" unicode="¡" d="M97 219l26 12q-64 -320 -73 -379l4 -41q-37 -28 -110 -33l-6 6q2 5 27.5 75t60.5 166t71 194zM141 320h-5q-9 7 -21 28t-14 34l1 5q6 13 28.5 33t34.5 25h6q10 -8 22 -27.5t17 -37.5l-1 -3q-31 -42 -68 -57z"/>
<glyph glyph-name="cent" d="M236 141l103 370l-2 2q-52 -11 -94 -56t-62 -100t-20 -106q0 -47 19.5 -76.5t55.5 -33.5zM348 539l23 81l28 5l-22 -84q37 0 66 -11t38 -22q-3 -13 -18.5 -45.5t-26.5 -46.5l-8 -2q-11 30 -17 97q-12 5 -36 5h-6l-105 -376q52 3 98.5 31t76.5 59l8 -16 q-76 -103 -195 -117l-22 -78l-31 -9l24 85q-73 2 -110 45.5t-37 106.5q0 113 82 196.5t190 95.5z" unicode="¢"/>
<glyph glyph-name="sterling" d="M458 147l9 -9q-18 -55 -65 -143q-6 0 -81.5 2.5t-132.5 2.5h-202l2 14l45 37q15 2 35 18q59 73 84 242l-99 17l15 18h91l7 37q30 174 128 239q48 32 106 32q34 0 60.5 -11.5t37.5 -25.5q-15 -45 -47 -93l-11 -5q-9 33 -20 107q-11 4 -26 4q-105 0 -138 -199 q-2 -13 -6.5 -41.5t-7.5 -43.5h182l-14 -21l-175 -14q-16 -93 -47.5 -144.5t-95.5 -104.5l1 -2h45q154 0 242 5q50 50 78 82z" unicode="£"/>
<glyph glyph-name="currency" d="M485 502l-62 -59q21 -40 21 -88v-10q-3 -91 -61 -147l44 -50l-34 -38l-46 60q-43 -32 -106 -32q-64 0 -101 37l-62 -64l-23 33l64 57q-27 38 -27 97v7q1 37 17.5 75.5t41.5 63.5l-46 52l33 40l46 -64q53 41 118 41q61 0 99 -42l63 63zM291 477h-1q-63 0 -102 -51 t-41 -121v-8q0 -57 27.5 -90t73.5 -33q63 0 101 49t40 122v9q0 57 -26 90t-72 33z" unicode="¤"/>
<glyph glyph-name="yen" d="M107 346h119q-26 147 -52 258l-54 28l5 11q15 0 46 -1.5t44 -1.5q19 0 54.5 1.5t53.5 1.5l-5 -11l-63 -28l39 -244l2 -1q166 233 174 244l-65 29l5 11q15 0 47 -1.5t48 -1.5q13 0 41 1.5t42 1.5l-5 -11l-69 -33q-77 -90 -198 -253h135l-17 -27h-132l-22 -82h142l-18 -26 h-131q-9 -36 -20 -80.5t-16.5 -65.5t-6.5 -27l79 -29l-6 -11q-20 0 -60.5 1.5t-61.5 1.5q-20 0 -61.5 -1.5t-62.5 -1.5l6 11l79 29q11 20 54 173h-137l18 26h126l23 82h-137z" unicode="¥"/>
<glyph glyph-name="brokenbar" horiz-adv-x="294" unicode="¦" d="M111 -183v367h53v-367h-53zM111 667h53v-366h-53v366z"/>
<glyph glyph-name="section" horiz-adv-x="426" unicode="§" d="M131 396v-1q0 -46 32 -125q7 -16 28.5 -64t33.5 -77q27 -64 27 -98v-6q0 -16 -4 -34h2q65 62 65 146q0 45 -26 103q-18 43 -40.5 91t-31.5 72q-15 40 -15 74v5q0 28 13 57l-3 1q-42 -29 -61.5 -68.5t-19.5 -75.5zM80 361v1q0 63 40 119.5t125 97.5q34 25 77 25 q26 0 48 -12q35 12 55 16l5 -3q-5 -18 -21 -56t-28 -56l-7 -1q-2 5 -4 18.5t-5 31.5t-5 28q-11 11 -41 11q-27 0 -47.5 -19.5t-20.5 -48.5q0 -19 9 -47q10 -32 55 -113q54 -118 54 -180q0 -132 -151 -230q-52 -42 -115 -42q-31 0 -63 12.5t-46 27.5q4 13 20.5 42t28.5 43 l6 1q4 -24 11 -96q15 -7 44 -7q38 1 65 23.5t27 54.5q0 34 -28 98q-28 61 -55 126q-33 80 -33 135z"/>
<glyph glyph-name="dieresis" horiz-adv-x="386" unicode="¨" d="M392 646h5q6 -5 16 -23t12 -28l-1 -5q-6 -10 -24 -27t-28 -22h-4q-24 22 -32 56v2q30 38 56 47zM220 646h4q7 -5 16.5 -23t11.5 -28l-1 -5q-4 -10 -22.5 -27t-28.5 -22h-5q-25 25 -32 56v2q32 38 57 47z"/>
<glyph glyph-name="copyright" horiz-adv-x="652" unicode="©" d="M365 460h1q39 0 63 -14q19 11 37 15l5 -2q0 -12 -7.5 -45.5t-10.5 -39.5l-5 -3q-10 12 -26 54q-12 12 -44 12q-49 0 -80 -33t-31 -86q0 -57 32 -95t87 -38q14 0 25 4q40 34 60 44l4 -5q-2 -10 -14.5 -29.5t-19.5 -26.5q-30 -11 -74 -11q-67 0 -114.5 37.5t-47.5 109.5 q0 41 16 72t41 47.5t51 24.5t52 8zM352 564h-1q-102 0 -171 -73t-69 -182q0 -107 69 -180t172 -73q102 0 170 72.5t68 180.5q0 109 -68 182t-170 73zM351 595h1q115 0 195.5 -83.5t80.5 -203.5q0 -118 -81 -200.5t-196 -82.5q-117 0 -197.5 82t-80.5 201q0 120 81 203.5 t197 83.5z"/>
<glyph glyph-name="ordfeminine" horiz-adv-x="303" unicode="ª" d="M121 343h1q12 0 38.5 22.5t54.5 62.5q26 40 40 79q-9 21 -32 21q-24 0 -50 -27q-27 -27 -46 -68t-19 -70q0 -20 13 -20zM325 553l-18 -27q-19 -57 -47 -173q11 3 22 9t17 11t13.5 12t9.5 9l3 -4q-3 -25 -32.5 -50.5t-72.5 -25.5q-10 0 -17 4q3 10 14 47t15 51h-3 q-73 -102 -134 -102q-18 0 -29 14t-11 36q0 36 22.5 80.5t66.5 76.5q41 28 77 28q29 0 41 -24l8 21l52 9z"/>
<glyph glyph-name="guillemotleft" horiz-adv-x="481" unicode="«" d="M383 44l-13 -11q-29 55 -69.5 108t-67.5 80q39 28 99 81t107 106l7 -12q-38 -68 -130 -177q47 -106 67 -175zM205 44l-13 -11q-30 55 -71 108.5t-68 79.5q36 25 96.5 78.5t110.5 108.5l7 -12q-51 -85 -131 -177q51 -113 69 -175z"/>
<glyph glyph-name="logicalnot" horiz-adv-x="546" unicode="¬" d="M410 86v199h-337l18 40h366v-224z"/>
<glyph glyph-name="uni00AD" horiz-adv-x="339" unicode="­" d="M258 217l-222 -22l33 60l46 -1l183 9v-4z"/>
<glyph glyph-name="registered" horiz-adv-x="251" unicode="®" d="M176 589l2 7q12 3 37 3q37 0 37 -23q0 -16 -20 -24q14 -22 21 -29q5 -6 16 -18l-2 -1q-21 1 -30 12q-14 14 -26 35q21 7 21 21q0 19 -27 19v-74l14 -5l-1 -6h-43l2 6l11 4v73h-12zM217 632h-1q-31 0 -53.5 -24t-22.5 -58t22.5 -58t54.5 -24q33 0 55.5 23.5t22.5 58.5 q0 34 -23 58t-55 24zM217 648h1q41 0 68.5 -28t27.5 -70t-28 -70t-69 -28t-68.5 28t-27.5 70q0 41 28 69.5t68 28.5z"/>
<glyph glyph-name="macron" horiz-adv-x="386" unicode="¯" d="M384 555h-196l19 45h195z"/>
<glyph glyph-name="degree" horiz-adv-x="275" unicode="°" d="M236 616h-1q-30 0 -51 -27t-21 -61q0 -29 16 -46.5t41 -17.5q36 0 54.5 26t18.5 61q0 29 -14.5 47t-42.5 18zM241 647h1q39 0 64.5 -26.5t25.5 -69.5q0 -53 -34.5 -85.5t-84.5 -32.5q-39 0 -64.5 25.5t-25.5 68.5q0 50 34.5 85t83.5 35z"/>
<glyph glyph-name="plusminus" horiz-adv-x="546" unicode="±" d="M280 100l-47 -13v191h-183l13 40h170v162l47 12v-174h182l-12 -40h-170v-178zM466 40l-13 -40h-402l14 40h401z"/>
<glyph glyph-name="twosuperior" horiz-adv-x="307" unicode="²" d="M93 437l28 30q13 7 16 9q97 69 129 104q47 50 47 91q0 30 -15 47.5t-41 17.5q-22 0 -36 -8q-17 -55 -29 -74l-8 -5q-13 20 -20 64q55 47 118 47q41 0 68 -23.5t27 -64.5q0 -37 -26.5 -65.5t-86.5 -68.5l-58.5 -39t-42.5 -29q13 0 72 1.5t69 1.5q4 3 47 40l10 -7 q-24 -52 -45 -81q-5 0 -53.5 1.5t-78.5 1.5h-93z"/>
<glyph glyph-name="threesuperior" horiz-adv-x="307" unicode="³" d="M194 668l-8 -5q-10 17 -19 57q58 40 109 40q44 0 67.5 -20.5t23.5 -50.5q0 -21 -16.5 -38t-35 -25.5t-47.5 -17.5l-1 -2q91 -13 91 -79q0 -48 -48 -77.5t-110 -29.5q-30 0 -59.5 10.5t-42.5 23.5q4 11 18 32t21 29l7 2q6 -29 11 -69q15 -6 35 -6q43 0 72 24.5t29 63.5 q0 57 -56 61q-38 -8 -48 -8l-4 4q4 19 20 29q7 0 18.5 -1t15.5 -1h4q66 23 64 70q0 25 -14 39t-37 14q-21 0 -33 -7q-14 -36 -27 -62z"/>
<glyph glyph-name="acute" horiz-adv-x="386" unicode="´" d="M239 498l-11 12l104 147q3 1 11 1q30 0 51 -14v-8z"/>
<glyph glyph-name="mu" horiz-adv-x="531" unicode="µ" d="M411 434l95 14l-1 -5l-38 -49q-36 -112 -92 -351l2 -1q15 4 30 12t25.5 16t21.5 19.5t16 18.5l12.5 17.5t8.5 11.5l4 -6q-4 -50 -56 -97t-119 -47q-2 0 -29 3q14 57 69 250h-2q-162 -253 -245 -253q-19 0 -31 13h-3q-48 -138 -48 -232l-6 -4q-44 8 -44 81q0 31 9 73 q16 69 53 197q40 137 94 312q33 19 84 21l3 -4q-81 -228 -113 -346q-5 -16 -5 -32q0 -28 21 -28q40 0 95.5 58t114.5 156q37 62 74 182z"/>
<glyph glyph-name="paragraph" horiz-adv-x="498" unicode="¶" d="M508 649l-66 -116l-133 -511q-71 -269 -225 -269q-38 0 -56 21q-25 36 -28 54l6 6q27 -24 76 -24h4q131 0 193 222l12 45q-36 -14 -46 -14q-69 0 -125.5 55t-56.5 144q0 127 95 199.5t231 72.5h15l29 105l72 12z"/>
<glyph glyph-name="periodcentered" horiz-adv-x="193" unicode="·" d="M123 303h5q8 -7 20 -28.5t15 -33.5l-1 -6q-6 -12 -28.5 -32t-34.5 -26h-6q-26 22 -39 66l1 2q32 44 68 58z"/>
<glyph glyph-name="cedilla" horiz-adv-x="386" unicode="¸" d="M137 0h28l-49 -57q50 -23 50 -60q0 -38 -41 -63t-82 -31l-6 15q26 8 51 26.5t25 39.5q0 23 -47 43l-1 3z"/>
<glyph glyph-name="onesuperior" horiz-adv-x="307" unicode="¹" d="M267 703h-71l5 10q5 2 23.5 9t50 18.5t53.5 19.5h8q-56 -219 -79 -303l63 -22l-6 -9q-17 0 -49.5 1t-48.5 1t-46 -1t-45 -1l4 9l63 22q45 142 75 246z"/>
<glyph glyph-name="ordmasculine" horiz-adv-x="291" unicode="º" d="M218 537h-1q-33 0 -60.5 -54.5t-27.5 -101.5q0 -49 30 -49q37 0 62.5 56t25.5 102q0 47 -29 47zM220 555h1q39 0 60.5 -23.5t21.5 -64.5q0 -58 -42 -105.5t-104 -47.5q-39 0 -61.5 23.5t-22.5 63.5q0 58 44 106t103 48z"/>
<glyph glyph-name="guillemotright" horiz-adv-x="481" unicode="»" d="M93 397l12 11q30 -55 71 -109t67 -79q-38 -27 -98 -80t-108 -107l-7 12q39 71 130 177q-47 106 -67 175zM271 397l13 11q30 -55 71 -109t67 -79q-35 -24 -95.5 -78t-110.5 -109l-8 12q58 94 130 177q-41 89 -67 175z"/>
<glyph glyph-name="onequarter" horiz-adv-x="669" unicode="¼" d="M457 112l54 168h-2q-77 -74 -159 -166zM505 88l-18 -69l50 -25l-5 -8q-14 0 -40.5 1t-39.5 1q-15 0 -43.5 -1t-42.5 -1l4 8l58 24l22 69l-142 -2l-6 15q31 39 110.5 118t95.5 89q18 9 60 13l-57 -209l34 -1q17 14 35 23l5 -1q-2 -7 -12.5 -34t-15.5 -36l-7 -1 q-7 14 -10 28zM615 661l17 -22q-390 -475 -551 -674l-18 23q479 582 552 673zM226 597h-71l5 10q5 2 23.5 9t50 18.5t53.5 19.5h8q-56 -219 -79 -303l63 -22l-6 -9q-17 0 -49.5 1t-48.5 1q-15 0 -45 -1t-46 -1l4 9l63 22q45 143 75 246z"/>
<glyph glyph-name="onehalf" horiz-adv-x="669" unicode="½" d="M326 -3l28 30q13 7 16 9q97 69 129 104q47 50 47 91q0 30 -15 47.5t-41 17.5q-22 0 -36 -8q-17 -55 -29 -74l-8 -5q-13 20 -20 64q55 47 118 47q41 0 68 -23.5t27 -64.5q0 -37 -26.5 -65.5t-86.5 -68.5l-58.5 -39t-42.5 -29q14 0 72 1.5t69 1.5q4 3 47 40l10 -7 q-24 -53 -45 -81q-5 0 -53.5 1.5t-78.5 1.5h-93zM608 661l17 -22q-390 -475 -551 -674l-18 23q479 582 552 673zM222 597h-71l5 10q5 2 23.5 9t50 18.5t53.5 19.5h8q-56 -219 -79 -303l63 -22l-6 -9q-17 0 -49.5 1t-48.5 1q-15 0 -45 -1t-46 -1l4 9l63 22q45 143 75 246z "/>
<glyph glyph-name="threequarters" horiz-adv-x="669" unicode="¾" d="M472 112l54 168h-2q-77 -74 -159 -166zM520 88l-18 -69l50 -25l-5 -8q-14 0 -40.5 1t-39.5 1q-15 0 -43.5 -1t-42.5 -1l4 8l58 24l22 69l-142 -2l-6 15q31 39 110.5 118t95.5 89q18 9 60 13l-57 -209l34 -1q17 14 35 23l5 -1q-2 -7 -12.5 -34t-15.5 -36l-7 -1 q-7 14 -10 28zM629 661l17 -22q-390 -475 -551 -674l-18 23q479 582 552 673zM179 562l-8 -5q-10 17 -19 57q58 40 109 40q44 0 67.5 -20.5t23.5 -50.5q0 -21 -16.5 -38t-35 -25.5t-47.5 -17.5l-1 -2q91 -13 91 -79q0 -48 -48 -77.5t-110 -29.5q-30 0 -59.5 10.5t-42.5 23.5 q4 11 18 32t21 29l7 2q6 -29 11 -69q15 -6 35 -6q43 0 72 24.5t29 63.5q0 57 -56 61q-38 -8 -48 -8l-4 4q4 19 20 29q7 0 18.5 -1t15.5 -1h4q66 23 64 70q0 25 -14 39t-37 14q-21 0 -33 -7q-14 -36 -27 -62z"/>
<glyph glyph-name="questiondown" horiz-adv-x="388" unicode="¿" d="M228 -77l9 3q17 -36 24 -87q-87 -59 -155 -59q-58 0 -97 34t-39 95q0 72 106 143q44 30 63 44t41.5 36t26.5 39q3 11 3 21q0 16 -8 35l12 6q16 -5 35 -35t19 -62q0 -2 -0.5 -5t-0.5 -5q-27 -44 -120 -111q-37 -27 -54 -41t-32.5 -37.5t-15.5 -48.5q0 -35 22 -57.5 t63 -22.5q22 0 48 11q33 82 50 104zM246 320h-4q-8 7 -20 28t-15 34l1 5q6 13 28.5 33t34.5 25h5q10 -8 22.5 -28t16.5 -37l-1 -2q-15 -22 -35 -37.5t-33 -20.5z"/>
<glyph glyph-name="Agrave" horiz-adv-x="664" unicode="À" d="M499 727l-9 -13l-178 64v11q23 34 49 41zM400 558h-3q-71 -114 -173 -277q22 0 100 -2t99 -2q-12 123 -23 281zM395 632l77 49l5 -6q-6 -17 -6 -54v-17q4 -90 55 -542q11 -18 25.5 -27.5t50.5 -24.5l-3 -12q-19 0 -56 1t-55 1q-16 0 -50 -1t-51 -1l2 10l53 30 q0 12 -17 208q-68 -6 -148 -6q-10 0 -36 0.5t-42 0.5q-85 -139 -118 -195l85 -37l-3 -11q-19 0 -58 1t-59 1q-17 0 -49.5 -1t-49.5 -1l5 11l74 36q34 44 360 545q10 15 9 27v15z"/>
<glyph glyph-name="Aacute" horiz-adv-x="664" unicode="Á" d="M410 699l-9 13l139 103q29 -4 55 -39l-1 -10zM400 558h-3q-71 -114 -173 -277q22 0 100 -2t99 -2q-12 123 -23 281zM395 632l77 49l5 -6q-6 -17 -6 -54v-17q4 -90 55 -542q11 -18 25.5 -27.5t50.5 -24.5l-3 -12q-19 0 -56 1t-55 1q-16 0 -50 -1t-51 -1l2 10l53 30 q0 12 -17 208q-68 -6 -148 -6q-10 0 -36 0.5t-42 0.5q-85 -139 -118 -195l85 -37l-3 -11q-19 0 -58 1t-59 1q-17 0 -49.5 -1t-49.5 -1l5 11l74 36q34 44 360 545q10 15 9 27v15z"/>
<glyph glyph-name="Acircumflex" horiz-adv-x="664" unicode="Â" d="M462 817h18q50 -54 99 -105l-13 -13q-62 32 -106 57q-70 -32 -133 -57l-9 13q72 51 144 105zM400 558h-3q-71 -114 -173 -277q22 0 100 -2t99 -2q-12 123 -23 281zM395 632l77 49l5 -6q-6 -17 -6 -54v-17q4 -90 55 -542q11 -18 25.5 -27.5t50.5 -24.5l-3 -12q-19 0 -56 1 t-55 1q-16 0 -50 -1t-51 -1l2 10l53 30q0 12 -17 208q-68 -6 -148 -6q-10 0 -36 0.5t-42 0.5q-85 -139 -118 -195l85 -37l-3 -11q-19 0 -58 1t-59 1q-17 0 -49.5 -1t-49.5 -1l5 11l74 36q34 44 360 545q10 15 9 27v15z"/>
<glyph glyph-name="Atilde" horiz-adv-x="664" unicode="Ã" d="M581 788l11 -10q-51 -71 -94 -71q-13 0 -54 19q-35 16 -46 16q-28 0 -65 -37l-12 13q57 71 94 71q8 0 50 -17q43 -17 50 -17q31 0 66 33zM400 558h-3q-71 -114 -173 -277q22 0 100 -2t99 -2q-12 123 -23 281zM395 632l77 49l5 -6q-6 -17 -6 -54v-17q4 -90 55 -542 q11 -18 25.5 -27.5t50.5 -24.5l-3 -12q-19 0 -56 1t-55 1q-16 0 -50 -1t-51 -1l2 10l53 30q0 12 -17 208q-68 -6 -148 -6q-10 0 -36 0.5t-42 0.5q-85 -139 -118 -195l85 -37l-3 -11q-19 0 -58 1t-59 1q-17 0 -49.5 -1t-49.5 -1l5 11l74 36q34 44 360 545q10 15 9 27v15z"/>
<glyph glyph-name="Adieresis" horiz-adv-x="664" unicode="Ä" d="M561 815h5q7 -7 17 -25t12 -28l-1 -4q-5 -10 -24.5 -27.5t-29.5 -22.5h-4q-9 7 -19.5 24t-13.5 31v2q26 35 58 50zM384 815h5q8 -7 18 -25t11 -28l-1 -4q-4 -11 -23.5 -28t-30.5 -22h-5q-8 7 -18 24t-14 31v2q23 31 58 50zM400 558h-3q-71 -114 -173 -277q22 0 100 -2 t99 -2q-12 123 -23 281zM395 632l77 49l5 -6q-6 -17 -6 -54v-17q4 -90 55 -542q11 -18 25.5 -27.5t50.5 -24.5l-3 -12q-19 0 -56 1t-55 1q-16 0 -50 -1t-51 -1l2 10l53 30q0 12 -17 208q-68 -6 -148 -6q-10 0 -36 0.5t-42 0.5q-85 -139 -118 -195l85 -37l-3 -11q-19 0 -58 1 t-59 1q-17 0 -49.5 -1t-49.5 -1l5 11l74 36q34 44 360 545q10 15 9 27v15z"/>
<glyph glyph-name="Aring" horiz-adv-x="664" unicode="Å" d="M473 862h1q28 0 47.5 -17t19.5 -47q0 -11 -1 -16q-7 -36 -34 -56.5t-60 -20.5q-29 0 -48 16.5t-19 45.5q0 11 1 16q7 36 34.5 57.5t58.5 21.5zM451 734h1q42 0 51 49q1 5 1 13q0 36 -35 36q-43 0 -52 -49q-2 -10 -2 -14q0 -35 36 -35zM400 558h-3q-71 -114 -173 -277 q22 0 100 -2t99 -2q-12 123 -23 281zM395 632l77 49l5 -6q-6 -17 -6 -54v-17q4 -90 55 -542q11 -18 25.5 -27.5t50.5 -24.5l-3 -12q-19 0 -56 1t-55 1q-16 0 -50 -1t-51 -1l2 10l53 30q0 12 -17 208q-68 -6 -148 -6q-10 0 -36 0.5t-42 0.5q-85 -139 -118 -195l85 -37l-3 -11 q-19 0 -58 1t-59 1q-17 0 -49.5 -1t-49.5 -1l5 11l74 36q34 44 360 545q10 15 9 27v15z"/>
<glyph glyph-name="AE" horiz-adv-x="909" unicode="Æ" d="M303 345l188 -1l64 281h-42q-193 -257 -210 -280zM482 310h-205q-11 -15 -40 -54.5t-67 -92.5t-85 -120l86 -34l-7 -11q-17 0 -55.5 1t-58.5 1q-18 0 -54 -1t-53 -1l6 11l78 34q221 276 447 579l-114 28l6 11q22 0 76 -1t93 -1h323q45 10 71 10l4 -4q-28 -102 -45 -139 l-8 -4q-6 18 -23 110l-226 -10l-59 -278q190 0 265 10l5 -8q-5 -7 -33 -25.5t-33 -18.5q-3 0 -44.5 2t-90.5 4t-70 2h-7q-5 -27 -26.5 -125.5t-30.5 -145.5l234 -12q90 83 123 112l7 -4q-40 -99 -64 -138q-91 3 -205 3h-147q-21 0 -64 -1t-65 -1l5 11l89 34q15 45 62 267z "/>
<glyph glyph-name="Ccedilla" horiz-adv-x="649" unicode="Ç" d="M284 -83l56 65v1q-124 5 -199 80t-75 204q0 81 32.5 156t88 131t136 89.5t170.5 33.5q45 0 83 -12.5t55 -27.5q39 20 71 28l4 -4q-21 -63 -66 -144l-10 -3q-9 37 -9 98q-36 31 -117 31q-152 0 -249 -110.5t-97 -262.5q0 -117 61.5 -185t173.5 -68q33 0 64 6 q112 93 152 120l5 -13q-41 -72 -88 -115q-75 -29 -154 -32l-33 -39q47 -24 47 -60q0 -37 -41 -62.5t-81 -32.5l-8 15q25 8 50.5 27t25.5 40q0 25 -46 42z"/>
<glyph glyph-name="Egrave" horiz-adv-x="551" unicode="È" d="M462 712l-9 -13l-178 64v11q23 34 49 41zM138 651l6 10q21 0 62 -1t61 -1h242q55 10 72 10l3 -4q-28 -102 -45 -139l-9 -4q-2 5 -22 111l-202 -10l-71 -263q169 0 252 11l2 -10q-4 -6 -31.5 -25t-31.5 -19q-3 0 -92.5 4.5t-108.5 4.5q-43 -151 -75 -287l234 -13 q103 98 121 113l8 -4q-32 -85 -65 -137q-89 3 -204 3h-156q-20 0 -62 -1.5t-63 -1.5l5 11l93 34q13 29 87 300l74 275z"/>
<glyph glyph-name="Eacute" horiz-adv-x="551" unicode="É" d="M352 699l-9 13l139 103q29 -4 55 -39l-1 -10zM138 651l6 10q21 0 62 -1t61 -1h242q55 10 72 10l3 -4q-28 -102 -45 -139l-9 -4q-2 5 -22 111l-202 -10l-71 -263q169 0 252 11l2 -10q-4 -6 -31.5 -25t-31.5 -19q-3 0 -92.5 4.5t-108.5 4.5q-43 -151 -75 -287l234 -13 q103 98 121 113l8 -4q-32 -85 -65 -137q-89 3 -204 3h-156q-20 0 -62 -1.5t-63 -1.5l5 11l93 34q13 29 87 300l74 275z"/>
<glyph glyph-name="Ecircumflex" horiz-adv-x="551" unicode="Ê" d="M413 817h18q49 -54 99 -105l-13 -13q-63 32 -106 57q-70 -32 -133 -57l-9 13q72 51 144 105zM138 651l6 10q21 0 62 -1t61 -1h242q55 10 72 10l3 -4q-28 -102 -45 -139l-9 -4q-2 5 -22 111l-202 -10l-71 -263q169 0 252 11l2 -10q-4 -6 -31.5 -25t-31.5 -19 q-3 0 -92.5 4.5t-108.5 4.5q-43 -151 -75 -287l234 -13q103 98 121 113l8 -4q-32 -85 -65 -137q-89 3 -204 3h-156q-20 0 -62 -1.5t-63 -1.5l5 11l93 34q13 29 87 300l74 275z"/>
<glyph glyph-name="Edieresis" horiz-adv-x="551" unicode="Ë" d="M507 815h5q7 -7 17 -25t12 -28l-1 -4q-5 -10 -24.5 -27.5t-29.5 -22.5h-4q-9 7 -19.5 24t-13.5 31v2q26 35 58 50zM330 815h5q8 -7 18 -25t11 -28l-1 -4q-4 -11 -23.5 -28t-30.5 -22h-5q-8 7 -18 24t-14 31v2q23 31 58 50zM138 651l6 10q21 0 62 -1t61 -1h242 q55 10 72 10l3 -4q-28 -102 -45 -139l-9 -4q-2 5 -22 111l-202 -10l-71 -263q169 0 252 11l2 -10q-4 -6 -31.5 -25t-31.5 -19q-3 0 -92.5 4.5t-108.5 4.5q-43 -151 -75 -287l234 -13q103 98 121 113l8 -4q-32 -85 -65 -137q-89 3 -204 3h-156q-20 0 -62 -1.5t-63 -1.5l5 11 l93 34q13 29 87 300l74 275z"/>
<glyph glyph-name="Igrave" horiz-adv-x="311" unicode="Ì" d="M362 712l-9 -13l-178 64v11q23 34 49 41zM155 651l4 10q18 0 54 -1t54 -1q19 0 59.5 1t60.5 1l-3 -10l-78 -35l-75 -272q-66 -241 -77 -302l83 -33l-7 -11q-20 0 -63 1t-65 1q-21 0 -64.5 -1t-67.5 -1l6 11l85 33q12 29 88 302l76 272z"/>
<glyph glyph-name="Iacute" horiz-adv-x="311" unicode="Í" d="M237 705l-9 13l139 103q29 -4 55 -39l-1 -10zM155 651l4 10q18 0 54 -1t54 -1q19 0 59.5 1t60.5 1l-3 -10l-78 -35l-75 -272q-66 -241 -77 -302l83 -33l-7 -11q-20 0 -63 1t-65 1q-21 0 -64.5 -1t-67.5 -1l6 11l85 33q12 29 88 302l76 272z"/>
<glyph glyph-name="Icircumflex" horiz-adv-x="311" unicode="Î" d="M300 822h18q50 -54 99 -105l-13 -13q-62 32 -106 57q-70 -32 -133 -57l-9 13q72 51 144 105zM155 651l4 10q18 0 54 -1t54 -1q19 0 59.5 1t60.5 1l-3 -10l-78 -35l-75 -272q-66 -241 -77 -302l83 -33l-7 -11q-20 0 -63 1t-65 1q-21 0 -64.5 -1t-67.5 -1l6 11l85 33 q12 29 88 302l76 272z"/>
<glyph glyph-name="Idieresis" horiz-adv-x="311" unicode="Ï" d="M395 815h5q7 -7 17 -25t12 -28l-1 -4q-5 -10 -24.5 -27.5t-29.5 -22.5h-4q-9 7 -19.5 24t-13.5 31v2q26 35 58 50zM218 815h5q8 -7 18 -25t11 -28l-1 -4q-4 -11 -23.5 -28t-30.5 -22h-5q-8 7 -18 24t-14 31v2q23 31 58 50zM155 651l4 10q18 0 54 -1t54 -1q19 0 59.5 1 t60.5 1l-3 -10l-78 -35l-75 -272q-66 -241 -77 -302l83 -33l-7 -11q-20 0 -63 1t-65 1q-21 0 -64.5 -1t-67.5 -1l6 11l85 33q12 29 88 302l76 272z"/>
<glyph glyph-name="Eth" horiz-adv-x="730" unicode="Ð" d="M262 363h186l-21 -31h-173q-79 -283 -79 -307q196 0 297 65q80 50 122 131t42 172q0 101 -51 163q-36 44 -95 64t-154 20zM85 363h95l71 263l-80 20l5 9q7 1 37 3.5t81 5t96 2.5q158 0 247 -73.5t89 -207.5q0 -136 -86 -233.5t-223 -132.5q-77 -20 -223 -20 q-11 0 -35 0.5t-37 0.5t-35.5 0.5t-32.5 0.5q-11 0 -30 -0.5t-28 -0.5l6 11l84 28q14 27 86 293h-103z"/>
<glyph glyph-name="Ntilde" horiz-adv-x="711" unicode="Ñ" d="M604 788l11 -10q-51 -71 -94 -71q-13 0 -54 19q-35 16 -46 16q-28 0 -65 -37l-12 13q57 71 94 71q8 0 50 -17t50 -17q31 0 66 33zM190 9l-5 -11q-18 0 -56 1.5t-57 1.5q-17 0 -52.5 -1.5t-53.5 -1.5l5 11l86 37q20 48 159 517q-21 46 -37.5 59t-66.5 25l5 11q17 1 70 3 t73 3q4 -19 21 -55q34 -68 123 -247t132 -267h2q15 53 67 257t66 263l-79 35l6 11q18 0 53 -1t52 -1q18 0 54.5 1t53.5 1l-6 -11l-88 -36q-40 -104 -160 -567l62 -40l-2 -7l-118 -11q-28 51 -263 534h-3q-110 -395 -125 -478z"/>
<glyph glyph-name="Ograve" horiz-adv-x="717" unicode="Ò" d="M556 725l-9 -13l-178 64v11q23 34 49 41zM452 652h-1q-85 0 -154.5 -63t-104.5 -152t-35 -179q0 -118 47.5 -185t129.5 -67q80 0 147.5 64t103 156t35.5 185q0 119 -47 180t-121 61zM456 677h1q43 0 85 -15.5t81.5 -48t63.5 -92t24 -138.5q0 -72 -25.5 -142t-72 -128.5 t-122 -94.5t-166.5 -36q-46 0 -90 16t-83 48.5t-62.5 90t-23.5 131.5q0 103 50.5 197t141.5 153t198 59z"/>
<glyph glyph-name="Oacute" horiz-adv-x="717" unicode="Ó" d="M420 709l-9 13l139 103q29 -4 55 -39l-1 -10zM452 652h-1q-85 0 -154.5 -63t-104.5 -152t-35 -179q0 -118 47.5 -185t129.5 -67q80 0 147.5 64t103 156t35.5 185q0 119 -47 180t-121 61zM456 677h1q43 0 85 -15.5t81.5 -48t63.5 -92t24 -138.5q0 -72 -25.5 -142 t-72 -128.5t-122 -94.5t-166.5 -36q-46 0 -90 16t-83 48.5t-62.5 90t-23.5 131.5q0 103 50.5 197t141.5 153t198 59z"/>
<glyph glyph-name="Ocircumflex" horiz-adv-x="717" unicode="Ô" d="M478 823h18q50 -54 99 -105l-13 -13q-63 32 -106 57q-70 -32 -133 -57l-9 13q72 51 144 105zM452 652h-1q-85 0 -154.5 -63t-104.5 -152t-35 -179q0 -118 47.5 -185t129.5 -67q80 0 147.5 64t103 156t35.5 185q0 119 -47 180t-121 61zM456 677h1q43 0 85 -15.5t81.5 -48 t63.5 -92t24 -138.5q0 -72 -25.5 -142t-72 -128.5t-122 -94.5t-166.5 -36q-46 0 -90 16t-83 48.5t-62.5 90t-23.5 131.5q0 103 50.5 197t141.5 153t198 59z"/>
<glyph glyph-name="Otilde" horiz-adv-x="717" unicode="Õ" d="M600 799l11 -10q-51 -71 -94 -71q-13 0 -54 19q-35 16 -46 16q-28 0 -65 -37l-12 13q57 71 94 71q8 0 50 -17t50 -17q31 0 66 33zM452 652h-1q-85 0 -154.5 -63t-104.5 -152t-35 -179q0 -118 47.5 -185t129.5 -67q80 0 147.5 64t103 156t35.5 185q0 119 -47 180t-121 61z M456 677h1q43 0 85 -15.5t81.5 -48t63.5 -92t24 -138.5q0 -72 -25.5 -142t-72 -128.5t-122 -94.5t-166.5 -36q-46 0 -90 16t-83 48.5t-62.5 90t-23.5 131.5q0 103 50.5 197t141.5 153t198 59z"/>
<glyph glyph-name="Odieresis" horiz-adv-x="717" unicode="Ö" d="M584 822h5q7 -7 17 -25t12 -28l-1 -4q-5 -10 -24.5 -27.5t-29.5 -22.5h-4q-9 7 -19.5 24t-13.5 31v2q26 35 58 50zM407 822h5q8 -7 18 -25t11 -28l-1 -4q-4 -11 -23.5 -28t-30.5 -22h-5q-8 7 -18 24t-14 31v2q23 31 58 50zM452 652h-1q-85 0 -154.5 -63t-104.5 -152 t-35 -179q0 -118 47.5 -185t129.5 -67q80 0 147.5 64t103 156t35.5 185q0 119 -47 180t-121 61zM456 677h1q43 0 85 -15.5t81.5 -48t63.5 -92t24 -138.5q0 -72 -25.5 -142t-72 -128.5t-122 -94.5t-166.5 -36q-46 0 -90 16t-83 48.5t-62.5 90t-23.5 131.5q0 103 50.5 197 t141.5 153t198 59z"/>
<glyph glyph-name="multiply" horiz-adv-x="546" unicode="×" d="M457 375l-152 -156l148 -151l-26 -36l-153 156l-153 -156l-27 35l149 152l-152 154l28 35l155 -158l157 160z"/>
<glyph glyph-name="Oslash" horiz-adv-x="717" unicode="Ø" d="M593 547l-397 -460q46 -82 135 -82q81 0 148.5 62t103.5 154t36 186q0 80 -24 139zM184 116l396 460q-43 77 -127 77q-87 0 -157 -62.5t-105 -152t-35 -180.5q0 -79 26 -141zM619 615l69 77l17 -20l-66 -77q71 -78 71 -213q0 -71 -25.5 -141t-72 -128.5t-121 -94.5 t-164.5 -36q-100 0 -173 63l-82 -94l-17 25l79 91q-69 78 -69 201q0 103 50 196.5t140.5 153t196.5 59.5q97 0 167 -62z"/>
<glyph glyph-name="Ugrave" horiz-adv-x="725" unicode="Ù" d="M548 712l-9 -13l-178 64v11q23 34 49 41zM219 614l-71 36l5 11q16 0 54 -1.5t55 -1.5q14 0 40.5 1.5t38.5 1.5l-4 -11l-41 -39q-111 -356 -130 -466q-3 -18 -3 -33q0 -77 86 -77q56 0 116 29t91.5 55.5t55.5 52.5l130 444l-41 34l4 11q28 -3 87 -3q17 0 36 0.5t41.5 1.5 t35.5 1l-7 -11l-78 -36q-18 -57 -86 -302.5t-69 -264.5l87 -17l-7 -13q-141 -23 -181 -34l-4 2l43 144h-2q-57 -58 -135.5 -102t-158.5 -44q-61 0 -96 28q-37 28 -37 87q0 34 13 82q54 201 132 434z"/>
<glyph glyph-name="Uacute" horiz-adv-x="725" unicode="Ú" d="M451 699l-9 13l139 103q29 -4 55 -39l-1 -10zM219 614l-71 36l5 11q16 0 54 -1.5t55 -1.5q14 0 40.5 1.5t38.5 1.5l-4 -11l-41 -39q-111 -356 -130 -466q-3 -18 -3 -33q0 -77 86 -77q56 0 116 29t91.5 55.5t55.5 52.5l130 444l-41 34l4 11q28 -3 87 -3q17 0 36 0.5 t41.5 1.5t35.5 1l-7 -11l-78 -36q-18 -57 -86 -302.5t-69 -264.5l87 -17l-7 -13q-141 -23 -181 -34l-4 2l43 144h-2q-57 -58 -135.5 -102t-158.5 -44q-61 0 -96 28q-37 28 -37 87q0 34 13 82q54 201 132 434z"/>
<glyph glyph-name="Ucircumflex" horiz-adv-x="725" unicode="Û" d="M510 817h18q50 -54 99 -105l-13 -13q-63 32 -106 57q-70 -32 -133 -57l-9 13q72 51 144 105zM219 614l-71 36l5 11q16 0 54 -1.5t55 -1.5q14 0 40.5 1.5t38.5 1.5l-4 -11l-41 -39q-111 -356 -130 -466q-3 -18 -3 -33q0 -77 86 -77q56 0 116 29t91.5 55.5t55.5 52.5 l130 444l-41 34l4 11q28 -3 87 -3q17 0 36 0.5t41.5 1.5t35.5 1l-7 -11l-78 -36q-18 -57 -86 -302.5t-69 -264.5l87 -17l-7 -13q-141 -23 -181 -34l-4 2l43 144h-2q-57 -58 -135.5 -102t-158.5 -44q-61 0 -96 28q-37 28 -37 87q0 34 13 82q54 201 132 434z"/>
<glyph glyph-name="Udieresis" horiz-adv-x="725" unicode="Ü" d="M609 815h5q7 -7 17 -25t12 -28l-1 -4q-5 -10 -24.5 -27.5t-29.5 -22.5h-4q-9 7 -19.5 24t-13.5 31v2q26 35 58 50zM432 815h5q8 -7 18 -25t11 -28l-1 -4q-4 -11 -23.5 -28t-30.5 -22h-5q-8 7 -18 24t-14 31v2q23 31 58 50zM219 614l-71 36l5 11q16 0 54 -1.5t55 -1.5 q14 0 40.5 1.5t38.5 1.5l-4 -11l-41 -39q-111 -356 -130 -466q-3 -18 -3 -33q0 -77 86 -77q56 0 116 29t91.5 55.5t55.5 52.5l130 444l-41 34l4 11q28 -3 87 -3q17 0 36 0.5t41.5 1.5t35.5 1l-7 -11l-78 -36q-18 -57 -86 -302.5t-69 -264.5l87 -17l-7 -13q-141 -23 -181 -34 l-4 2l43 144h-2q-57 -58 -135.5 -102t-158.5 -44q-61 0 -96 28q-37 28 -37 87q0 34 13 82q54 201 132 434z"/>
<glyph glyph-name="Yacute" horiz-adv-x="594" unicode="Ý" d="M388 699l-9 13l139 103q29 -4 55 -39l-1 -10zM112 651l6 10q16 0 52 -1t54 -1q15 0 45 1t45 1l-5 -11l-36 -27q9 -39 82 -283l2 -1q131 160 215 282l-29 30l6 10q10 0 38.5 -1t42.5 -1q16 0 46.5 1t46.5 1l-5 -11l-95 -36q-92 -99 -243 -291q-15 -22 -21 -41 q-61 -226 -61 -240l103 -33l-4 -11q-27 0 -78.5 1.5t-77.5 1.5q-23 0 -70 -1.5t-70 -1.5l5 11l99 32q23 55 76 246q2 10 2 14q0 11 -6 31q-35 118 -88 282q-8 5 -77 37z"/>
<glyph glyph-name="Thorn" horiz-adv-x="542" unicode="Þ" d="M-9 9l73 32q12 28 88 308l74 271l-65 31l4 10q18 0 51 -1t49 -1q22 0 64 1t61 1l-4 -11l-79 -31l-26 -94q48 4 58 4h11q88 0 141 -38.5t53 -125.5q0 -86 -71 -146.5t-173 -60.5q-32 0 -58 13v13q95 1 154.5 50.5t59.5 141.5q0 128 -137 128q-21 0 -46 -4l-37 -141 q-70 -266 -80 -317l82 -33l-5 -11q-20 0 -60.5 1t-60.5 1t-61.5 -1t-63.5 -1z"/>
<glyph glyph-name="germandbls" horiz-adv-x="509" unicode="ß" d="M60 434h70q26 77 55.5 131.5t81.5 95.5q66 51 142 51q61 0 97.5 -32.5t36.5 -93.5q0 -15 -6 -21q-75 -55 -115.5 -107.5t-40.5 -93.5q0 -32 41 -109q37 -70 37 -113q0 -56 -53 -105.5t-134 -49.5q-31 0 -61.5 11t-44.5 27q15 32 49 76l9 2q5 -16 16 -85q10 -7 37 -7 q47 0 79.5 29.5t32.5 68.5t-39 110q-38 73 -38 110q0 47 40 97t119 113q7 21 7 46q0 44 -22.5 73t-64.5 29q-27 0 -50 -12t-50 -45t-52.5 -101.5t-48.5 -169.5q-7 -30 -28.5 -126t-34.5 -153q-25 -107 -54 -165.5t-73 -97.5q-66 -59 -122 -59q-52 0 -68 30l40 59l6 1 q26 -46 72 -46q56 0 92 144q26 102 102 452l-75 16z"/>
<glyph glyph-name="agrave" horiz-adv-x="505" unicode="à" d="M359 506l-16 -9l-89 156l1 8q23 14 53 14h8zM110 37h1q33 0 82.5 45t102.5 128q27 41 41 74.5t38 109.5q-15 12 -42 12q-69 0 -133 -71q-53 -60 -82.5 -131.5t-29.5 -123.5q0 -43 22 -43zM391 442l92 13l1 -6l-38 -43q-76 -251 -97 -368l2 -1q58 17 117 101l4 -5 q-4 -55 -55 -100.5t-122 -45.5q-16 0 -28 3q6 27 26.5 103t27.5 103h-4q-61 -91 -128.5 -150t-116.5 -59q-30 0 -46.5 24.5t-16.5 70.5q0 71 46.5 159t126.5 146q71 50 139 50q34 0 62 -20z"/>
<glyph glyph-name="aacute" horiz-adv-x="505" unicode="á" d="M310 498l-11 12l104 147q3 1 11 1q30 0 51 -14v-8zM110 37h1q33 0 82.5 45t102.5 128q27 41 41 74.5t38 109.5q-15 12 -42 12q-69 0 -133 -71q-53 -60 -82.5 -131.5t-29.5 -123.5q0 -43 22 -43zM391 442l92 13l1 -6l-38 -43q-76 -251 -97 -368l2 -1q58 17 117 101l4 -5 q-4 -55 -55 -100.5t-122 -45.5q-16 0 -28 3q6 27 26.5 103t27.5 103h-4q-61 -91 -128.5 -150t-116.5 -59q-30 0 -46.5 24.5t-16.5 70.5q0 71 46.5 159t126.5 146q71 50 139 50q34 0 62 -20z"/>
<glyph glyph-name="acircumflex" horiz-adv-x="505" unicode="â" d="M347 666l15 4l56 -160l-16 -10l-63 94l-107 -94l-12 12zM110 37h1q33 0 82.5 45t102.5 128q27 41 41 74.5t38 109.5q-15 12 -42 12q-69 0 -133 -71q-53 -60 -82.5 -131.5t-29.5 -123.5q0 -43 22 -43zM391 442l92 13l1 -6l-38 -43q-76 -251 -97 -368l2 -1q58 17 117 101 l4 -5q-4 -55 -55 -100.5t-122 -45.5q-16 0 -28 3q6 27 26.5 103t27.5 103h-4q-61 -91 -128.5 -150t-116.5 -59q-30 0 -46.5 24.5t-16.5 70.5q0 71 46.5 159t126.5 146q71 50 139 50q34 0 62 -20z"/>
<glyph glyph-name="atilde" horiz-adv-x="505" unicode="ã" d="M472 613l11 -9q-50 -69 -89 -69q-11 0 -51 19q-35 15 -44 15q-25 0 -61 -36l-12 12q54 69 90 69q10 0 47 -16q40 -17 47 -17q28 0 62 32zM110 37h1q33 0 82.5 45t102.5 128q27 41 41 74.5t38 109.5q-15 12 -42 12q-69 0 -133 -71q-53 -60 -82.5 -131.5t-29.5 -123.5 q0 -43 22 -43zM391 442l92 13l1 -6l-38 -43q-76 -251 -97 -368l2 -1q58 17 117 101l4 -5q-4 -55 -55 -100.5t-122 -45.5q-16 0 -28 3q6 27 26.5 103t27.5 103h-4q-61 -91 -128.5 -150t-116.5 -59q-30 0 -46.5 24.5t-16.5 70.5q0 71 46.5 159t126.5 146q71 50 139 50 q34 0 62 -20z"/>
<glyph glyph-name="adieresis" horiz-adv-x="505" unicode="ä" d="M445 646h5q6 -5 16 -23t12 -28l-1 -5q-6 -10 -24 -27t-28 -22h-4q-24 22 -32 56v2q30 38 56 47zM273 646h4q7 -5 16.5 -23t11.5 -28l-1 -5q-4 -10 -22.5 -27t-28.5 -22h-5q-24 25 -32 56v2q32 38 57 47zM110 37h1q33 0 82.5 45t102.5 128q27 41 41 74.5t38 109.5 q-15 12 -42 12q-69 0 -133 -71q-53 -60 -82.5 -131.5t-29.5 -123.5q0 -43 22 -43zM391 442l92 13l1 -6l-38 -43q-76 -251 -97 -368l2 -1q58 17 117 101l4 -5q-4 -55 -55 -100.5t-122 -45.5q-16 0 -28 3q6 27 26.5 103t27.5 103h-4q-61 -91 -128.5 -150t-116.5 -59 q-30 0 -46.5 24.5t-16.5 70.5q0 71 46.5 159t126.5 146q71 50 139 50q34 0 62 -20z"/>
<glyph glyph-name="aring" horiz-adv-x="505" unicode="å" d="M365 662h1q28 0 47 -17t19 -47q0 -10 -1 -16q-7 -36 -34.5 -57t-58.5 -21q-28 0 -47.5 17t-19.5 46q0 10 1 15q7 37 34.5 58.5t58.5 21.5zM343 533h1q18 0 32 12.5t19 36.5q1 5 1 13q0 38 -36 38q-18 0 -32.5 -13t-19.5 -38q-1 -4 -1 -12q0 -37 36 -37zM110 37h1 q33 0 82.5 45t102.5 128q27 41 41 74.5t38 109.5q-15 12 -42 12q-69 0 -133 -71q-53 -60 -82.5 -131.5t-29.5 -123.5q0 -43 22 -43zM391 442l92 13l1 -6l-38 -43q-76 -251 -97 -368l2 -1q58 17 117 101l4 -5q-4 -55 -55 -100.5t-122 -45.5q-16 0 -28 3q6 27 26.5 103 t27.5 103h-4q-61 -91 -128.5 -150t-116.5 -59q-30 0 -46.5 24.5t-16.5 70.5q0 71 46.5 159t126.5 146q71 50 139 50q34 0 62 -20z"/>
<glyph glyph-name="ae" horiz-adv-x="680" unicode="æ" d="M567 424h-1q-44 0 -94.5 -58.5t-74.5 -141.5q53 6 111 26t74 42q23 33 23 84q0 48 -38 48zM648 138l4 -23q-42 -61 -98.5 -94.5t-118.5 -33.5q-57 0 -92.5 32.5t-37.5 104.5q0 5 0.5 14t1.5 13h-3q-52 -69 -114.5 -116.5t-110.5 -47.5q-34 0 -52 23t-18 61 q0 62 49.5 143.5t146.5 141.5q102 63 245 63h22q53 29 105 29q48 0 73 -26.5t25 -65.5q0 -28 -15 -58q-8 -17 -35 -30q-19 -13 -88.5 -36t-144.5 -35q-8 -32 -8 -66v-10q1 -39 20 -65.5t62 -26.5q92 0 180 109h2zM84 64v-1q0 -35 28 -35q31 0 90.5 47.5t111.5 131.5 q24 60 51 104.5t71 81.5l-2 3h-9q-87 0 -172 -62q-69 -48 -119 -130.5t-50 -139.5z"/>
<glyph glyph-name="ccedilla" horiz-adv-x="388" unicode="ç" d="M85 -81l59 68v1q-62 2 -91.5 42.5t-29.5 102.5q0 56 25.5 119.5t81.5 116.5q83 79 179 79q59 0 79 -22q-2 -14 -16 -50t-26 -55l-10 -5q-11 32 -24 106q-12 2 -17 2q-25 0 -54.5 -16.5t-54.5 -46.5q-79 -93 -79 -220q0 -48 19.5 -77t58.5 -29q84 0 165 100l1 -1l5 -20 q-31 -48 -78 -82.5t-101 -40.5l-38 -45q47 -24 47 -60q0 -38 -40.5 -63t-81.5 -32l-8 16q25 7 51 25.5t26 39.5q0 25 -48 44v3z"/>
<glyph glyph-name="egrave" horiz-adv-x="397" unicode="è" d="M324 506l-16 -9l-89 156l1 8q23 14 53 14h8zM278 425h-1q-44 0 -90.5 -58.5t-68.5 -142.5q49 8 109.5 29t76.5 43q17 26 17 65q0 31 -12 47.5t-31 16.5zM359 134l4 -23q-41 -59 -95.5 -91.5t-110.5 -32.5t-93.5 32.5t-39.5 109.5v5q0 66 32 137t95.5 124t138.5 53 q48 0 75 -28t27 -71q0 -28 -19 -52q-21 -31 -110 -59.5t-150 -38.5q-6 -29 -6 -66q0 -44 19.5 -72.5t60.5 -28.5q44 0 92 32t78 70h2z"/>
<glyph glyph-name="eacute" horiz-adv-x="397" unicode="é" d="M255 498l-11 12l104 147q3 1 11 1q30 0 51 -14v-8zM278 425h-1q-44 0 -90.5 -58.5t-68.5 -142.5q49 8 109.5 29t76.5 43q17 26 17 65q0 31 -12 47.5t-31 16.5zM359 134l4 -23q-41 -59 -95.5 -91.5t-110.5 -32.5t-93.5 32.5t-39.5 109.5v5q0 66 32 137t95.5 124t138.5 53 q48 0 75 -28t27 -71q0 -28 -19 -52q-21 -31 -110 -59.5t-150 -38.5q-6 -29 -6 -66q0 -44 19.5 -72.5t60.5 -28.5q44 0 92 32t78 70h2z"/>
<glyph glyph-name="ecircumflex" horiz-adv-x="397" unicode="ê" d="M326 666l15 4l56 -160l-16 -10l-63 94l-107 -94l-12 12zM278 425h-1q-44 0 -90.5 -58.5t-68.5 -142.5q49 8 109.5 29t76.5 43q17 26 17 65q0 31 -12 47.5t-31 16.5zM359 134l4 -23q-41 -59 -95.5 -91.5t-110.5 -32.5t-93.5 32.5t-39.5 109.5v5q0 66 32 137t95.5 124 t138.5 53q48 0 75 -28t27 -71q0 -28 -19 -52q-21 -31 -110 -59.5t-150 -38.5q-6 -29 -6 -66q0 -44 19.5 -72.5t60.5 -28.5q44 0 92 32t78 70h2z"/>
<glyph glyph-name="edieresis" horiz-adv-x="397" unicode="ë" d="M414 646h5q6 -5 16 -23t12 -28l-1 -5q-6 -10 -24 -27t-28 -22h-4q-24 22 -32 56v2q30 38 56 47zM242 646h4q7 -5 16.5 -23t11.5 -28l-1 -5q-4 -10 -22.5 -27t-28.5 -22h-5q-25 25 -32 56v2q32 38 57 47zM278 425h-1q-44 0 -90.5 -58.5t-68.5 -142.5q49 8 109.5 29 t76.5 43q17 26 17 65q0 31 -12 47.5t-31 16.5zM359 134l4 -23q-41 -59 -95.5 -91.5t-110.5 -32.5t-93.5 32.5t-39.5 109.5v5q0 66 32 137t95.5 124t138.5 53q48 0 75 -28t27 -71q0 -28 -19 -52q-21 -31 -110 -59.5t-150 -38.5q-6 -29 -6 -66q0 -44 19.5 -72.5t60.5 -28.5 q44 0 92 32t78 70h2z"/>
<glyph glyph-name="igrave" horiz-adv-x="271" unicode="ì" d="M226 506l-16 -9l-89 156l1 8q23 14 53 14h8zM137 386l-62 11l4 10q24 12 72 26t76 15l2 -3q-105 -342 -126 -420l2 -1q27 9 65.5 46.5t63.5 69.5l3 -6q-8 -48 -52 -97.5t-105 -49.5q-41 0 -41 54q0 23 9 54q14 53 89 291z"/>
<glyph glyph-name="iacute" horiz-adv-x="271" unicode="í" d="M178 498l-11 12l104 147q3 1 11 1q30 0 51 -14v-8zM137 386l-62 11l4 10q24 12 72 26t76 15l2 -3q-105 -342 -126 -420l2 -1q27 9 65.5 46.5t63.5 69.5l3 -6q-8 -48 -52 -97.5t-105 -49.5q-41 0 -41 54q0 23 9 54q14 53 89 291z"/>
<glyph glyph-name="icircumflex" horiz-adv-x="271" unicode="î" d="M225 666l15 4l56 -160l-16 -10l-63 94l-107 -94l-12 12zM137 386l-62 11l4 10q24 12 72 26t76 15l2 -3q-105 -342 -126 -420l2 -1q27 9 65.5 46.5t63.5 69.5l3 -6q-8 -48 -52 -97.5t-105 -49.5q-41 0 -41 54q0 23 9 54q14 53 89 291z"/>
<glyph glyph-name="idieresis" horiz-adv-x="271" unicode="ï" d="M320 646h5q6 -5 16 -23t12 -28l-1 -5q-6 -10 -24 -27t-28 -22h-4q-24 22 -32 56v2q30 38 56 47zM148 646h4q7 -5 16.5 -23t11.5 -28l-1 -5q-4 -10 -22.5 -27t-28.5 -22h-5q-25 25 -32 56v2q32 38 57 47zM137 386l-62 11l4 10q24 12 72 26t76 15l2 -3q-105 -342 -126 -420 l2 -1q27 9 65.5 46.5t63.5 69.5l3 -6q-8 -48 -52 -97.5t-105 -49.5q-41 0 -41 54q0 23 9 54q14 53 89 291z"/>
<glyph glyph-name="eth" horiz-adv-x="437" unicode="ð" d="M284 425h-1q-36 0 -72 -37q-44 -46 -75 -120t-31 -153q0 -49 18.5 -77t45.5 -28q45 0 88 51q30 38 59.5 122.5t29.5 176.5q0 21 -14 40q-19 25 -48 25zM171 514l136 70q-38 71 -120 115l14 13q40 -13 80.5 -42t67.5 -65l108 56l19 -21l-110 -56q58 -86 58 -216 q0 -180 -91 -291q-73 -90 -171 -90q-63 0 -99.5 44t-36.5 116q0 120 86 213q83 88 171 88q40 0 69 -25q-3 81 -32 139l-130 -68z"/>
<glyph glyph-name="ntilde" horiz-adv-x="523" unicode="ñ" d="M452 613l11 -9q-50 -69 -89 -69q-11 0 -51 19q-34 15 -44 15q-25 0 -61 -36l-12 12q54 69 90 69q10 0 47 -16q40 -17 47 -17q28 0 62 32zM99 0l-76 -8q19 54 64 215.5t46 181.5l-66 8l4 10q20 11 75.5 26t75.5 16l3 -2q-2 -9 -13 -45t-29.5 -98.5t-35.5 -124.5h3 q130 198 255 254q34 15 68 15q18 0 18 -14q0 -13 -7 -35q-79 -267 -92 -344l88 10l-5 -16q-106 -37 -179 -68l-4 7q2 10 54.5 184.5t60.5 207.5q5 15 -6 15q-33 0 -104 -69.5t-123 -154.5q-42 -72 -75 -171z"/>
<glyph glyph-name="ograve" horiz-adv-x="458" unicode="ò" d="M335 506l-16 -9l-89 156l1 8q23 14 53 14h8zM281 425h-1q-46 0 -87 -51t-62.5 -120t-21.5 -130q0 -115 66 -115q64 0 118 97t54 198q0 121 -66 121zM291 448h1q59 0 97.5 -48t38.5 -121q0 -113 -79 -202.5t-181 -89.5q-60 0 -100 43.5t-40 117.5q0 118 80.5 209t182.5 91 z"/>
<glyph glyph-name="oacute" horiz-adv-x="458" unicode="ó" d="M274 498l-11 12l104 147q3 1 11 1q30 0 51 -14v-8zM281 425h-1q-46 0 -87 -51t-62.5 -120t-21.5 -130q0 -115 66 -115q64 0 118 97t54 198q0 121 -66 121zM291 448h1q59 0 97.5 -48t38.5 -121q0 -113 -79 -202.5t-181 -89.5q-60 0 -100 43.5t-40 117.5q0 118 80.5 209 t182.5 91z"/>
<glyph glyph-name="ocircumflex" horiz-adv-x="458" unicode="ô" d="M335 666l15 4l56 -160l-16 -10l-63 94l-107 -94l-12 12zM281 425h-1q-46 0 -87 -51t-62.5 -120t-21.5 -130q0 -115 66 -115q64 0 118 97t54 198q0 121 -66 121zM291 448h1q59 0 97.5 -48t38.5 -121q0 -113 -79 -202.5t-181 -89.5q-60 0 -100 43.5t-40 117.5 q0 118 80.5 209t182.5 91z"/>
<glyph glyph-name="otilde" horiz-adv-x="458" unicode="õ" d="M435 613l11 -9q-50 -69 -89 -69q-11 0 -51 19q-35 15 -44 15q-25 0 -61 -36l-12 12q54 69 90 69q10 0 47 -16q40 -17 47 -17q28 0 62 32zM281 425h-1q-46 0 -87 -51t-62.5 -120t-21.5 -130q0 -115 66 -115q64 0 118 97t54 198q0 121 -66 121zM291 448h1q59 0 97.5 -48 t38.5 -121q0 -113 -79 -202.5t-181 -89.5q-60 0 -100 43.5t-40 117.5q0 118 80.5 209t182.5 91z"/>
<glyph glyph-name="odieresis" horiz-adv-x="458" unicode="ö" d="M426 646h5q6 -5 16 -23t12 -28l-1 -5q-6 -10 -24 -27t-28 -22h-4q-24 22 -32 56v2q30 38 56 47zM254 646h4q7 -5 16.5 -23t11.5 -28l-1 -5q-4 -10 -22.5 -27t-28.5 -22h-5q-25 25 -32 56v2q32 38 57 47zM281 425h-1q-46 0 -87 -51t-62.5 -120t-21.5 -130q0 -115 66 -115 q64 0 118 97t54 198q0 121 -66 121zM291 448h1q59 0 97.5 -48t38.5 -121q0 -113 -79 -202.5t-181 -89.5q-60 0 -100 43.5t-40 117.5q0 118 80.5 209t182.5 91z"/>
<glyph glyph-name="divide" horiz-adv-x="546" unicode="÷" d="M275 416l5 1q7 -3 19.5 -17t17.5 -25l-1 -7q-5 -10 -18.5 -23.5t-21.5 -18.5l-6 -2q-23 13 -37 43l1 6q20 29 41 43zM274 143l6 1q7 -3 19.5 -17t16.5 -25l-1 -6q-12 -25 -40 -43l-6 -2q-25 16 -36 42l1 8q23 31 40 42zM77 252h405l-13 -40h-405z"/>
<glyph glyph-name="oslash" horiz-adv-x="458" unicode="ø" d="M345 347l-226 -291q18 -47 55 -47q49 0 91 50.5t63.5 118.5t21.5 130q0 20 -3 37zM111 89l226 289q-15 47 -56 47q-50 0 -91.5 -50.5t-62 -118.5t-20.5 -132q0 -13 2 -35h2zM373 420l48 58l16 -22l-47 -56q38 -46 38 -119q0 -115 -78.5 -204.5t-182.5 -89.5q-51 0 -86 31 l-49 -58l-15 23l46 54q-34 46 -34 110q0 119 80.5 210t180.5 91q49 0 83 -28z"/>
<glyph glyph-name="ugrave" horiz-adv-x="543" unicode="ù" d="M366 506l-16 -9l-89 156l1 8q23 14 53 14h8zM140 387l-77 8l5 10q26 12 78.5 26t82.5 17l6 -3q-27 -77 -67 -208t-47 -162q-3 -12 -3 -20q0 -17 12 -17q39 0 99 61.5t119 157.5q40 66 75 176q40 11 91 16l3 -6l-38 -50q-34 -108 -93 -351l2 -2q61 18 116 98l4 -8 q-6 -53 -58 -98t-120 -45q-15 0 -29 3q16 62 73 257h-3q-52 -81 -108.5 -145t-105.5 -92q-40 -23 -76 -23q-41 0 -41 43q0 16 8 48q24 88 92 309z"/>
<glyph glyph-name="uacute" horiz-adv-x="543" unicode="ú" d="M317 498l-11 12l104 147q3 1 11 1q30 0 51 -14v-8zM140 387l-77 8l5 10q26 12 78.5 26t82.5 17l6 -3q-27 -77 -67 -208t-47 -162q-3 -12 -3 -20q0 -17 12 -17q39 0 99 61.5t119 157.5q40 66 75 176q40 11 91 16l3 -6l-38 -50q-34 -108 -93 -351l2 -2q61 18 116 98l4 -8 q-6 -53 -58 -98t-120 -45q-15 0 -29 3q16 62 73 257h-3q-52 -81 -108.5 -145t-105.5 -92q-40 -23 -76 -23q-41 0 -41 43q0 16 8 48q24 88 92 309z"/>
<glyph glyph-name="ucircumflex" horiz-adv-x="543" unicode="û" d="M368 666l15 4l56 -160l-16 -10l-63 94l-107 -94l-12 12zM140 387l-77 8l5 10q26 12 78.5 26t82.5 17l6 -3q-27 -77 -67 -208t-47 -162q-3 -12 -3 -20q0 -17 12 -17q39 0 99 61.5t119 157.5q40 66 75 176q40 11 91 16l3 -6l-38 -50q-34 -108 -93 -351l2 -2q61 18 116 98 l4 -8q-6 -53 -58 -98t-120 -45q-15 0 -29 3q16 62 73 257h-3q-52 -81 -108.5 -145t-105.5 -92q-40 -23 -76 -23q-41 0 -41 43q0 16 8 48q24 88 92 309z"/>
<glyph glyph-name="udieresis" horiz-adv-x="543" unicode="ü" d="M452 646h5q6 -5 16 -23t12 -28l-1 -5q-6 -10 -24 -27t-28 -22h-4q-24 22 -32 56v2q30 38 56 47zM280 646h4q7 -5 16.5 -23t11.5 -28l-1 -5q-4 -10 -22.5 -27t-28.5 -22h-5q-25 25 -32 56v2q32 38 57 47zM140 387l-77 8l5 10q26 12 78.5 26t82.5 17l6 -3q-27 -77 -67 -208 t-47 -162q-3 -12 -3 -20q0 -17 12 -17q39 0 99 61.5t119 157.5q40 66 75 176q40 11 91 16l3 -6l-38 -50q-34 -108 -93 -351l2 -2q61 18 116 98l4 -8q-6 -53 -58 -98t-120 -45q-15 0 -29 3q16 62 73 257h-3q-52 -81 -108.5 -145t-105.5 -92q-40 -23 -76 -23q-41 0 -41 43 q0 16 8 48q24 88 92 309z"/>
<glyph glyph-name="yacute" horiz-adv-x="420" unicode="ý" d="M260 498l-11 12l104 147q3 1 11 1q30 0 51 -14v-8zM41 277l-12 15q17 59 43.5 96.5t45 48t33.5 11.5q46 -4 66 -104q20 -89 20 -242v-45h3q39 59 80 165t46 161l-28 41l3 5q41 17 73 19q12 0 12 -10q-12 -71 -62 -192q-71 -173 -183 -319q-42 -53 -87 -93.5t-72 -56.5 t-37 -16q-6 0 -13.5 6.5t-17 25.5t-15.5 47l2 6q27 -2 94 -28q14 8 44 36t52 59q42 65 42 160v7q-2 165 -35 269q-11 37 -20 37q-4 0 -16.5 -14t-29.5 -40t-31 -55z"/>
<glyph glyph-name="thorn" horiz-adv-x="487" unicode="þ" d="M355 401h-1q-58 0 -168 -161q-54 -77 -87 -196q24 -31 68 -31q62 0 114.5 56t79.5 129.5t27 138.5v6q-1 58 -33 58zM130 671l4 10q29 11 79.5 20.5t72.5 9.5l2 -2q-75 -241 -143 -481h2q147 220 254 220q31 0 50 -30t19 -76q0 -140 -95 -247.5t-204 -107.5q-50 0 -81 26 q-15 -48 -54 -203l93 -25l-5 -12q-1 0 -99 -5.5t-139 -5.5l5 12l64 32q12 31 37 118.5t58.5 209t44.5 160.5q24 84 101 364z"/>
<glyph glyph-name="ydieresis" horiz-adv-x="420" unicode="ÿ" d="M379 646h5q6 -5 16 -23t12 -28l-1 -5q-6 -10 -24 -27t-28 -22h-4q-24 22 -32 56v2q30 38 56 47zM207 646h4q7 -5 16.5 -23t11.5 -28l-1 -5q-4 -10 -22.5 -27t-28.5 -22h-5q-24 25 -32 56v2q32 38 57 47zM41 277l-12 15q17 59 43.5 96.5t45 48t33.5 11.5q46 -4 66 -104 q20 -89 20 -242v-45h3q39 59 80 165t46 161l-28 41l3 5q41 17 73 19q12 0 12 -10q-12 -71 -62 -192q-71 -173 -183 -319q-42 -53 -87 -93.5t-72 -56.5t-37 -16q-6 0 -13.5 6.5t-17 25.5t-15.5 47l2 6q27 -2 94 -28q14 8 44 36t52 59q42 65 42 160v7q-2 165 -35 269 q-11 37 -20 37q-4 0 -16.5 -14t-29.5 -40t-31 -55z"/>
<glyph glyph-name="dotlessi" horiz-adv-x="271" unicode="ı" d="M137 386l-62 11l4 10q24 12 72 26t76 15l2 -3q-105 -342 -126 -420l2 -1q27 9 65.5 46.5t63.5 69.5l3 -6q-8 -48 -52 -97.5t-105 -49.5q-41 0 -41 54q0 23 9 54q14 53 89 291z"/>
<glyph glyph-name="OE" horiz-adv-x="961" unicode="Œ" d="M715 659h204q36 9 69 9h3l3 -3q-31 -110 -46 -140l-8 -4q-10 30 -22 111l-202 -10l-71 -262q165 0 251 10l3 -9q-4 -6 -31.5 -25t-31.5 -19q-3 0 -92.5 4t-108.5 4q-48 -177 -74 -287l232 -12q98 94 123 114l7 -4q-29 -83 -65 -139q-92 3 -207 3h-103q-22 0 -91 -3 t-89 -3q-145 0 -223.5 77t-78.5 203q0 173 126.5 282t338.5 109q35 0 104.5 -3t79.5 -3zM477 35l158 588q-46 17 -107 17q-178 0 -274.5 -103t-96.5 -265q0 -105 57 -178t177 -74q52 0 86 15z"/>
<glyph glyph-name="oe" horiz-adv-x="694" unicode="œ" d="M581 426h-1q-42 0 -92 -59t-73 -143q50 6 105 25q97 34 97 115q0 31 -10.5 46.5t-25.5 15.5zM294 448h1q45 0 76 -30t34 -83h2q82 113 183 113q50 0 75.5 -27.5t25.5 -71.5q0 -50 -52 -81q-73 -44 -230 -69q-9 -34 -9 -64v-9q0 -39 18.5 -68t60.5 -29q53 0 100 34t74 70 l2 -1l6 -19q-37 -58 -92.5 -92t-115.5 -34q-46 0 -77.5 25t-41.5 69l-2 -1q-72 -93 -172 -93q-60 0 -96 40t-36 113q0 70 34.5 141t97.5 119t134 48zM290 425h-1q-51 0 -94 -58.5t-63.5 -127.5t-20.5 -120q0 -54 17.5 -81.5t41.5 -27.5q43 0 78 36t55 88.5t30.5 103 t10.5 88.5q0 99 -54 99z"/>
<glyph glyph-name="circumflex" horiz-adv-x="386" unicode="ˆ" d="M300 666l15 4l56 -160l-16 -10l-63 94l-107 -94l-12 12z"/>
<glyph glyph-name="ring" horiz-adv-x="386" unicode="˚" d="M307 662h1q28 0 47 -17t19 -47q0 -10 -1 -16q-7 -36 -34.5 -57t-58.5 -21q-28 0 -47.5 17t-19.5 46q0 10 1 15q7 37 34.5 58.5t58.5 21.5zM285 533h1q18 0 32 12.5t19 36.5q1 5 1 13q0 38 -36 38q-18 0 -32.5 -13t-19.5 -38q-1 -4 -1 -12q0 -37 36 -37z"/>
<glyph glyph-name="tilde" horiz-adv-x="386" unicode="˜" d="M415 613l11 -9q-50 -69 -89 -69q-11 0 -51 19q-34 15 -44 15q-25 0 -61 -36l-12 12q54 69 90 69q10 0 47 -16q40 -17 47 -17q28 0 62 32z"/>
<glyph glyph-name="afii10023" horiz-adv-x="551" unicode="Ё" d="M514 815h5q7 -7 17 -25t12 -28l-1 -4q-5 -10 -24.5 -27.5t-29.5 -22.5h-4q-9 7 -19.5 24t-13.5 31v2q26 35 58 50zM337 815h5q8 -7 18 -25t11 -28l-1 -4q-4 -11 -23.5 -28t-30.5 -22h-5q-8 7 -18 24t-14 31v2q23 31 58 50zM138 651l6 10q21 0 62 -1t61 -1h242 q55 10 72 10l3 -4q-28 -102 -45 -139l-9 -4q-2 5 -22 111l-202 -10l-71 -263q169 0 252 11l2 -10q-4 -6 -31.5 -25t-31.5 -19q-3 0 -92.5 4.5t-108.5 4.5q-43 -151 -75 -287l234 -13q103 98 121 113l8 -4q-32 -85 -65 -137q-89 3 -204 3h-156q-20 0 -62 -1.5t-63 -1.5l5 11 l93 34q13 29 87 300l74 275z"/>
<glyph glyph-name="afii10051" horiz-adv-x="735" unicode="Ђ" d="M217 658h438q47 12 73 14l4 -3q-7 -18 -70 -154l-10 -2q-3 85 -4 120l-185 -9l-72 -266q84 39 141 39q66 0 109.5 -48t43.5 -134q0 -144 -91.5 -241t-237.5 -137l-7 19q113 46 180.5 139t67.5 212q0 72 -31.5 109.5t-85.5 37.5q-52 0 -96 -20q-51 -195 -72 -291l90 -34 l-5 -11q-76 2 -142 2q-53 0 -135 -2l6 11l94 34q9 24 83 291l80 289l-173 10q-22 -30 -91 -117l-11 -3q32 129 41 156l5 3q19 -2 63 -14z"/>
<glyph glyph-name="afii10052" horiz-adv-x="479" unicode="Ѓ" d="M338 699l-9 13l139 103q29 -4 55 -39l-1 -10zM144 651l7 11q18 0 55 -1.5t56 -1.5h231q36 9 75 9h4l2 -3q-17 -67 -51 -150l-9 -4q-17 87 -20 123l-187 -12l-86 -314q-64 -233 -66 -264l106 -35l-5 -11q-27 0 -79.5 1t-78.5 1q-21 0 -60.5 -1t-59.5 -1l5 11l79 34 q9 19 86 298l76 279z"/>
<glyph glyph-name="afii10053" horiz-adv-x="655" unicode="Є" d="M609 141l6 -11q-44 -76 -86 -116q-86 -32 -169 -32q-130 0 -212 78t-82 214q0 106 51.5 198t147 148.5t214.5 56.5q46 0 84 -12t55 -29q40 19 71 28l4 -4q-32 -95 -66 -155l-9 -3q-4 32 -10 113q-37 29 -117 29q-68 0 -126.5 -24.5t-98.5 -66t-65.5 -91t-34.5 -103.5 q343 0 419 12l3 -7q-4 -9 -31 -29.5t-42 -20.5q-19 0 -139.5 4t-214.5 5q-3 -15 -3 -43q0 -124 63.5 -194t176.5 -70q30 0 63 6q112 93 148 119z"/>
<glyph glyph-name="afii10054" horiz-adv-x="480" unicode="Ѕ" d="M323 677h1q72 0 113 -42q34 25 66 36l5 -3q-4 -19 -26.5 -77.5t-31.5 -71.5l-9 -2q-10 47 -12 94q-8 12 -34 23.5t-62 11.5q-62 0 -100.5 -37t-38.5 -94q0 -56 53 -101q15 -13 54 -45t60 -49q74 -63 74 -139q0 -86 -65 -142.5t-168 -56.5q-62 0 -117.5 26t-83.5 58 q4 15 26.5 57.5t37.5 61.5l10 3q2 -8 2.5 -37t0.5 -64.5v-46.5q37 -25 111 -25q80 0 121 40.5t41 98.5q0 57 -54 103q-19 17 -55.5 48t-53.5 46q-69 63 -69 139q0 81 58.5 134t145.5 53z"/>
<glyph glyph-name="afii10055" horiz-adv-x="311" unicode="І" d="M155 651l4 10q18 0 54 -1t54 -1q19 0 59.5 1t60.5 1l-3 -10l-78 -35l-75 -272q-66 -241 -77 -302l83 -33l-7 -11q-20 0 -63 1t-65 1q-21 0 -64.5 -1t-67.5 -1l6 11l85 33q12 29 88 302l76 272z"/>
<glyph glyph-name="afii10056" horiz-adv-x="311" unicode="Ї" d="M395 815h5q7 -7 17 -25t12 -28l-1 -4q-5 -10 -24.5 -27.5t-29.5 -22.5h-4q-9 7 -19.5 24t-13.5 31v2q26 35 58 50zM218 815h5q8 -7 18 -25t11 -28l-1 -4q-4 -11 -23.5 -28t-30.5 -22h-5q-8 7 -18 24t-14 31v2q23 31 58 50zM155 651l4 10q18 0 54 -1t54 -1q19 0 59.5 1 t60.5 1l-3 -10l-78 -35l-75 -272q-66 -241 -77 -302l83 -33l-7 -11q-20 0 -63 1t-65 1q-21 0 -64.5 -1t-67.5 -1l6 11l85 33q12 29 88 302l76 272z"/>
<glyph glyph-name="afii10057" horiz-adv-x="292" unicode="Ј" d="M132 650l8 11q20 0 60.5 -1.5t61.5 -1.5t61.5 1.5t63.5 1.5l-5 -11l-83 -35q-4 -16 -59.5 -226.5t-68.5 -256.5q-23 -85 -61 -138q-34 -50 -83 -84.5t-86 -47.5l-16 12l2 8q46 17 83 58q39 46 72 160q19 67 74 283q49 192 58 234z"/>
<glyph glyph-name="afii10058" horiz-adv-x="854" unicode="Љ" d="M478 336l30 -311q45 4 81.5 16t67.5 34t48 58.5t17 83.5q0 62 -37.5 98.5t-106.5 36.5q-62 0 -100 -16zM379 634l74 49l4 -6q-7 -17 -7 -42q0 -15 1 -24q2 -19 6 -63t8.5 -90.5t9.5 -98.5q84 30 158 30q90 0 135.5 -48.5t45.5 -115.5q0 -62 -27.5 -107.5t-76 -70.5 t-106.5 -37t-128 -12h-5h-101l5 11l46 29q-1 25 -38 518h-2q-276 -463 -304 -513l77 -34l-5 -11q-58 2 -106 2q-32 0 -94 -2l4 11l72 34q71 98 347 548q7 12 7 26v17z"/>
<glyph glyph-name="afii10059" horiz-adv-x="923" unicode="Њ" d="M786 220v1q0 59 -37.5 96t-99.5 37q-43 0 -65 -6q-54 -200 -83 -325q59 0 105.5 8t89.5 28.5t66.5 61t23.5 99.5zM221 615l-72 35l4 11q18 0 55.5 -1t56.5 -1q17 0 49.5 1t47.5 1l-3 -11l-57 -35l-65 -244h270l67 244l-43 36l6 10q13 0 38 -1t37 -1q22 0 66 1t65 1 l-5 -11l-83 -35q-32 -106 -65 -242q46 12 98 12q95 0 143 -46.5t48 -110.5q0 -63 -26 -109.5t-73.5 -72t-105.5 -37.5t-129 -12h-14q-170 3 -203 4l5 10l83 33q5 14 85 301q-55 -11 -159 -11h-115q-71 -273 -75 -291l45 -34l-3 -11q-16 0 -47 1.5t-46 1.5q-21 0 -64.5 -1.5 t-65.5 -1.5l6 11l83 34q16 33 90 305z"/>
<glyph glyph-name="afii10060" horiz-adv-x="755" unicode="Ћ" d="M213 658h436q39 10 77 14l3 -3q-19 -51 -71 -154l-9 -1q-2 78 -4 119l-186 -9l-71 -266q86 42 149 42q84 0 117 -54q14 -25 14 -61q0 -29 -9 -63l-43 -166q-4 -15 10 -23l56 -28l-7 -11h-30q-104 0 -136 8q29 63 70 220q7 30 7 53q0 85 -94 85q-52 0 -110 -24 q-51 -194 -73 -293l83 -34l-5 -11q-74 2 -136 2q-47 0 -127 -2l6 11l87 34q10 27 83 292l79 288l-173 10q-11 -16 -90 -117l-12 -3q29 120 42 156l5 3q14 -1 62 -14z"/>
<glyph glyph-name="afii10061" horiz-adv-x="625" unicode="Ќ" d="M404 699l-9 13l139 103q29 -4 55 -39l-1 -10zM227 617l-71 33l6 11q80 -2 112 -2q38 0 116 2l-6 -11l-78 -34l-74 -266q65 13 82 29q128 108 241 240l8 42q38 -2 59 -2q16 0 48 1t48 1l-6 -12l-109 -41q-95 -83 -261 -240v-3q3 -7 14 -27.5t15 -27.5q137 -244 186 -319 l-5 -5q-48 1 -76.5 18.5t-54.5 57.5q-9 13 -147 249q-13 21 -32 21q-3 0 -15 -2q-65 -229 -76 -287l82 -34l-6 -11q-64 2 -129 2q-46 0 -122 -2l6 11l79 33q9 19 89 300z"/>
<glyph glyph-name="afii10062" horiz-adv-x="612" unicode="Ў" d="M542 803l22 14l8 -3q-18 -54 -54.5 -81t-81.5 -27q-44 0 -67 21t-23 49q0 8 3 13q23 23 44 28l5 -5v-7q0 -24 15 -40t44 -16q50 0 85 54zM309 650l-43 -31l103 -393h2q188 304 237 391l-39 33l4 11q14 0 37.5 -1t32.5 -1q19 0 51 1t47 1l-5 -12l-47 -19q-20 -8 -29 -15.5 t-22 -26.5q-51 -77 -166 -254.5t-129 -198.5q-113 -170 -191 -170q-33 0 -50 35q-9 21 -9 43l6 7q35 -19 79 -19q46 0 81.5 37.5t41.5 67.5q1 5 1 16q0 16 -6 48q-27 118 -109 394q-4 16 -10.5 22.5t-22.5 14.5l-39 19l4 11q15 0 49 -1t53 -1q17 0 48.5 1t44.5 1z"/>
<glyph glyph-name="afii10145" horiz-adv-x="708" unicode="Џ" d="M221 615l-71 35l4 11q22 0 60 -1t57 -1q16 0 46.5 1t45.5 1l-4 -11l-57 -35l-70 -259q-55 -211 -79 -316q49 -9 158 -9q113 0 152 9q31 101 90 320l70 254l-40 37l6 10q14 0 40.5 -1t39.5 -1q21 0 62 1t59 1l-5 -11l-80 -35q-11 -35 -23.5 -81.5t-28.5 -104.5t-24 -88 q-72 -273 -71 -297l80 -34l-6 -12q-22 0 -68 1t-70 1h-142q-6 -13 -38 -82t-45 -94l-15 -6q1 23 6 87t7 95h-167q-21 0 -63.5 -1t-62.5 -1l6 11l81 34q21 55 88 305z"/>
<glyph glyph-name="afii10017" horiz-adv-x="664" unicode="А" d="M400 558h-3q-71 -114 -173 -277q22 0 100 -2t99 -2q-12 123 -23 281zM395 632l77 49l5 -6q-6 -17 -6 -54v-17q4 -90 55 -542q11 -18 25.5 -27.5t50.5 -24.5l-3 -12q-19 0 -56 1t-55 1q-16 0 -50 -1t-51 -1l2 10l53 30q0 12 -17 208q-68 -6 -148 -6q-10 0 -36 0.5t-42 0.5 q-85 -139 -118 -195l85 -37l-3 -11q-19 0 -58 1t-59 1q-17 0 -49.5 -1t-49.5 -1l5 11l74 36q34 44 360 545q10 15 9 27v15z"/>
<glyph glyph-name="afii10018" horiz-adv-x="576" unicode="Б" d="M290 359h-1q-31 0 -56 -5q-59 -220 -85 -331q49 0 88 5t78.5 18t66 34.5t43 57t16.5 83.5q0 64 -40 101t-110 37zM224 617l-79 34l6 10q21 0 59 -1t54 -1h251q32 8 66 8h5l3 -4q-3 -13 -20.5 -65.5t-28.5 -76.5l-10 -4q-17 85 -20 116l-205 -10l-65 -244q51 11 97 11 q97 0 146.5 -47.5t49.5 -114.5q0 -121 -93 -175.5t-248 -54.5h-15q-33 0 -100.5 0.5t-99.5 1.5l5 11l79 32q14 35 78 268z"/>
<glyph glyph-name="afii10019" horiz-adv-x="581" unicode="В" d="M230 338q-54 -192 -81 -314h25q136 0 195 41q76 51 76 138q0 66 -45.5 100.5t-160.5 34.5h-9zM310 642l-74 -281q245 2 245 165q0 116 -159 116h-12zM144 644l5 10q115 10 192 12q108 0 168 -32.5t60 -114.5q0 -69 -59 -110t-146 -55l-1 -4q175 -29 175 -154 q0 -97 -88.5 -147.5t-242.5 -50.5h-18q-5 0 -220 3l4 10l90 32q17 40 72 245l91 335z"/>
<glyph glyph-name="afii10020" horiz-adv-x="479" unicode="Г" d="M144 651l7 11q18 0 55 -1.5t56 -1.5h231q36 9 75 9h4l2 -3q-17 -67 -51 -150l-9 -4q-17 87 -20 123l-187 -12l-86 -314q-64 -233 -66 -264l106 -35l-5 -11q-27 0 -79.5 1t-78.5 1q-21 0 -60.5 -1t-59.5 -1l5 11l79 34q9 19 86 298l76 279z"/>
<glyph glyph-name="afii10021" horiz-adv-x="665" unicode="Д" d="M404 549h-2q-303 -503 -307 -510q62 -8 168 -8q112 0 176 8q0 14 -3.5 59t-12.5 170t-19 281zM399 634l76 49l4 -5q-6 -16 -6 -38q0 -15 1 -25q27 -348 51 -581l65 -7q-66 -152 -92 -203l-14 -5q2 27 10 90.5t11 90.5h-462q-17 -26 -56 -91t-53 -86l-15 -4q7 26 26 98 t31 112l66 6q71 103 349 549q9 12 9 25z"/>
<glyph glyph-name="afii10022" horiz-adv-x="551" unicode="Е" d="M138 651l6 10q21 0 62 -1t61 -1h242q55 10 72 10l3 -4q-28 -102 -45 -139l-9 -4q-2 5 -22 111l-202 -10l-71 -263q169 0 252 11l2 -10q-4 -6 -31.5 -25t-31.5 -19q-3 0 -92.5 4.5t-108.5 4.5q-43 -151 -75 -287l234 -13q103 98 121 113l8 -4q-32 -85 -65 -137 q-89 3 -204 3h-156q-20 0 -62 -1.5t-63 -1.5l5 11l93 34q13 29 87 300l74 275z"/>
<glyph glyph-name="afii10024" horiz-adv-x="919" unicode="Ж" d="M528 617l-65 33l6 11q96 -3 107 -3q13 0 106 3l-5 -11l-72 -35l-72 -264q61 11 81 28q132 118 232 238l8 44q54 -3 60 -3q16 0 48 1.5t48 1.5l-5 -12l-110 -42q-35 -31 -89 -81.5t-107.5 -102t-66.5 -63.5v-3q22 -15 39 -47q128 -237 179 -320l-6 -4q-48 1 -76 19t-52 57 q-14 21 -31.5 52.5t-49 87.5t-61.5 109q-11 20 -32 20q-9 0 -14 -1q-70 -256 -74 -287l79 -34l-6 -11q-74 2 -128 2q-55 0 -119 -2l6 11l79 33q12 29 85 288q-6 1 -16 1q-36 0 -61 -25q-27 -26 -127 -127.5t-141 -138.5q-57 -53 -152 -57l-3 5q32 29 158 156.5t170 169.5 q29 31 89 49l1 3q-52 80 -144 242l-98 41l6 12q10 0 38.5 -1.5t45.5 -1.5q5 0 59 3l-4 -45q40 -100 112 -223q21 -37 73 -42z"/>
<glyph glyph-name="afii10025" horiz-adv-x="519" unicode="З" d="M152 492l-10 -3q-11 94 -11 110q98 79 202 79q74 0 118.5 -42t44.5 -106q0 -81 -76 -130q-43 -29 -103 -46l-1 -4q49 -13 84 -33q68 -43 68 -125q0 -68 -42 -117.5t-101 -71.5t-123 -22q-73 0 -128 29t-79 59q27 50 69 113l10 3q0 -9 0.5 -28t0.5 -29q0 -25 -2 -89 q29 -23 102 -23h5q88 2 142 54t54 133q0 130 -151 130q-36 0 -60 -4l-3 9l50 33q12 -3 41 -3q74 1 117 42t43 106q0 60 -33.5 93.5t-88.5 33.5q-42 0 -80 -19q-34 -82 -59 -132z"/>
<glyph glyph-name="afii10026" horiz-adv-x="726" unicode="И" d="M223 617l-69 33l6 11q13 0 36.5 -1t42 -1.5t34.5 -0.5q15 0 32 0.5t38.5 1.5t33.5 1l-7 -12l-68 -32l-80 -293q-43 -155 -72 -245h3q65 74 227 258t249 285l6 36h58q1 0 115 3l-7 -11l-81 -34l-71 -268q-72 -267 -77 -306l75 -33l-4 -11q-66 2 -125 2q-52 0 -114 -2l5 11 l75 33q18 53 85 301q29 105 70 241h-6q-213 -247 -477 -547l-7 -37h-51q-16 0 -56.5 -1t-63.5 -1l5 11l80 33q16 45 87 305z"/>
<glyph glyph-name="afii10027" horiz-adv-x="726" unicode="Й" d="M591 803l22 14l8 -3q-18 -54 -54.5 -81t-81.5 -27q-44 0 -67 21t-23 49q0 8 3 13q23 23 44 28l5 -5v-7q0 -24 15 -40t44 -16q50 0 85 54zM223 617l-69 33l6 11q13 0 36.5 -1t42 -1.5t34.5 -0.5q15 0 32 0.5t38.5 1.5t33.5 1l-7 -12l-68 -32l-80 -293q-43 -155 -72 -245h3 q65 74 227 258t249 285l6 36h58q1 0 115 3l-7 -11l-81 -34l-71 -268q-72 -267 -77 -306l75 -33l-4 -11q-66 2 -125 2q-52 0 -114 -2l5 11l75 33q18 53 85 301q29 105 70 241h-6q-213 -247 -477 -547l-7 -37h-51q-16 0 -56.5 -1t-63.5 -1l5 11l80 33q16 45 87 305z"/>
<glyph glyph-name="afii10028" horiz-adv-x="625" unicode="К" d="M227 617l-71 33l6 11q80 -2 112 -2q38 0 116 2l-6 -11l-78 -34l-74 -266q65 13 82 29q128 108 241 240l8 42q38 -2 59 -2q16 0 48 1t48 1l-6 -12l-109 -41q-95 -83 -261 -240v-3q3 -7 14 -27.5t15 -27.5q137 -244 186 -319l-5 -5q-48 1 -76.5 18.5t-54.5 57.5 q-9 13 -147 249q-13 21 -32 21q-3 0 -15 -2q-65 -229 -76 -287l82 -34l-6 -11q-64 2 -129 2q-46 0 -122 -2l6 11l79 33q9 19 89 300z"/>
<glyph glyph-name="afii10029" horiz-adv-x="670" unicode="Л" d="M396 634l77 49l4 -6q-7 -17 -7 -43q0 -3 0.5 -11t0.5 -12q18 -250 55 -549q12 -18 27.5 -27.5t52.5 -24.5l-5 -12q-66 2 -107 2q-36 0 -102 -2l3 10l47 30q0 5 -41 521h-2q-267 -431 -317 -516l80 -34l-5 -11q-60 2 -112 2q-33 0 -97 -2l4 11l75 34q70 93 362 548 q7 12 7 26v17z"/>
<glyph glyph-name="afii10030" horiz-adv-x="908" unicode="М" d="M187 649l5 11q26 0 81 -0.5t81 -0.5q-5 -25 -5 -48q3 -17 14 -77t31 -169t41 -222h2q12 18 127.5 188.5t191.5 283.5q6 13 9 44q29 0 87 0.5t86 0.5l-5 -12l-93 -31q-16 -80 -47.5 -303.5t-35.5 -272.5l85 -32l-5 -11q-21 0 -63.5 1.5t-62.5 1.5q-21 0 -62.5 -1.5 t-62.5 -1.5l3 11l78 31q17 94 48 271.5t46 261.5h-2q-279 -430 -372 -579l-14 -6q-13 95 -84 547h-1q-13 -32 -54 -131.5t-78 -192.5t-64 -168l83 -34l-3 -11q-20 0 -60 1.5t-59 1.5q-17 0 -49 -1.5t-49 -1.5l4 11l81 36q97 203 238 535q-5 30 -19 40.5t-72 28.5z"/>
<glyph glyph-name="afii10031" horiz-adv-x="723" unicode="Н" d="M148 650l5 11q18 0 55.5 -1t56.5 -1q17 0 49.5 1t47.5 1l-3 -11l-57 -35l-65 -244h329l67 244l-42 36l5 10q13 0 38 -1t37 -1q23 0 67 1t65 1l-5 -11l-83 -35q-12 -36 -75 -274q-74 -278 -71 -297l81 -34l-7 -12q-21 0 -64.5 1.5t-66.5 1.5q-15 0 -47 -1.5t-48 -1.5l5 11 l55 34q8 25 81 300q-62 -10 -165 -10h-166q-61 -227 -75 -290l45 -34l-3 -11q-16 0 -47 1.5t-46 1.5q-21 0 -65 -1.5t-65 -1.5l6 11l82 34q17 30 91 304l70 268z"/>
<glyph glyph-name="afii10032" horiz-adv-x="717" unicode="О" d="M452 652h-1q-85 0 -154.5 -63t-104.5 -152t-35 -179q0 -118 47.5 -185t129.5 -67q80 0 147.5 64t103 156t35.5 185q0 119 -47 180t-121 61zM456 677h1q43 0 85 -15.5t81.5 -48t63.5 -92t24 -138.5q0 -72 -25.5 -142t-72 -128.5t-122 -94.5t-166.5 -36q-46 0 -90 16 t-83 48.5t-62.5 90t-23.5 131.5q0 103 50.5 197t141.5 153t198 59z"/>
<glyph glyph-name="afii10033" horiz-adv-x="709" unicode="П" d="M220 615l-79 35l6 11q19 0 60 -1t61 -1h394q22 0 65.5 1t64.5 1l-5 -11l-85 -35q-16 -58 -73 -273q-24 -86 -48 -187t-23 -111l75 -34l-7 -12q-20 0 -61.5 1t-63.5 1q-15 0 -46.5 -1t-47.5 -1l5 12l54 34q22 72 72 263l85 314q-39 7 -162 7q-121 0 -158 -7l-80 -296 q-57 -215 -71 -280l44 -36l-5 -11q-15 0 -45 1t-46 1q-22 0 -65 -1t-64 -1l7 11l81 34q20 41 90 304z"/>
<glyph glyph-name="afii10034" horiz-adv-x="542" unicode="Р" d="M138 641l8 12q111 13 190 13q238 0 238 -185q0 -103 -77 -162.5t-181 -59.5q-31 0 -51 10v12q100 6 160.5 60t60.5 147q0 77 -48 114t-124 37h-7l-73 -282q-76 -287 -79 -314l98 -34l-5 -11q-22 0 -71 1t-75 1q-22 0 -65 -1t-64 -1l5 11l83 34q13 34 89 310l74 269z"/>
<glyph glyph-name="afii10035" horiz-adv-x="649" unicode="С" d="M609 143l5 -13q-41 -72 -88 -115q-90 -33 -169 -33q-131 0 -211 76t-80 209q0 81 32.5 156t88 131t136 89.5t170.5 33.5q46 0 83.5 -12t54.5 -28q38 20 72 28l3 -4q-25 -64 -66 -147l-10 -3q-9 41 -9 103q-37 29 -117 29q-152 0 -249 -110t-97 -262q0 -118 61.5 -186 t175.5 -68q32 0 62 6q106 88 152 120z"/>
<glyph glyph-name="afii10036" horiz-adv-x="626" unicode="Т" d="M218 658h428q48 12 75 14l5 -3q-21 -52 -72 -155l-8 -2q-4 62 -6 121l-173 -9l-69 -258q-70 -264 -81 -323l114 -34l-8 -11q-26 0 -78 1.5t-78 1.5q-27 0 -79 -1.5t-78 -1.5l5 11l109 34q20 58 83 291l79 290l-172 9q-36 -50 -92 -118l-11 -3q38 144 43 157l3 3 q24 -2 61 -14z"/>
<glyph glyph-name="afii10037" horiz-adv-x="612" unicode="У" d="M309 650l-43 -31l103 -393h2q188 304 237 391l-39 33l4 11q14 0 37.5 -1t32.5 -1q19 0 51 1t47 1l-5 -12l-47 -19q-20 -8 -29 -15.5t-22 -26.5q-51 -77 -166 -254.5t-129 -198.5q-113 -170 -191 -170q-33 0 -50 35q-9 21 -9 43l6 7q35 -19 79 -19q46 0 81.5 37.5 t41.5 67.5q1 5 1 16q0 16 -6 48q-27 118 -109 394q-4 16 -10.5 22.5t-22.5 14.5l-39 19l4 11q15 0 49 -1t53 -1q17 0 48.5 1t44.5 1z"/>
<glyph glyph-name="afii10038" horiz-adv-x="760" unicode="Ф" d="M511 570l-124 -473q131 9 203 79.5t72 183.5q0 171 -151 210zM309 107l128 468q-127 -3 -202.5 -76.5t-75.5 -188.5q0 -158 150 -203zM452 629l-64 31l6 11q17 0 51 -1.5t52 -1.5q17 0 53 1.5t54 1.5l-4 -11l-71 -31l-11 -36q46 -9 84 -25t72.5 -43t54 -71t19.5 -100 q0 -62 -21.5 -111t-56.5 -80t-83.5 -51t-99 -28.5t-107.5 -9.5l-8 -34l74 -31l-6 -11q-16 0 -56 1.5t-60 1.5q-18 0 -58 -1.5t-57 -1.5l6 11l74 30l13 42q-44 7 -82 21.5t-73 40.5t-55.5 68.5t-20.5 97.5q0 74 32 131.5t85.5 91.5t118 51t134.5 17h3z"/>
<glyph glyph-name="afii10039" horiz-adv-x="646" unicode="Х" d="M125 651l5 10q21 0 62.5 -1t61.5 -1q14 0 41.5 0.5t40.5 0.5l-4 -10l-30 -31q18 -60 42.5 -133.5t28.5 -86.5h3q92 110 175 220l-21 31l5 10q9 0 31.5 -0.5t33.5 -0.5q18 0 52.5 1t53.5 1l-6 -11l-101 -39q-54 -53 -215 -244q94 -281 109 -323l98 -36l-7 -10 q-22 0 -67.5 1t-68.5 1q-13 0 -38 -1t-37 -1l30 42q-5 28 -79 259h-2q-141 -171 -206 -258l53 -33l-7 -10q-15 0 -45.5 1t-46.5 1q-18 0 -53 -1t-53 -1l6 10l89 38q49 45 254 287q-54 172 -96 282z"/>
<glyph glyph-name="afii10040" horiz-adv-x="715" unicode="Ц" d="M221 615l-70 35l4 11q21 0 59.5 -1.5t57.5 -1.5q16 0 46.5 1.5t45.5 1.5l-4 -11l-57 -35l-76 -287q-50 -185 -74 -289q49 -8 156 -8q115 0 160 8q10 25 82 292l78 284l-41 36l7 10q14 0 39.5 -1.5t38.5 -1.5q21 0 62 1.5t60 1.5l-5 -12l-80 -34q-13 -42 -75 -274 q-70 -256 -76 -306l76 -7q-19 -45 -53 -121.5t-35 -79.5l-15 -5q9 99 13 178h-445q-21 0 -63.5 -1t-63.5 -1l7 11l82 34q21 55 88 305z"/>
<glyph glyph-name="afii10041" horiz-adv-x="637" unicode="Ч" d="M196 616l-66 34l6 11q20 0 54.5 -1t53.5 -1q15 0 46.5 1t50.5 1l-5 -11l-59 -34l-43 -148q-10 -33 -10 -62q0 -90 117 -90q76 0 137 26l74 275l-70 33l6 11q80 -2 118 -2t110 2l-6 -12l-77 -33l-74 -273q-69 -251 -78 -301l78 -33l-5 -11q-82 2 -134 2q-57 0 -119 -2 l5 11l84 33q16 37 81 276q-94 -46 -177 -46q-103 0 -139 59q-14 23 -14 54q0 29 13 77z"/>
<glyph glyph-name="afii10042" horiz-adv-x="907" unicode="Ш" d="M220 615l-70 35l4 11q21 0 56.5 -1t54.5 -1q16 0 49 1t47 1l-4 -11l-57 -35l-77 -287q-34 -128 -72 -289q43 -8 106 -8q69 0 104 8q24 67 88 309l71 268l-67 34l5 11q19 0 56.5 -1t55.5 -1q17 0 54.5 1t52.5 1l-4 -11l-72 -34l-77 -288q-44 -165 -73 -289q45 -8 105 -8 q70 0 105 8q11 30 82 292l78 283l-41 37l6 10q14 0 40.5 -1t39.5 -1q21 0 61 1t59 1l-5 -11l-80 -35l-74 -274q-68 -246 -76 -297l82 -34l-6 -12q-19 0 -62 1t-65 1h-601q-21 0 -63.5 -1t-62.5 -1l6 11l82 34q21 55 88 305z"/>
<glyph glyph-name="afii10043" horiz-adv-x="907" unicode="Щ" d="M220 615l-71 35l5 11q21 0 56.5 -1t54.5 -1q16 0 49 1t47 1l-4 -11l-57 -35l-77 -287q-21 -78 -73 -289q44 -8 107 -8q69 0 104 8q24 67 88 309l71 268l-66 34l4 11q19 0 56.5 -1t55.5 -1q17 0 54.5 1t52.5 1l-4 -11l-72 -34l-77 -288q-44 -165 -73 -289q45 -8 105 -8 q72 0 105 8q8 21 83 292l77 283l-41 37l7 10q13 0 39 -1t40 -1q21 0 61 1t59 1l-5 -11l-80 -35l-74 -274q-70 -257 -76 -305l76 -7q-38 -91 -89 -202l-14 -5q9 99 13 178h-638q-21 0 -63.5 -1t-62.5 -1l6 11l82 34q13 35 88 305z"/>
<glyph glyph-name="afii10044" horiz-adv-x="709" unicode="Ъ" d="M432 355h-1q-28 0 -55 -5q-48 -173 -84 -326q283 0 283 194q0 62 -39 99.5t-104 37.5zM369 623l-162 10q-42 -59 -91 -118l-11 -3q27 111 42 157l5 3q27 -3 60 -13h189q24 0 66 1t61 1l-3 -11l-78 -33l-64 -243q46 12 96 12q92 0 140.5 -46.5t48.5 -109.5 q0 -232 -356 -232q-60 0 -196 2l5 11l83 32q25 75 78 268z"/>
<glyph glyph-name="afii10045" horiz-adv-x="817" unicode="Ы" d="M731 616l-68 35l4 10q17 0 53 -1.5t55 -1.5t59 1.5t60 1.5l-3 -11l-78 -34l-75 -272q-71 -261 -76 -301l83 -34l-7 -11q-20 0 -63 1t-66 1q-21 0 -64.5 -1t-66.5 -1l5 11l85 33q13 28 88 302zM289 354h-1q-27 0 -54 -5q-48 -169 -83 -326q43 0 80 5t75 18.5t64.5 35 t43 57t16.5 82.5q0 59 -39.5 96t-101.5 37zM224 616l-70 35l3 10q20 0 57 -1.5t55 -1.5q19 0 58.5 1.5t59.5 1.5l-4 -11l-78 -34l-65 -243q54 12 98 12q90 0 137.5 -46.5t47.5 -108.5q0 -83 -47 -136.5t-119 -74.5t-170 -21h-14q-7 0 -82.5 1t-116.5 2l4 10l84 33 q16 38 78 267z"/>
<glyph glyph-name="afii10046" horiz-adv-x="574" unicode="Ь" d="M290 353h-1q-29 0 -57 -5q-48 -173 -83 -324h5q286 0 286 193q0 62 -40.5 99t-109.5 37zM224 616l-71 35l3 10q20 0 57 -1t54 -1q19 0 59 1t60 1l-4 -11l-78 -33l-65 -245q50 12 99 12q97 0 146 -46.5t49 -113.5q0 -81 -47.5 -133t-122.5 -72.5t-179 -20.5h-15 q-120 2 -195 2l5 11l82 31q16 41 79 269z"/>
<glyph glyph-name="afii10047" horiz-adv-x="640" unicode="Э" d="M158 497l-14 -4q-12 50 -14 115q120 70 232 70q118 0 194 -80t76 -216q0 -175 -111 -288t-289 -113q-80 0 -147 34t-91 65q33 65 70 111l11 4q2 -18 2 -46q0 -25 -3 -100q20 -13 60.5 -22.5t82.5 -9.5h5q55 1 103 16t92.5 48.5t76.5 95t45 147.5q-345 -7 -409 -12l-4 7 q5 8 30.5 27.5t38.5 22.5q153 -9 346 -10q1 14 1 31q0 68 -19 119t-52 79t-71.5 41.5t-82.5 13.5q-61 0 -108 -20q-26 -81 -51 -126z"/>
<glyph glyph-name="afii10048" horiz-adv-x="942" unicode="Ю" d="M696 653h-1q-74 0 -136 -66t-94.5 -160.5t-32.5 -187.5q0 -113 41 -173.5t113 -60.5q73 0 132.5 60t92 156t32.5 204q0 103 -35 165.5t-112 62.5zM225 616l-68 34l3 11q18 0 54 -1t54 -1q20 0 60 1t59 1l-3 -11l-78 -34l-66 -243h116q34 133 130.5 218.5t215.5 85.5 q110 0 171 -77.5t61 -199.5q0 -108 -41 -202t-124.5 -155t-192.5 -61q-98 0 -166.5 70t-68.5 204q0 44 6 76h-118q-59 -209 -74 -289l83 -34l-7 -11q-20 0 -63 1t-65 1q-21 0 -65 -1t-67 -1l6 11l85 33q10 25 88 302z"/>
<glyph glyph-name="afii10049" horiz-adv-x="604" unicode="Я" d="M441 332l84 304q-26 4 -57 4q-94 0 -150.5 -43.5t-56.5 -126.5q0 -62 40.5 -100t120.5 -38h19zM683 643l-83 -23l-73 -269q-52 -192 -79 -310l77 -32l-5 -13q-19 0 -60 2t-61 2q-27 0 -68.5 -2t-54.5 -2l5 14l76 30q36 116 77 269q-59 0 -101 -19t-64.5 -42.5 t-71.5 -85.5q-10 -13 -16 -20q-9 -12 -35 -46.5t-43 -56t-25 -26.5q-45 -32 -124 -32h-5l-1 6q52 42 173 198q40 54 84 85.5t108 44.5v1q-72 17 -106 58t-34 96q0 94 74.5 145.5t211.5 51.5q145 0 230 -13z"/>
<glyph glyph-name="afii10065" horiz-adv-x="505" unicode="а" d="M110 37h1q33 0 82.5 45t102.5 128q27 41 41 74.5t38 109.5q-15 12 -42 12q-69 0 -133 -71q-53 -60 -82.5 -131.5t-29.5 -123.5q0 -43 22 -43zM391 442l92 13l1 -6l-38 -43q-76 -251 -97 -368l2 -1q58 17 117 101l4 -5q-4 -55 -55 -100.5t-122 -45.5q-16 0 -28 3 q6 27 26.5 103t27.5 103h-4q-61 -91 -128.5 -150t-116.5 -59q-30 0 -46.5 24.5t-16.5 70.5q0 71 46.5 159t126.5 146q71 50 139 50q34 0 62 -20z"/>
<glyph glyph-name="afii10066" horiz-adv-x="480" unicode="б" d="M301 419h-1q-46 0 -85.5 -48t-60 -115t-20.5 -131q0 -55 18.5 -85t52.5 -30q46 0 85 52.5t59 120t20 123.5q0 113 -68 113zM323 448h1q59 0 92.5 -42.5t33.5 -115.5q0 -121 -73.5 -212t-179.5 -91q-144 0 -144 191q0 134 65.5 257t160.5 187q74 51 142 57q61 6 84.5 11 t41.5 20l7 -7q-9 -23 -29.5 -45t-40.5 -33q-18 -8 -49 -11q-9 0 -55 -2q-60 -3 -102 -27.5t-79 -76.5q-28 -39 -47 -95.5t-23 -106.5h3q82 142 191 142z"/>
<glyph glyph-name="afii10067" horiz-adv-x="466" unicode="в" d="M190 215l8 20q138 33 138 114q0 71 -96 71q-14 0 -22 -1q-52 -176 -91 -321q-5 -22 -5 -35q0 -53 63 -53q55 0 92.5 36.5t37.5 89.5q0 39 -24.5 60t-68.5 21q-21 0 -32 -2zM141 388l-79 2l5 10q37 16 101 32t120 16q65 0 95.5 -24.5t30.5 -64.5q0 -25 -12 -44.5 t-35.5 -34t-39.5 -22t-44 -17.5v-5q47 -4 82 -26t35 -69q0 -52 -40.5 -89t-90.5 -51t-99 -14q-68 0 -107 25q-24 16 -24 39q0 13 6 33q16 51 39.5 125.5t38.5 122t18 56.5z"/>
<glyph glyph-name="afii10068" horiz-adv-x="365" unicode="г" d="M123 318l-10 -7q-6 18 -18 75q77 62 154 62q43 0 69.5 -27.5t26.5 -68.5q0 -64 -74 -105q-37 -18 -95 -50q-38 -20 -57.5 -40.5t-19.5 -49.5q0 -34 24 -55.5t55 -21.5q12 0 28 4q69 50 99 67l2 -11q-15 -36 -64 -77q-52 -24 -103 -24q-59 0 -93.5 31t-34.5 79q0 51 70 85 q31 15 103 52q41 21 62 43.5t21 57.5q0 32 -18.5 52.5t-48.5 20.5q-25 0 -45 -10q-13 -44 -33 -82z"/>
<glyph glyph-name="afii10069" horiz-adv-x="450" unicode="д" d="M284 425h-1q-43 0 -84 -47.5t-65 -118t-24 -138.5q0 -53 17.5 -82t46.5 -29q47 0 89 57.5t64 128.5t22 125q0 104 -65 104zM286 448h1q73 0 102 -79h2q13 41 13 85q0 20 -3 39q-6 49 -29 78t-72 38q-76 15 -98 21q-36 23 -43 79l6 7q21 -10 83 -24q56 -11 93.5 -36.5 t62.5 -73.5q35 -70 35 -184q0 -102 -33 -195t-98 -154.5t-146 -61.5q-62 0 -97 41.5t-36 116.5q0 113 76 208t181 95z"/>
<glyph glyph-name="afii10070" horiz-adv-x="397" unicode="е" d="M278 425h-1q-44 0 -90.5 -58.5t-68.5 -142.5q49 8 109.5 29t76.5 43q17 26 17 65q0 31 -12 47.5t-31 16.5zM359 134l4 -23q-41 -59 -95.5 -91.5t-110.5 -32.5t-93.5 32.5t-39.5 109.5v5q0 66 32 137t95.5 124t138.5 53q48 0 75 -28t27 -71q0 -28 -19 -52 q-21 -31 -110 -59.5t-150 -38.5q-6 -29 -6 -66q0 -44 19.5 -72.5t60.5 -28.5q44 0 92 32t78 70h2z"/>
<glyph glyph-name="afii10072" horiz-adv-x="721" unicode="ж" d="M149 387h-86l2 10q81 41 132 51q17 -9 31 -41t14 -76q0 -108 -59 -205h7q119 128 180 248l18 65q9 9 36 20.5t45 13.5l4 -4l-102 -320h5q75 100 165 194t118 105q12 0 36 -14t43 -33l-3 -9l-99 -5q-17 -16 -34.5 -39t-39 -78t-21.5 -114q0 -45 11 -72t23 -35l90 15 l-2 -12q-28 -21 -75.5 -45.5t-62.5 -25.5q-45 30 -45 119q0 93 67 206h-7q-160 -170 -218 -316q-30 -26 -68 -35l-3 6q11 27 28.5 82.5t41 136t29.5 99.5h-6q-50 -75 -115 -147.5t-109.5 -110.5t-56.5 -40q-11 0 -35 13t-47 34l2 10l104 8q37 22 67 85t30 147q0 86 -35 109z "/>
<glyph glyph-name="afii10073" horiz-adv-x="401" unicode="з" d="M98 310l-9 -6q-4 13 -7 27t-6 30t-5 25q92 62 168 62q56 0 87 -27.5t31 -70.5q0 -46 -35 -71.5t-91 -43.5v-3q39 -10 64 -24q44 -30 44 -76q0 -71 -62 -108t-141 -37q-52 0 -93.5 18.5t-56.5 38.5q27 51 54 87l8 3q8 -39 10 -108q23 -9 61 -9q60 0 96 34.5t36 86.5 q0 35 -22 55.5t-65 20.5q-30 0 -58 -5l-2 9l41 34q11 -3 36 -3q42 0 68 27t26 65q0 35 -21 54t-55 20h-5q-25 0 -56 -14q-20 -53 -40 -91z"/>
<glyph glyph-name="afii10074" horiz-adv-x="543" unicode="и" d="M140 387l-77 8l5 10q26 12 78.5 26t82.5 17l6 -3q-27 -77 -67 -208t-47 -162q-3 -12 -3 -20q0 -17 12 -17q39 0 99 61.5t119 157.5q40 66 75 176q40 11 91 16l3 -6l-38 -50q-34 -108 -93 -351l2 -2q61 18 116 98l4 -8q-6 -53 -58 -98t-120 -45q-15 0 -29 3q16 62 73 257 h-3q-52 -81 -108.5 -145t-105.5 -92q-40 -23 -76 -23q-41 0 -41 43q0 16 8 48q24 88 92 309z"/>
<glyph glyph-name="afii10075" horiz-adv-x="543" unicode="й" d="M439 623l23 15l7 -2q-18 -58 -52 -87.5t-76 -29.5q-39 0 -60.5 21.5t-21.5 50.5v6q1 6 4 11q6 8 18 18t20 12l3 -4q0 -71 59 -71q46 0 76 60zM140 387l-77 8l5 10q26 12 78.5 26t82.5 17l6 -3q-27 -77 -67 -208t-47 -162q-3 -12 -3 -20q0 -17 12 -17q39 0 99 61.5 t119 157.5q40 66 75 176q40 11 91 16l3 -6l-38 -50q-34 -108 -93 -351l2 -2q61 18 116 98l4 -8q-6 -53 -58 -98t-120 -45q-15 0 -29 3q16 62 73 257h-3q-52 -81 -108.5 -145t-105.5 -92q-40 -23 -76 -23q-41 0 -41 43q0 16 8 48q24 88 92 309z"/>
<glyph glyph-name="afii10076" horiz-adv-x="489" unicode="к" d="M134 389l-69 9l4 9q22 11 77 26t75 15l3 -2q-1 -5 -13.5 -47t-29 -97.5t-30.5 -104.5h3q217 236 264 251q35 0 75 -32l-6 -9l-120 -35q-20 -14 -61.5 -52.5t-66.5 -66.5v-4q33 -1 44 -28l87 -174l79 10l-1 -11q-84 -51 -130 -65l-5 2q-12 22 -47.5 105t-40.5 95 q-11 26 -23 26q-10 0 -30 -25q-31 -37 -74 -184l-74 -8q79 244 110 397z"/>
<glyph glyph-name="afii10077" horiz-adv-x="470" unicode="л" d="M355 54l74 9l-5 -16q-99 -41 -141 -66l-5 6q-2 22 -2 68q0 111 8 313h-3q-119 -226 -185 -314q-52 -69 -71 -73q-16 0 -38 9t-35 20l1 6l117 65q23 17 94 131.5t103 179.5l1 2l-73 3l5 10q70 34 135 41h9q-2 -60 -2 -104q0 -215 13 -290z"/>
<glyph glyph-name="afii10078" horiz-adv-x="633" unicode="м" d="M643 439l-67 -44q-29 -115 -73 -340l83 10l-6 -15q-165 -65 -173 -69l-5 8q102 362 108 385h-4q-77 -108 -234 -352q-23 -26 -45 -37l-4 4q-11 169 -30 372h-4q-68 -260 -121 -350q-37 -22 -102 -25l-4 9l99 92q23 35 56 125t54 178l-92 7l4 10q77 28 155 41l6 -3 q3 -30 46 -332h2q31 44 78.5 111.5t82.5 117t60 86.5q42 16 127 20z"/>
<glyph glyph-name="afii10079" horiz-adv-x="521" unicode="н" d="M172 245h194q41 138 55 182q26 13 98 21l4 -8l-46 -57q-18 -53 -49.5 -176.5t-36.5 -150.5l81 2l-6 -13q-25 -10 -89.5 -34t-79.5 -30l-6 7q42 136 65 225q-55 -8 -195 -8q-56 -196 -59 -205l-80 -8q20 59 66 216t49 180l-68 9l6 10q21 11 75.5 25.5t77.5 15.5l1 -1 q-1 -5 -8.5 -31t-21 -74t-27.5 -97z"/>
<glyph glyph-name="afii10080" horiz-adv-x="458" unicode="о" d="M281 425h-1q-46 0 -87 -51t-62.5 -120t-21.5 -130q0 -115 66 -115q64 0 118 97t54 198q0 121 -66 121zM291 448h1q59 0 97.5 -48t38.5 -121q0 -113 -79 -202.5t-181 -89.5q-60 0 -100 43.5t-40 117.5q0 118 80.5 209t182.5 91z"/>
<glyph glyph-name="afii10081" horiz-adv-x="523" unicode="п" d="M99 0l-76 -8q19 54 64 215.5t46 181.5l-66 8l4 10q20 11 75.5 26t75.5 16l3 -2q-2 -9 -13 -45t-29.5 -98.5t-35.5 -124.5h3q130 198 255 254q34 15 68 15q18 0 18 -14q0 -13 -7 -35q-79 -267 -92 -344l88 10l-5 -16q-106 -37 -179 -68l-4 7q2 10 54.5 184.5t60.5 207.5 q5 15 -6 15q-33 0 -104 -69.5t-123 -154.5q-42 -72 -75 -171z"/>
<glyph glyph-name="afii10082" horiz-adv-x="503" unicode="р" d="M170 12h1q50 0 95 33t74 83t46.5 106t17.5 104v6q-1 57 -33 57q-26 0 -71.5 -40t-96.5 -121q-55 -81 -83 -188q6 -16 20.5 -28t29.5 -12zM135 390l-67 7l5 10q23 13 74 29t78 18l1 -3l-66 -221h3q81 122 146 170t107 48q31 0 50.5 -29.5t19.5 -76.5q0 -72 -28 -139.5 t-72 -113.5t-98 -74t-106 -28q-47 0 -76 24q-17 -55 -48 -182l80 -26l-6 -12q-192 -11 -227 -11l5 11l65 33q16 43 65 216q75 264 95 350z"/>
<glyph glyph-name="afii10083" horiz-adv-x="388" unicode="с" d="M351 134l5 -21q-35 -54 -88.5 -90t-118.5 -36q-64 0 -95 41t-31 104q0 133 105 234q85 82 182 82q58 0 78 -22q-2 -14 -16 -50t-26 -55l-10 -5q-11 29 -24 106q-8 2 -15 2q-59 0 -114 -68q-76 -91 -76 -215q0 -48 20 -77t58 -29q49 0 92.5 31.5t71.5 68.5z"/>
<glyph glyph-name="afii10084" horiz-adv-x="796" unicode="т" d="M99 0l-76 -8q19 55 63.5 214t46.5 183l-67 8l4 10q25 12 77 26.5t75 15.5l2 -3q-1 -2 -77 -264h2q120 193 255 251q34 15 71 15q15 0 15 -15q0 -9 -6 -32q-25 -98 -64 -217h3q121 188 251 249q34 15 74 15q15 0 15 -14q0 -11 -7 -35q-74 -245 -91 -344l88 10l-6 -16 q-31 -11 -179 -68l-4 7q2 12 55 186.5t60 205.5q5 15 -6 15q-34 0 -104 -67t-121 -154q-40 -67 -76 -174l-77 -8q24 70 63.5 206.5t47.5 181.5q3 15 -6 15q-36 0 -106 -67.5t-122 -157.5q-36 -62 -73 -170z"/>
<glyph glyph-name="afii10085" horiz-adv-x="420" unicode="у" d="M41 277l-12 15q17 59 43.5 96.5t45 48t33.5 11.5q46 -4 66 -104q20 -89 20 -242v-45h3q39 59 80 165t46 161l-28 41l3 5q41 17 73 19q12 0 12 -10q-12 -71 -62 -192q-71 -173 -183 -319q-42 -53 -87 -93.5t-72 -56.5t-37 -16q-6 0 -13.5 6.5t-17 25.5t-15.5 47l2 6 q27 -2 94 -28q14 8 44 36t52 59q42 65 42 160v7q-2 165 -35 269q-11 37 -20 37q-4 0 -16.5 -14t-29.5 -40t-31 -55z"/>
<glyph glyph-name="afii10086" horiz-adv-x="653" unicode="ф" d="M321 437l2 -21q-11 5 -27 5q-49 0 -94 -49t-71 -122.5t-26 -144.5q0 -40 11.5 -60t29.5 -20q29 0 67.5 40t60.5 84q58 242 78 319q32 122 87 177q27 27 61 48t49 21q21 0 36 -18.5t15 -46.5l-4 -7q-52 26 -87 26q-14 0 -26 -14.5t-25 -58.5q-26 -83 -64 -240h2 q84 93 146 93q36 0 59.5 -35.5t23.5 -94.5q0 -144 -77 -238t-159 -94q-36 0 -57 21l-1 19q20 -10 43 -10q67 0 119.5 94.5t52.5 210.5q0 87 -40 87q-28 0 -67.5 -42.5t-59.5 -79.5l-71 -282q-29 -118 -95 -181q-62 -65 -106 -65q-21 0 -41 25t-22 50l6 8q52 -34 97 -34 q9 0 16 3.5t17.5 14.5t21.5 38t22 68q29 120 36 148l-2 2q-77 -96 -150 -96q-38 0 -60.5 32.5t-22.5 90.5q0 134 82 236.5t181 102.5q22 0 33 -10z"/>
<glyph glyph-name="afii10087" horiz-adv-x="465" unicode="х" d="M-17 108l7 10q35 -48 59 -72q17 5 62 54.5t96 119.5q-36 149 -49 171q-41 -15 -103 -94l-5 14q20 50 65 92.5t92 44.5q6 -5 12 -16.5t12 -31t10.5 -35t11 -41.5t9.5 -37h2q44 58 70 89q58 67 88 79h6q14 -12 23.5 -45t8.5 -70l-9 -9q-27 51 -46 66q-16 -5 -62 -54.5 t-72 -85.5q10 -37 28 -102.5t25 -92.5q3 -9 7 -9q6 0 19.5 8t36.5 31t42 55l6 -13q-19 -73 -67.5 -110t-98.5 -37h-2q-6 21 -21.5 84t-29.5 119h-2q-102 -141 -113 -153q-46 -55 -66 -59q-5 0 -8 2q-14 15 -27 53t-17 75z"/>
<glyph glyph-name="afii10088" horiz-adv-x="543" unicode="ц" d="M139 387l-77 8l5 10q26 12 78.5 26t82.5 17l6 -3q-94 -280 -114 -372q-2 -8 -2 -19q0 -16 12 -16q39 0 101 62.5t118 157.5q39 66 73 175q35 9 92 15l2 -6l-37 -49q-45 -141 -93 -347l2 -2q61 14 112 90q2 3 3 4l4 -10q-3 -18 -14 -42q-14 -137 -44.5 -191t-103.5 -66 q-30 -5 -44 -14t-30 -28l-11 7q27 68 52 87q86 15 109 43q28 35 48 136q-28 -36 -66 -54.5t-69 -18.5q-20 0 -32 3q6 22 71 257h-2q-51 -80 -108 -144.5t-106 -92.5q-40 -23 -75 -23q-42 0 -42 44q0 20 7 47q52 185 92 309z"/>
<glyph glyph-name="afii10089" horiz-adv-x="477" unicode="ч" d="M489 440l-54 -53q-47 -148 -95 -332l80 10l-5 -16q-164 -66 -169 -68l-7 7q27 79 99 301h-3q-117 -129 -232 -129q-40 0 -40 33q0 11 2 18q5 21 56 179l-65 7l6 10q88 34 156 41l2 -2q-18 -36 -44 -110t-30 -103q-1 -4 -1 -10q0 -17 16 -17q49 0 108.5 51.5t85.5 98.5 q4 11 11.5 34.5t12.5 36.5q31 16 109 21z"/>
<glyph glyph-name="afii10090" horiz-adv-x="800" unicode="ш" d="M141 388l-78 8l4 10q28 13 80.5 27.5t81.5 15.5l5 -4q-27 -81 -66.5 -211t-46.5 -162q-2 -14 -2 -18q0 -16 11 -16q39 0 100.5 64.5t114.5 158.5q41 75 69 172l76 13l3 -4q-59 -175 -109 -367q-3 -12 -3 -20q0 -17 12 -17q38 0 97.5 62.5t116.5 157.5q38 65 73 176l91 14 l2 -4l-37 -50q-37 -115 -91 -348l2 -1q29 7 56.5 29t34.5 31.5t22 30.5l5 -7q-5 -50 -57 -96t-118 -46q-16 0 -29 3q5 20 14.5 54t24.5 91t29 108h-2q-115 -181 -210 -234q-40 -22 -73 -22q-36 0 -36 43q0 24 11 60q5 16 19 64.5t26 86.5h-2q-109 -179 -207 -231 q-40 -23 -72 -23q-41 0 -41 48q0 20 9 53q43 153 90 300z"/>
<glyph glyph-name="afii10091" horiz-adv-x="800" unicode="щ" d="M141 388l-78 8l4 10q28 13 80.5 27.5t81.5 15.5l5 -4q-27 -81 -66.5 -211t-46.5 -162q-2 -14 -2 -18q0 -16 11 -16q39 0 100.5 64t114.5 158q37 67 69 173l76 13l3 -4q-41 -105 -109 -367q-3 -12 -3 -21q0 -16 12 -16q37 0 96 62t117 157q38 64 74 177l91 14l2 -4 l-37 -50q-36 -113 -91 -347l1 -2q63 13 115 92l4 -8q-7 -28 -14 -42q-15 -138 -45 -192t-102 -67q-31 -5 -46 -14t-29 -27l-12 7q26 67 52 86q85 13 109 43q28 35 48 135q-29 -36 -66 -53.5t-67 -17.5q-19 0 -32 3q5 20 14.5 54t24.5 90t29 108h-3q-112 -178 -209 -233 q-40 -22 -70 -22q-39 0 -39 44q0 23 11 59q5 16 19 64.5t26 86.5h-2q-109 -179 -207 -231q-40 -23 -72 -23q-41 0 -41 48q0 20 9 53q54 191 90 300z"/>
<glyph glyph-name="afii10092" horiz-adv-x="513" unicode="ъ" d="M387 204v1q0 59 -43 59q-32 0 -74.5 -32t-64.5 -63q-13 -24 -19 -61q-3 -16 -3 -31q0 -64 53 -64q58 0 104.5 62t46.5 129zM55 311l-15 10q16 42 53 83t70 42h9q24 0 63 -9t58 -11q14 9 41 22l22 -1q-80 -65 -140 -232h2q93 95 176 95q35 0 55.5 -25.5t20.5 -68.5 q0 -52 -36.5 -105t-97.5 -88q-62 -36 -127 -36q-57 0 -87 26q-22 20 -22 52q0 28 17 77q60 167 143 245v2h-28q-5 0 -27 1.5t-33 1.5h-9q-54 -1 -108 -81z"/>
<glyph glyph-name="afii10093" horiz-adv-x="653" unicode="ы" d="M642 442l-44 -55q-39 -114 -111 -362l1 -2q44 9 127 113l3 -6q-9 -47 -51 -95t-103 -48q-44 0 -44 52q0 20 7 45q56 184 109 343q27 15 104 21zM323 204v1q0 60 -37 60q-32 0 -74.5 -38.5t-62.5 -73.5q-13 -23 -23 -66q-4 -20 -4 -27q0 -46 45 -46q66 0 111 59t45 131z M138 388l-68 9l5 10q21 11 77.5 26t76.5 15l2 -1q-25 -87 -75 -243h2q103 107 177 107q32 0 51.5 -26t19.5 -69q0 -54 -36 -107t-96 -86q-65 -36 -123 -36q-68 0 -111 29l-5 13q85 292 103 359z"/>
<glyph glyph-name="afii10094" horiz-adv-x="465" unicode="ь" d="M338 201v1q0 61 -44 61q-36 0 -81 -39t-65 -74q-16 -31 -23 -64q-3 -13 -3 -26q0 -47 52 -47q69 0 116.5 59.5t47.5 128.5zM137 388l-68 9l5 10q21 11 78 26t79 15q-28 -97 -76 -247h2q108 108 185 108q35 0 57 -26.5t22 -69.5q0 -55 -36.5 -107t-97.5 -85 q-66 -34 -134 -34q-31 0 -64 8.5t-50 20.5l-5 12q77 263 103 360z"/>
<glyph glyph-name="afii10095" horiz-adv-x="417" unicode="э" d="M98 308l-10 -4q-10 45 -10 85v8q78 51 149 51q65 0 109.5 -47.5t44.5 -138.5q0 -121 -79 -198t-184 -77q-49 0 -88 18.5t-50 37.5q23 42 55 81l10 5q2 -22 2 -104q22 -8 52 -8q70 2 124.5 52t72.5 158q-47 -29 -80 -33h-4q-11 0 -39 12q-17 6 -34 6q-35 0 -72 -23v13 q62 57 96 60q23 -4 60 -20q13 -6 31 -6q24 0 44 13q2 10 2 36q0 67 -31 99.5t-77 32.5q-28 0 -44 -8q-32 -68 -50 -101z"/>
<glyph glyph-name="afii10096" horiz-adv-x="661" unicode="ю" d="M490 426h-1q-64 0 -114.5 -103t-50.5 -204q0 -56 18 -82.5t47 -26.5q63 0 112.5 95t49.5 210q0 111 -61 111zM138 389l-69 9l4 9q21 12 77 26.5t79 15.5l2 -2q-22 -73 -58 -195h90q29 86 95.5 141t139.5 55q62 0 98 -48.5t36 -120.5q0 -120 -74.5 -206t-175.5 -86 q-60 0 -98.5 40.5t-39.5 113.5q0 42 8 71h-91q-10 -34 -24 -84.5t-23 -81.5t-13 -46l-80 -8q34 95 117 397z"/>
<glyph glyph-name="afii10097" horiz-adv-x="483" unicode="я" d="M315 222l60 185q-13 5 -49 5q-68 0 -106.5 -29t-38.5 -80q0 -35 28 -58t87 -23h19zM344 56l89 10l-6 -15q-165 -60 -183 -69l-6 6q22 65 44.5 133.5t25.5 77.5q-43 0 -71.5 -14t-58.5 -47q-16 -18 -105 -117q-42 -34 -113 -34h-10l-2 5q9 8 65 68.5t78 81.5q45 49 117 64 l1 2q-53 6 -81 34.5t-28 66.5q0 63 55.5 96.5t147.5 33.5q54 0 88 -9q51 17 109 18l-1 -7l-58 -46q-27 -76 -97 -339z"/>
<glyph glyph-name="afii10071" horiz-adv-x="397" unicode="ё" d="M398 646h5q6 -5 16 -23t12 -28l-1 -5q-6 -10 -24 -27t-28 -22h-4q-24 22 -32 56v2q30 38 56 47zM226 646h4q7 -5 16.5 -23t11.5 -28l-1 -5q-4 -10 -22.5 -27t-28.5 -22h-5q-25 25 -32 56v2q32 38 57 47zM278 425h-1q-44 0 -90.5 -58.5t-68.5 -142.5q49 8 109.5 29 t76.5 43q17 26 17 65q0 31 -12 47.5t-31 16.5zM359 134l4 -23q-41 -59 -95.5 -91.5t-110.5 -32.5t-93.5 32.5t-39.5 109.5v5q0 66 32 137t95.5 124t138.5 53q48 0 75 -28t27 -71q0 -28 -19 -52q-21 -31 -110 -59.5t-150 -38.5q-6 -29 -6 -66q0 -44 19.5 -72.5t60.5 -28.5 q44 0 92 32t78 70h2z"/>
<glyph glyph-name="afii10099" horiz-adv-x="495" unicode="ђ" d="M85 0l-76 -8q29 102 80.5 291t72.5 262h-83l19 31h72q11 40 23 82l-71 13l5 9q29 11 83 22t74 11q-1 -4 -38 -137h186l-19 -31h-178q-6 -23 -23.5 -83t-38 -133t-41.5 -148h3q133 197 255 252q32 15 69 15q18 0 18 -17q0 -13 -7 -35q-24 -87 -84 -310q-18 -72 -46.5 -120 t-76.5 -89q-58 -48 -80 -48q-12 2 -24 18.5t-16 41.5l6 8q41 -15 65 -15q26 0 42 24.5t38 108.5q73 260 98 365q5 17 -5 17q-34 0 -105 -69.5t-122 -154.5q-39 -65 -75 -173z"/>
<glyph glyph-name="afii10100" horiz-adv-x="365" unicode="ѓ" d="M229 498l-11 12l104 147q3 1 11 1q30 0 51 -14v-8zM123 318l-10 -7q-6 18 -18 75q77 62 154 62q43 0 69.5 -27.5t26.5 -68.5q0 -64 -74 -105q-37 -18 -95 -50q-38 -20 -57.5 -40.5t-19.5 -49.5q0 -34 24 -55.5t55 -21.5q12 0 28 4q69 50 99 67l2 -11q-15 -36 -64 -77 q-52 -24 -103 -24q-59 0 -93.5 31t-34.5 79q0 51 70 85q31 15 103 52q41 21 62 43.5t21 57.5q0 32 -18.5 52.5t-48.5 20.5q-25 0 -45 -10q-13 -44 -33 -82z"/>
<glyph glyph-name="afii10101" horiz-adv-x="391" unicode="є" d="M348 116l7 -19q-34 -47 -85.5 -78.5t-114.5 -31.5q-65 0 -98 41.5t-33 106.5q0 121 83.5 217t200.5 96q29 0 53 -7.5t31 -15.5q-5 -32 -41 -98l-9 -4q-8 20 -26 100q-12 2 -17 2q-66 0 -116.5 -65t-67.5 -146q48 37 81 44h4q11 0 40 -12q14 -6 30 -6q34 0 73 24l4 -13 q-49 -56 -98 -61q-25 5 -56 18q-14 4 -22 4q-29 0 -60 -21q-4 -24 -4 -47q0 -48 21.5 -78t63.5 -30q45 0 86.5 25t69.5 55z"/>
<glyph glyph-name="afii10102" horiz-adv-x="337" unicode="ѕ" d="M228 448h1q64 0 95 -29q-6 -21 -21 -51.5t-24 -40.5l-9 -4q-7 37 -13 95q-9 6 -33 6q-39 0 -65 -24t-26 -59q0 -18 10.5 -34.5t23 -28t41.5 -34.5q43 -36 59 -64t16 -61q-1 -52 -47.5 -92t-118.5 -40q-41 0 -80 16.5t-55 32.5q23 51 55 95l9 2q10 -58 13 -110 q18 -10 53 -10q43 0 71.5 24t28.5 59q1 23 -13.5 43t-47.5 47q-47 38 -64.5 66t-17.5 58q0 65 46.5 101.5t112.5 36.5z"/>
<glyph glyph-name="afii10103" horiz-adv-x="271" unicode="і" d="M137 386l-62 11l4 10q24 12 72 26t76 15l2 -3q-105 -342 -126 -420l2 -1q27 9 65.5 46.5t63.5 69.5l3 -6q-8 -48 -52 -97.5t-105 -49.5q-41 0 -41 54q0 23 9 54q14 53 89 291zM232 656h5q6 -7 14.5 -26t8.5 -30l-1 -4q-6 -12 -26 -30t-30 -22h-5q-19 19 -28 58l2 2 q27 37 60 52z"/>
<glyph glyph-name="afii10104" horiz-adv-x="271" unicode="ї" d="M319 646h5q6 -5 16 -23t12 -28l-1 -5q-6 -10 -24 -27t-28 -22h-4q-24 22 -32 56v2q30 38 56 47zM147 646h4q7 -5 16.5 -23t11.5 -28l-1 -5q-4 -10 -22.5 -27t-28.5 -22h-5q-24 25 -32 56v2q32 38 57 47zM137 386l-62 11l4 10q24 12 72 26t76 15l2 -3q-105 -342 -126 -420 l2 -1q27 9 65.5 46.5t63.5 69.5l3 -6q-8 -48 -52 -97.5t-105 -49.5q-41 0 -41 54q0 23 9 54q14 53 89 291z"/>
<glyph glyph-name="afii10105" horiz-adv-x="243" unicode="ј" d="M226 656h5q6 -6 14.5 -25.5t9.5 -30.5l-1 -4q-6 -11 -26.5 -29.5t-30.5 -22.5h-5q-22 22 -27 58v2q28 37 61 52zM136 392l-74 14l6 9q27 12 76.5 22t79.5 11l2 -2q-44 -178 -106 -395q-31 -108 -71 -166q-33 -47 -75 -80.5t-73 -46.5l-14 13q20 13 34.5 25t35.5 37 t39.5 66.5t33.5 97.5q69 251 106 395z"/>
<glyph glyph-name="afii10106" horiz-adv-x="651" unicode="љ" d="M530 203v1q0 60 -40 60q-29 0 -68.5 -28.5t-73.5 -70.5q0 -92 7 -150q8 -2 16 -2q64 0 111.5 60t47.5 130zM-48 16l118 64q26 19 100 133.5t100 177.5l1 4l-72 2l5 10q71 34 136 41h9q-2 -108 -2 -182v-68q103 111 186 111q38 0 59 -25.5t21 -67.5q0 -58 -38 -109.5 t-102 -86.5q-61 -33 -126 -33q-38 0 -73 11q0 17 11 365h-3q-100 -197 -185 -308q-53 -69 -71 -74q-17 0 -40 9t-36 20z"/>
<glyph glyph-name="afii10107" horiz-adv-x="710" unicode="њ" d="M584 199v1q0 63 -44 63q-33 0 -76 -37.5t-63 -72.5q-14 -27 -23 -67q-3 -13 -3 -25q0 -48 52 -48q68 0 112.5 59t44.5 127zM172 249h177q10 32 52 179q37 13 101 20l3 -6l-45 -58q-9 -25 -53 -182h3q100 107 178 107q35 0 56.5 -26.5t21.5 -70.5q0 -55 -35.5 -105.5 t-96.5 -85.5q-59 -34 -126 -34q-33 0 -68.5 8t-49.5 18l-5 11q18 60 55 194q-39 -10 -179 -10q-9 -33 -23 -80.5t-23.5 -80t-13.5 -47.5l-80 -8q20 59 65.5 216t48.5 181l-66 9l5 9q21 12 76.5 26.5t78.5 14.5q-1 -4 -8 -28t-21.5 -74.5t-27.5 -96.5z"/>
<glyph glyph-name="afii10108" horiz-adv-x="508" unicode="ћ" d="M85 0l-76 -8q31 107 85.5 305.5t68.5 248.5h-83l19 30h72q6 20 12.5 46t9.5 36l-71 13l5 9q29 11 83 22t74 11q-3 -11 -15 -54t-23 -83h191l-18 -30h-183q-85 -299 -103 -364h2q56 86 123.5 153t130.5 98q34 15 68 15q18 0 18 -16q0 -10 -6 -32q-29 -97 -57.5 -205.5 t-33.5 -139.5l88 9l-6 -14q-84 -29 -176 -69l-5 3q2 9 54 185t60 209q4 19 -7 19q-32 0 -105.5 -71.5t-123.5 -156.5q-40 -70 -72 -169z"/>
<glyph glyph-name="afii10109" horiz-adv-x="489" unicode="ќ" d="M291 498l-11 12l104 147q3 1 11 1q30 0 51 -14v-8zM134 389l-69 9l4 9q22 11 77 26t75 15l3 -2q-1 -5 -13.5 -47t-29 -97.5t-30.5 -104.5h3q217 236 264 251q35 0 75 -32l-6 -9l-120 -35q-20 -14 -61.5 -52.5t-66.5 -66.5v-4q33 -1 44 -28l87 -174l79 10l-1 -11 q-84 -51 -130 -65l-5 2q-12 22 -47.5 105t-40.5 95q-11 26 -23 26q-10 0 -30 -25q-31 -37 -74 -184l-74 -8q79 244 110 397z"/>
<glyph glyph-name="afii10110" horiz-adv-x="420" unicode="ў" d="M375 623l23 15l7 -2q-18 -58 -52 -87.5t-76 -29.5q-39 0 -60.5 21.5t-21.5 50.5v6q1 6 4 11q6 8 18 18t20 12l3 -4q0 -71 59 -71q46 0 76 60zM41 277l-12 15q17 59 43.5 96.5t45 48t33.5 11.5q46 -4 66 -104q20 -89 20 -242v-45h3q39 59 80 165t46 161l-28 41l3 5 q41 17 73 19q12 0 12 -10q-12 -71 -62 -192q-71 -173 -183 -319q-42 -53 -87 -93.5t-72 -56.5t-37 -16q-6 0 -13.5 6.5t-17 25.5t-15.5 47l2 6q27 -2 94 -28q14 8 44 36t52 59q42 65 42 160v7q-2 165 -35 269q-11 37 -20 37q-4 0 -16.5 -14t-29.5 -40t-31 -55z"/>
<glyph glyph-name="afii10193" horiz-adv-x="543" unicode="џ" d="M140 387l-77 8l5 10q26 12 79 26t83 17l5 -3q-94 -280 -114 -370q-3 -12 -3 -20q0 -17 12 -17q40 0 101 62.5t117 157.5q41 67 75 175q40 11 91 16l3 -6l-38 -50q-35 -111 -92 -348l1 -2q61 15 116 95l4 -8q-6 -53 -58 -98t-120 -45q-15 0 -29 3q16 62 73 257h-2 q-51 -80 -108 -144.5t-106 -92.5q-42 -23 -77 -23q-41 0 -41 43q0 16 8 48q40 146 92 309zM101 -209l-9 14q94 39 99 91q8 86 57 144l4 -1q-12 -38 -12 -85q0 -32 6 -65q0 -9 -6.5 -20t-20.5 -25.5t-45 -29t-73 -23.5z"/>
<glyph glyph-name="afii10050" horiz-adv-x="461" unicode="Ґ" d="M224 619l-80 31l7 11q19 0 57.5 -0.5t59.5 -0.5h211q24 29 94 105l12 3q-18 -73 -45 -148l-3 -2q-27 2 -62 15l-168 -11l-86 -314q-63 -228 -65 -264l92 -35l-6 -11q-21 0 -68.5 1t-75.5 1q-20 0 -60 -1t-60 -1l5 11l79 34q13 33 85 298z"/>
<glyph glyph-name="afii10098" horiz-adv-x="318" unicode="ґ" d="M134 373l-73 21l3 11q142 8 203 16q85 99 104 121l8 -11q-32 -97 -43 -118q-27 -7 -127 -29q-97 -342 -111 -384l-79 -8q73 219 115 381z"/>
<glyph glyph-name="endash" horiz-adv-x="560" unicode="–" d="M508 205h-465l16 46h464z"/>
<glyph glyph-name="emdash" horiz-adv-x="861" unicode="—" d="M811 205h-770l16 46h770z"/>
<glyph glyph-name="quoteleft" horiz-adv-x="180" unicode="‘" d="M256 697l10 -14q-35 -23 -57 -55.5t-23 -66.5q0 -11 5 -21l31 -20v-8l-63 -42h-8q-8 5 -17 20.5t-9 38.5q0 52 37.5 96.5t93.5 71.5z"/>
<glyph glyph-name="quoteright" horiz-adv-x="180" unicode="’" d="M115 466l-11 15q35 23 57 55.5t23 66.5q0 9 -4 21l-32 19l1 8l62 42h9q8 -5 17 -21t9 -41q-1 -50 -38 -93t-93 -72z"/>
<glyph glyph-name="quotesinglbase" horiz-adv-x="188" unicode="‚" d="M-27 -100l-11 14q78 60 78 126q0 13 -4 22l-33 20l1 8l63 42h8q8 -3 18 -21t10 -44q0 -49 -36.5 -93t-93.5 -74z"/>
<glyph glyph-name="quotedblleft" horiz-adv-x="314" unicode="“" d="M256 697l11 -14q-35 -23 -57.5 -55.5t-23.5 -66.5q0 -11 5 -21l32 -20l-1 -8l-63 -42h-8q-8 5 -17 20.5t-9 39.5q0 51 37.5 95.5t93.5 71.5zM390 697l11 -14q-35 -23 -57 -55.5t-23 -66.5q0 -9 4 -21l32 -20l-1 -8l-62 -42h-8q-8 5 -17 20.5t-9 39.5q0 51 37.5 95.5 t92.5 71.5z"/>
<glyph glyph-name="quotedblright" horiz-adv-x="314" unicode="”" d="M248 466l-10 14q79 55 80 122q0 13 -4 21l-33 20l1 8l62 42h9q8 -5 17 -20.5t9 -38.5q0 -52 -37 -96t-94 -72zM115 466l-10 14q34 24 56 56.5t23 66.5q0 12 -4 20l-33 20l1 8l63 42h8q9 -4 17.5 -19.5t8.5 -39.5q0 -52 -37 -95.5t-93 -72.5z"/>
<glyph glyph-name="quotedblbase" horiz-adv-x="323" unicode="„" d="M105 -100l-11 14q78 58 78 126q0 13 -4 22l-33 20l1 8l62 42h9q8 -3 18 -21t10 -44q0 -49 -36.5 -93t-93.5 -74zM-34 -100l-11 14q78 60 78 126q0 13 -4 22l-33 20l1 8l63 42h8q8 -3 18 -21t10 -44q0 -49 -36.5 -93t-93.5 -74z"/>
<glyph glyph-name="bullet" horiz-adv-x="342" unicode="•" d="M200 349h11q18 -14 46 -58t35 -71v-10q-13 -26 -61 -68.5t-73 -52.5h-11q-21 17 -48 58.5t-40 77.5l4 8q33 43 72.5 74.5t64.5 41.5z"/>
<glyph glyph-name="guilsinglleft" horiz-adv-x="302" unicode="‹" d="M204 44l-12 -11q-30 55 -71.5 109t-67.5 79q36 25 96.5 78.5t110.5 108.5l7 -12q-53 -88 -130 -177q45 -97 67 -175z"/>
<glyph glyph-name="guilsinglright" horiz-adv-x="302" unicode="›" d="M92 397l12 11q30 -55 71 -109t67 -79q-39 -28 -99 -81t-107 -106l-7 12q43 75 130 177q-47 106 -67 175z"/>
<glyph glyph-name="fraction" horiz-adv-x="97" unicode="⁄" d="M339 661l17 -22q-390 -475 -551 -674l-18 23q479 582 552 673z"/>
<glyph glyph-name="foursuperior" horiz-adv-x="307" unicode="⁴" d="M254 552l54 168h-2q-77 -74 -159 -166zM302 528l-18 -69l50 -25l-5 -8q-14 0 -40.5 1t-39.5 1q-15 0 -43.5 -1t-42.5 -1l4 8l58 24l22 69l-142 -2l-6 15q31 39 110.5 118t95.5 89q18 9 60 13l-57 -209l34 -1q17 14 35 23l5 -1q-2 -7 -12.5 -34t-15.5 -36l-7 -1 q-7 14 -10 28z"/>
<glyph glyph-name="Euro" d="M75 392h36q41 114 124 181.5t191 67.5q73 0 124 -42q-9 -25 -48 -92l-9 -3q-6 25 -6 77v23q-22 8 -49 8q-84 0 -146.5 -56.5t-95.5 -161.5l288 4l-22 -35l-273 4q-11 -33 -13 -70l265 4l-22 -36l-245 4q-1 -11 -1 -32q0 -95 33.5 -150.5t95.5 -55.5q12 0 30 4 q26 19 69 53.5t62 47.5l4 -12q-42 -67 -86 -104q-48 -20 -101 -20q-90 0 -141 70.5t-51 181.5v18h-59l14 25h46q5 44 14 72h-42z" unicode="€"/>
<glyph glyph-name="afii61352" horiz-adv-x="837" unicode="№" d="M745 154l-218 -10l31 43h228v-3zM676 256h1q31 0 56 35t36.5 78t11.5 77q0 71 -45 71q-44 0 -77 -64t-33 -120q0 -77 50 -77zM676 234h-1q-58 0 -86 33t-28 84q0 70 50.5 128.5t127.5 58.5q47 0 76 -32t29 -86q0 -81 -51.5 -133.5t-116.5 -52.5zM145 622l5 9 q80 22 127 25l4 -62q78 -338 114 -485h3q13 48 50.5 195t48.5 188q14 52 32 87t36 49.5t30.5 19.5t23.5 5q30 -8 46 -26l-3 -7l-93 -47q-24 -28 -52 -129l-107 -390l28 -56l-6 -7l-83 -8q-18 70 -121 534h-2q-28 -102 -102 -387q-13 -47 -31 -79.5t-36 -45.5t-29.5 -17.5 t-21.5 -4.5q-26 16 -37 38l3 6l83 35q24 22 69 182l90 328q-12 26 -23.5 34t-45.5 16z"/>
<glyph glyph-name="uni2215" horiz-adv-x="97" unicode="∕" d="M339 661l17 -22q-390 -475 -551 -674l-18 23q479 582 552 673z"/>
<glyph glyph-name="r.end" horiz-adv-x="402" unicode="" d="M54 398l4 8q96 40 136 42v-14q0 -72 -31 -190h2q68 119 117 161.5t89 42.5q20 0 69 -17q38 24 61 44l9 -13q-8 -12 -34.5 -49t-41.5 -60q-52 34 -98 34q-67 0 -152 -161q-41 -77 -84 -226l-77 -8q94 293 104 394z"/>
</font>
</defs>
</svg>
